G04 #@! TF.GenerationSoftware,KiCad,Pcbnew,(5.1.5-0-10_14)*
G04 #@! TF.CreationDate,2020-04-25T21:08:45+01:00*
G04 #@! TF.ProjectId,GlassBlower,476c6173-7342-46c6-9f77-65722e6b6963,rev?*
G04 #@! TF.SameCoordinates,Original*
G04 #@! TF.FileFunction,Soldermask,Bot*
G04 #@! TF.FilePolarity,Negative*
%FSLAX46Y46*%
G04 Gerber Fmt 4.6, Leading zero omitted, Abs format (unit mm)*
G04 Created by KiCad (PCBNEW (5.1.5-0-10_14)) date 2020-04-25 21:08:45*
%MOMM*%
%LPD*%
G04 APERTURE LIST*
%ADD10R,2.000000X2.000000*%
%ADD11O,2.000000X2.000000*%
%ADD12C,2.000000*%
%ADD13C,2.400000*%
%ADD14C,2.740000*%
%ADD15C,3.399740*%
%ADD16R,3.399740X3.399740*%
%ADD17C,0.100000*%
%ADD18R,1.500000X2.200000*%
%ADD19R,3.900120X3.900120*%
%ADD20R,2.200000X2.200000*%
%ADD21C,2.200000*%
%ADD22R,2.200000X1.500000*%
%ADD23C,2.178000*%
G04 APERTURE END LIST*
D10*
X150340000Y-74000000D03*
D11*
X157960000Y-81620000D03*
X150340000Y-76540000D03*
X157960000Y-79080000D03*
X150340000Y-79080000D03*
X157960000Y-76540000D03*
X150340000Y-81620000D03*
X157960000Y-74000000D03*
D10*
X164340000Y-82500000D03*
D12*
X164340000Y-85000000D03*
X123340000Y-77000000D03*
X123340000Y-72000000D03*
D13*
X144340000Y-65500000D03*
D14*
X128340000Y-60500000D03*
X128340000Y-65500000D03*
X128340000Y-70500000D03*
D15*
X124500000Y-92500000D03*
D16*
X120690000Y-92500000D03*
D17*
G36*
X136141756Y-86071806D02*
G01*
X136178159Y-86077206D01*
X136213857Y-86086147D01*
X136248506Y-86098545D01*
X136281774Y-86114280D01*
X136313339Y-86133199D01*
X136342897Y-86155121D01*
X136370165Y-86179835D01*
X136394879Y-86207103D01*
X136416801Y-86236661D01*
X136435720Y-86268226D01*
X136451455Y-86301494D01*
X136463853Y-86336143D01*
X136472794Y-86371841D01*
X136478194Y-86408244D01*
X136480000Y-86445000D01*
X136480000Y-87895000D01*
X136478194Y-87931756D01*
X136472794Y-87968159D01*
X136463853Y-88003857D01*
X136451455Y-88038506D01*
X136435720Y-88071774D01*
X136416801Y-88103339D01*
X136394879Y-88132897D01*
X136370165Y-88160165D01*
X136342897Y-88184879D01*
X136313339Y-88206801D01*
X136281774Y-88225720D01*
X136248506Y-88241455D01*
X136213857Y-88253853D01*
X136178159Y-88262794D01*
X136141756Y-88268194D01*
X136105000Y-88270000D01*
X135355000Y-88270000D01*
X135318244Y-88268194D01*
X135281841Y-88262794D01*
X135246143Y-88253853D01*
X135211494Y-88241455D01*
X135178226Y-88225720D01*
X135146661Y-88206801D01*
X135117103Y-88184879D01*
X135089835Y-88160165D01*
X135065121Y-88132897D01*
X135043199Y-88103339D01*
X135024280Y-88071774D01*
X135008545Y-88038506D01*
X134996147Y-88003857D01*
X134987206Y-87968159D01*
X134981806Y-87931756D01*
X134980000Y-87895000D01*
X134980000Y-86445000D01*
X134981806Y-86408244D01*
X134987206Y-86371841D01*
X134996147Y-86336143D01*
X135008545Y-86301494D01*
X135024280Y-86268226D01*
X135043199Y-86236661D01*
X135065121Y-86207103D01*
X135089835Y-86179835D01*
X135117103Y-86155121D01*
X135146661Y-86133199D01*
X135178226Y-86114280D01*
X135211494Y-86098545D01*
X135246143Y-86086147D01*
X135281841Y-86077206D01*
X135318244Y-86071806D01*
X135355000Y-86070000D01*
X136105000Y-86070000D01*
X136141756Y-86071806D01*
G37*
G36*
X134871756Y-84001806D02*
G01*
X134908159Y-84007206D01*
X134943857Y-84016147D01*
X134978506Y-84028545D01*
X135011774Y-84044280D01*
X135043339Y-84063199D01*
X135072897Y-84085121D01*
X135100165Y-84109835D01*
X135124879Y-84137103D01*
X135146801Y-84166661D01*
X135165720Y-84198226D01*
X135181455Y-84231494D01*
X135193853Y-84266143D01*
X135202794Y-84301841D01*
X135208194Y-84338244D01*
X135210000Y-84375000D01*
X135210000Y-85825000D01*
X135208194Y-85861756D01*
X135202794Y-85898159D01*
X135193853Y-85933857D01*
X135181455Y-85968506D01*
X135165720Y-86001774D01*
X135146801Y-86033339D01*
X135124879Y-86062897D01*
X135100165Y-86090165D01*
X135072897Y-86114879D01*
X135043339Y-86136801D01*
X135011774Y-86155720D01*
X134978506Y-86171455D01*
X134943857Y-86183853D01*
X134908159Y-86192794D01*
X134871756Y-86198194D01*
X134835000Y-86200000D01*
X134085000Y-86200000D01*
X134048244Y-86198194D01*
X134011841Y-86192794D01*
X133976143Y-86183853D01*
X133941494Y-86171455D01*
X133908226Y-86155720D01*
X133876661Y-86136801D01*
X133847103Y-86114879D01*
X133819835Y-86090165D01*
X133795121Y-86062897D01*
X133773199Y-86033339D01*
X133754280Y-86001774D01*
X133738545Y-85968506D01*
X133726147Y-85933857D01*
X133717206Y-85898159D01*
X133711806Y-85861756D01*
X133710000Y-85825000D01*
X133710000Y-84375000D01*
X133711806Y-84338244D01*
X133717206Y-84301841D01*
X133726147Y-84266143D01*
X133738545Y-84231494D01*
X133754280Y-84198226D01*
X133773199Y-84166661D01*
X133795121Y-84137103D01*
X133819835Y-84109835D01*
X133847103Y-84085121D01*
X133876661Y-84063199D01*
X133908226Y-84044280D01*
X133941494Y-84028545D01*
X133976143Y-84016147D01*
X134011841Y-84007206D01*
X134048244Y-84001806D01*
X134085000Y-84000000D01*
X134835000Y-84000000D01*
X134871756Y-84001806D01*
G37*
D18*
X137000000Y-85100000D03*
D12*
X158840000Y-70500000D03*
D11*
X151220000Y-70500000D03*
D19*
X144340000Y-54500000D03*
X144340000Y-48500520D03*
X139641000Y-51500260D03*
D12*
X149840000Y-88500000D03*
D11*
X157460000Y-88500000D03*
D12*
X119500000Y-68000000D03*
D11*
X119500000Y-60380000D03*
D10*
X135000000Y-46500000D03*
D11*
X135000000Y-54120000D03*
X169340000Y-70880000D03*
D10*
X169340000Y-78500000D03*
D11*
X168840000Y-89120000D03*
D12*
X168840000Y-81500000D03*
D11*
X139720000Y-82500000D03*
D12*
X147340000Y-82500000D03*
X119500000Y-78120000D03*
D11*
X119500000Y-70500000D03*
D12*
X131000000Y-54000000D03*
D11*
X131000000Y-46380000D03*
X147460000Y-79000000D03*
D12*
X139840000Y-79000000D03*
D11*
X152220000Y-85000000D03*
D12*
X159840000Y-85000000D03*
X169000000Y-54000000D03*
D11*
X169000000Y-61620000D03*
X165500000Y-61620000D03*
D12*
X165500000Y-54000000D03*
D18*
X130540000Y-85100000D03*
D17*
G36*
X128411756Y-84001806D02*
G01*
X128448159Y-84007206D01*
X128483857Y-84016147D01*
X128518506Y-84028545D01*
X128551774Y-84044280D01*
X128583339Y-84063199D01*
X128612897Y-84085121D01*
X128640165Y-84109835D01*
X128664879Y-84137103D01*
X128686801Y-84166661D01*
X128705720Y-84198226D01*
X128721455Y-84231494D01*
X128733853Y-84266143D01*
X128742794Y-84301841D01*
X128748194Y-84338244D01*
X128750000Y-84375000D01*
X128750000Y-85825000D01*
X128748194Y-85861756D01*
X128742794Y-85898159D01*
X128733853Y-85933857D01*
X128721455Y-85968506D01*
X128705720Y-86001774D01*
X128686801Y-86033339D01*
X128664879Y-86062897D01*
X128640165Y-86090165D01*
X128612897Y-86114879D01*
X128583339Y-86136801D01*
X128551774Y-86155720D01*
X128518506Y-86171455D01*
X128483857Y-86183853D01*
X128448159Y-86192794D01*
X128411756Y-86198194D01*
X128375000Y-86200000D01*
X127625000Y-86200000D01*
X127588244Y-86198194D01*
X127551841Y-86192794D01*
X127516143Y-86183853D01*
X127481494Y-86171455D01*
X127448226Y-86155720D01*
X127416661Y-86136801D01*
X127387103Y-86114879D01*
X127359835Y-86090165D01*
X127335121Y-86062897D01*
X127313199Y-86033339D01*
X127294280Y-86001774D01*
X127278545Y-85968506D01*
X127266147Y-85933857D01*
X127257206Y-85898159D01*
X127251806Y-85861756D01*
X127250000Y-85825000D01*
X127250000Y-84375000D01*
X127251806Y-84338244D01*
X127257206Y-84301841D01*
X127266147Y-84266143D01*
X127278545Y-84231494D01*
X127294280Y-84198226D01*
X127313199Y-84166661D01*
X127335121Y-84137103D01*
X127359835Y-84109835D01*
X127387103Y-84085121D01*
X127416661Y-84063199D01*
X127448226Y-84044280D01*
X127481494Y-84028545D01*
X127516143Y-84016147D01*
X127551841Y-84007206D01*
X127588244Y-84001806D01*
X127625000Y-84000000D01*
X128375000Y-84000000D01*
X128411756Y-84001806D01*
G37*
G36*
X129681756Y-86071806D02*
G01*
X129718159Y-86077206D01*
X129753857Y-86086147D01*
X129788506Y-86098545D01*
X129821774Y-86114280D01*
X129853339Y-86133199D01*
X129882897Y-86155121D01*
X129910165Y-86179835D01*
X129934879Y-86207103D01*
X129956801Y-86236661D01*
X129975720Y-86268226D01*
X129991455Y-86301494D01*
X130003853Y-86336143D01*
X130012794Y-86371841D01*
X130018194Y-86408244D01*
X130020000Y-86445000D01*
X130020000Y-87895000D01*
X130018194Y-87931756D01*
X130012794Y-87968159D01*
X130003853Y-88003857D01*
X129991455Y-88038506D01*
X129975720Y-88071774D01*
X129956801Y-88103339D01*
X129934879Y-88132897D01*
X129910165Y-88160165D01*
X129882897Y-88184879D01*
X129853339Y-88206801D01*
X129821774Y-88225720D01*
X129788506Y-88241455D01*
X129753857Y-88253853D01*
X129718159Y-88262794D01*
X129681756Y-88268194D01*
X129645000Y-88270000D01*
X128895000Y-88270000D01*
X128858244Y-88268194D01*
X128821841Y-88262794D01*
X128786143Y-88253853D01*
X128751494Y-88241455D01*
X128718226Y-88225720D01*
X128686661Y-88206801D01*
X128657103Y-88184879D01*
X128629835Y-88160165D01*
X128605121Y-88132897D01*
X128583199Y-88103339D01*
X128564280Y-88071774D01*
X128548545Y-88038506D01*
X128536147Y-88003857D01*
X128527206Y-87968159D01*
X128521806Y-87931756D01*
X128520000Y-87895000D01*
X128520000Y-86445000D01*
X128521806Y-86408244D01*
X128527206Y-86371841D01*
X128536147Y-86336143D01*
X128548545Y-86301494D01*
X128564280Y-86268226D01*
X128583199Y-86236661D01*
X128605121Y-86207103D01*
X128629835Y-86179835D01*
X128657103Y-86155121D01*
X128686661Y-86133199D01*
X128718226Y-86114280D01*
X128751494Y-86098545D01*
X128786143Y-86086147D01*
X128821841Y-86077206D01*
X128858244Y-86071806D01*
X128895000Y-86070000D01*
X129645000Y-86070000D01*
X129681756Y-86071806D01*
G37*
D12*
X152000000Y-49500000D03*
D10*
X152000000Y-47000000D03*
X133840000Y-77500000D03*
D12*
X136340000Y-77500000D03*
X127000000Y-46500000D03*
D11*
X127000000Y-54120000D03*
D12*
X139840000Y-86000000D03*
D11*
X147460000Y-86000000D03*
D12*
X153340000Y-61500000D03*
D11*
X153340000Y-53880000D03*
D12*
X130340000Y-77500000D03*
D10*
X127840000Y-77500000D03*
X122340000Y-55000000D03*
D12*
X122340000Y-57500000D03*
X165840000Y-69000000D03*
X165840000Y-64000000D03*
X166340000Y-78500000D03*
X161340000Y-78500000D03*
D10*
X157500000Y-47000000D03*
D12*
X157500000Y-49500000D03*
X161840000Y-59000000D03*
X161840000Y-54000000D03*
X158340000Y-54000000D03*
X158340000Y-59000000D03*
D10*
X121840000Y-88500000D03*
D11*
X121840000Y-80880000D03*
X124840000Y-80880000D03*
D10*
X124840000Y-88500000D03*
D20*
X145630000Y-92500000D03*
D21*
X143090000Y-92500000D03*
D16*
X162190000Y-92500000D03*
D15*
X166000000Y-92500000D03*
D16*
X130000000Y-92500000D03*
D15*
X133810000Y-92500000D03*
X137620000Y-92500000D03*
D17*
G36*
X162931756Y-72481806D02*
G01*
X162968159Y-72487206D01*
X163003857Y-72496147D01*
X163038506Y-72508545D01*
X163071774Y-72524280D01*
X163103339Y-72543199D01*
X163132897Y-72565121D01*
X163160165Y-72589835D01*
X163184879Y-72617103D01*
X163206801Y-72646661D01*
X163225720Y-72678226D01*
X163241455Y-72711494D01*
X163253853Y-72746143D01*
X163262794Y-72781841D01*
X163268194Y-72818244D01*
X163270000Y-72855000D01*
X163270000Y-73605000D01*
X163268194Y-73641756D01*
X163262794Y-73678159D01*
X163253853Y-73713857D01*
X163241455Y-73748506D01*
X163225720Y-73781774D01*
X163206801Y-73813339D01*
X163184879Y-73842897D01*
X163160165Y-73870165D01*
X163132897Y-73894879D01*
X163103339Y-73916801D01*
X163071774Y-73935720D01*
X163038506Y-73951455D01*
X163003857Y-73963853D01*
X162968159Y-73972794D01*
X162931756Y-73978194D01*
X162895000Y-73980000D01*
X161445000Y-73980000D01*
X161408244Y-73978194D01*
X161371841Y-73972794D01*
X161336143Y-73963853D01*
X161301494Y-73951455D01*
X161268226Y-73935720D01*
X161236661Y-73916801D01*
X161207103Y-73894879D01*
X161179835Y-73870165D01*
X161155121Y-73842897D01*
X161133199Y-73813339D01*
X161114280Y-73781774D01*
X161098545Y-73748506D01*
X161086147Y-73713857D01*
X161077206Y-73678159D01*
X161071806Y-73641756D01*
X161070000Y-73605000D01*
X161070000Y-72855000D01*
X161071806Y-72818244D01*
X161077206Y-72781841D01*
X161086147Y-72746143D01*
X161098545Y-72711494D01*
X161114280Y-72678226D01*
X161133199Y-72646661D01*
X161155121Y-72617103D01*
X161179835Y-72589835D01*
X161207103Y-72565121D01*
X161236661Y-72543199D01*
X161268226Y-72524280D01*
X161301494Y-72508545D01*
X161336143Y-72496147D01*
X161371841Y-72487206D01*
X161408244Y-72481806D01*
X161445000Y-72480000D01*
X162895000Y-72480000D01*
X162931756Y-72481806D01*
G37*
G36*
X165001756Y-71211806D02*
G01*
X165038159Y-71217206D01*
X165073857Y-71226147D01*
X165108506Y-71238545D01*
X165141774Y-71254280D01*
X165173339Y-71273199D01*
X165202897Y-71295121D01*
X165230165Y-71319835D01*
X165254879Y-71347103D01*
X165276801Y-71376661D01*
X165295720Y-71408226D01*
X165311455Y-71441494D01*
X165323853Y-71476143D01*
X165332794Y-71511841D01*
X165338194Y-71548244D01*
X165340000Y-71585000D01*
X165340000Y-72335000D01*
X165338194Y-72371756D01*
X165332794Y-72408159D01*
X165323853Y-72443857D01*
X165311455Y-72478506D01*
X165295720Y-72511774D01*
X165276801Y-72543339D01*
X165254879Y-72572897D01*
X165230165Y-72600165D01*
X165202897Y-72624879D01*
X165173339Y-72646801D01*
X165141774Y-72665720D01*
X165108506Y-72681455D01*
X165073857Y-72693853D01*
X165038159Y-72702794D01*
X165001756Y-72708194D01*
X164965000Y-72710000D01*
X163515000Y-72710000D01*
X163478244Y-72708194D01*
X163441841Y-72702794D01*
X163406143Y-72693853D01*
X163371494Y-72681455D01*
X163338226Y-72665720D01*
X163306661Y-72646801D01*
X163277103Y-72624879D01*
X163249835Y-72600165D01*
X163225121Y-72572897D01*
X163203199Y-72543339D01*
X163184280Y-72511774D01*
X163168545Y-72478506D01*
X163156147Y-72443857D01*
X163147206Y-72408159D01*
X163141806Y-72371756D01*
X163140000Y-72335000D01*
X163140000Y-71585000D01*
X163141806Y-71548244D01*
X163147206Y-71511841D01*
X163156147Y-71476143D01*
X163168545Y-71441494D01*
X163184280Y-71408226D01*
X163203199Y-71376661D01*
X163225121Y-71347103D01*
X163249835Y-71319835D01*
X163277103Y-71295121D01*
X163306661Y-71273199D01*
X163338226Y-71254280D01*
X163371494Y-71238545D01*
X163406143Y-71226147D01*
X163441841Y-71217206D01*
X163478244Y-71211806D01*
X163515000Y-71210000D01*
X164965000Y-71210000D01*
X165001756Y-71211806D01*
G37*
D22*
X164240000Y-74500000D03*
D12*
X124840000Y-60500000D03*
D11*
X124840000Y-68120000D03*
D15*
X149880000Y-92500000D03*
X153690000Y-92500000D03*
D16*
X157500000Y-92500000D03*
D23*
X161000000Y-67040000D03*
X161000000Y-64500000D03*
X161000000Y-61960000D03*
M02*
