M48
; DRILL file {KiCad (5.1.5-0-10_14)} date Saturday, 25 April 2020 at 21:08:52
; FORMAT={-:-/ absolute / metric / decimal}
; #@! TF.CreationDate,2020-04-25T21:08:52+01:00
; #@! TF.GenerationSoftware,Kicad,Pcbnew,(5.1.5-0-10_14)
FMAT,2
METRIC
T1C0.750
T2C0.800
T3C0.900
T4C1.001
T5C1.092
T6C1.199
T7C1.300
T8C2.000
%
G90
G05
T1
X128.0Y-85.5
X129.27Y-86.77
X130.54Y-85.5
X162.57Y-73.23
X163.84Y-71.96
X163.84Y-74.5
X134.46Y-85.5
X135.73Y-86.77
X137.0Y-85.5
T2
X150.34Y-74.0
X150.34Y-76.54
X150.34Y-79.08
X150.34Y-81.62
X157.96Y-74.0
X157.96Y-76.54
X157.96Y-79.08
X157.96Y-81.62
X139.84Y-79.0
X147.46Y-79.0
X161.34Y-78.5
X166.34Y-78.5
X133.84Y-77.5
X136.34Y-77.5
X164.34Y-82.5
X164.34Y-85.0
X127.0Y-46.5
X127.0Y-54.12
X157.5Y-47.0
X157.5Y-49.5
X122.34Y-55.0
X122.34Y-57.5
X121.84Y-80.88
X121.84Y-88.5
X169.34Y-70.88
X169.34Y-78.5
X119.5Y-70.5
X119.5Y-78.12
X124.84Y-60.5
X124.84Y-68.12
X119.5Y-60.38
X119.5Y-68.0
X139.84Y-86.0
X147.46Y-86.0
X168.84Y-81.5
X168.84Y-89.12
X153.34Y-53.88
X153.34Y-61.5
X124.84Y-80.88
X124.84Y-88.5
X151.22Y-70.5
X158.84Y-70.5
X165.5Y-54.0
X165.5Y-61.62
X127.84Y-77.5
X130.34Y-77.5
X123.34Y-72.0
X123.34Y-77.0
X165.84Y-64.0
X165.84Y-69.0
X149.84Y-88.5
X157.46Y-88.5
X152.22Y-85.0
X159.84Y-85.0
X131.0Y-46.38
X131.0Y-54.0
X135.0Y-46.5
X135.0Y-54.12
X161.84Y-54.0
X161.84Y-59.0
X139.72Y-82.5
X147.34Y-82.5
X158.34Y-54.0
X158.34Y-59.0
X152.0Y-47.0
X152.0Y-49.5
X169.0Y-54.0
X169.0Y-61.62
T3
X143.09Y-92.5
X145.63Y-92.5
T5
X161.0Y-61.96
X161.0Y-64.5
X161.0Y-67.04
T6
X149.88Y-92.5
X153.69Y-92.5
X157.5Y-92.5
X120.69Y-92.5
X124.5Y-92.5
X130.0Y-92.5
X133.81Y-92.5
X137.62Y-92.5
X162.19Y-92.5
X166.0Y-92.5
T7
X128.34Y-60.5
X128.34Y-65.5
X128.34Y-70.5
T8
X144.34Y-65.5
T4
G00X139.641Y-50.501
M15
G01X139.641Y-52.5
M16
G05
G00X145.339Y-48.501
M15
G01X143.341Y-48.501
M16
G05
G00X145.339Y-54.5
M15
G01X143.341Y-54.5
M16
G05
T0
M30
