G04 #@! TF.GenerationSoftware,KiCad,Pcbnew,(5.1.5-0-10_14)*
G04 #@! TF.CreationDate,2020-04-25T21:08:45+01:00*
G04 #@! TF.ProjectId,GlassBlower,476c6173-7342-46c6-9f77-65722e6b6963,rev?*
G04 #@! TF.SameCoordinates,Original*
G04 #@! TF.FileFunction,Copper,L1,Top*
G04 #@! TF.FilePolarity,Positive*
%FSLAX46Y46*%
G04 Gerber Fmt 4.6, Leading zero omitted, Abs format (unit mm)*
G04 Created by KiCad (PCBNEW (5.1.5-0-10_14)) date 2020-04-25 21:08:45*
%MOMM*%
%LPD*%
G04 APERTURE LIST*
%ADD10R,1.600000X1.600000*%
%ADD11O,1.600000X1.600000*%
%ADD12C,1.600000*%
%ADD13C,2.340000*%
%ADD14C,2.999740*%
%ADD15R,2.999740X2.999740*%
%ADD16C,0.100000*%
%ADD17R,1.100000X1.800000*%
%ADD18R,3.500120X3.500120*%
%ADD19R,1.800000X1.800000*%
%ADD20C,1.800000*%
%ADD21R,1.800000X1.100000*%
%ADD22C,1.778000*%
%ADD23C,0.500000*%
%ADD24C,0.300000*%
G04 APERTURE END LIST*
D10*
X150340000Y-74000000D03*
D11*
X157960000Y-81620000D03*
X150340000Y-76540000D03*
X157960000Y-79080000D03*
X150340000Y-79080000D03*
X157960000Y-76540000D03*
X150340000Y-81620000D03*
X157960000Y-74000000D03*
D10*
X164340000Y-82500000D03*
D12*
X164340000Y-85000000D03*
X123340000Y-77000000D03*
X123340000Y-72000000D03*
D13*
X128340000Y-60500000D03*
X128340000Y-65500000D03*
X128340000Y-70500000D03*
D14*
X124500000Y-92500000D03*
D15*
X120690000Y-92500000D03*
G04 #@! TA.AperFunction,ComponentPad*
D16*
G36*
X136031955Y-86271324D02*
G01*
X136058650Y-86275284D01*
X136084828Y-86281841D01*
X136110238Y-86290933D01*
X136134634Y-86302472D01*
X136157782Y-86316346D01*
X136179458Y-86332422D01*
X136199454Y-86350546D01*
X136217578Y-86370542D01*
X136233654Y-86392218D01*
X136247528Y-86415366D01*
X136259067Y-86439762D01*
X136268159Y-86465172D01*
X136274716Y-86491350D01*
X136278676Y-86518045D01*
X136280000Y-86545000D01*
X136280000Y-87795000D01*
X136278676Y-87821955D01*
X136274716Y-87848650D01*
X136268159Y-87874828D01*
X136259067Y-87900238D01*
X136247528Y-87924634D01*
X136233654Y-87947782D01*
X136217578Y-87969458D01*
X136199454Y-87989454D01*
X136179458Y-88007578D01*
X136157782Y-88023654D01*
X136134634Y-88037528D01*
X136110238Y-88049067D01*
X136084828Y-88058159D01*
X136058650Y-88064716D01*
X136031955Y-88068676D01*
X136005000Y-88070000D01*
X135455000Y-88070000D01*
X135428045Y-88068676D01*
X135401350Y-88064716D01*
X135375172Y-88058159D01*
X135349762Y-88049067D01*
X135325366Y-88037528D01*
X135302218Y-88023654D01*
X135280542Y-88007578D01*
X135260546Y-87989454D01*
X135242422Y-87969458D01*
X135226346Y-87947782D01*
X135212472Y-87924634D01*
X135200933Y-87900238D01*
X135191841Y-87874828D01*
X135185284Y-87848650D01*
X135181324Y-87821955D01*
X135180000Y-87795000D01*
X135180000Y-86545000D01*
X135181324Y-86518045D01*
X135185284Y-86491350D01*
X135191841Y-86465172D01*
X135200933Y-86439762D01*
X135212472Y-86415366D01*
X135226346Y-86392218D01*
X135242422Y-86370542D01*
X135260546Y-86350546D01*
X135280542Y-86332422D01*
X135302218Y-86316346D01*
X135325366Y-86302472D01*
X135349762Y-86290933D01*
X135375172Y-86281841D01*
X135401350Y-86275284D01*
X135428045Y-86271324D01*
X135455000Y-86270000D01*
X136005000Y-86270000D01*
X136031955Y-86271324D01*
G37*
G04 #@! TD.AperFunction*
G04 #@! TA.AperFunction,ComponentPad*
G36*
X134761955Y-84201324D02*
G01*
X134788650Y-84205284D01*
X134814828Y-84211841D01*
X134840238Y-84220933D01*
X134864634Y-84232472D01*
X134887782Y-84246346D01*
X134909458Y-84262422D01*
X134929454Y-84280546D01*
X134947578Y-84300542D01*
X134963654Y-84322218D01*
X134977528Y-84345366D01*
X134989067Y-84369762D01*
X134998159Y-84395172D01*
X135004716Y-84421350D01*
X135008676Y-84448045D01*
X135010000Y-84475000D01*
X135010000Y-85725000D01*
X135008676Y-85751955D01*
X135004716Y-85778650D01*
X134998159Y-85804828D01*
X134989067Y-85830238D01*
X134977528Y-85854634D01*
X134963654Y-85877782D01*
X134947578Y-85899458D01*
X134929454Y-85919454D01*
X134909458Y-85937578D01*
X134887782Y-85953654D01*
X134864634Y-85967528D01*
X134840238Y-85979067D01*
X134814828Y-85988159D01*
X134788650Y-85994716D01*
X134761955Y-85998676D01*
X134735000Y-86000000D01*
X134185000Y-86000000D01*
X134158045Y-85998676D01*
X134131350Y-85994716D01*
X134105172Y-85988159D01*
X134079762Y-85979067D01*
X134055366Y-85967528D01*
X134032218Y-85953654D01*
X134010542Y-85937578D01*
X133990546Y-85919454D01*
X133972422Y-85899458D01*
X133956346Y-85877782D01*
X133942472Y-85854634D01*
X133930933Y-85830238D01*
X133921841Y-85804828D01*
X133915284Y-85778650D01*
X133911324Y-85751955D01*
X133910000Y-85725000D01*
X133910000Y-84475000D01*
X133911324Y-84448045D01*
X133915284Y-84421350D01*
X133921841Y-84395172D01*
X133930933Y-84369762D01*
X133942472Y-84345366D01*
X133956346Y-84322218D01*
X133972422Y-84300542D01*
X133990546Y-84280546D01*
X134010542Y-84262422D01*
X134032218Y-84246346D01*
X134055366Y-84232472D01*
X134079762Y-84220933D01*
X134105172Y-84211841D01*
X134131350Y-84205284D01*
X134158045Y-84201324D01*
X134185000Y-84200000D01*
X134735000Y-84200000D01*
X134761955Y-84201324D01*
G37*
G04 #@! TD.AperFunction*
D17*
X137000000Y-85100000D03*
D12*
X158840000Y-70500000D03*
D11*
X151220000Y-70500000D03*
D18*
X144340000Y-54500000D03*
X144340000Y-48500520D03*
X139641000Y-51500260D03*
D12*
X149840000Y-88500000D03*
D11*
X157460000Y-88500000D03*
D12*
X119500000Y-68000000D03*
D11*
X119500000Y-60380000D03*
D10*
X135000000Y-46500000D03*
D11*
X135000000Y-54120000D03*
X169340000Y-70880000D03*
D10*
X169340000Y-78500000D03*
D11*
X168840000Y-89120000D03*
D12*
X168840000Y-81500000D03*
D11*
X139720000Y-82500000D03*
D12*
X147340000Y-82500000D03*
X119500000Y-78120000D03*
D11*
X119500000Y-70500000D03*
D12*
X131000000Y-54000000D03*
D11*
X131000000Y-46380000D03*
X147460000Y-79000000D03*
D12*
X139840000Y-79000000D03*
D11*
X152220000Y-85000000D03*
D12*
X159840000Y-85000000D03*
X169000000Y-54000000D03*
D11*
X169000000Y-61620000D03*
X165500000Y-61620000D03*
D12*
X165500000Y-54000000D03*
D17*
X130540000Y-85100000D03*
G04 #@! TA.AperFunction,ComponentPad*
D16*
G36*
X128301955Y-84201324D02*
G01*
X128328650Y-84205284D01*
X128354828Y-84211841D01*
X128380238Y-84220933D01*
X128404634Y-84232472D01*
X128427782Y-84246346D01*
X128449458Y-84262422D01*
X128469454Y-84280546D01*
X128487578Y-84300542D01*
X128503654Y-84322218D01*
X128517528Y-84345366D01*
X128529067Y-84369762D01*
X128538159Y-84395172D01*
X128544716Y-84421350D01*
X128548676Y-84448045D01*
X128550000Y-84475000D01*
X128550000Y-85725000D01*
X128548676Y-85751955D01*
X128544716Y-85778650D01*
X128538159Y-85804828D01*
X128529067Y-85830238D01*
X128517528Y-85854634D01*
X128503654Y-85877782D01*
X128487578Y-85899458D01*
X128469454Y-85919454D01*
X128449458Y-85937578D01*
X128427782Y-85953654D01*
X128404634Y-85967528D01*
X128380238Y-85979067D01*
X128354828Y-85988159D01*
X128328650Y-85994716D01*
X128301955Y-85998676D01*
X128275000Y-86000000D01*
X127725000Y-86000000D01*
X127698045Y-85998676D01*
X127671350Y-85994716D01*
X127645172Y-85988159D01*
X127619762Y-85979067D01*
X127595366Y-85967528D01*
X127572218Y-85953654D01*
X127550542Y-85937578D01*
X127530546Y-85919454D01*
X127512422Y-85899458D01*
X127496346Y-85877782D01*
X127482472Y-85854634D01*
X127470933Y-85830238D01*
X127461841Y-85804828D01*
X127455284Y-85778650D01*
X127451324Y-85751955D01*
X127450000Y-85725000D01*
X127450000Y-84475000D01*
X127451324Y-84448045D01*
X127455284Y-84421350D01*
X127461841Y-84395172D01*
X127470933Y-84369762D01*
X127482472Y-84345366D01*
X127496346Y-84322218D01*
X127512422Y-84300542D01*
X127530546Y-84280546D01*
X127550542Y-84262422D01*
X127572218Y-84246346D01*
X127595366Y-84232472D01*
X127619762Y-84220933D01*
X127645172Y-84211841D01*
X127671350Y-84205284D01*
X127698045Y-84201324D01*
X127725000Y-84200000D01*
X128275000Y-84200000D01*
X128301955Y-84201324D01*
G37*
G04 #@! TD.AperFunction*
G04 #@! TA.AperFunction,ComponentPad*
G36*
X129571955Y-86271324D02*
G01*
X129598650Y-86275284D01*
X129624828Y-86281841D01*
X129650238Y-86290933D01*
X129674634Y-86302472D01*
X129697782Y-86316346D01*
X129719458Y-86332422D01*
X129739454Y-86350546D01*
X129757578Y-86370542D01*
X129773654Y-86392218D01*
X129787528Y-86415366D01*
X129799067Y-86439762D01*
X129808159Y-86465172D01*
X129814716Y-86491350D01*
X129818676Y-86518045D01*
X129820000Y-86545000D01*
X129820000Y-87795000D01*
X129818676Y-87821955D01*
X129814716Y-87848650D01*
X129808159Y-87874828D01*
X129799067Y-87900238D01*
X129787528Y-87924634D01*
X129773654Y-87947782D01*
X129757578Y-87969458D01*
X129739454Y-87989454D01*
X129719458Y-88007578D01*
X129697782Y-88023654D01*
X129674634Y-88037528D01*
X129650238Y-88049067D01*
X129624828Y-88058159D01*
X129598650Y-88064716D01*
X129571955Y-88068676D01*
X129545000Y-88070000D01*
X128995000Y-88070000D01*
X128968045Y-88068676D01*
X128941350Y-88064716D01*
X128915172Y-88058159D01*
X128889762Y-88049067D01*
X128865366Y-88037528D01*
X128842218Y-88023654D01*
X128820542Y-88007578D01*
X128800546Y-87989454D01*
X128782422Y-87969458D01*
X128766346Y-87947782D01*
X128752472Y-87924634D01*
X128740933Y-87900238D01*
X128731841Y-87874828D01*
X128725284Y-87848650D01*
X128721324Y-87821955D01*
X128720000Y-87795000D01*
X128720000Y-86545000D01*
X128721324Y-86518045D01*
X128725284Y-86491350D01*
X128731841Y-86465172D01*
X128740933Y-86439762D01*
X128752472Y-86415366D01*
X128766346Y-86392218D01*
X128782422Y-86370542D01*
X128800546Y-86350546D01*
X128820542Y-86332422D01*
X128842218Y-86316346D01*
X128865366Y-86302472D01*
X128889762Y-86290933D01*
X128915172Y-86281841D01*
X128941350Y-86275284D01*
X128968045Y-86271324D01*
X128995000Y-86270000D01*
X129545000Y-86270000D01*
X129571955Y-86271324D01*
G37*
G04 #@! TD.AperFunction*
D12*
X152000000Y-49500000D03*
D10*
X152000000Y-47000000D03*
X133840000Y-77500000D03*
D12*
X136340000Y-77500000D03*
X127000000Y-46500000D03*
D11*
X127000000Y-54120000D03*
D12*
X139840000Y-86000000D03*
D11*
X147460000Y-86000000D03*
D12*
X153340000Y-61500000D03*
D11*
X153340000Y-53880000D03*
D12*
X130340000Y-77500000D03*
D10*
X127840000Y-77500000D03*
X122340000Y-55000000D03*
D12*
X122340000Y-57500000D03*
X165840000Y-69000000D03*
X165840000Y-64000000D03*
X166340000Y-78500000D03*
X161340000Y-78500000D03*
D10*
X157500000Y-47000000D03*
D12*
X157500000Y-49500000D03*
X161840000Y-59000000D03*
X161840000Y-54000000D03*
X158340000Y-54000000D03*
X158340000Y-59000000D03*
D10*
X121840000Y-88500000D03*
D11*
X121840000Y-80880000D03*
X124840000Y-80880000D03*
D10*
X124840000Y-88500000D03*
D19*
X145630000Y-92500000D03*
D20*
X143090000Y-92500000D03*
D15*
X162190000Y-92500000D03*
D14*
X166000000Y-92500000D03*
D15*
X130000000Y-92500000D03*
D14*
X133810000Y-92500000D03*
X137620000Y-92500000D03*
G04 #@! TA.AperFunction,ComponentPad*
D16*
G36*
X162821955Y-72681324D02*
G01*
X162848650Y-72685284D01*
X162874828Y-72691841D01*
X162900238Y-72700933D01*
X162924634Y-72712472D01*
X162947782Y-72726346D01*
X162969458Y-72742422D01*
X162989454Y-72760546D01*
X163007578Y-72780542D01*
X163023654Y-72802218D01*
X163037528Y-72825366D01*
X163049067Y-72849762D01*
X163058159Y-72875172D01*
X163064716Y-72901350D01*
X163068676Y-72928045D01*
X163070000Y-72955000D01*
X163070000Y-73505000D01*
X163068676Y-73531955D01*
X163064716Y-73558650D01*
X163058159Y-73584828D01*
X163049067Y-73610238D01*
X163037528Y-73634634D01*
X163023654Y-73657782D01*
X163007578Y-73679458D01*
X162989454Y-73699454D01*
X162969458Y-73717578D01*
X162947782Y-73733654D01*
X162924634Y-73747528D01*
X162900238Y-73759067D01*
X162874828Y-73768159D01*
X162848650Y-73774716D01*
X162821955Y-73778676D01*
X162795000Y-73780000D01*
X161545000Y-73780000D01*
X161518045Y-73778676D01*
X161491350Y-73774716D01*
X161465172Y-73768159D01*
X161439762Y-73759067D01*
X161415366Y-73747528D01*
X161392218Y-73733654D01*
X161370542Y-73717578D01*
X161350546Y-73699454D01*
X161332422Y-73679458D01*
X161316346Y-73657782D01*
X161302472Y-73634634D01*
X161290933Y-73610238D01*
X161281841Y-73584828D01*
X161275284Y-73558650D01*
X161271324Y-73531955D01*
X161270000Y-73505000D01*
X161270000Y-72955000D01*
X161271324Y-72928045D01*
X161275284Y-72901350D01*
X161281841Y-72875172D01*
X161290933Y-72849762D01*
X161302472Y-72825366D01*
X161316346Y-72802218D01*
X161332422Y-72780542D01*
X161350546Y-72760546D01*
X161370542Y-72742422D01*
X161392218Y-72726346D01*
X161415366Y-72712472D01*
X161439762Y-72700933D01*
X161465172Y-72691841D01*
X161491350Y-72685284D01*
X161518045Y-72681324D01*
X161545000Y-72680000D01*
X162795000Y-72680000D01*
X162821955Y-72681324D01*
G37*
G04 #@! TD.AperFunction*
G04 #@! TA.AperFunction,ComponentPad*
G36*
X164891955Y-71411324D02*
G01*
X164918650Y-71415284D01*
X164944828Y-71421841D01*
X164970238Y-71430933D01*
X164994634Y-71442472D01*
X165017782Y-71456346D01*
X165039458Y-71472422D01*
X165059454Y-71490546D01*
X165077578Y-71510542D01*
X165093654Y-71532218D01*
X165107528Y-71555366D01*
X165119067Y-71579762D01*
X165128159Y-71605172D01*
X165134716Y-71631350D01*
X165138676Y-71658045D01*
X165140000Y-71685000D01*
X165140000Y-72235000D01*
X165138676Y-72261955D01*
X165134716Y-72288650D01*
X165128159Y-72314828D01*
X165119067Y-72340238D01*
X165107528Y-72364634D01*
X165093654Y-72387782D01*
X165077578Y-72409458D01*
X165059454Y-72429454D01*
X165039458Y-72447578D01*
X165017782Y-72463654D01*
X164994634Y-72477528D01*
X164970238Y-72489067D01*
X164944828Y-72498159D01*
X164918650Y-72504716D01*
X164891955Y-72508676D01*
X164865000Y-72510000D01*
X163615000Y-72510000D01*
X163588045Y-72508676D01*
X163561350Y-72504716D01*
X163535172Y-72498159D01*
X163509762Y-72489067D01*
X163485366Y-72477528D01*
X163462218Y-72463654D01*
X163440542Y-72447578D01*
X163420546Y-72429454D01*
X163402422Y-72409458D01*
X163386346Y-72387782D01*
X163372472Y-72364634D01*
X163360933Y-72340238D01*
X163351841Y-72314828D01*
X163345284Y-72288650D01*
X163341324Y-72261955D01*
X163340000Y-72235000D01*
X163340000Y-71685000D01*
X163341324Y-71658045D01*
X163345284Y-71631350D01*
X163351841Y-71605172D01*
X163360933Y-71579762D01*
X163372472Y-71555366D01*
X163386346Y-71532218D01*
X163402422Y-71510542D01*
X163420546Y-71490546D01*
X163440542Y-71472422D01*
X163462218Y-71456346D01*
X163485366Y-71442472D01*
X163509762Y-71430933D01*
X163535172Y-71421841D01*
X163561350Y-71415284D01*
X163588045Y-71411324D01*
X163615000Y-71410000D01*
X164865000Y-71410000D01*
X164891955Y-71411324D01*
G37*
G04 #@! TD.AperFunction*
D21*
X164240000Y-74500000D03*
D12*
X124840000Y-60500000D03*
D11*
X124840000Y-68120000D03*
D14*
X149880000Y-92500000D03*
X153690000Y-92500000D03*
D15*
X157500000Y-92500000D03*
D22*
X161000000Y-67040000D03*
X161000000Y-64500000D03*
X161000000Y-61960000D03*
D23*
X163840000Y-74868630D02*
X163840000Y-74500000D01*
X166340000Y-77368630D02*
X163840000Y-74868630D01*
X166340000Y-78500000D02*
X166340000Y-77368630D01*
X139380000Y-76540000D02*
X150340000Y-76540000D01*
X128340000Y-65500000D02*
X139380000Y-76540000D01*
X143090000Y-85870000D02*
X139720000Y-82500000D01*
X143090000Y-92500000D02*
X143090000Y-85870000D01*
X157960000Y-71380000D02*
X158840000Y-70500000D01*
X157960000Y-74000000D02*
X157960000Y-71380000D01*
X122220000Y-78120000D02*
X123340000Y-77000000D01*
X119500000Y-78120000D02*
X122220000Y-78120000D01*
X119500000Y-79251370D02*
X119500000Y-78120000D01*
X119500000Y-84860000D02*
X119500000Y-79251370D01*
X121840000Y-87200000D02*
X119500000Y-84860000D01*
X121840000Y-88500000D02*
X121840000Y-87200000D01*
X128000130Y-92500000D02*
X130000000Y-92500000D01*
X125250131Y-89750001D02*
X128000130Y-92500000D01*
X123090001Y-89750001D02*
X125250131Y-89750001D01*
X121840000Y-88500000D02*
X123090001Y-89750001D01*
X123340000Y-71840000D02*
X123340000Y-72000000D01*
X119500000Y-68000000D02*
X123340000Y-71840000D01*
X149540001Y-79879999D02*
X150340000Y-79080000D01*
X149169999Y-80250001D02*
X149540001Y-79879999D01*
X123340000Y-72000000D02*
X123340000Y-73131370D01*
X126589999Y-76381369D02*
X126589999Y-78660001D01*
X126589999Y-78660001D02*
X128179999Y-80250001D01*
X128179999Y-80250001D02*
X149169999Y-80250001D01*
X123340000Y-73131370D02*
X126589999Y-76381369D01*
X153690000Y-86470000D02*
X152220000Y-85000000D01*
X153690000Y-92500000D02*
X153690000Y-86470000D01*
X145630000Y-89680002D02*
X150310002Y-85000000D01*
X151088630Y-85000000D02*
X152220000Y-85000000D01*
X150310002Y-85000000D02*
X151088630Y-85000000D01*
X145630000Y-92500000D02*
X145630000Y-89680002D01*
X168260000Y-71960000D02*
X169340000Y-70880000D01*
X163840000Y-71960000D02*
X168260000Y-71960000D01*
X162139999Y-73660001D02*
X162570000Y-73230000D01*
X162139999Y-77700001D02*
X162139999Y-73660001D01*
X161340000Y-78500000D02*
X162139999Y-77700001D01*
X150340000Y-74000000D02*
X157960000Y-81620000D01*
X157160001Y-82419999D02*
X157960000Y-81620000D01*
X156580000Y-83000000D02*
X157160001Y-82419999D01*
X150460000Y-83000000D02*
X156580000Y-83000000D01*
X147460000Y-86000000D02*
X150460000Y-83000000D01*
X157960000Y-76540000D02*
X157960000Y-79080000D01*
X161380000Y-82500000D02*
X164340000Y-82500000D01*
X157960000Y-79080000D02*
X161380000Y-82500000D01*
X160840000Y-88500000D02*
X164340000Y-85000000D01*
X157460000Y-88500000D02*
X160840000Y-88500000D01*
X167840000Y-81500000D02*
X168840000Y-81500000D01*
X164340000Y-85000000D02*
X167840000Y-81500000D01*
X127120000Y-54000000D02*
X127000000Y-54120000D01*
X131000000Y-54000000D02*
X127120000Y-54000000D01*
X121040000Y-55000000D02*
X122340000Y-55000000D01*
X120299999Y-59580001D02*
X120299999Y-55740001D01*
X120299999Y-55740001D02*
X121040000Y-55000000D01*
X119500000Y-60380000D02*
X120299999Y-59580001D01*
X126120000Y-55000000D02*
X127000000Y-54120000D01*
X122340000Y-55000000D02*
X126120000Y-55000000D01*
X121840000Y-80880000D02*
X124840000Y-80880000D01*
X129270000Y-86770000D02*
X135730000Y-86770000D01*
X167708630Y-89120000D02*
X168840000Y-89120000D01*
X163570130Y-89120000D02*
X167708630Y-89120000D01*
X162190000Y-90500130D02*
X163570130Y-89120000D01*
X162190000Y-92500000D02*
X162190000Y-90500130D01*
D24*
G36*
X163305001Y-52004202D02*
G01*
X163302460Y-52030000D01*
X163312597Y-52132918D01*
X163342617Y-52231881D01*
X163391367Y-52323086D01*
X163456973Y-52403027D01*
X163536914Y-52468633D01*
X163628119Y-52517383D01*
X163727082Y-52547403D01*
X163804212Y-52555000D01*
X163830000Y-52557540D01*
X163855788Y-52555000D01*
X170925604Y-52555000D01*
X170974397Y-94975000D01*
X117365000Y-94975000D01*
X117365000Y-77996886D01*
X118250000Y-77996886D01*
X118250000Y-78243114D01*
X118298037Y-78484611D01*
X118392265Y-78712097D01*
X118529062Y-78916828D01*
X118703172Y-79090938D01*
X118800000Y-79155637D01*
X118800000Y-79285759D01*
X118800001Y-79285769D01*
X118800000Y-84825613D01*
X118796613Y-84860000D01*
X118800000Y-84894387D01*
X118800000Y-84894389D01*
X118810128Y-84997223D01*
X118826138Y-85050000D01*
X118850155Y-85129174D01*
X118915155Y-85250781D01*
X118945290Y-85287500D01*
X119002630Y-85357369D01*
X119029343Y-85379292D01*
X120917087Y-87267037D01*
X120866959Y-87282243D01*
X120788784Y-87324029D01*
X120720263Y-87380263D01*
X120664029Y-87448784D01*
X120622243Y-87526959D01*
X120596511Y-87611785D01*
X120587823Y-87700000D01*
X120587823Y-89300000D01*
X120596511Y-89388215D01*
X120622243Y-89473041D01*
X120664029Y-89551216D01*
X120720263Y-89619737D01*
X120788784Y-89675971D01*
X120866959Y-89717757D01*
X120951785Y-89743489D01*
X121040000Y-89752177D01*
X122102228Y-89752177D01*
X122570705Y-90220654D01*
X122592631Y-90247371D01*
X122699220Y-90334846D01*
X122820826Y-90399846D01*
X122952777Y-90439873D01*
X123055611Y-90450001D01*
X123055613Y-90450001D01*
X123090000Y-90453388D01*
X123124387Y-90450001D01*
X124960182Y-90450001D01*
X125182256Y-90672075D01*
X125068756Y-90625062D01*
X124692045Y-90550130D01*
X124307955Y-90550130D01*
X123931244Y-90625062D01*
X123576390Y-90772047D01*
X123257030Y-90985437D01*
X122985437Y-91257030D01*
X122772047Y-91576390D01*
X122642047Y-91890238D01*
X122642047Y-91000130D01*
X122633359Y-90911915D01*
X122607627Y-90827089D01*
X122565841Y-90748914D01*
X122509607Y-90680393D01*
X122441086Y-90624159D01*
X122362911Y-90582373D01*
X122278085Y-90556641D01*
X122189870Y-90547953D01*
X119190130Y-90547953D01*
X119101915Y-90556641D01*
X119017089Y-90582373D01*
X118938914Y-90624159D01*
X118870393Y-90680393D01*
X118814159Y-90748914D01*
X118772373Y-90827089D01*
X118746641Y-90911915D01*
X118737953Y-91000130D01*
X118737953Y-93999870D01*
X118746641Y-94088085D01*
X118772373Y-94172911D01*
X118814159Y-94251086D01*
X118870393Y-94319607D01*
X118938914Y-94375841D01*
X119017089Y-94417627D01*
X119101915Y-94443359D01*
X119190130Y-94452047D01*
X122189870Y-94452047D01*
X122278085Y-94443359D01*
X122362911Y-94417627D01*
X122441086Y-94375841D01*
X122509607Y-94319607D01*
X122565841Y-94251086D01*
X122607627Y-94172911D01*
X122633359Y-94088085D01*
X122642047Y-93999870D01*
X122642047Y-93109762D01*
X122772047Y-93423610D01*
X122985437Y-93742970D01*
X123257030Y-94014563D01*
X123576390Y-94227953D01*
X123931244Y-94374938D01*
X124307955Y-94449870D01*
X124692045Y-94449870D01*
X125068756Y-94374938D01*
X125423610Y-94227953D01*
X125742970Y-94014563D01*
X126014563Y-93742970D01*
X126227953Y-93423610D01*
X126374938Y-93068756D01*
X126449870Y-92692045D01*
X126449870Y-92307955D01*
X126374938Y-91931244D01*
X126327925Y-91817745D01*
X127480839Y-92970659D01*
X127502760Y-92997370D01*
X127529471Y-93019291D01*
X127529472Y-93019292D01*
X127609348Y-93084845D01*
X127711535Y-93139465D01*
X127730955Y-93149845D01*
X127862906Y-93189872D01*
X127965740Y-93200000D01*
X127965743Y-93200000D01*
X128000130Y-93203387D01*
X128034517Y-93200000D01*
X128047953Y-93200000D01*
X128047953Y-93999870D01*
X128056641Y-94088085D01*
X128082373Y-94172911D01*
X128124159Y-94251086D01*
X128180393Y-94319607D01*
X128248914Y-94375841D01*
X128327089Y-94417627D01*
X128411915Y-94443359D01*
X128500130Y-94452047D01*
X131499870Y-94452047D01*
X131588085Y-94443359D01*
X131672911Y-94417627D01*
X131751086Y-94375841D01*
X131819607Y-94319607D01*
X131875841Y-94251086D01*
X131917627Y-94172911D01*
X131943359Y-94088085D01*
X131952047Y-93999870D01*
X131952047Y-93109762D01*
X132082047Y-93423610D01*
X132295437Y-93742970D01*
X132567030Y-94014563D01*
X132886390Y-94227953D01*
X133241244Y-94374938D01*
X133617955Y-94449870D01*
X134002045Y-94449870D01*
X134378756Y-94374938D01*
X134733610Y-94227953D01*
X135052970Y-94014563D01*
X135324563Y-93742970D01*
X135537953Y-93423610D01*
X135684938Y-93068756D01*
X135715000Y-92917623D01*
X135745062Y-93068756D01*
X135892047Y-93423610D01*
X136105437Y-93742970D01*
X136377030Y-94014563D01*
X136696390Y-94227953D01*
X137051244Y-94374938D01*
X137427955Y-94449870D01*
X137812045Y-94449870D01*
X138188756Y-94374938D01*
X138543610Y-94227953D01*
X138862970Y-94014563D01*
X138983374Y-93894159D01*
X148556552Y-93894159D01*
X148710095Y-94195301D01*
X149063311Y-94390964D01*
X149447912Y-94513958D01*
X149849119Y-94559557D01*
X150251512Y-94526007D01*
X150639627Y-94414600D01*
X150998551Y-94229616D01*
X151049905Y-94195301D01*
X151203448Y-93894159D01*
X149880000Y-92570711D01*
X148556552Y-93894159D01*
X138983374Y-93894159D01*
X139134563Y-93742970D01*
X139347953Y-93423610D01*
X139494938Y-93068756D01*
X139569870Y-92692045D01*
X139569870Y-92307955D01*
X139494938Y-91931244D01*
X139347953Y-91576390D01*
X139134563Y-91257030D01*
X138862970Y-90985437D01*
X138543610Y-90772047D01*
X138188756Y-90625062D01*
X137812045Y-90550130D01*
X137427955Y-90550130D01*
X137051244Y-90625062D01*
X136696390Y-90772047D01*
X136377030Y-90985437D01*
X136105437Y-91257030D01*
X135892047Y-91576390D01*
X135745062Y-91931244D01*
X135715000Y-92082377D01*
X135684938Y-91931244D01*
X135537953Y-91576390D01*
X135324563Y-91257030D01*
X135052970Y-90985437D01*
X134733610Y-90772047D01*
X134378756Y-90625062D01*
X134002045Y-90550130D01*
X133617955Y-90550130D01*
X133241244Y-90625062D01*
X132886390Y-90772047D01*
X132567030Y-90985437D01*
X132295437Y-91257030D01*
X132082047Y-91576390D01*
X131952047Y-91890238D01*
X131952047Y-91000130D01*
X131943359Y-90911915D01*
X131917627Y-90827089D01*
X131875841Y-90748914D01*
X131819607Y-90680393D01*
X131751086Y-90624159D01*
X131672911Y-90582373D01*
X131588085Y-90556641D01*
X131499870Y-90547953D01*
X128500130Y-90547953D01*
X128411915Y-90556641D01*
X128327089Y-90582373D01*
X128248914Y-90624159D01*
X128180393Y-90680393D01*
X128124159Y-90748914D01*
X128082373Y-90827089D01*
X128056641Y-90911915D01*
X128047953Y-91000130D01*
X128047953Y-91557873D01*
X126024792Y-89534713D01*
X126057757Y-89473041D01*
X126083489Y-89388215D01*
X126092177Y-89300000D01*
X126092177Y-87700000D01*
X126083489Y-87611785D01*
X126057757Y-87526959D01*
X126015971Y-87448784D01*
X125959737Y-87380263D01*
X125891216Y-87324029D01*
X125813041Y-87282243D01*
X125728215Y-87256511D01*
X125640000Y-87247823D01*
X124040000Y-87247823D01*
X123951785Y-87256511D01*
X123866959Y-87282243D01*
X123788784Y-87324029D01*
X123720263Y-87380263D01*
X123664029Y-87448784D01*
X123622243Y-87526959D01*
X123596511Y-87611785D01*
X123587823Y-87700000D01*
X123587823Y-89050001D01*
X123379950Y-89050001D01*
X123092177Y-88762228D01*
X123092177Y-87700000D01*
X123083489Y-87611785D01*
X123057757Y-87526959D01*
X123015971Y-87448784D01*
X122959737Y-87380263D01*
X122891216Y-87324029D01*
X122813041Y-87282243D01*
X122728215Y-87256511D01*
X122640000Y-87247823D01*
X122540000Y-87247823D01*
X122540000Y-87234387D01*
X122543387Y-87200000D01*
X122539524Y-87160781D01*
X122529872Y-87062776D01*
X122489845Y-86930825D01*
X122424845Y-86809219D01*
X122337370Y-86702630D01*
X122310659Y-86680709D01*
X120200000Y-84570051D01*
X120200000Y-84475000D01*
X126997823Y-84475000D01*
X126997823Y-85725000D01*
X127011796Y-85866865D01*
X127053176Y-86003279D01*
X127120374Y-86128998D01*
X127210808Y-86239192D01*
X127321002Y-86329626D01*
X127446721Y-86396824D01*
X127583135Y-86438204D01*
X127725000Y-86452177D01*
X128275000Y-86452177D01*
X128276985Y-86451982D01*
X128267823Y-86545000D01*
X128267823Y-87795000D01*
X128281796Y-87936865D01*
X128323176Y-88073279D01*
X128390374Y-88198998D01*
X128480808Y-88309192D01*
X128591002Y-88399626D01*
X128716721Y-88466824D01*
X128853135Y-88508204D01*
X128995000Y-88522177D01*
X129545000Y-88522177D01*
X129686865Y-88508204D01*
X129823279Y-88466824D01*
X129948998Y-88399626D01*
X130059192Y-88309192D01*
X130149626Y-88198998D01*
X130216824Y-88073279D01*
X130258204Y-87936865D01*
X130272177Y-87795000D01*
X130272177Y-87470000D01*
X134727823Y-87470000D01*
X134727823Y-87795000D01*
X134741796Y-87936865D01*
X134783176Y-88073279D01*
X134850374Y-88198998D01*
X134940808Y-88309192D01*
X135051002Y-88399626D01*
X135176721Y-88466824D01*
X135313135Y-88508204D01*
X135455000Y-88522177D01*
X136005000Y-88522177D01*
X136146865Y-88508204D01*
X136283279Y-88466824D01*
X136408998Y-88399626D01*
X136519192Y-88309192D01*
X136609626Y-88198998D01*
X136676824Y-88073279D01*
X136718204Y-87936865D01*
X136732177Y-87795000D01*
X136732177Y-86550590D01*
X136812500Y-86550000D01*
X136950000Y-86412500D01*
X136950000Y-85150000D01*
X137050000Y-85150000D01*
X137050000Y-86412500D01*
X137187500Y-86550000D01*
X137550000Y-86552661D01*
X137657819Y-86542042D01*
X137761494Y-86510592D01*
X137857042Y-86459521D01*
X137940790Y-86390790D01*
X138009521Y-86307042D01*
X138060592Y-86211494D01*
X138092042Y-86107819D01*
X138102661Y-86000000D01*
X138102202Y-85876886D01*
X138590000Y-85876886D01*
X138590000Y-86123114D01*
X138638037Y-86364611D01*
X138732265Y-86592097D01*
X138869062Y-86796828D01*
X139043172Y-86970938D01*
X139247903Y-87107735D01*
X139475389Y-87201963D01*
X139716886Y-87250000D01*
X139963114Y-87250000D01*
X140204611Y-87201963D01*
X140432097Y-87107735D01*
X140636828Y-86970938D01*
X140810938Y-86796828D01*
X140947735Y-86592097D01*
X141041963Y-86364611D01*
X141090000Y-86123114D01*
X141090000Y-85876886D01*
X141041963Y-85635389D01*
X140947735Y-85407903D01*
X140810938Y-85203172D01*
X140636828Y-85029062D01*
X140432097Y-84892265D01*
X140204611Y-84798037D01*
X139963114Y-84750000D01*
X139716886Y-84750000D01*
X139475389Y-84798037D01*
X139247903Y-84892265D01*
X139043172Y-85029062D01*
X138869062Y-85203172D01*
X138732265Y-85407903D01*
X138638037Y-85635389D01*
X138590000Y-85876886D01*
X138102202Y-85876886D01*
X138100000Y-85287500D01*
X137962500Y-85150000D01*
X137050000Y-85150000D01*
X136950000Y-85150000D01*
X136037500Y-85150000D01*
X135900000Y-85287500D01*
X135898019Y-85817823D01*
X135455000Y-85817823D01*
X135453015Y-85818018D01*
X135462177Y-85725000D01*
X135462177Y-84475000D01*
X135448204Y-84333135D01*
X135407819Y-84200000D01*
X135897339Y-84200000D01*
X135900000Y-84912500D01*
X136037500Y-85050000D01*
X136950000Y-85050000D01*
X136950000Y-83787500D01*
X137050000Y-83787500D01*
X137050000Y-85050000D01*
X137962500Y-85050000D01*
X138100000Y-84912500D01*
X138102661Y-84200000D01*
X138092042Y-84092181D01*
X138060592Y-83988506D01*
X138009521Y-83892958D01*
X137940790Y-83809210D01*
X137857042Y-83740479D01*
X137761494Y-83689408D01*
X137657819Y-83657958D01*
X137550000Y-83647339D01*
X137187500Y-83650000D01*
X137050000Y-83787500D01*
X136950000Y-83787500D01*
X136812500Y-83650000D01*
X136450000Y-83647339D01*
X136342181Y-83657958D01*
X136238506Y-83689408D01*
X136142958Y-83740479D01*
X136059210Y-83809210D01*
X135990479Y-83892958D01*
X135939408Y-83988506D01*
X135907958Y-84092181D01*
X135897339Y-84200000D01*
X135407819Y-84200000D01*
X135406824Y-84196721D01*
X135339626Y-84071002D01*
X135249192Y-83960808D01*
X135138998Y-83870374D01*
X135013279Y-83803176D01*
X134876865Y-83761796D01*
X134735000Y-83747823D01*
X134185000Y-83747823D01*
X134043135Y-83761796D01*
X133906721Y-83803176D01*
X133781002Y-83870374D01*
X133670808Y-83960808D01*
X133580374Y-84071002D01*
X133513176Y-84196721D01*
X133471796Y-84333135D01*
X133457823Y-84475000D01*
X133457823Y-85725000D01*
X133471796Y-85866865D01*
X133513176Y-86003279D01*
X133548839Y-86070000D01*
X131535283Y-86070000D01*
X131542177Y-86000000D01*
X131542177Y-84200000D01*
X131533489Y-84111785D01*
X131507757Y-84026959D01*
X131465971Y-83948784D01*
X131409737Y-83880263D01*
X131341216Y-83824029D01*
X131263041Y-83782243D01*
X131178215Y-83756511D01*
X131090000Y-83747823D01*
X129990000Y-83747823D01*
X129901785Y-83756511D01*
X129816959Y-83782243D01*
X129738784Y-83824029D01*
X129670263Y-83880263D01*
X129614029Y-83948784D01*
X129572243Y-84026959D01*
X129546511Y-84111785D01*
X129537823Y-84200000D01*
X129537823Y-85817823D01*
X128995000Y-85817823D01*
X128993015Y-85818018D01*
X129002177Y-85725000D01*
X129002177Y-84475000D01*
X128988204Y-84333135D01*
X128946824Y-84196721D01*
X128879626Y-84071002D01*
X128789192Y-83960808D01*
X128678998Y-83870374D01*
X128553279Y-83803176D01*
X128416865Y-83761796D01*
X128275000Y-83747823D01*
X127725000Y-83747823D01*
X127583135Y-83761796D01*
X127446721Y-83803176D01*
X127321002Y-83870374D01*
X127210808Y-83960808D01*
X127120374Y-84071002D01*
X127053176Y-84196721D01*
X127011796Y-84333135D01*
X126997823Y-84475000D01*
X120200000Y-84475000D01*
X120200000Y-80756886D01*
X120590000Y-80756886D01*
X120590000Y-81003114D01*
X120638037Y-81244611D01*
X120732265Y-81472097D01*
X120869062Y-81676828D01*
X121043172Y-81850938D01*
X121247903Y-81987735D01*
X121475389Y-82081963D01*
X121716886Y-82130000D01*
X121963114Y-82130000D01*
X122204611Y-82081963D01*
X122432097Y-81987735D01*
X122636828Y-81850938D01*
X122810938Y-81676828D01*
X122875636Y-81580000D01*
X123804364Y-81580000D01*
X123869062Y-81676828D01*
X124043172Y-81850938D01*
X124247903Y-81987735D01*
X124475389Y-82081963D01*
X124716886Y-82130000D01*
X124963114Y-82130000D01*
X125204611Y-82081963D01*
X125432097Y-81987735D01*
X125636828Y-81850938D01*
X125810938Y-81676828D01*
X125947735Y-81472097D01*
X126041963Y-81244611D01*
X126090000Y-81003114D01*
X126090000Y-80756886D01*
X126041963Y-80515389D01*
X125947735Y-80287903D01*
X125810938Y-80083172D01*
X125636828Y-79909062D01*
X125432097Y-79772265D01*
X125204611Y-79678037D01*
X124963114Y-79630000D01*
X124716886Y-79630000D01*
X124475389Y-79678037D01*
X124247903Y-79772265D01*
X124043172Y-79909062D01*
X123869062Y-80083172D01*
X123804364Y-80180000D01*
X122875636Y-80180000D01*
X122810938Y-80083172D01*
X122636828Y-79909062D01*
X122432097Y-79772265D01*
X122204611Y-79678037D01*
X121963114Y-79630000D01*
X121716886Y-79630000D01*
X121475389Y-79678037D01*
X121247903Y-79772265D01*
X121043172Y-79909062D01*
X120869062Y-80083172D01*
X120732265Y-80287903D01*
X120638037Y-80515389D01*
X120590000Y-80756886D01*
X120200000Y-80756886D01*
X120200000Y-79155636D01*
X120296828Y-79090938D01*
X120470938Y-78916828D01*
X120535636Y-78820000D01*
X122185613Y-78820000D01*
X122220000Y-78823387D01*
X122254387Y-78820000D01*
X122254390Y-78820000D01*
X122357224Y-78809872D01*
X122489175Y-78769845D01*
X122610781Y-78704845D01*
X122717370Y-78617370D01*
X122739296Y-78590653D01*
X123102669Y-78227281D01*
X123216886Y-78250000D01*
X123463114Y-78250000D01*
X123704611Y-78201963D01*
X123932097Y-78107735D01*
X124136828Y-77970938D01*
X124310938Y-77796828D01*
X124447735Y-77592097D01*
X124541963Y-77364611D01*
X124590000Y-77123114D01*
X124590000Y-76876886D01*
X124541963Y-76635389D01*
X124447735Y-76407903D01*
X124310938Y-76203172D01*
X124136828Y-76029062D01*
X123932097Y-75892265D01*
X123704611Y-75798037D01*
X123463114Y-75750000D01*
X123216886Y-75750000D01*
X122975389Y-75798037D01*
X122747903Y-75892265D01*
X122543172Y-76029062D01*
X122369062Y-76203172D01*
X122232265Y-76407903D01*
X122138037Y-76635389D01*
X122090000Y-76876886D01*
X122090000Y-77123114D01*
X122112719Y-77237331D01*
X121930051Y-77420000D01*
X120535636Y-77420000D01*
X120470938Y-77323172D01*
X120296828Y-77149062D01*
X120092097Y-77012265D01*
X119864611Y-76918037D01*
X119623114Y-76870000D01*
X119376886Y-76870000D01*
X119135389Y-76918037D01*
X118907903Y-77012265D01*
X118703172Y-77149062D01*
X118529062Y-77323172D01*
X118392265Y-77527903D01*
X118298037Y-77755389D01*
X118250000Y-77996886D01*
X117365000Y-77996886D01*
X117365000Y-67876886D01*
X118250000Y-67876886D01*
X118250000Y-68123114D01*
X118298037Y-68364611D01*
X118392265Y-68592097D01*
X118529062Y-68796828D01*
X118703172Y-68970938D01*
X118907903Y-69107735D01*
X119135389Y-69201963D01*
X119376886Y-69250000D01*
X119135389Y-69298037D01*
X118907903Y-69392265D01*
X118703172Y-69529062D01*
X118529062Y-69703172D01*
X118392265Y-69907903D01*
X118298037Y-70135389D01*
X118250000Y-70376886D01*
X118250000Y-70623114D01*
X118298037Y-70864611D01*
X118392265Y-71092097D01*
X118529062Y-71296828D01*
X118703172Y-71470938D01*
X118907903Y-71607735D01*
X119135389Y-71701963D01*
X119376886Y-71750000D01*
X119623114Y-71750000D01*
X119864611Y-71701963D01*
X120092097Y-71607735D01*
X120296828Y-71470938D01*
X120470938Y-71296828D01*
X120607735Y-71092097D01*
X120701963Y-70864611D01*
X120750000Y-70623114D01*
X120750000Y-70376886D01*
X120715998Y-70205947D01*
X122140205Y-71630155D01*
X122138037Y-71635389D01*
X122090000Y-71876886D01*
X122090000Y-72123114D01*
X122138037Y-72364611D01*
X122232265Y-72592097D01*
X122369062Y-72796828D01*
X122543172Y-72970938D01*
X122640001Y-73035637D01*
X122640001Y-73096973D01*
X122636613Y-73131370D01*
X122646328Y-73230001D01*
X122650129Y-73268594D01*
X122662271Y-73308620D01*
X122690155Y-73400544D01*
X122755155Y-73522151D01*
X122820708Y-73602027D01*
X122842631Y-73628740D01*
X122869342Y-73650661D01*
X125889999Y-76671319D01*
X125890000Y-78625604D01*
X125886612Y-78660001D01*
X125895477Y-78750000D01*
X125900128Y-78797225D01*
X125904254Y-78810826D01*
X125940154Y-78929175D01*
X126005154Y-79050782D01*
X126064516Y-79123114D01*
X126092630Y-79157371D01*
X126119341Y-79179292D01*
X127660707Y-80720659D01*
X127682629Y-80747371D01*
X127709340Y-80769292D01*
X127709341Y-80769293D01*
X127789218Y-80834846D01*
X127910824Y-80899846D01*
X128042775Y-80939873D01*
X128179999Y-80953388D01*
X128214389Y-80950001D01*
X149135612Y-80950001D01*
X149169999Y-80953388D01*
X149204386Y-80950001D01*
X149204389Y-80950001D01*
X149289948Y-80941574D01*
X149232265Y-81027903D01*
X149138037Y-81255389D01*
X149090000Y-81496886D01*
X149090000Y-81743114D01*
X149138037Y-81984611D01*
X149232265Y-82212097D01*
X149369062Y-82416828D01*
X149543172Y-82590938D01*
X149744553Y-82725497D01*
X147697331Y-84772719D01*
X147583114Y-84750000D01*
X147336886Y-84750000D01*
X147095389Y-84798037D01*
X146867903Y-84892265D01*
X146663172Y-85029062D01*
X146489062Y-85203172D01*
X146352265Y-85407903D01*
X146258037Y-85635389D01*
X146210000Y-85876886D01*
X146210000Y-86123114D01*
X146258037Y-86364611D01*
X146352265Y-86592097D01*
X146489062Y-86796828D01*
X146663172Y-86970938D01*
X146867903Y-87107735D01*
X147095389Y-87201963D01*
X147114324Y-87205729D01*
X145159342Y-89160711D01*
X145132631Y-89182632D01*
X145110710Y-89209343D01*
X145110708Y-89209345D01*
X145045155Y-89289221D01*
X144980155Y-89410828D01*
X144940129Y-89542779D01*
X144926613Y-89680002D01*
X144930001Y-89714399D01*
X144930000Y-91147823D01*
X144730000Y-91147823D01*
X144641785Y-91156511D01*
X144556959Y-91182243D01*
X144478784Y-91224029D01*
X144410263Y-91280263D01*
X144354029Y-91348784D01*
X144312243Y-91426959D01*
X144286511Y-91511785D01*
X144277823Y-91600000D01*
X144277823Y-91847767D01*
X144138613Y-91639425D01*
X143950575Y-91451387D01*
X143790000Y-91344094D01*
X143790000Y-85904387D01*
X143793387Y-85870000D01*
X143789624Y-85831796D01*
X143779872Y-85732776D01*
X143739845Y-85600825D01*
X143674845Y-85479219D01*
X143587370Y-85372630D01*
X143560659Y-85350709D01*
X141606566Y-83396616D01*
X146514095Y-83396616D01*
X146583644Y-83626101D01*
X146817869Y-83752021D01*
X147072159Y-83829827D01*
X147336742Y-83856528D01*
X147601449Y-83831098D01*
X147856110Y-83754515D01*
X148090937Y-83629721D01*
X148096356Y-83626101D01*
X148165905Y-83396616D01*
X147340000Y-82570711D01*
X146514095Y-83396616D01*
X141606566Y-83396616D01*
X140947281Y-82737331D01*
X140970000Y-82623114D01*
X140970000Y-82496742D01*
X145983472Y-82496742D01*
X146008902Y-82761449D01*
X146085485Y-83016110D01*
X146210279Y-83250937D01*
X146213899Y-83256356D01*
X146443384Y-83325905D01*
X147269289Y-82500000D01*
X147410711Y-82500000D01*
X148236616Y-83325905D01*
X148466101Y-83256356D01*
X148592021Y-83022131D01*
X148669827Y-82767841D01*
X148696528Y-82503258D01*
X148671098Y-82238551D01*
X148594515Y-81983890D01*
X148469721Y-81749063D01*
X148466101Y-81743644D01*
X148236616Y-81674095D01*
X147410711Y-82500000D01*
X147269289Y-82500000D01*
X146443384Y-81674095D01*
X146213899Y-81743644D01*
X146087979Y-81977869D01*
X146010173Y-82232159D01*
X145983472Y-82496742D01*
X140970000Y-82496742D01*
X140970000Y-82376886D01*
X140921963Y-82135389D01*
X140827735Y-81907903D01*
X140690938Y-81703172D01*
X140591150Y-81603384D01*
X146514095Y-81603384D01*
X147340000Y-82429289D01*
X148165905Y-81603384D01*
X148096356Y-81373899D01*
X147862131Y-81247979D01*
X147607841Y-81170173D01*
X147343258Y-81143472D01*
X147078551Y-81168902D01*
X146823890Y-81245485D01*
X146589063Y-81370279D01*
X146583644Y-81373899D01*
X146514095Y-81603384D01*
X140591150Y-81603384D01*
X140516828Y-81529062D01*
X140312097Y-81392265D01*
X140084611Y-81298037D01*
X139843114Y-81250000D01*
X139596886Y-81250000D01*
X139355389Y-81298037D01*
X139127903Y-81392265D01*
X138923172Y-81529062D01*
X138749062Y-81703172D01*
X138612265Y-81907903D01*
X138518037Y-82135389D01*
X138470000Y-82376886D01*
X138470000Y-82623114D01*
X138518037Y-82864611D01*
X138612265Y-83092097D01*
X138749062Y-83296828D01*
X138923172Y-83470938D01*
X139127903Y-83607735D01*
X139355389Y-83701963D01*
X139596886Y-83750000D01*
X139843114Y-83750000D01*
X139957331Y-83727281D01*
X142390001Y-86159951D01*
X142390000Y-91344094D01*
X142229425Y-91451387D01*
X142041387Y-91639425D01*
X141893646Y-91860535D01*
X141791880Y-92106220D01*
X141740000Y-92367037D01*
X141740000Y-92632963D01*
X141791880Y-92893780D01*
X141893646Y-93139465D01*
X142041387Y-93360575D01*
X142229425Y-93548613D01*
X142450535Y-93696354D01*
X142696220Y-93798120D01*
X142957037Y-93850000D01*
X143222963Y-93850000D01*
X143483780Y-93798120D01*
X143729465Y-93696354D01*
X143950575Y-93548613D01*
X144138613Y-93360575D01*
X144277823Y-93152233D01*
X144277823Y-93400000D01*
X144286511Y-93488215D01*
X144312243Y-93573041D01*
X144354029Y-93651216D01*
X144410263Y-93719737D01*
X144478784Y-93775971D01*
X144556959Y-93817757D01*
X144641785Y-93843489D01*
X144730000Y-93852177D01*
X146530000Y-93852177D01*
X146618215Y-93843489D01*
X146703041Y-93817757D01*
X146781216Y-93775971D01*
X146849737Y-93719737D01*
X146905971Y-93651216D01*
X146947757Y-93573041D01*
X146973489Y-93488215D01*
X146982177Y-93400000D01*
X146982177Y-92469119D01*
X147820443Y-92469119D01*
X147853993Y-92871512D01*
X147965400Y-93259627D01*
X148150384Y-93618551D01*
X148184699Y-93669905D01*
X148485841Y-93823448D01*
X149809289Y-92500000D01*
X148485841Y-91176552D01*
X148184699Y-91330095D01*
X147989036Y-91683311D01*
X147866042Y-92067912D01*
X147820443Y-92469119D01*
X146982177Y-92469119D01*
X146982177Y-91600000D01*
X146973489Y-91511785D01*
X146947757Y-91426959D01*
X146905971Y-91348784D01*
X146849737Y-91280263D01*
X146781216Y-91224029D01*
X146703041Y-91182243D01*
X146618215Y-91156511D01*
X146530000Y-91147823D01*
X146330000Y-91147823D01*
X146330000Y-91105841D01*
X148556552Y-91105841D01*
X149880000Y-92429289D01*
X151203448Y-91105841D01*
X151049905Y-90804699D01*
X150696689Y-90609036D01*
X150312088Y-90486042D01*
X149910881Y-90440443D01*
X149508488Y-90473993D01*
X149120373Y-90585400D01*
X148761449Y-90770384D01*
X148710095Y-90804699D01*
X148556552Y-91105841D01*
X146330000Y-91105841D01*
X146330000Y-89969951D01*
X147923065Y-88376886D01*
X148590000Y-88376886D01*
X148590000Y-88623114D01*
X148638037Y-88864611D01*
X148732265Y-89092097D01*
X148869062Y-89296828D01*
X149043172Y-89470938D01*
X149247903Y-89607735D01*
X149475389Y-89701963D01*
X149716886Y-89750000D01*
X149963114Y-89750000D01*
X150204611Y-89701963D01*
X150432097Y-89607735D01*
X150636828Y-89470938D01*
X150810938Y-89296828D01*
X150947735Y-89092097D01*
X151041963Y-88864611D01*
X151090000Y-88623114D01*
X151090000Y-88376886D01*
X151041963Y-88135389D01*
X150947735Y-87907903D01*
X150810938Y-87703172D01*
X150636828Y-87529062D01*
X150432097Y-87392265D01*
X150204611Y-87298037D01*
X149963114Y-87250000D01*
X149716886Y-87250000D01*
X149475389Y-87298037D01*
X149247903Y-87392265D01*
X149043172Y-87529062D01*
X148869062Y-87703172D01*
X148732265Y-87907903D01*
X148638037Y-88135389D01*
X148590000Y-88376886D01*
X147923065Y-88376886D01*
X150599951Y-85700000D01*
X151184364Y-85700000D01*
X151249062Y-85796828D01*
X151423172Y-85970938D01*
X151627903Y-86107735D01*
X151855389Y-86201963D01*
X152096886Y-86250000D01*
X152343114Y-86250000D01*
X152457331Y-86227281D01*
X152990001Y-86759951D01*
X152990000Y-90679425D01*
X152766390Y-90772047D01*
X152447030Y-90985437D01*
X152175437Y-91257030D01*
X151962047Y-91576390D01*
X151835338Y-91882294D01*
X151794600Y-91740373D01*
X151609616Y-91381449D01*
X151575301Y-91330095D01*
X151274159Y-91176552D01*
X149950711Y-92500000D01*
X151274159Y-93823448D01*
X151575301Y-93669905D01*
X151770964Y-93316689D01*
X151834920Y-93116698D01*
X151962047Y-93423610D01*
X152175437Y-93742970D01*
X152447030Y-94014563D01*
X152766390Y-94227953D01*
X153121244Y-94374938D01*
X153497955Y-94449870D01*
X153882045Y-94449870D01*
X154258756Y-94374938D01*
X154613610Y-94227953D01*
X154932970Y-94014563D01*
X155204563Y-93742970D01*
X155417953Y-93423610D01*
X155547953Y-93109762D01*
X155547953Y-93999870D01*
X155556641Y-94088085D01*
X155582373Y-94172911D01*
X155624159Y-94251086D01*
X155680393Y-94319607D01*
X155748914Y-94375841D01*
X155827089Y-94417627D01*
X155911915Y-94443359D01*
X156000130Y-94452047D01*
X158999870Y-94452047D01*
X159088085Y-94443359D01*
X159172911Y-94417627D01*
X159251086Y-94375841D01*
X159319607Y-94319607D01*
X159375841Y-94251086D01*
X159417627Y-94172911D01*
X159443359Y-94088085D01*
X159452047Y-93999870D01*
X159452047Y-91000130D01*
X160237953Y-91000130D01*
X160237953Y-93999870D01*
X160246641Y-94088085D01*
X160272373Y-94172911D01*
X160314159Y-94251086D01*
X160370393Y-94319607D01*
X160438914Y-94375841D01*
X160517089Y-94417627D01*
X160601915Y-94443359D01*
X160690130Y-94452047D01*
X163689870Y-94452047D01*
X163778085Y-94443359D01*
X163862911Y-94417627D01*
X163941086Y-94375841D01*
X164009607Y-94319607D01*
X164065841Y-94251086D01*
X164107627Y-94172911D01*
X164133359Y-94088085D01*
X164142047Y-93999870D01*
X164142047Y-93109762D01*
X164272047Y-93423610D01*
X164485437Y-93742970D01*
X164757030Y-94014563D01*
X165076390Y-94227953D01*
X165431244Y-94374938D01*
X165807955Y-94449870D01*
X166192045Y-94449870D01*
X166568756Y-94374938D01*
X166923610Y-94227953D01*
X167242970Y-94014563D01*
X167514563Y-93742970D01*
X167727953Y-93423610D01*
X167874938Y-93068756D01*
X167949870Y-92692045D01*
X167949870Y-92307955D01*
X167874938Y-91931244D01*
X167727953Y-91576390D01*
X167514563Y-91257030D01*
X167242970Y-90985437D01*
X166923610Y-90772047D01*
X166568756Y-90625062D01*
X166192045Y-90550130D01*
X165807955Y-90550130D01*
X165431244Y-90625062D01*
X165076390Y-90772047D01*
X164757030Y-90985437D01*
X164485437Y-91257030D01*
X164272047Y-91576390D01*
X164142047Y-91890238D01*
X164142047Y-91000130D01*
X164133359Y-90911915D01*
X164107627Y-90827089D01*
X164065841Y-90748914D01*
X164009607Y-90680393D01*
X163941086Y-90624159D01*
X163862911Y-90582373D01*
X163778085Y-90556641D01*
X163689870Y-90547953D01*
X163132126Y-90547953D01*
X163860080Y-89820000D01*
X167804364Y-89820000D01*
X167869062Y-89916828D01*
X168043172Y-90090938D01*
X168247903Y-90227735D01*
X168475389Y-90321963D01*
X168716886Y-90370000D01*
X168963114Y-90370000D01*
X169204611Y-90321963D01*
X169432097Y-90227735D01*
X169636828Y-90090938D01*
X169810938Y-89916828D01*
X169947735Y-89712097D01*
X170041963Y-89484611D01*
X170090000Y-89243114D01*
X170090000Y-88996886D01*
X170041963Y-88755389D01*
X169947735Y-88527903D01*
X169810938Y-88323172D01*
X169636828Y-88149062D01*
X169432097Y-88012265D01*
X169204611Y-87918037D01*
X168963114Y-87870000D01*
X168716886Y-87870000D01*
X168475389Y-87918037D01*
X168247903Y-88012265D01*
X168043172Y-88149062D01*
X167869062Y-88323172D01*
X167804364Y-88420000D01*
X163604520Y-88420000D01*
X163570130Y-88416613D01*
X163535740Y-88420000D01*
X163432906Y-88430128D01*
X163300955Y-88470155D01*
X163179349Y-88535155D01*
X163072760Y-88622630D01*
X163050838Y-88649342D01*
X161719342Y-89980839D01*
X161692631Y-90002760D01*
X161670710Y-90029471D01*
X161670708Y-90029473D01*
X161605155Y-90109349D01*
X161540155Y-90230956D01*
X161500129Y-90362907D01*
X161486613Y-90500130D01*
X161490001Y-90534527D01*
X161490001Y-90547953D01*
X160690130Y-90547953D01*
X160601915Y-90556641D01*
X160517089Y-90582373D01*
X160438914Y-90624159D01*
X160370393Y-90680393D01*
X160314159Y-90748914D01*
X160272373Y-90827089D01*
X160246641Y-90911915D01*
X160237953Y-91000130D01*
X159452047Y-91000130D01*
X159443359Y-90911915D01*
X159417627Y-90827089D01*
X159375841Y-90748914D01*
X159319607Y-90680393D01*
X159251086Y-90624159D01*
X159172911Y-90582373D01*
X159088085Y-90556641D01*
X158999870Y-90547953D01*
X156000130Y-90547953D01*
X155911915Y-90556641D01*
X155827089Y-90582373D01*
X155748914Y-90624159D01*
X155680393Y-90680393D01*
X155624159Y-90748914D01*
X155582373Y-90827089D01*
X155556641Y-90911915D01*
X155547953Y-91000130D01*
X155547953Y-91890238D01*
X155417953Y-91576390D01*
X155204563Y-91257030D01*
X154932970Y-90985437D01*
X154613610Y-90772047D01*
X154390000Y-90679425D01*
X154390000Y-86504387D01*
X154393387Y-86470000D01*
X154390000Y-86435610D01*
X154379872Y-86332776D01*
X154339845Y-86200825D01*
X154301453Y-86128998D01*
X154274845Y-86079218D01*
X154209292Y-85999342D01*
X154209291Y-85999341D01*
X154187370Y-85972630D01*
X154160658Y-85950708D01*
X153447281Y-85237331D01*
X153470000Y-85123114D01*
X153470000Y-84876886D01*
X158590000Y-84876886D01*
X158590000Y-85123114D01*
X158638037Y-85364611D01*
X158732265Y-85592097D01*
X158869062Y-85796828D01*
X159043172Y-85970938D01*
X159247903Y-86107735D01*
X159475389Y-86201963D01*
X159716886Y-86250000D01*
X159963114Y-86250000D01*
X160204611Y-86201963D01*
X160432097Y-86107735D01*
X160636828Y-85970938D01*
X160810938Y-85796828D01*
X160947735Y-85592097D01*
X161041963Y-85364611D01*
X161090000Y-85123114D01*
X161090000Y-84876886D01*
X161041963Y-84635389D01*
X160947735Y-84407903D01*
X160810938Y-84203172D01*
X160636828Y-84029062D01*
X160432097Y-83892265D01*
X160204611Y-83798037D01*
X159963114Y-83750000D01*
X159716886Y-83750000D01*
X159475389Y-83798037D01*
X159247903Y-83892265D01*
X159043172Y-84029062D01*
X158869062Y-84203172D01*
X158732265Y-84407903D01*
X158638037Y-84635389D01*
X158590000Y-84876886D01*
X153470000Y-84876886D01*
X153421963Y-84635389D01*
X153327735Y-84407903D01*
X153190938Y-84203172D01*
X153016828Y-84029062D01*
X152812097Y-83892265D01*
X152584611Y-83798037D01*
X152343114Y-83750000D01*
X152096886Y-83750000D01*
X151855389Y-83798037D01*
X151627903Y-83892265D01*
X151423172Y-84029062D01*
X151249062Y-84203172D01*
X151184364Y-84300000D01*
X150344388Y-84300000D01*
X150310001Y-84296613D01*
X150275614Y-84300000D01*
X150275612Y-84300000D01*
X150172778Y-84310128D01*
X150125471Y-84324478D01*
X150749950Y-83700000D01*
X156545613Y-83700000D01*
X156580000Y-83703387D01*
X156614387Y-83700000D01*
X156614390Y-83700000D01*
X156717224Y-83689872D01*
X156849175Y-83649845D01*
X156970781Y-83584845D01*
X157077370Y-83497370D01*
X157099296Y-83470653D01*
X157722668Y-82847281D01*
X157836886Y-82870000D01*
X158083114Y-82870000D01*
X158324611Y-82821963D01*
X158552097Y-82727735D01*
X158756828Y-82590938D01*
X158930938Y-82416828D01*
X159067735Y-82212097D01*
X159161963Y-81984611D01*
X159210000Y-81743114D01*
X159210000Y-81496886D01*
X159166066Y-81276015D01*
X160860704Y-82970653D01*
X160882630Y-82997370D01*
X160989219Y-83084845D01*
X161110825Y-83149845D01*
X161242776Y-83189872D01*
X161345610Y-83200000D01*
X161345612Y-83200000D01*
X161379999Y-83203387D01*
X161414386Y-83200000D01*
X163087823Y-83200000D01*
X163087823Y-83300000D01*
X163096511Y-83388215D01*
X163122243Y-83473041D01*
X163164029Y-83551216D01*
X163220263Y-83619737D01*
X163288784Y-83675971D01*
X163366959Y-83717757D01*
X163451785Y-83743489D01*
X163540000Y-83752177D01*
X164205942Y-83752177D01*
X163975389Y-83798037D01*
X163747903Y-83892265D01*
X163543172Y-84029062D01*
X163369062Y-84203172D01*
X163232265Y-84407903D01*
X163138037Y-84635389D01*
X163090000Y-84876886D01*
X163090000Y-85123114D01*
X163112719Y-85237332D01*
X160550051Y-87800000D01*
X158495636Y-87800000D01*
X158430938Y-87703172D01*
X158256828Y-87529062D01*
X158052097Y-87392265D01*
X157824611Y-87298037D01*
X157583114Y-87250000D01*
X157336886Y-87250000D01*
X157095389Y-87298037D01*
X156867903Y-87392265D01*
X156663172Y-87529062D01*
X156489062Y-87703172D01*
X156352265Y-87907903D01*
X156258037Y-88135389D01*
X156210000Y-88376886D01*
X156210000Y-88623114D01*
X156258037Y-88864611D01*
X156352265Y-89092097D01*
X156489062Y-89296828D01*
X156663172Y-89470938D01*
X156867903Y-89607735D01*
X157095389Y-89701963D01*
X157336886Y-89750000D01*
X157583114Y-89750000D01*
X157824611Y-89701963D01*
X158052097Y-89607735D01*
X158256828Y-89470938D01*
X158430938Y-89296828D01*
X158495636Y-89200000D01*
X160805613Y-89200000D01*
X160840000Y-89203387D01*
X160874387Y-89200000D01*
X160874390Y-89200000D01*
X160977224Y-89189872D01*
X161109175Y-89149845D01*
X161230781Y-89084845D01*
X161337370Y-88997370D01*
X161359296Y-88970653D01*
X164102668Y-86227281D01*
X164216886Y-86250000D01*
X164463114Y-86250000D01*
X164704611Y-86201963D01*
X164932097Y-86107735D01*
X165136828Y-85970938D01*
X165310938Y-85796828D01*
X165447735Y-85592097D01*
X165541963Y-85364611D01*
X165590000Y-85123114D01*
X165590000Y-84876886D01*
X165567281Y-84762668D01*
X167951092Y-82378858D01*
X168043172Y-82470938D01*
X168247903Y-82607735D01*
X168475389Y-82701963D01*
X168716886Y-82750000D01*
X168963114Y-82750000D01*
X169204611Y-82701963D01*
X169432097Y-82607735D01*
X169636828Y-82470938D01*
X169810938Y-82296828D01*
X169947735Y-82092097D01*
X170041963Y-81864611D01*
X170090000Y-81623114D01*
X170090000Y-81376886D01*
X170041963Y-81135389D01*
X169947735Y-80907903D01*
X169810938Y-80703172D01*
X169636828Y-80529062D01*
X169432097Y-80392265D01*
X169204611Y-80298037D01*
X168963114Y-80250000D01*
X168716886Y-80250000D01*
X168475389Y-80298037D01*
X168247903Y-80392265D01*
X168043172Y-80529062D01*
X167869062Y-80703172D01*
X167804276Y-80800131D01*
X167702776Y-80810128D01*
X167570825Y-80850155D01*
X167449219Y-80915155D01*
X167342630Y-81002630D01*
X167320704Y-81029347D01*
X165592177Y-82757874D01*
X165592177Y-81700000D01*
X165583489Y-81611785D01*
X165557757Y-81526959D01*
X165515971Y-81448784D01*
X165459737Y-81380263D01*
X165391216Y-81324029D01*
X165313041Y-81282243D01*
X165228215Y-81256511D01*
X165140000Y-81247823D01*
X163540000Y-81247823D01*
X163451785Y-81256511D01*
X163366959Y-81282243D01*
X163288784Y-81324029D01*
X163220263Y-81380263D01*
X163164029Y-81448784D01*
X163122243Y-81526959D01*
X163096511Y-81611785D01*
X163087823Y-81700000D01*
X163087823Y-81800000D01*
X161669949Y-81800000D01*
X159187281Y-79317332D01*
X159210000Y-79203114D01*
X159210000Y-78956886D01*
X159161963Y-78715389D01*
X159067735Y-78487903D01*
X158993556Y-78376886D01*
X160090000Y-78376886D01*
X160090000Y-78623114D01*
X160138037Y-78864611D01*
X160232265Y-79092097D01*
X160369062Y-79296828D01*
X160543172Y-79470938D01*
X160747903Y-79607735D01*
X160975389Y-79701963D01*
X161216886Y-79750000D01*
X161463114Y-79750000D01*
X161704611Y-79701963D01*
X161932097Y-79607735D01*
X162136828Y-79470938D01*
X162310938Y-79296828D01*
X162447735Y-79092097D01*
X162541963Y-78864611D01*
X162590000Y-78623114D01*
X162590000Y-78376886D01*
X162567281Y-78262668D01*
X162610657Y-78219292D01*
X162637368Y-78197371D01*
X162724844Y-78090782D01*
X162789844Y-77969176D01*
X162829871Y-77837225D01*
X162839999Y-77734391D01*
X162839999Y-77734389D01*
X162843386Y-77700002D01*
X162839999Y-77665615D01*
X162839999Y-74227745D01*
X162887823Y-74223034D01*
X162887823Y-75050000D01*
X162896511Y-75138215D01*
X162922243Y-75223041D01*
X162964029Y-75301216D01*
X163020263Y-75369737D01*
X163088784Y-75425971D01*
X163166959Y-75467757D01*
X163251785Y-75493489D01*
X163340000Y-75502177D01*
X163483598Y-75502177D01*
X165526827Y-77545407D01*
X165369062Y-77703172D01*
X165232265Y-77907903D01*
X165138037Y-78135389D01*
X165090000Y-78376886D01*
X165090000Y-78623114D01*
X165138037Y-78864611D01*
X165232265Y-79092097D01*
X165369062Y-79296828D01*
X165543172Y-79470938D01*
X165747903Y-79607735D01*
X165975389Y-79701963D01*
X166216886Y-79750000D01*
X166463114Y-79750000D01*
X166704611Y-79701963D01*
X166932097Y-79607735D01*
X167136828Y-79470938D01*
X167310938Y-79296828D01*
X167447735Y-79092097D01*
X167541963Y-78864611D01*
X167590000Y-78623114D01*
X167590000Y-78376886D01*
X167541963Y-78135389D01*
X167447735Y-77907903D01*
X167310938Y-77703172D01*
X167307766Y-77700000D01*
X168087823Y-77700000D01*
X168087823Y-79300000D01*
X168096511Y-79388215D01*
X168122243Y-79473041D01*
X168164029Y-79551216D01*
X168220263Y-79619737D01*
X168288784Y-79675971D01*
X168366959Y-79717757D01*
X168451785Y-79743489D01*
X168540000Y-79752177D01*
X170140000Y-79752177D01*
X170228215Y-79743489D01*
X170313041Y-79717757D01*
X170391216Y-79675971D01*
X170459737Y-79619737D01*
X170515971Y-79551216D01*
X170557757Y-79473041D01*
X170583489Y-79388215D01*
X170592177Y-79300000D01*
X170592177Y-77700000D01*
X170583489Y-77611785D01*
X170557757Y-77526959D01*
X170515971Y-77448784D01*
X170459737Y-77380263D01*
X170391216Y-77324029D01*
X170313041Y-77282243D01*
X170228215Y-77256511D01*
X170140000Y-77247823D01*
X168540000Y-77247823D01*
X168451785Y-77256511D01*
X168366959Y-77282243D01*
X168288784Y-77324029D01*
X168220263Y-77380263D01*
X168164029Y-77448784D01*
X168122243Y-77526959D01*
X168096511Y-77611785D01*
X168087823Y-77700000D01*
X167307766Y-77700000D01*
X167136828Y-77529062D01*
X167040000Y-77464364D01*
X167040000Y-77403017D01*
X167043387Y-77368630D01*
X167038910Y-77323172D01*
X167029872Y-77231406D01*
X166989845Y-77099455D01*
X166974764Y-77071240D01*
X166924845Y-76977848D01*
X166859292Y-76897972D01*
X166859291Y-76897971D01*
X166837370Y-76871260D01*
X166810659Y-76849339D01*
X165388658Y-75427338D01*
X165391216Y-75425971D01*
X165459737Y-75369737D01*
X165515971Y-75301216D01*
X165557757Y-75223041D01*
X165583489Y-75138215D01*
X165592177Y-75050000D01*
X165592177Y-73950000D01*
X165583489Y-73861785D01*
X165557757Y-73776959D01*
X165515971Y-73698784D01*
X165459737Y-73630263D01*
X165391216Y-73574029D01*
X165313041Y-73532243D01*
X165228215Y-73506511D01*
X165140000Y-73497823D01*
X163522177Y-73497823D01*
X163522177Y-72955000D01*
X163521982Y-72953015D01*
X163615000Y-72962177D01*
X164865000Y-72962177D01*
X165006865Y-72948204D01*
X165143279Y-72906824D01*
X165268998Y-72839626D01*
X165379192Y-72749192D01*
X165452390Y-72660000D01*
X168225613Y-72660000D01*
X168260000Y-72663387D01*
X168294387Y-72660000D01*
X168294390Y-72660000D01*
X168397224Y-72649872D01*
X168529175Y-72609845D01*
X168650781Y-72544845D01*
X168757370Y-72457370D01*
X168779296Y-72430653D01*
X169102669Y-72107281D01*
X169216886Y-72130000D01*
X169463114Y-72130000D01*
X169704611Y-72081963D01*
X169932097Y-71987735D01*
X170136828Y-71850938D01*
X170310938Y-71676828D01*
X170447735Y-71472097D01*
X170541963Y-71244611D01*
X170590000Y-71003114D01*
X170590000Y-70756886D01*
X170541963Y-70515389D01*
X170447735Y-70287903D01*
X170310938Y-70083172D01*
X170136828Y-69909062D01*
X169932097Y-69772265D01*
X169704611Y-69678037D01*
X169463114Y-69630000D01*
X169216886Y-69630000D01*
X168975389Y-69678037D01*
X168747903Y-69772265D01*
X168543172Y-69909062D01*
X168369062Y-70083172D01*
X168232265Y-70287903D01*
X168138037Y-70515389D01*
X168090000Y-70756886D01*
X168090000Y-71003114D01*
X168112719Y-71117331D01*
X167970051Y-71260000D01*
X165452390Y-71260000D01*
X165379192Y-71170808D01*
X165268998Y-71080374D01*
X165143279Y-71013176D01*
X165006865Y-70971796D01*
X164865000Y-70957823D01*
X163615000Y-70957823D01*
X163473135Y-70971796D01*
X163336721Y-71013176D01*
X163211002Y-71080374D01*
X163100808Y-71170808D01*
X163010374Y-71281002D01*
X162943176Y-71406721D01*
X162901796Y-71543135D01*
X162887823Y-71685000D01*
X162887823Y-72235000D01*
X162888018Y-72236985D01*
X162795000Y-72227823D01*
X161545000Y-72227823D01*
X161403135Y-72241796D01*
X161266721Y-72283176D01*
X161141002Y-72350374D01*
X161030808Y-72440808D01*
X160940374Y-72551002D01*
X160873176Y-72676721D01*
X160831796Y-72813135D01*
X160817823Y-72955000D01*
X160817823Y-73505000D01*
X160831796Y-73646865D01*
X160873176Y-73783279D01*
X160940374Y-73908998D01*
X161030808Y-74019192D01*
X161141002Y-74109626D01*
X161266721Y-74176824D01*
X161403135Y-74218204D01*
X161440000Y-74221835D01*
X161439999Y-77250000D01*
X161216886Y-77250000D01*
X160975389Y-77298037D01*
X160747903Y-77392265D01*
X160543172Y-77529062D01*
X160369062Y-77703172D01*
X160232265Y-77907903D01*
X160138037Y-78135389D01*
X160090000Y-78376886D01*
X158993556Y-78376886D01*
X158930938Y-78283172D01*
X158756828Y-78109062D01*
X158660000Y-78044364D01*
X158660000Y-77575636D01*
X158756828Y-77510938D01*
X158930938Y-77336828D01*
X159067735Y-77132097D01*
X159161963Y-76904611D01*
X159210000Y-76663114D01*
X159210000Y-76416886D01*
X159161963Y-76175389D01*
X159067735Y-75947903D01*
X158930938Y-75743172D01*
X158756828Y-75569062D01*
X158552097Y-75432265D01*
X158324611Y-75338037D01*
X158083114Y-75290000D01*
X157836886Y-75290000D01*
X157595389Y-75338037D01*
X157367903Y-75432265D01*
X157163172Y-75569062D01*
X156989062Y-75743172D01*
X156852265Y-75947903D01*
X156758037Y-76175389D01*
X156710000Y-76416886D01*
X156710000Y-76663114D01*
X156758037Y-76904611D01*
X156852265Y-77132097D01*
X156989062Y-77336828D01*
X157163172Y-77510938D01*
X157260000Y-77575637D01*
X157260001Y-78044363D01*
X157163172Y-78109062D01*
X156989062Y-78283172D01*
X156852265Y-78487903D01*
X156758037Y-78715389D01*
X156710000Y-78956886D01*
X156710000Y-79203114D01*
X156753934Y-79423985D01*
X151592177Y-74262228D01*
X151592177Y-73876886D01*
X156710000Y-73876886D01*
X156710000Y-74123114D01*
X156758037Y-74364611D01*
X156852265Y-74592097D01*
X156989062Y-74796828D01*
X157163172Y-74970938D01*
X157367903Y-75107735D01*
X157595389Y-75201963D01*
X157836886Y-75250000D01*
X158083114Y-75250000D01*
X158324611Y-75201963D01*
X158552097Y-75107735D01*
X158756828Y-74970938D01*
X158930938Y-74796828D01*
X159067735Y-74592097D01*
X159161963Y-74364611D01*
X159210000Y-74123114D01*
X159210000Y-73876886D01*
X159161963Y-73635389D01*
X159067735Y-73407903D01*
X158930938Y-73203172D01*
X158756828Y-73029062D01*
X158660000Y-72964364D01*
X158660000Y-71738685D01*
X158716886Y-71750000D01*
X158963114Y-71750000D01*
X159204611Y-71701963D01*
X159432097Y-71607735D01*
X159636828Y-71470938D01*
X159810938Y-71296828D01*
X159947735Y-71092097D01*
X160041963Y-70864611D01*
X160090000Y-70623114D01*
X160090000Y-70376886D01*
X160041963Y-70135389D01*
X159947735Y-69907903D01*
X159810938Y-69703172D01*
X159636828Y-69529062D01*
X159432097Y-69392265D01*
X159204611Y-69298037D01*
X158963114Y-69250000D01*
X158716886Y-69250000D01*
X158475389Y-69298037D01*
X158247903Y-69392265D01*
X158043172Y-69529062D01*
X157869062Y-69703172D01*
X157732265Y-69907903D01*
X157638037Y-70135389D01*
X157590000Y-70376886D01*
X157590000Y-70623114D01*
X157612719Y-70737331D01*
X157489342Y-70860709D01*
X157462631Y-70882630D01*
X157440710Y-70909341D01*
X157440708Y-70909343D01*
X157375155Y-70989219D01*
X157310155Y-71110826D01*
X157270129Y-71242777D01*
X157256613Y-71380000D01*
X157260001Y-71414397D01*
X157260000Y-72964363D01*
X157163172Y-73029062D01*
X156989062Y-73203172D01*
X156852265Y-73407903D01*
X156758037Y-73635389D01*
X156710000Y-73876886D01*
X151592177Y-73876886D01*
X151592177Y-73200000D01*
X151583489Y-73111785D01*
X151557757Y-73026959D01*
X151515971Y-72948784D01*
X151459737Y-72880263D01*
X151391216Y-72824029D01*
X151313041Y-72782243D01*
X151228215Y-72756511D01*
X151140000Y-72747823D01*
X149540000Y-72747823D01*
X149451785Y-72756511D01*
X149366959Y-72782243D01*
X149288784Y-72824029D01*
X149220263Y-72880263D01*
X149164029Y-72948784D01*
X149122243Y-73026959D01*
X149096511Y-73111785D01*
X149087823Y-73200000D01*
X149087823Y-74800000D01*
X149096511Y-74888215D01*
X149122243Y-74973041D01*
X149164029Y-75051216D01*
X149220263Y-75119737D01*
X149288784Y-75175971D01*
X149366959Y-75217757D01*
X149451785Y-75243489D01*
X149540000Y-75252177D01*
X150602228Y-75252177D01*
X150683985Y-75333934D01*
X150463114Y-75290000D01*
X150216886Y-75290000D01*
X149975389Y-75338037D01*
X149747903Y-75432265D01*
X149543172Y-75569062D01*
X149369062Y-75743172D01*
X149304364Y-75840000D01*
X139669950Y-75840000D01*
X134590376Y-70760426D01*
X149895357Y-70760426D01*
X149896527Y-70766316D01*
X149973913Y-71019396D01*
X150099185Y-71252516D01*
X150267530Y-71456717D01*
X150472478Y-71624152D01*
X150706153Y-71748386D01*
X150959574Y-71824645D01*
X151170000Y-71711576D01*
X151170000Y-70550000D01*
X151270000Y-70550000D01*
X151270000Y-71711576D01*
X151480426Y-71824645D01*
X151733847Y-71748386D01*
X151967522Y-71624152D01*
X152172470Y-71456717D01*
X152340815Y-71252516D01*
X152466087Y-71019396D01*
X152543473Y-70766316D01*
X152544643Y-70760426D01*
X152431469Y-70550000D01*
X151270000Y-70550000D01*
X151170000Y-70550000D01*
X150008531Y-70550000D01*
X149895357Y-70760426D01*
X134590376Y-70760426D01*
X134069524Y-70239574D01*
X149895357Y-70239574D01*
X150008531Y-70450000D01*
X151170000Y-70450000D01*
X151170000Y-69288424D01*
X151270000Y-69288424D01*
X151270000Y-70450000D01*
X152431469Y-70450000D01*
X152544643Y-70239574D01*
X152543473Y-70233684D01*
X152466087Y-69980604D01*
X152340815Y-69747484D01*
X152172470Y-69543283D01*
X151967522Y-69375848D01*
X151733847Y-69251614D01*
X151480426Y-69175355D01*
X151270000Y-69288424D01*
X151170000Y-69288424D01*
X150959574Y-69175355D01*
X150706153Y-69251614D01*
X150472478Y-69375848D01*
X150267530Y-69543283D01*
X150099185Y-69747484D01*
X149973913Y-69980604D01*
X149896527Y-70233684D01*
X149895357Y-70239574D01*
X134069524Y-70239574D01*
X132706836Y-68876886D01*
X164590000Y-68876886D01*
X164590000Y-69123114D01*
X164638037Y-69364611D01*
X164732265Y-69592097D01*
X164869062Y-69796828D01*
X165043172Y-69970938D01*
X165247903Y-70107735D01*
X165475389Y-70201963D01*
X165716886Y-70250000D01*
X165963114Y-70250000D01*
X166204611Y-70201963D01*
X166432097Y-70107735D01*
X166636828Y-69970938D01*
X166810938Y-69796828D01*
X166947735Y-69592097D01*
X167041963Y-69364611D01*
X167090000Y-69123114D01*
X167090000Y-68876886D01*
X167041963Y-68635389D01*
X166947735Y-68407903D01*
X166810938Y-68203172D01*
X166636828Y-68029062D01*
X166432097Y-67892265D01*
X166204611Y-67798037D01*
X165963114Y-67750000D01*
X165716886Y-67750000D01*
X165475389Y-67798037D01*
X165247903Y-67892265D01*
X165043172Y-68029062D01*
X164869062Y-68203172D01*
X164732265Y-68407903D01*
X164638037Y-68635389D01*
X164590000Y-68876886D01*
X132706836Y-68876886D01*
X129869843Y-66039894D01*
X129897744Y-65972536D01*
X129960000Y-65659556D01*
X129960000Y-65357187D01*
X142890000Y-65357187D01*
X142890000Y-65642813D01*
X142945723Y-65922949D01*
X143055027Y-66186833D01*
X143213711Y-66424321D01*
X143415679Y-66626289D01*
X143653167Y-66784973D01*
X143917051Y-66894277D01*
X144197187Y-66950000D01*
X144482813Y-66950000D01*
X144762949Y-66894277D01*
X145026833Y-66784973D01*
X145264321Y-66626289D01*
X145466289Y-66424321D01*
X145624973Y-66186833D01*
X145734277Y-65922949D01*
X145790000Y-65642813D01*
X145790000Y-65357187D01*
X145734277Y-65077051D01*
X145624973Y-64813167D01*
X145466289Y-64575679D01*
X145264321Y-64373711D01*
X145026833Y-64215027D01*
X144762949Y-64105723D01*
X144482813Y-64050000D01*
X144197187Y-64050000D01*
X143917051Y-64105723D01*
X143653167Y-64215027D01*
X143415679Y-64373711D01*
X143213711Y-64575679D01*
X143055027Y-64813167D01*
X142945723Y-65077051D01*
X142890000Y-65357187D01*
X129960000Y-65357187D01*
X129960000Y-65340444D01*
X129897744Y-65027464D01*
X129775625Y-64732642D01*
X129598336Y-64467311D01*
X129372689Y-64241664D01*
X129107358Y-64064375D01*
X128812536Y-63942256D01*
X128499556Y-63880000D01*
X128180444Y-63880000D01*
X127867464Y-63942256D01*
X127572642Y-64064375D01*
X127307311Y-64241664D01*
X127081664Y-64467311D01*
X126904375Y-64732642D01*
X126782256Y-65027464D01*
X126720000Y-65340444D01*
X126720000Y-65659556D01*
X126782256Y-65972536D01*
X126904375Y-66267358D01*
X127081664Y-66532689D01*
X127307311Y-66758336D01*
X127572642Y-66935625D01*
X127867464Y-67057744D01*
X128180444Y-67120000D01*
X128499556Y-67120000D01*
X128812536Y-67057744D01*
X128879894Y-67029843D01*
X138860709Y-77010659D01*
X138882630Y-77037370D01*
X138989219Y-77124845D01*
X139110825Y-77189845D01*
X139242776Y-77229872D01*
X139345610Y-77240000D01*
X139345613Y-77240000D01*
X139380000Y-77243387D01*
X139414387Y-77240000D01*
X149304364Y-77240000D01*
X149369062Y-77336828D01*
X149543172Y-77510938D01*
X149747903Y-77647735D01*
X149975389Y-77741963D01*
X150216886Y-77790000D01*
X150463114Y-77790000D01*
X150704611Y-77741963D01*
X150932097Y-77647735D01*
X151136828Y-77510938D01*
X151310938Y-77336828D01*
X151447735Y-77132097D01*
X151541963Y-76904611D01*
X151590000Y-76663114D01*
X151590000Y-76416886D01*
X151546066Y-76196015D01*
X156732719Y-81382668D01*
X156710000Y-81496886D01*
X156710000Y-81743114D01*
X156732719Y-81857332D01*
X156290051Y-82300000D01*
X151389000Y-82300000D01*
X151447735Y-82212097D01*
X151541963Y-81984611D01*
X151590000Y-81743114D01*
X151590000Y-81496886D01*
X151541963Y-81255389D01*
X151447735Y-81027903D01*
X151310938Y-80823172D01*
X151136828Y-80649062D01*
X150932097Y-80512265D01*
X150704611Y-80418037D01*
X150463114Y-80370000D01*
X150216886Y-80370000D01*
X149996015Y-80413934D01*
X150102668Y-80307281D01*
X150216886Y-80330000D01*
X150463114Y-80330000D01*
X150704611Y-80281963D01*
X150932097Y-80187735D01*
X151136828Y-80050938D01*
X151310938Y-79876828D01*
X151447735Y-79672097D01*
X151541963Y-79444611D01*
X151590000Y-79203114D01*
X151590000Y-78956886D01*
X151541963Y-78715389D01*
X151447735Y-78487903D01*
X151310938Y-78283172D01*
X151136828Y-78109062D01*
X150932097Y-77972265D01*
X150704611Y-77878037D01*
X150463114Y-77830000D01*
X150216886Y-77830000D01*
X149975389Y-77878037D01*
X149747903Y-77972265D01*
X149543172Y-78109062D01*
X149369062Y-78283172D01*
X149232265Y-78487903D01*
X149138037Y-78715389D01*
X149090000Y-78956886D01*
X149090000Y-79203114D01*
X149112719Y-79317332D01*
X148880050Y-79550001D01*
X148585172Y-79550001D01*
X148661963Y-79364611D01*
X148710000Y-79123114D01*
X148710000Y-78876886D01*
X148661963Y-78635389D01*
X148567735Y-78407903D01*
X148430938Y-78203172D01*
X148256828Y-78029062D01*
X148052097Y-77892265D01*
X147824611Y-77798037D01*
X147583114Y-77750000D01*
X147336886Y-77750000D01*
X147095389Y-77798037D01*
X146867903Y-77892265D01*
X146663172Y-78029062D01*
X146489062Y-78203172D01*
X146352265Y-78407903D01*
X146258037Y-78635389D01*
X146210000Y-78876886D01*
X146210000Y-79123114D01*
X146258037Y-79364611D01*
X146334828Y-79550001D01*
X140965172Y-79550001D01*
X141041963Y-79364611D01*
X141090000Y-79123114D01*
X141090000Y-78876886D01*
X141041963Y-78635389D01*
X140947735Y-78407903D01*
X140810938Y-78203172D01*
X140636828Y-78029062D01*
X140432097Y-77892265D01*
X140204611Y-77798037D01*
X139963114Y-77750000D01*
X139716886Y-77750000D01*
X139475389Y-77798037D01*
X139247903Y-77892265D01*
X139043172Y-78029062D01*
X138869062Y-78203172D01*
X138732265Y-78407903D01*
X138638037Y-78635389D01*
X138590000Y-78876886D01*
X138590000Y-79123114D01*
X138638037Y-79364611D01*
X138714828Y-79550001D01*
X128469949Y-79550001D01*
X127672124Y-78752177D01*
X128640000Y-78752177D01*
X128728215Y-78743489D01*
X128813041Y-78717757D01*
X128891216Y-78675971D01*
X128959737Y-78619737D01*
X129015971Y-78551216D01*
X129057757Y-78473041D01*
X129083489Y-78388215D01*
X129092177Y-78300000D01*
X129092177Y-77634058D01*
X129138037Y-77864611D01*
X129232265Y-78092097D01*
X129369062Y-78296828D01*
X129543172Y-78470938D01*
X129747903Y-78607735D01*
X129975389Y-78701963D01*
X130216886Y-78750000D01*
X130463114Y-78750000D01*
X130704611Y-78701963D01*
X130932097Y-78607735D01*
X131136828Y-78470938D01*
X131310938Y-78296828D01*
X131447735Y-78092097D01*
X131541963Y-77864611D01*
X131590000Y-77623114D01*
X131590000Y-77376886D01*
X131541963Y-77135389D01*
X131447735Y-76907903D01*
X131310938Y-76703172D01*
X131307766Y-76700000D01*
X132587823Y-76700000D01*
X132587823Y-78300000D01*
X132596511Y-78388215D01*
X132622243Y-78473041D01*
X132664029Y-78551216D01*
X132720263Y-78619737D01*
X132788784Y-78675971D01*
X132866959Y-78717757D01*
X132951785Y-78743489D01*
X133040000Y-78752177D01*
X134640000Y-78752177D01*
X134728215Y-78743489D01*
X134813041Y-78717757D01*
X134891216Y-78675971D01*
X134959737Y-78619737D01*
X135015971Y-78551216D01*
X135057757Y-78473041D01*
X135083489Y-78388215D01*
X135092177Y-78300000D01*
X135092177Y-77634058D01*
X135138037Y-77864611D01*
X135232265Y-78092097D01*
X135369062Y-78296828D01*
X135543172Y-78470938D01*
X135747903Y-78607735D01*
X135975389Y-78701963D01*
X136216886Y-78750000D01*
X136463114Y-78750000D01*
X136704611Y-78701963D01*
X136932097Y-78607735D01*
X137136828Y-78470938D01*
X137310938Y-78296828D01*
X137447735Y-78092097D01*
X137541963Y-77864611D01*
X137590000Y-77623114D01*
X137590000Y-77376886D01*
X137541963Y-77135389D01*
X137447735Y-76907903D01*
X137310938Y-76703172D01*
X137136828Y-76529062D01*
X136932097Y-76392265D01*
X136704611Y-76298037D01*
X136463114Y-76250000D01*
X136216886Y-76250000D01*
X135975389Y-76298037D01*
X135747903Y-76392265D01*
X135543172Y-76529062D01*
X135369062Y-76703172D01*
X135232265Y-76907903D01*
X135138037Y-77135389D01*
X135092177Y-77365942D01*
X135092177Y-76700000D01*
X135083489Y-76611785D01*
X135057757Y-76526959D01*
X135015971Y-76448784D01*
X134959737Y-76380263D01*
X134891216Y-76324029D01*
X134813041Y-76282243D01*
X134728215Y-76256511D01*
X134640000Y-76247823D01*
X133040000Y-76247823D01*
X132951785Y-76256511D01*
X132866959Y-76282243D01*
X132788784Y-76324029D01*
X132720263Y-76380263D01*
X132664029Y-76448784D01*
X132622243Y-76526959D01*
X132596511Y-76611785D01*
X132587823Y-76700000D01*
X131307766Y-76700000D01*
X131136828Y-76529062D01*
X130932097Y-76392265D01*
X130704611Y-76298037D01*
X130463114Y-76250000D01*
X130216886Y-76250000D01*
X129975389Y-76298037D01*
X129747903Y-76392265D01*
X129543172Y-76529062D01*
X129369062Y-76703172D01*
X129232265Y-76907903D01*
X129138037Y-77135389D01*
X129092177Y-77365942D01*
X129092177Y-76700000D01*
X129083489Y-76611785D01*
X129057757Y-76526959D01*
X129015971Y-76448784D01*
X128959737Y-76380263D01*
X128891216Y-76324029D01*
X128813041Y-76282243D01*
X128728215Y-76256511D01*
X128640000Y-76247823D01*
X127280233Y-76247823D01*
X127279871Y-76244145D01*
X127239844Y-76112194D01*
X127174844Y-75990588D01*
X127145765Y-75955155D01*
X127109291Y-75910711D01*
X127109286Y-75910706D01*
X127087368Y-75883999D01*
X127060662Y-75862082D01*
X124153173Y-72954593D01*
X124310938Y-72796828D01*
X124447735Y-72592097D01*
X124541963Y-72364611D01*
X124590000Y-72123114D01*
X124590000Y-71876886D01*
X124541963Y-71635389D01*
X124447735Y-71407903D01*
X124310938Y-71203172D01*
X124136828Y-71029062D01*
X123932097Y-70892265D01*
X123704611Y-70798037D01*
X123463114Y-70750000D01*
X123239950Y-70750000D01*
X122830394Y-70340444D01*
X126720000Y-70340444D01*
X126720000Y-70659556D01*
X126782256Y-70972536D01*
X126904375Y-71267358D01*
X127081664Y-71532689D01*
X127307311Y-71758336D01*
X127572642Y-71935625D01*
X127867464Y-72057744D01*
X128180444Y-72120000D01*
X128499556Y-72120000D01*
X128812536Y-72057744D01*
X129107358Y-71935625D01*
X129372689Y-71758336D01*
X129598336Y-71532689D01*
X129775625Y-71267358D01*
X129897744Y-70972536D01*
X129960000Y-70659556D01*
X129960000Y-70340444D01*
X129897744Y-70027464D01*
X129775625Y-69732642D01*
X129598336Y-69467311D01*
X129372689Y-69241664D01*
X129107358Y-69064375D01*
X128812536Y-68942256D01*
X128499556Y-68880000D01*
X128180444Y-68880000D01*
X127867464Y-68942256D01*
X127572642Y-69064375D01*
X127307311Y-69241664D01*
X127081664Y-69467311D01*
X126904375Y-69732642D01*
X126782256Y-70027464D01*
X126720000Y-70340444D01*
X122830394Y-70340444D01*
X120727281Y-68237331D01*
X120750000Y-68123114D01*
X120750000Y-67996886D01*
X123590000Y-67996886D01*
X123590000Y-68243114D01*
X123638037Y-68484611D01*
X123732265Y-68712097D01*
X123869062Y-68916828D01*
X124043172Y-69090938D01*
X124247903Y-69227735D01*
X124475389Y-69321963D01*
X124716886Y-69370000D01*
X124963114Y-69370000D01*
X125204611Y-69321963D01*
X125432097Y-69227735D01*
X125636828Y-69090938D01*
X125810938Y-68916828D01*
X125947735Y-68712097D01*
X126041963Y-68484611D01*
X126090000Y-68243114D01*
X126090000Y-67996886D01*
X126041963Y-67755389D01*
X125947735Y-67527903D01*
X125810938Y-67323172D01*
X125636828Y-67149062D01*
X125432097Y-67012265D01*
X125204611Y-66918037D01*
X124963114Y-66870000D01*
X124716886Y-66870000D01*
X124475389Y-66918037D01*
X124247903Y-67012265D01*
X124043172Y-67149062D01*
X123869062Y-67323172D01*
X123732265Y-67527903D01*
X123638037Y-67755389D01*
X123590000Y-67996886D01*
X120750000Y-67996886D01*
X120750000Y-67876886D01*
X120701963Y-67635389D01*
X120607735Y-67407903D01*
X120470938Y-67203172D01*
X120296828Y-67029062D01*
X120092097Y-66892265D01*
X119864611Y-66798037D01*
X119623114Y-66750000D01*
X119376886Y-66750000D01*
X119135389Y-66798037D01*
X118907903Y-66892265D01*
X118703172Y-67029062D01*
X118529062Y-67203172D01*
X118392265Y-67407903D01*
X118298037Y-67635389D01*
X118250000Y-67876886D01*
X117365000Y-67876886D01*
X117365000Y-60256886D01*
X118250000Y-60256886D01*
X118250000Y-60503114D01*
X118298037Y-60744611D01*
X118392265Y-60972097D01*
X118529062Y-61176828D01*
X118703172Y-61350938D01*
X118907903Y-61487735D01*
X119135389Y-61581963D01*
X119376886Y-61630000D01*
X119623114Y-61630000D01*
X119864611Y-61581963D01*
X120092097Y-61487735D01*
X120296828Y-61350938D01*
X120470938Y-61176828D01*
X120607735Y-60972097D01*
X120701963Y-60744611D01*
X120750000Y-60503114D01*
X120750000Y-60376886D01*
X123590000Y-60376886D01*
X123590000Y-60623114D01*
X123638037Y-60864611D01*
X123732265Y-61092097D01*
X123869062Y-61296828D01*
X124043172Y-61470938D01*
X124247903Y-61607735D01*
X124475389Y-61701963D01*
X124716886Y-61750000D01*
X124963114Y-61750000D01*
X125204611Y-61701963D01*
X125432097Y-61607735D01*
X125636828Y-61470938D01*
X125810938Y-61296828D01*
X125947735Y-61092097D01*
X126041963Y-60864611D01*
X126090000Y-60623114D01*
X126090000Y-60376886D01*
X126082752Y-60340444D01*
X126720000Y-60340444D01*
X126720000Y-60659556D01*
X126782256Y-60972536D01*
X126904375Y-61267358D01*
X127081664Y-61532689D01*
X127307311Y-61758336D01*
X127572642Y-61935625D01*
X127867464Y-62057744D01*
X128180444Y-62120000D01*
X128499556Y-62120000D01*
X128812536Y-62057744D01*
X129107358Y-61935625D01*
X129372689Y-61758336D01*
X129598336Y-61532689D01*
X129702440Y-61376886D01*
X152090000Y-61376886D01*
X152090000Y-61623114D01*
X152138037Y-61864611D01*
X152232265Y-62092097D01*
X152369062Y-62296828D01*
X152543172Y-62470938D01*
X152747903Y-62607735D01*
X152975389Y-62701963D01*
X153216886Y-62750000D01*
X153463114Y-62750000D01*
X153704611Y-62701963D01*
X153932097Y-62607735D01*
X154136828Y-62470938D01*
X154310938Y-62296828D01*
X154447735Y-62092097D01*
X154541963Y-61864611D01*
X154549221Y-61828120D01*
X159661000Y-61828120D01*
X159661000Y-62091880D01*
X159712457Y-62350572D01*
X159813393Y-62594254D01*
X159959931Y-62813563D01*
X160146437Y-63000069D01*
X160365746Y-63146607D01*
X160567075Y-63230000D01*
X160365746Y-63313393D01*
X160146437Y-63459931D01*
X159959931Y-63646437D01*
X159813393Y-63865746D01*
X159712457Y-64109428D01*
X159661000Y-64368120D01*
X159661000Y-64631880D01*
X159712457Y-64890572D01*
X159813393Y-65134254D01*
X159959931Y-65353563D01*
X160146437Y-65540069D01*
X160365746Y-65686607D01*
X160567075Y-65770000D01*
X160365746Y-65853393D01*
X160146437Y-65999931D01*
X159959931Y-66186437D01*
X159813393Y-66405746D01*
X159712457Y-66649428D01*
X159661000Y-66908120D01*
X159661000Y-67171880D01*
X159712457Y-67430572D01*
X159813393Y-67674254D01*
X159959931Y-67893563D01*
X160146437Y-68080069D01*
X160365746Y-68226607D01*
X160609428Y-68327543D01*
X160868120Y-68379000D01*
X161131880Y-68379000D01*
X161390572Y-68327543D01*
X161634254Y-68226607D01*
X161853563Y-68080069D01*
X162040069Y-67893563D01*
X162186607Y-67674254D01*
X162287543Y-67430572D01*
X162339000Y-67171880D01*
X162339000Y-66908120D01*
X162287543Y-66649428D01*
X162186607Y-66405746D01*
X162040069Y-66186437D01*
X161853563Y-65999931D01*
X161634254Y-65853393D01*
X161432925Y-65770000D01*
X161634254Y-65686607D01*
X161853563Y-65540069D01*
X162040069Y-65353563D01*
X162186607Y-65134254D01*
X162287543Y-64890572D01*
X162339000Y-64631880D01*
X162339000Y-64368120D01*
X162287543Y-64109428D01*
X162186607Y-63865746D01*
X162040069Y-63646437D01*
X161853563Y-63459931D01*
X161634254Y-63313393D01*
X161432925Y-63230000D01*
X161634254Y-63146607D01*
X161853563Y-63000069D01*
X162040069Y-62813563D01*
X162186607Y-62594254D01*
X162287543Y-62350572D01*
X162339000Y-62091880D01*
X162339000Y-61828120D01*
X162287543Y-61569428D01*
X162257496Y-61496886D01*
X164250000Y-61496886D01*
X164250000Y-61743114D01*
X164298037Y-61984611D01*
X164392265Y-62212097D01*
X164529062Y-62416828D01*
X164703172Y-62590938D01*
X164907903Y-62727735D01*
X165135389Y-62821963D01*
X165326062Y-62859890D01*
X165247903Y-62892265D01*
X165043172Y-63029062D01*
X164869062Y-63203172D01*
X164732265Y-63407903D01*
X164638037Y-63635389D01*
X164590000Y-63876886D01*
X164590000Y-64123114D01*
X164638037Y-64364611D01*
X164732265Y-64592097D01*
X164869062Y-64796828D01*
X165043172Y-64970938D01*
X165247903Y-65107735D01*
X165475389Y-65201963D01*
X165716886Y-65250000D01*
X165963114Y-65250000D01*
X166204611Y-65201963D01*
X166432097Y-65107735D01*
X166636828Y-64970938D01*
X166810938Y-64796828D01*
X166947735Y-64592097D01*
X167041963Y-64364611D01*
X167090000Y-64123114D01*
X167090000Y-63876886D01*
X167041963Y-63635389D01*
X166947735Y-63407903D01*
X166810938Y-63203172D01*
X166636828Y-63029062D01*
X166432097Y-62892265D01*
X166204611Y-62798037D01*
X166013938Y-62760110D01*
X166092097Y-62727735D01*
X166296828Y-62590938D01*
X166470938Y-62416828D01*
X166607735Y-62212097D01*
X166701963Y-61984611D01*
X166750000Y-61743114D01*
X166750000Y-61496886D01*
X167750000Y-61496886D01*
X167750000Y-61743114D01*
X167798037Y-61984611D01*
X167892265Y-62212097D01*
X168029062Y-62416828D01*
X168203172Y-62590938D01*
X168407903Y-62727735D01*
X168635389Y-62821963D01*
X168876886Y-62870000D01*
X169123114Y-62870000D01*
X169364611Y-62821963D01*
X169592097Y-62727735D01*
X169796828Y-62590938D01*
X169970938Y-62416828D01*
X170107735Y-62212097D01*
X170201963Y-61984611D01*
X170250000Y-61743114D01*
X170250000Y-61496886D01*
X170201963Y-61255389D01*
X170107735Y-61027903D01*
X169970938Y-60823172D01*
X169796828Y-60649062D01*
X169592097Y-60512265D01*
X169364611Y-60418037D01*
X169123114Y-60370000D01*
X168876886Y-60370000D01*
X168635389Y-60418037D01*
X168407903Y-60512265D01*
X168203172Y-60649062D01*
X168029062Y-60823172D01*
X167892265Y-61027903D01*
X167798037Y-61255389D01*
X167750000Y-61496886D01*
X166750000Y-61496886D01*
X166701963Y-61255389D01*
X166607735Y-61027903D01*
X166470938Y-60823172D01*
X166296828Y-60649062D01*
X166092097Y-60512265D01*
X165864611Y-60418037D01*
X165623114Y-60370000D01*
X165376886Y-60370000D01*
X165135389Y-60418037D01*
X164907903Y-60512265D01*
X164703172Y-60649062D01*
X164529062Y-60823172D01*
X164392265Y-61027903D01*
X164298037Y-61255389D01*
X164250000Y-61496886D01*
X162257496Y-61496886D01*
X162186607Y-61325746D01*
X162040069Y-61106437D01*
X161853563Y-60919931D01*
X161634254Y-60773393D01*
X161390572Y-60672457D01*
X161131880Y-60621000D01*
X160868120Y-60621000D01*
X160609428Y-60672457D01*
X160365746Y-60773393D01*
X160146437Y-60919931D01*
X159959931Y-61106437D01*
X159813393Y-61325746D01*
X159712457Y-61569428D01*
X159661000Y-61828120D01*
X154549221Y-61828120D01*
X154590000Y-61623114D01*
X154590000Y-61376886D01*
X154541963Y-61135389D01*
X154447735Y-60907903D01*
X154310938Y-60703172D01*
X154136828Y-60529062D01*
X153932097Y-60392265D01*
X153704611Y-60298037D01*
X153463114Y-60250000D01*
X153216886Y-60250000D01*
X152975389Y-60298037D01*
X152747903Y-60392265D01*
X152543172Y-60529062D01*
X152369062Y-60703172D01*
X152232265Y-60907903D01*
X152138037Y-61135389D01*
X152090000Y-61376886D01*
X129702440Y-61376886D01*
X129775625Y-61267358D01*
X129897744Y-60972536D01*
X129960000Y-60659556D01*
X129960000Y-60340444D01*
X129897744Y-60027464D01*
X129775625Y-59732642D01*
X129598336Y-59467311D01*
X129372689Y-59241664D01*
X129107358Y-59064375D01*
X128812536Y-58942256D01*
X128499556Y-58880000D01*
X128180444Y-58880000D01*
X127867464Y-58942256D01*
X127572642Y-59064375D01*
X127307311Y-59241664D01*
X127081664Y-59467311D01*
X126904375Y-59732642D01*
X126782256Y-60027464D01*
X126720000Y-60340444D01*
X126082752Y-60340444D01*
X126041963Y-60135389D01*
X125947735Y-59907903D01*
X125810938Y-59703172D01*
X125636828Y-59529062D01*
X125432097Y-59392265D01*
X125204611Y-59298037D01*
X124963114Y-59250000D01*
X124716886Y-59250000D01*
X124475389Y-59298037D01*
X124247903Y-59392265D01*
X124043172Y-59529062D01*
X123869062Y-59703172D01*
X123732265Y-59907903D01*
X123638037Y-60135389D01*
X123590000Y-60376886D01*
X120750000Y-60376886D01*
X120750000Y-60256886D01*
X120727281Y-60142668D01*
X120770657Y-60099292D01*
X120797368Y-60077371D01*
X120884844Y-59970782D01*
X120949844Y-59849176D01*
X120989871Y-59717225D01*
X120999999Y-59614391D01*
X120999999Y-59614389D01*
X121003386Y-59580002D01*
X120999999Y-59545615D01*
X120999999Y-58876886D01*
X157090000Y-58876886D01*
X157090000Y-59123114D01*
X157138037Y-59364611D01*
X157232265Y-59592097D01*
X157369062Y-59796828D01*
X157543172Y-59970938D01*
X157747903Y-60107735D01*
X157975389Y-60201963D01*
X158216886Y-60250000D01*
X158463114Y-60250000D01*
X158704611Y-60201963D01*
X158932097Y-60107735D01*
X159136828Y-59970938D01*
X159310938Y-59796828D01*
X159447735Y-59592097D01*
X159541963Y-59364611D01*
X159590000Y-59123114D01*
X159590000Y-58876886D01*
X160590000Y-58876886D01*
X160590000Y-59123114D01*
X160638037Y-59364611D01*
X160732265Y-59592097D01*
X160869062Y-59796828D01*
X161043172Y-59970938D01*
X161247903Y-60107735D01*
X161475389Y-60201963D01*
X161716886Y-60250000D01*
X161963114Y-60250000D01*
X162204611Y-60201963D01*
X162432097Y-60107735D01*
X162636828Y-59970938D01*
X162810938Y-59796828D01*
X162947735Y-59592097D01*
X163041963Y-59364611D01*
X163090000Y-59123114D01*
X163090000Y-58876886D01*
X163041963Y-58635389D01*
X162947735Y-58407903D01*
X162810938Y-58203172D01*
X162636828Y-58029062D01*
X162432097Y-57892265D01*
X162204611Y-57798037D01*
X161963114Y-57750000D01*
X161716886Y-57750000D01*
X161475389Y-57798037D01*
X161247903Y-57892265D01*
X161043172Y-58029062D01*
X160869062Y-58203172D01*
X160732265Y-58407903D01*
X160638037Y-58635389D01*
X160590000Y-58876886D01*
X159590000Y-58876886D01*
X159541963Y-58635389D01*
X159447735Y-58407903D01*
X159310938Y-58203172D01*
X159136828Y-58029062D01*
X158932097Y-57892265D01*
X158704611Y-57798037D01*
X158463114Y-57750000D01*
X158216886Y-57750000D01*
X157975389Y-57798037D01*
X157747903Y-57892265D01*
X157543172Y-58029062D01*
X157369062Y-58203172D01*
X157232265Y-58407903D01*
X157138037Y-58635389D01*
X157090000Y-58876886D01*
X120999999Y-58876886D01*
X120999999Y-56029950D01*
X121107037Y-55922912D01*
X121122243Y-55973041D01*
X121164029Y-56051216D01*
X121220263Y-56119737D01*
X121288784Y-56175971D01*
X121366959Y-56217757D01*
X121451785Y-56243489D01*
X121540000Y-56252177D01*
X122205942Y-56252177D01*
X121975389Y-56298037D01*
X121747903Y-56392265D01*
X121543172Y-56529062D01*
X121369062Y-56703172D01*
X121232265Y-56907903D01*
X121138037Y-57135389D01*
X121090000Y-57376886D01*
X121090000Y-57623114D01*
X121138037Y-57864611D01*
X121232265Y-58092097D01*
X121369062Y-58296828D01*
X121543172Y-58470938D01*
X121747903Y-58607735D01*
X121975389Y-58701963D01*
X122216886Y-58750000D01*
X122463114Y-58750000D01*
X122704611Y-58701963D01*
X122932097Y-58607735D01*
X123136828Y-58470938D01*
X123310938Y-58296828D01*
X123447735Y-58092097D01*
X123541963Y-57864611D01*
X123590000Y-57623114D01*
X123590000Y-57376886D01*
X123541963Y-57135389D01*
X123447735Y-56907903D01*
X123310938Y-56703172D01*
X123136828Y-56529062D01*
X122932097Y-56392265D01*
X122704611Y-56298037D01*
X122474058Y-56252177D01*
X123140000Y-56252177D01*
X123228215Y-56243489D01*
X123313041Y-56217757D01*
X123391216Y-56175971D01*
X123459737Y-56119737D01*
X123515971Y-56051216D01*
X123557757Y-55973041D01*
X123583489Y-55888215D01*
X123592177Y-55800000D01*
X123592177Y-55700000D01*
X126085613Y-55700000D01*
X126120000Y-55703387D01*
X126154387Y-55700000D01*
X126154390Y-55700000D01*
X126257224Y-55689872D01*
X126389175Y-55649845D01*
X126510781Y-55584845D01*
X126617370Y-55497370D01*
X126639296Y-55470653D01*
X126762669Y-55347281D01*
X126876886Y-55370000D01*
X127123114Y-55370000D01*
X127364611Y-55321963D01*
X127592097Y-55227735D01*
X127796828Y-55090938D01*
X127970938Y-54916828D01*
X128107735Y-54712097D01*
X128112746Y-54700000D01*
X129964364Y-54700000D01*
X130029062Y-54796828D01*
X130203172Y-54970938D01*
X130407903Y-55107735D01*
X130635389Y-55201963D01*
X130876886Y-55250000D01*
X131123114Y-55250000D01*
X131364611Y-55201963D01*
X131592097Y-55107735D01*
X131796828Y-54970938D01*
X131970938Y-54796828D01*
X132107735Y-54592097D01*
X132201963Y-54364611D01*
X132250000Y-54123114D01*
X132250000Y-53996886D01*
X133750000Y-53996886D01*
X133750000Y-54243114D01*
X133798037Y-54484611D01*
X133892265Y-54712097D01*
X134029062Y-54916828D01*
X134203172Y-55090938D01*
X134407903Y-55227735D01*
X134635389Y-55321963D01*
X134876886Y-55370000D01*
X135123114Y-55370000D01*
X135364611Y-55321963D01*
X135592097Y-55227735D01*
X135796828Y-55090938D01*
X135970938Y-54916828D01*
X136107735Y-54712097D01*
X136201963Y-54484611D01*
X136250000Y-54243114D01*
X136250000Y-53996886D01*
X136201963Y-53755389D01*
X136107735Y-53527903D01*
X135970938Y-53323172D01*
X135796828Y-53149062D01*
X135592097Y-53012265D01*
X135364611Y-52918037D01*
X135123114Y-52870000D01*
X134876886Y-52870000D01*
X134635389Y-52918037D01*
X134407903Y-53012265D01*
X134203172Y-53149062D01*
X134029062Y-53323172D01*
X133892265Y-53527903D01*
X133798037Y-53755389D01*
X133750000Y-53996886D01*
X132250000Y-53996886D01*
X132250000Y-53876886D01*
X132201963Y-53635389D01*
X132107735Y-53407903D01*
X131970938Y-53203172D01*
X131796828Y-53029062D01*
X131592097Y-52892265D01*
X131364611Y-52798037D01*
X131123114Y-52750000D01*
X130876886Y-52750000D01*
X130635389Y-52798037D01*
X130407903Y-52892265D01*
X130203172Y-53029062D01*
X130029062Y-53203172D01*
X129964364Y-53300000D01*
X127947766Y-53300000D01*
X127796828Y-53149062D01*
X127592097Y-53012265D01*
X127364611Y-52918037D01*
X127123114Y-52870000D01*
X126876886Y-52870000D01*
X126635389Y-52918037D01*
X126407903Y-53012265D01*
X126203172Y-53149062D01*
X126029062Y-53323172D01*
X125892265Y-53527903D01*
X125798037Y-53755389D01*
X125750000Y-53996886D01*
X125750000Y-54243114D01*
X125761315Y-54300000D01*
X123592177Y-54300000D01*
X123592177Y-54200000D01*
X123583489Y-54111785D01*
X123557757Y-54026959D01*
X123515971Y-53948784D01*
X123459737Y-53880263D01*
X123391216Y-53824029D01*
X123313041Y-53782243D01*
X123228215Y-53756511D01*
X123140000Y-53747823D01*
X121540000Y-53747823D01*
X121451785Y-53756511D01*
X121366959Y-53782243D01*
X121288784Y-53824029D01*
X121220263Y-53880263D01*
X121164029Y-53948784D01*
X121122243Y-54026959D01*
X121096511Y-54111785D01*
X121087823Y-54200000D01*
X121087823Y-54300000D01*
X121074386Y-54300000D01*
X121039999Y-54296613D01*
X121005612Y-54300000D01*
X121005610Y-54300000D01*
X120902776Y-54310128D01*
X120770825Y-54350155D01*
X120649219Y-54415155D01*
X120542630Y-54502630D01*
X120520704Y-54529347D01*
X119829341Y-55220710D01*
X119802630Y-55242631D01*
X119780709Y-55269342D01*
X119780707Y-55269344D01*
X119715154Y-55349220D01*
X119650154Y-55470827D01*
X119610128Y-55602778D01*
X119596612Y-55740001D01*
X119600000Y-55774398D01*
X119599999Y-59130000D01*
X119376886Y-59130000D01*
X119135389Y-59178037D01*
X118907903Y-59272265D01*
X118703172Y-59409062D01*
X118529062Y-59583172D01*
X118392265Y-59787903D01*
X118298037Y-60015389D01*
X118250000Y-60256886D01*
X117365000Y-60256886D01*
X117365000Y-52555000D01*
X124434212Y-52555000D01*
X124460000Y-52557540D01*
X124485788Y-52555000D01*
X124562918Y-52547403D01*
X124661881Y-52517383D01*
X124753086Y-52468633D01*
X124833027Y-52403027D01*
X124898633Y-52323086D01*
X124947383Y-52231881D01*
X124977403Y-52132918D01*
X124987540Y-52030000D01*
X124985000Y-52004212D01*
X124985000Y-49750200D01*
X137438763Y-49750200D01*
X137438763Y-53250320D01*
X137447451Y-53338535D01*
X137473183Y-53423361D01*
X137514969Y-53501536D01*
X137571203Y-53570057D01*
X137639724Y-53626291D01*
X137717899Y-53668077D01*
X137802725Y-53693809D01*
X137890940Y-53702497D01*
X141391060Y-53702497D01*
X141479275Y-53693809D01*
X141564101Y-53668077D01*
X141642276Y-53626291D01*
X141710797Y-53570057D01*
X141767031Y-53501536D01*
X141808817Y-53423361D01*
X141834549Y-53338535D01*
X141843237Y-53250320D01*
X141843237Y-52749940D01*
X142137763Y-52749940D01*
X142137763Y-56250060D01*
X142146451Y-56338275D01*
X142172183Y-56423101D01*
X142213969Y-56501276D01*
X142270203Y-56569797D01*
X142338724Y-56626031D01*
X142416899Y-56667817D01*
X142501725Y-56693549D01*
X142589940Y-56702237D01*
X146090060Y-56702237D01*
X146178275Y-56693549D01*
X146263101Y-56667817D01*
X146341276Y-56626031D01*
X146409797Y-56569797D01*
X146466031Y-56501276D01*
X146507817Y-56423101D01*
X146533549Y-56338275D01*
X146542237Y-56250060D01*
X146542237Y-53756886D01*
X152090000Y-53756886D01*
X152090000Y-54003114D01*
X152138037Y-54244611D01*
X152232265Y-54472097D01*
X152369062Y-54676828D01*
X152543172Y-54850938D01*
X152747903Y-54987735D01*
X152975389Y-55081963D01*
X153216886Y-55130000D01*
X153463114Y-55130000D01*
X153704611Y-55081963D01*
X153932097Y-54987735D01*
X154136828Y-54850938D01*
X154310938Y-54676828D01*
X154447735Y-54472097D01*
X154541963Y-54244611D01*
X154590000Y-54003114D01*
X154590000Y-53876886D01*
X157090000Y-53876886D01*
X157090000Y-54123114D01*
X157138037Y-54364611D01*
X157232265Y-54592097D01*
X157369062Y-54796828D01*
X157543172Y-54970938D01*
X157747903Y-55107735D01*
X157975389Y-55201963D01*
X158216886Y-55250000D01*
X158463114Y-55250000D01*
X158704611Y-55201963D01*
X158932097Y-55107735D01*
X159136828Y-54970938D01*
X159310938Y-54796828D01*
X159447735Y-54592097D01*
X159541963Y-54364611D01*
X159590000Y-54123114D01*
X159590000Y-53876886D01*
X160590000Y-53876886D01*
X160590000Y-54123114D01*
X160638037Y-54364611D01*
X160732265Y-54592097D01*
X160869062Y-54796828D01*
X161043172Y-54970938D01*
X161247903Y-55107735D01*
X161475389Y-55201963D01*
X161716886Y-55250000D01*
X161963114Y-55250000D01*
X162204611Y-55201963D01*
X162432097Y-55107735D01*
X162636828Y-54970938D01*
X162810938Y-54796828D01*
X162947735Y-54592097D01*
X163041963Y-54364611D01*
X163090000Y-54123114D01*
X163090000Y-53876886D01*
X164250000Y-53876886D01*
X164250000Y-54123114D01*
X164298037Y-54364611D01*
X164392265Y-54592097D01*
X164529062Y-54796828D01*
X164703172Y-54970938D01*
X164907903Y-55107735D01*
X165135389Y-55201963D01*
X165376886Y-55250000D01*
X165623114Y-55250000D01*
X165864611Y-55201963D01*
X166092097Y-55107735D01*
X166296828Y-54970938D01*
X166470938Y-54796828D01*
X166607735Y-54592097D01*
X166701963Y-54364611D01*
X166750000Y-54123114D01*
X166750000Y-53876886D01*
X167750000Y-53876886D01*
X167750000Y-54123114D01*
X167798037Y-54364611D01*
X167892265Y-54592097D01*
X168029062Y-54796828D01*
X168203172Y-54970938D01*
X168407903Y-55107735D01*
X168635389Y-55201963D01*
X168876886Y-55250000D01*
X169123114Y-55250000D01*
X169364611Y-55201963D01*
X169592097Y-55107735D01*
X169796828Y-54970938D01*
X169970938Y-54796828D01*
X170107735Y-54592097D01*
X170201963Y-54364611D01*
X170250000Y-54123114D01*
X170250000Y-53876886D01*
X170201963Y-53635389D01*
X170107735Y-53407903D01*
X169970938Y-53203172D01*
X169796828Y-53029062D01*
X169592097Y-52892265D01*
X169364611Y-52798037D01*
X169123114Y-52750000D01*
X168876886Y-52750000D01*
X168635389Y-52798037D01*
X168407903Y-52892265D01*
X168203172Y-53029062D01*
X168029062Y-53203172D01*
X167892265Y-53407903D01*
X167798037Y-53635389D01*
X167750000Y-53876886D01*
X166750000Y-53876886D01*
X166701963Y-53635389D01*
X166607735Y-53407903D01*
X166470938Y-53203172D01*
X166296828Y-53029062D01*
X166092097Y-52892265D01*
X165864611Y-52798037D01*
X165623114Y-52750000D01*
X165376886Y-52750000D01*
X165135389Y-52798037D01*
X164907903Y-52892265D01*
X164703172Y-53029062D01*
X164529062Y-53203172D01*
X164392265Y-53407903D01*
X164298037Y-53635389D01*
X164250000Y-53876886D01*
X163090000Y-53876886D01*
X163041963Y-53635389D01*
X162947735Y-53407903D01*
X162810938Y-53203172D01*
X162636828Y-53029062D01*
X162432097Y-52892265D01*
X162204611Y-52798037D01*
X161963114Y-52750000D01*
X161716886Y-52750000D01*
X161475389Y-52798037D01*
X161247903Y-52892265D01*
X161043172Y-53029062D01*
X160869062Y-53203172D01*
X160732265Y-53407903D01*
X160638037Y-53635389D01*
X160590000Y-53876886D01*
X159590000Y-53876886D01*
X159541963Y-53635389D01*
X159447735Y-53407903D01*
X159310938Y-53203172D01*
X159136828Y-53029062D01*
X158932097Y-52892265D01*
X158704611Y-52798037D01*
X158463114Y-52750000D01*
X158216886Y-52750000D01*
X157975389Y-52798037D01*
X157747903Y-52892265D01*
X157543172Y-53029062D01*
X157369062Y-53203172D01*
X157232265Y-53407903D01*
X157138037Y-53635389D01*
X157090000Y-53876886D01*
X154590000Y-53876886D01*
X154590000Y-53756886D01*
X154541963Y-53515389D01*
X154447735Y-53287903D01*
X154310938Y-53083172D01*
X154136828Y-52909062D01*
X153932097Y-52772265D01*
X153704611Y-52678037D01*
X153463114Y-52630000D01*
X153216886Y-52630000D01*
X152975389Y-52678037D01*
X152747903Y-52772265D01*
X152543172Y-52909062D01*
X152369062Y-53083172D01*
X152232265Y-53287903D01*
X152138037Y-53515389D01*
X152090000Y-53756886D01*
X146542237Y-53756886D01*
X146542237Y-52749940D01*
X146533549Y-52661725D01*
X146507817Y-52576899D01*
X146466031Y-52498724D01*
X146409797Y-52430203D01*
X146341276Y-52373969D01*
X146263101Y-52332183D01*
X146178275Y-52306451D01*
X146090060Y-52297763D01*
X142589940Y-52297763D01*
X142501725Y-52306451D01*
X142416899Y-52332183D01*
X142338724Y-52373969D01*
X142270203Y-52430203D01*
X142213969Y-52498724D01*
X142172183Y-52576899D01*
X142146451Y-52661725D01*
X142137763Y-52749940D01*
X141843237Y-52749940D01*
X141843237Y-50250580D01*
X142037279Y-50250580D01*
X142047898Y-50358399D01*
X142079348Y-50462074D01*
X142130419Y-50557622D01*
X142199150Y-50641370D01*
X142282898Y-50710101D01*
X142378446Y-50761172D01*
X142482121Y-50792622D01*
X142589940Y-50803241D01*
X144152500Y-50800580D01*
X144290000Y-50663080D01*
X144290000Y-48550520D01*
X144390000Y-48550520D01*
X144390000Y-50663080D01*
X144527500Y-50800580D01*
X146090060Y-50803241D01*
X146197879Y-50792622D01*
X146301554Y-50761172D01*
X146397102Y-50710101D01*
X146480850Y-50641370D01*
X146549581Y-50557622D01*
X146600652Y-50462074D01*
X146632102Y-50358399D01*
X146642721Y-50250580D01*
X146640060Y-48688020D01*
X146502560Y-48550520D01*
X144390000Y-48550520D01*
X144290000Y-48550520D01*
X142177440Y-48550520D01*
X142039940Y-48688020D01*
X142037279Y-50250580D01*
X141843237Y-50250580D01*
X141843237Y-49750200D01*
X141834549Y-49661985D01*
X141808817Y-49577159D01*
X141767031Y-49498984D01*
X141710797Y-49430463D01*
X141642276Y-49374229D01*
X141564101Y-49332443D01*
X141479275Y-49306711D01*
X141391060Y-49298023D01*
X137890940Y-49298023D01*
X137802725Y-49306711D01*
X137717899Y-49332443D01*
X137639724Y-49374229D01*
X137571203Y-49430463D01*
X137514969Y-49498984D01*
X137473183Y-49577159D01*
X137447451Y-49661985D01*
X137438763Y-49750200D01*
X124985000Y-49750200D01*
X124985000Y-47396616D01*
X126174095Y-47396616D01*
X126243644Y-47626101D01*
X126477869Y-47752021D01*
X126732159Y-47829827D01*
X126996742Y-47856528D01*
X127261449Y-47831098D01*
X127516110Y-47754515D01*
X127750937Y-47629721D01*
X127756356Y-47626101D01*
X127825905Y-47396616D01*
X127000000Y-46570711D01*
X126174095Y-47396616D01*
X124985000Y-47396616D01*
X124985000Y-46496742D01*
X125643472Y-46496742D01*
X125668902Y-46761449D01*
X125745485Y-47016110D01*
X125870279Y-47250937D01*
X125873899Y-47256356D01*
X126103384Y-47325905D01*
X126929289Y-46500000D01*
X127070711Y-46500000D01*
X127896616Y-47325905D01*
X128126101Y-47256356D01*
X128252021Y-47022131D01*
X128329827Y-46767841D01*
X128356528Y-46503258D01*
X128332860Y-46256886D01*
X129750000Y-46256886D01*
X129750000Y-46503114D01*
X129798037Y-46744611D01*
X129892265Y-46972097D01*
X130029062Y-47176828D01*
X130203172Y-47350938D01*
X130407903Y-47487735D01*
X130635389Y-47581963D01*
X130876886Y-47630000D01*
X131123114Y-47630000D01*
X131364611Y-47581963D01*
X131592097Y-47487735D01*
X131796828Y-47350938D01*
X131847766Y-47300000D01*
X133647339Y-47300000D01*
X133657958Y-47407819D01*
X133689408Y-47511494D01*
X133740479Y-47607042D01*
X133809210Y-47690790D01*
X133892958Y-47759521D01*
X133988506Y-47810592D01*
X134092181Y-47842042D01*
X134200000Y-47852661D01*
X134812500Y-47850000D01*
X134950000Y-47712500D01*
X134950000Y-46550000D01*
X135050000Y-46550000D01*
X135050000Y-47712500D01*
X135187500Y-47850000D01*
X135800000Y-47852661D01*
X135907819Y-47842042D01*
X136011494Y-47810592D01*
X136107042Y-47759521D01*
X136190790Y-47690790D01*
X136259521Y-47607042D01*
X136310592Y-47511494D01*
X136342042Y-47407819D01*
X136352661Y-47300000D01*
X136350274Y-46750460D01*
X142037279Y-46750460D01*
X142039940Y-48313020D01*
X142177440Y-48450520D01*
X144290000Y-48450520D01*
X144290000Y-46337960D01*
X144390000Y-46337960D01*
X144390000Y-48450520D01*
X146502560Y-48450520D01*
X146640060Y-48313020D01*
X146640933Y-47800000D01*
X150647339Y-47800000D01*
X150657958Y-47907819D01*
X150689408Y-48011494D01*
X150740479Y-48107042D01*
X150809210Y-48190790D01*
X150892958Y-48259521D01*
X150988506Y-48310592D01*
X151092181Y-48342042D01*
X151200000Y-48352661D01*
X151506732Y-48351328D01*
X151407903Y-48392265D01*
X151203172Y-48529062D01*
X151029062Y-48703172D01*
X150892265Y-48907903D01*
X150798037Y-49135389D01*
X150750000Y-49376886D01*
X150750000Y-49623114D01*
X150798037Y-49864611D01*
X150892265Y-50092097D01*
X151029062Y-50296828D01*
X151203172Y-50470938D01*
X151407903Y-50607735D01*
X151635389Y-50701963D01*
X151876886Y-50750000D01*
X152123114Y-50750000D01*
X152364611Y-50701963D01*
X152592097Y-50607735D01*
X152796828Y-50470938D01*
X152970938Y-50296828D01*
X153107735Y-50092097D01*
X153201963Y-49864611D01*
X153250000Y-49623114D01*
X153250000Y-49376886D01*
X153201963Y-49135389D01*
X153107735Y-48907903D01*
X152970938Y-48703172D01*
X152796828Y-48529062D01*
X152592097Y-48392265D01*
X152493268Y-48351328D01*
X152800000Y-48352661D01*
X152907819Y-48342042D01*
X153011494Y-48310592D01*
X153107042Y-48259521D01*
X153190790Y-48190790D01*
X153259521Y-48107042D01*
X153310592Y-48011494D01*
X153342042Y-47907819D01*
X153352661Y-47800000D01*
X153350000Y-47187500D01*
X153212500Y-47050000D01*
X152050000Y-47050000D01*
X152050000Y-47070000D01*
X151950000Y-47070000D01*
X151950000Y-47050000D01*
X150787500Y-47050000D01*
X150650000Y-47187500D01*
X150647339Y-47800000D01*
X146640933Y-47800000D01*
X146642721Y-46750460D01*
X146632102Y-46642641D01*
X146600652Y-46538966D01*
X146549581Y-46443418D01*
X146480850Y-46359670D01*
X146397102Y-46290939D01*
X146301554Y-46239868D01*
X146197879Y-46208418D01*
X146112408Y-46200000D01*
X150647339Y-46200000D01*
X150650000Y-46812500D01*
X150787500Y-46950000D01*
X151950000Y-46950000D01*
X151950000Y-45787500D01*
X152050000Y-45787500D01*
X152050000Y-46950000D01*
X153212500Y-46950000D01*
X153350000Y-46812500D01*
X153352661Y-46200000D01*
X156247823Y-46200000D01*
X156247823Y-47800000D01*
X156256511Y-47888215D01*
X156282243Y-47973041D01*
X156324029Y-48051216D01*
X156380263Y-48119737D01*
X156448784Y-48175971D01*
X156526959Y-48217757D01*
X156611785Y-48243489D01*
X156700000Y-48252177D01*
X157365942Y-48252177D01*
X157135389Y-48298037D01*
X156907903Y-48392265D01*
X156703172Y-48529062D01*
X156529062Y-48703172D01*
X156392265Y-48907903D01*
X156298037Y-49135389D01*
X156250000Y-49376886D01*
X156250000Y-49623114D01*
X156298037Y-49864611D01*
X156392265Y-50092097D01*
X156529062Y-50296828D01*
X156703172Y-50470938D01*
X156907903Y-50607735D01*
X157135389Y-50701963D01*
X157376886Y-50750000D01*
X157623114Y-50750000D01*
X157864611Y-50701963D01*
X158092097Y-50607735D01*
X158296828Y-50470938D01*
X158470938Y-50296828D01*
X158607735Y-50092097D01*
X158701963Y-49864611D01*
X158750000Y-49623114D01*
X158750000Y-49376886D01*
X158701963Y-49135389D01*
X158607735Y-48907903D01*
X158470938Y-48703172D01*
X158296828Y-48529062D01*
X158092097Y-48392265D01*
X157864611Y-48298037D01*
X157634058Y-48252177D01*
X158300000Y-48252177D01*
X158388215Y-48243489D01*
X158473041Y-48217757D01*
X158551216Y-48175971D01*
X158619737Y-48119737D01*
X158675971Y-48051216D01*
X158717757Y-47973041D01*
X158743489Y-47888215D01*
X158752177Y-47800000D01*
X158752177Y-46200000D01*
X158743489Y-46111785D01*
X158717757Y-46026959D01*
X158675971Y-45948784D01*
X158619737Y-45880263D01*
X158551216Y-45824029D01*
X158473041Y-45782243D01*
X158388215Y-45756511D01*
X158300000Y-45747823D01*
X156700000Y-45747823D01*
X156611785Y-45756511D01*
X156526959Y-45782243D01*
X156448784Y-45824029D01*
X156380263Y-45880263D01*
X156324029Y-45948784D01*
X156282243Y-46026959D01*
X156256511Y-46111785D01*
X156247823Y-46200000D01*
X153352661Y-46200000D01*
X153342042Y-46092181D01*
X153310592Y-45988506D01*
X153259521Y-45892958D01*
X153190790Y-45809210D01*
X153107042Y-45740479D01*
X153011494Y-45689408D01*
X152907819Y-45657958D01*
X152800000Y-45647339D01*
X152187500Y-45650000D01*
X152050000Y-45787500D01*
X151950000Y-45787500D01*
X151812500Y-45650000D01*
X151200000Y-45647339D01*
X151092181Y-45657958D01*
X150988506Y-45689408D01*
X150892958Y-45740479D01*
X150809210Y-45809210D01*
X150740479Y-45892958D01*
X150689408Y-45988506D01*
X150657958Y-46092181D01*
X150647339Y-46200000D01*
X146112408Y-46200000D01*
X146090060Y-46197799D01*
X144527500Y-46200460D01*
X144390000Y-46337960D01*
X144290000Y-46337960D01*
X144152500Y-46200460D01*
X142589940Y-46197799D01*
X142482121Y-46208418D01*
X142378446Y-46239868D01*
X142282898Y-46290939D01*
X142199150Y-46359670D01*
X142130419Y-46443418D01*
X142079348Y-46538966D01*
X142047898Y-46642641D01*
X142037279Y-46750460D01*
X136350274Y-46750460D01*
X136350000Y-46687500D01*
X136212500Y-46550000D01*
X135050000Y-46550000D01*
X134950000Y-46550000D01*
X133787500Y-46550000D01*
X133650000Y-46687500D01*
X133647339Y-47300000D01*
X131847766Y-47300000D01*
X131970938Y-47176828D01*
X132107735Y-46972097D01*
X132201963Y-46744611D01*
X132250000Y-46503114D01*
X132250000Y-46256886D01*
X132201963Y-46015389D01*
X132107735Y-45787903D01*
X132049001Y-45700000D01*
X133647339Y-45700000D01*
X133650000Y-46312500D01*
X133787500Y-46450000D01*
X134950000Y-46450000D01*
X134950000Y-45287500D01*
X135050000Y-45287500D01*
X135050000Y-46450000D01*
X136212500Y-46450000D01*
X136350000Y-46312500D01*
X136352661Y-45700000D01*
X136342042Y-45592181D01*
X136310592Y-45488506D01*
X136259521Y-45392958D01*
X136190790Y-45309210D01*
X136107042Y-45240479D01*
X136011494Y-45189408D01*
X135907819Y-45157958D01*
X135800000Y-45147339D01*
X135187500Y-45150000D01*
X135050000Y-45287500D01*
X134950000Y-45287500D01*
X134812500Y-45150000D01*
X134200000Y-45147339D01*
X134092181Y-45157958D01*
X133988506Y-45189408D01*
X133892958Y-45240479D01*
X133809210Y-45309210D01*
X133740479Y-45392958D01*
X133689408Y-45488506D01*
X133657958Y-45592181D01*
X133647339Y-45700000D01*
X132049001Y-45700000D01*
X131970938Y-45583172D01*
X131796828Y-45409062D01*
X131592097Y-45272265D01*
X131364611Y-45178037D01*
X131123114Y-45130000D01*
X130876886Y-45130000D01*
X130635389Y-45178037D01*
X130407903Y-45272265D01*
X130203172Y-45409062D01*
X130029062Y-45583172D01*
X129892265Y-45787903D01*
X129798037Y-46015389D01*
X129750000Y-46256886D01*
X128332860Y-46256886D01*
X128331098Y-46238551D01*
X128254515Y-45983890D01*
X128129721Y-45749063D01*
X128126101Y-45743644D01*
X127896616Y-45674095D01*
X127070711Y-46500000D01*
X126929289Y-46500000D01*
X126103384Y-45674095D01*
X125873899Y-45743644D01*
X125747979Y-45977869D01*
X125670173Y-46232159D01*
X125643472Y-46496742D01*
X124985000Y-46496742D01*
X124985000Y-45603384D01*
X126174095Y-45603384D01*
X127000000Y-46429289D01*
X127825905Y-45603384D01*
X127756356Y-45373899D01*
X127522131Y-45247979D01*
X127267841Y-45170173D01*
X127003258Y-45143472D01*
X126738551Y-45168902D01*
X126483890Y-45245485D01*
X126249063Y-45370279D01*
X126243644Y-45373899D01*
X126174095Y-45603384D01*
X124985000Y-45603384D01*
X124985000Y-44935000D01*
X163305000Y-44935000D01*
X163305001Y-52004202D01*
G37*
X163305001Y-52004202D02*
X163302460Y-52030000D01*
X163312597Y-52132918D01*
X163342617Y-52231881D01*
X163391367Y-52323086D01*
X163456973Y-52403027D01*
X163536914Y-52468633D01*
X163628119Y-52517383D01*
X163727082Y-52547403D01*
X163804212Y-52555000D01*
X163830000Y-52557540D01*
X163855788Y-52555000D01*
X170925604Y-52555000D01*
X170974397Y-94975000D01*
X117365000Y-94975000D01*
X117365000Y-77996886D01*
X118250000Y-77996886D01*
X118250000Y-78243114D01*
X118298037Y-78484611D01*
X118392265Y-78712097D01*
X118529062Y-78916828D01*
X118703172Y-79090938D01*
X118800000Y-79155637D01*
X118800000Y-79285759D01*
X118800001Y-79285769D01*
X118800000Y-84825613D01*
X118796613Y-84860000D01*
X118800000Y-84894387D01*
X118800000Y-84894389D01*
X118810128Y-84997223D01*
X118826138Y-85050000D01*
X118850155Y-85129174D01*
X118915155Y-85250781D01*
X118945290Y-85287500D01*
X119002630Y-85357369D01*
X119029343Y-85379292D01*
X120917087Y-87267037D01*
X120866959Y-87282243D01*
X120788784Y-87324029D01*
X120720263Y-87380263D01*
X120664029Y-87448784D01*
X120622243Y-87526959D01*
X120596511Y-87611785D01*
X120587823Y-87700000D01*
X120587823Y-89300000D01*
X120596511Y-89388215D01*
X120622243Y-89473041D01*
X120664029Y-89551216D01*
X120720263Y-89619737D01*
X120788784Y-89675971D01*
X120866959Y-89717757D01*
X120951785Y-89743489D01*
X121040000Y-89752177D01*
X122102228Y-89752177D01*
X122570705Y-90220654D01*
X122592631Y-90247371D01*
X122699220Y-90334846D01*
X122820826Y-90399846D01*
X122952777Y-90439873D01*
X123055611Y-90450001D01*
X123055613Y-90450001D01*
X123090000Y-90453388D01*
X123124387Y-90450001D01*
X124960182Y-90450001D01*
X125182256Y-90672075D01*
X125068756Y-90625062D01*
X124692045Y-90550130D01*
X124307955Y-90550130D01*
X123931244Y-90625062D01*
X123576390Y-90772047D01*
X123257030Y-90985437D01*
X122985437Y-91257030D01*
X122772047Y-91576390D01*
X122642047Y-91890238D01*
X122642047Y-91000130D01*
X122633359Y-90911915D01*
X122607627Y-90827089D01*
X122565841Y-90748914D01*
X122509607Y-90680393D01*
X122441086Y-90624159D01*
X122362911Y-90582373D01*
X122278085Y-90556641D01*
X122189870Y-90547953D01*
X119190130Y-90547953D01*
X119101915Y-90556641D01*
X119017089Y-90582373D01*
X118938914Y-90624159D01*
X118870393Y-90680393D01*
X118814159Y-90748914D01*
X118772373Y-90827089D01*
X118746641Y-90911915D01*
X118737953Y-91000130D01*
X118737953Y-93999870D01*
X118746641Y-94088085D01*
X118772373Y-94172911D01*
X118814159Y-94251086D01*
X118870393Y-94319607D01*
X118938914Y-94375841D01*
X119017089Y-94417627D01*
X119101915Y-94443359D01*
X119190130Y-94452047D01*
X122189870Y-94452047D01*
X122278085Y-94443359D01*
X122362911Y-94417627D01*
X122441086Y-94375841D01*
X122509607Y-94319607D01*
X122565841Y-94251086D01*
X122607627Y-94172911D01*
X122633359Y-94088085D01*
X122642047Y-93999870D01*
X122642047Y-93109762D01*
X122772047Y-93423610D01*
X122985437Y-93742970D01*
X123257030Y-94014563D01*
X123576390Y-94227953D01*
X123931244Y-94374938D01*
X124307955Y-94449870D01*
X124692045Y-94449870D01*
X125068756Y-94374938D01*
X125423610Y-94227953D01*
X125742970Y-94014563D01*
X126014563Y-93742970D01*
X126227953Y-93423610D01*
X126374938Y-93068756D01*
X126449870Y-92692045D01*
X126449870Y-92307955D01*
X126374938Y-91931244D01*
X126327925Y-91817745D01*
X127480839Y-92970659D01*
X127502760Y-92997370D01*
X127529471Y-93019291D01*
X127529472Y-93019292D01*
X127609348Y-93084845D01*
X127711535Y-93139465D01*
X127730955Y-93149845D01*
X127862906Y-93189872D01*
X127965740Y-93200000D01*
X127965743Y-93200000D01*
X128000130Y-93203387D01*
X128034517Y-93200000D01*
X128047953Y-93200000D01*
X128047953Y-93999870D01*
X128056641Y-94088085D01*
X128082373Y-94172911D01*
X128124159Y-94251086D01*
X128180393Y-94319607D01*
X128248914Y-94375841D01*
X128327089Y-94417627D01*
X128411915Y-94443359D01*
X128500130Y-94452047D01*
X131499870Y-94452047D01*
X131588085Y-94443359D01*
X131672911Y-94417627D01*
X131751086Y-94375841D01*
X131819607Y-94319607D01*
X131875841Y-94251086D01*
X131917627Y-94172911D01*
X131943359Y-94088085D01*
X131952047Y-93999870D01*
X131952047Y-93109762D01*
X132082047Y-93423610D01*
X132295437Y-93742970D01*
X132567030Y-94014563D01*
X132886390Y-94227953D01*
X133241244Y-94374938D01*
X133617955Y-94449870D01*
X134002045Y-94449870D01*
X134378756Y-94374938D01*
X134733610Y-94227953D01*
X135052970Y-94014563D01*
X135324563Y-93742970D01*
X135537953Y-93423610D01*
X135684938Y-93068756D01*
X135715000Y-92917623D01*
X135745062Y-93068756D01*
X135892047Y-93423610D01*
X136105437Y-93742970D01*
X136377030Y-94014563D01*
X136696390Y-94227953D01*
X137051244Y-94374938D01*
X137427955Y-94449870D01*
X137812045Y-94449870D01*
X138188756Y-94374938D01*
X138543610Y-94227953D01*
X138862970Y-94014563D01*
X138983374Y-93894159D01*
X148556552Y-93894159D01*
X148710095Y-94195301D01*
X149063311Y-94390964D01*
X149447912Y-94513958D01*
X149849119Y-94559557D01*
X150251512Y-94526007D01*
X150639627Y-94414600D01*
X150998551Y-94229616D01*
X151049905Y-94195301D01*
X151203448Y-93894159D01*
X149880000Y-92570711D01*
X148556552Y-93894159D01*
X138983374Y-93894159D01*
X139134563Y-93742970D01*
X139347953Y-93423610D01*
X139494938Y-93068756D01*
X139569870Y-92692045D01*
X139569870Y-92307955D01*
X139494938Y-91931244D01*
X139347953Y-91576390D01*
X139134563Y-91257030D01*
X138862970Y-90985437D01*
X138543610Y-90772047D01*
X138188756Y-90625062D01*
X137812045Y-90550130D01*
X137427955Y-90550130D01*
X137051244Y-90625062D01*
X136696390Y-90772047D01*
X136377030Y-90985437D01*
X136105437Y-91257030D01*
X135892047Y-91576390D01*
X135745062Y-91931244D01*
X135715000Y-92082377D01*
X135684938Y-91931244D01*
X135537953Y-91576390D01*
X135324563Y-91257030D01*
X135052970Y-90985437D01*
X134733610Y-90772047D01*
X134378756Y-90625062D01*
X134002045Y-90550130D01*
X133617955Y-90550130D01*
X133241244Y-90625062D01*
X132886390Y-90772047D01*
X132567030Y-90985437D01*
X132295437Y-91257030D01*
X132082047Y-91576390D01*
X131952047Y-91890238D01*
X131952047Y-91000130D01*
X131943359Y-90911915D01*
X131917627Y-90827089D01*
X131875841Y-90748914D01*
X131819607Y-90680393D01*
X131751086Y-90624159D01*
X131672911Y-90582373D01*
X131588085Y-90556641D01*
X131499870Y-90547953D01*
X128500130Y-90547953D01*
X128411915Y-90556641D01*
X128327089Y-90582373D01*
X128248914Y-90624159D01*
X128180393Y-90680393D01*
X128124159Y-90748914D01*
X128082373Y-90827089D01*
X128056641Y-90911915D01*
X128047953Y-91000130D01*
X128047953Y-91557873D01*
X126024792Y-89534713D01*
X126057757Y-89473041D01*
X126083489Y-89388215D01*
X126092177Y-89300000D01*
X126092177Y-87700000D01*
X126083489Y-87611785D01*
X126057757Y-87526959D01*
X126015971Y-87448784D01*
X125959737Y-87380263D01*
X125891216Y-87324029D01*
X125813041Y-87282243D01*
X125728215Y-87256511D01*
X125640000Y-87247823D01*
X124040000Y-87247823D01*
X123951785Y-87256511D01*
X123866959Y-87282243D01*
X123788784Y-87324029D01*
X123720263Y-87380263D01*
X123664029Y-87448784D01*
X123622243Y-87526959D01*
X123596511Y-87611785D01*
X123587823Y-87700000D01*
X123587823Y-89050001D01*
X123379950Y-89050001D01*
X123092177Y-88762228D01*
X123092177Y-87700000D01*
X123083489Y-87611785D01*
X123057757Y-87526959D01*
X123015971Y-87448784D01*
X122959737Y-87380263D01*
X122891216Y-87324029D01*
X122813041Y-87282243D01*
X122728215Y-87256511D01*
X122640000Y-87247823D01*
X122540000Y-87247823D01*
X122540000Y-87234387D01*
X122543387Y-87200000D01*
X122539524Y-87160781D01*
X122529872Y-87062776D01*
X122489845Y-86930825D01*
X122424845Y-86809219D01*
X122337370Y-86702630D01*
X122310659Y-86680709D01*
X120200000Y-84570051D01*
X120200000Y-84475000D01*
X126997823Y-84475000D01*
X126997823Y-85725000D01*
X127011796Y-85866865D01*
X127053176Y-86003279D01*
X127120374Y-86128998D01*
X127210808Y-86239192D01*
X127321002Y-86329626D01*
X127446721Y-86396824D01*
X127583135Y-86438204D01*
X127725000Y-86452177D01*
X128275000Y-86452177D01*
X128276985Y-86451982D01*
X128267823Y-86545000D01*
X128267823Y-87795000D01*
X128281796Y-87936865D01*
X128323176Y-88073279D01*
X128390374Y-88198998D01*
X128480808Y-88309192D01*
X128591002Y-88399626D01*
X128716721Y-88466824D01*
X128853135Y-88508204D01*
X128995000Y-88522177D01*
X129545000Y-88522177D01*
X129686865Y-88508204D01*
X129823279Y-88466824D01*
X129948998Y-88399626D01*
X130059192Y-88309192D01*
X130149626Y-88198998D01*
X130216824Y-88073279D01*
X130258204Y-87936865D01*
X130272177Y-87795000D01*
X130272177Y-87470000D01*
X134727823Y-87470000D01*
X134727823Y-87795000D01*
X134741796Y-87936865D01*
X134783176Y-88073279D01*
X134850374Y-88198998D01*
X134940808Y-88309192D01*
X135051002Y-88399626D01*
X135176721Y-88466824D01*
X135313135Y-88508204D01*
X135455000Y-88522177D01*
X136005000Y-88522177D01*
X136146865Y-88508204D01*
X136283279Y-88466824D01*
X136408998Y-88399626D01*
X136519192Y-88309192D01*
X136609626Y-88198998D01*
X136676824Y-88073279D01*
X136718204Y-87936865D01*
X136732177Y-87795000D01*
X136732177Y-86550590D01*
X136812500Y-86550000D01*
X136950000Y-86412500D01*
X136950000Y-85150000D01*
X137050000Y-85150000D01*
X137050000Y-86412500D01*
X137187500Y-86550000D01*
X137550000Y-86552661D01*
X137657819Y-86542042D01*
X137761494Y-86510592D01*
X137857042Y-86459521D01*
X137940790Y-86390790D01*
X138009521Y-86307042D01*
X138060592Y-86211494D01*
X138092042Y-86107819D01*
X138102661Y-86000000D01*
X138102202Y-85876886D01*
X138590000Y-85876886D01*
X138590000Y-86123114D01*
X138638037Y-86364611D01*
X138732265Y-86592097D01*
X138869062Y-86796828D01*
X139043172Y-86970938D01*
X139247903Y-87107735D01*
X139475389Y-87201963D01*
X139716886Y-87250000D01*
X139963114Y-87250000D01*
X140204611Y-87201963D01*
X140432097Y-87107735D01*
X140636828Y-86970938D01*
X140810938Y-86796828D01*
X140947735Y-86592097D01*
X141041963Y-86364611D01*
X141090000Y-86123114D01*
X141090000Y-85876886D01*
X141041963Y-85635389D01*
X140947735Y-85407903D01*
X140810938Y-85203172D01*
X140636828Y-85029062D01*
X140432097Y-84892265D01*
X140204611Y-84798037D01*
X139963114Y-84750000D01*
X139716886Y-84750000D01*
X139475389Y-84798037D01*
X139247903Y-84892265D01*
X139043172Y-85029062D01*
X138869062Y-85203172D01*
X138732265Y-85407903D01*
X138638037Y-85635389D01*
X138590000Y-85876886D01*
X138102202Y-85876886D01*
X138100000Y-85287500D01*
X137962500Y-85150000D01*
X137050000Y-85150000D01*
X136950000Y-85150000D01*
X136037500Y-85150000D01*
X135900000Y-85287500D01*
X135898019Y-85817823D01*
X135455000Y-85817823D01*
X135453015Y-85818018D01*
X135462177Y-85725000D01*
X135462177Y-84475000D01*
X135448204Y-84333135D01*
X135407819Y-84200000D01*
X135897339Y-84200000D01*
X135900000Y-84912500D01*
X136037500Y-85050000D01*
X136950000Y-85050000D01*
X136950000Y-83787500D01*
X137050000Y-83787500D01*
X137050000Y-85050000D01*
X137962500Y-85050000D01*
X138100000Y-84912500D01*
X138102661Y-84200000D01*
X138092042Y-84092181D01*
X138060592Y-83988506D01*
X138009521Y-83892958D01*
X137940790Y-83809210D01*
X137857042Y-83740479D01*
X137761494Y-83689408D01*
X137657819Y-83657958D01*
X137550000Y-83647339D01*
X137187500Y-83650000D01*
X137050000Y-83787500D01*
X136950000Y-83787500D01*
X136812500Y-83650000D01*
X136450000Y-83647339D01*
X136342181Y-83657958D01*
X136238506Y-83689408D01*
X136142958Y-83740479D01*
X136059210Y-83809210D01*
X135990479Y-83892958D01*
X135939408Y-83988506D01*
X135907958Y-84092181D01*
X135897339Y-84200000D01*
X135407819Y-84200000D01*
X135406824Y-84196721D01*
X135339626Y-84071002D01*
X135249192Y-83960808D01*
X135138998Y-83870374D01*
X135013279Y-83803176D01*
X134876865Y-83761796D01*
X134735000Y-83747823D01*
X134185000Y-83747823D01*
X134043135Y-83761796D01*
X133906721Y-83803176D01*
X133781002Y-83870374D01*
X133670808Y-83960808D01*
X133580374Y-84071002D01*
X133513176Y-84196721D01*
X133471796Y-84333135D01*
X133457823Y-84475000D01*
X133457823Y-85725000D01*
X133471796Y-85866865D01*
X133513176Y-86003279D01*
X133548839Y-86070000D01*
X131535283Y-86070000D01*
X131542177Y-86000000D01*
X131542177Y-84200000D01*
X131533489Y-84111785D01*
X131507757Y-84026959D01*
X131465971Y-83948784D01*
X131409737Y-83880263D01*
X131341216Y-83824029D01*
X131263041Y-83782243D01*
X131178215Y-83756511D01*
X131090000Y-83747823D01*
X129990000Y-83747823D01*
X129901785Y-83756511D01*
X129816959Y-83782243D01*
X129738784Y-83824029D01*
X129670263Y-83880263D01*
X129614029Y-83948784D01*
X129572243Y-84026959D01*
X129546511Y-84111785D01*
X129537823Y-84200000D01*
X129537823Y-85817823D01*
X128995000Y-85817823D01*
X128993015Y-85818018D01*
X129002177Y-85725000D01*
X129002177Y-84475000D01*
X128988204Y-84333135D01*
X128946824Y-84196721D01*
X128879626Y-84071002D01*
X128789192Y-83960808D01*
X128678998Y-83870374D01*
X128553279Y-83803176D01*
X128416865Y-83761796D01*
X128275000Y-83747823D01*
X127725000Y-83747823D01*
X127583135Y-83761796D01*
X127446721Y-83803176D01*
X127321002Y-83870374D01*
X127210808Y-83960808D01*
X127120374Y-84071002D01*
X127053176Y-84196721D01*
X127011796Y-84333135D01*
X126997823Y-84475000D01*
X120200000Y-84475000D01*
X120200000Y-80756886D01*
X120590000Y-80756886D01*
X120590000Y-81003114D01*
X120638037Y-81244611D01*
X120732265Y-81472097D01*
X120869062Y-81676828D01*
X121043172Y-81850938D01*
X121247903Y-81987735D01*
X121475389Y-82081963D01*
X121716886Y-82130000D01*
X121963114Y-82130000D01*
X122204611Y-82081963D01*
X122432097Y-81987735D01*
X122636828Y-81850938D01*
X122810938Y-81676828D01*
X122875636Y-81580000D01*
X123804364Y-81580000D01*
X123869062Y-81676828D01*
X124043172Y-81850938D01*
X124247903Y-81987735D01*
X124475389Y-82081963D01*
X124716886Y-82130000D01*
X124963114Y-82130000D01*
X125204611Y-82081963D01*
X125432097Y-81987735D01*
X125636828Y-81850938D01*
X125810938Y-81676828D01*
X125947735Y-81472097D01*
X126041963Y-81244611D01*
X126090000Y-81003114D01*
X126090000Y-80756886D01*
X126041963Y-80515389D01*
X125947735Y-80287903D01*
X125810938Y-80083172D01*
X125636828Y-79909062D01*
X125432097Y-79772265D01*
X125204611Y-79678037D01*
X124963114Y-79630000D01*
X124716886Y-79630000D01*
X124475389Y-79678037D01*
X124247903Y-79772265D01*
X124043172Y-79909062D01*
X123869062Y-80083172D01*
X123804364Y-80180000D01*
X122875636Y-80180000D01*
X122810938Y-80083172D01*
X122636828Y-79909062D01*
X122432097Y-79772265D01*
X122204611Y-79678037D01*
X121963114Y-79630000D01*
X121716886Y-79630000D01*
X121475389Y-79678037D01*
X121247903Y-79772265D01*
X121043172Y-79909062D01*
X120869062Y-80083172D01*
X120732265Y-80287903D01*
X120638037Y-80515389D01*
X120590000Y-80756886D01*
X120200000Y-80756886D01*
X120200000Y-79155636D01*
X120296828Y-79090938D01*
X120470938Y-78916828D01*
X120535636Y-78820000D01*
X122185613Y-78820000D01*
X122220000Y-78823387D01*
X122254387Y-78820000D01*
X122254390Y-78820000D01*
X122357224Y-78809872D01*
X122489175Y-78769845D01*
X122610781Y-78704845D01*
X122717370Y-78617370D01*
X122739296Y-78590653D01*
X123102669Y-78227281D01*
X123216886Y-78250000D01*
X123463114Y-78250000D01*
X123704611Y-78201963D01*
X123932097Y-78107735D01*
X124136828Y-77970938D01*
X124310938Y-77796828D01*
X124447735Y-77592097D01*
X124541963Y-77364611D01*
X124590000Y-77123114D01*
X124590000Y-76876886D01*
X124541963Y-76635389D01*
X124447735Y-76407903D01*
X124310938Y-76203172D01*
X124136828Y-76029062D01*
X123932097Y-75892265D01*
X123704611Y-75798037D01*
X123463114Y-75750000D01*
X123216886Y-75750000D01*
X122975389Y-75798037D01*
X122747903Y-75892265D01*
X122543172Y-76029062D01*
X122369062Y-76203172D01*
X122232265Y-76407903D01*
X122138037Y-76635389D01*
X122090000Y-76876886D01*
X122090000Y-77123114D01*
X122112719Y-77237331D01*
X121930051Y-77420000D01*
X120535636Y-77420000D01*
X120470938Y-77323172D01*
X120296828Y-77149062D01*
X120092097Y-77012265D01*
X119864611Y-76918037D01*
X119623114Y-76870000D01*
X119376886Y-76870000D01*
X119135389Y-76918037D01*
X118907903Y-77012265D01*
X118703172Y-77149062D01*
X118529062Y-77323172D01*
X118392265Y-77527903D01*
X118298037Y-77755389D01*
X118250000Y-77996886D01*
X117365000Y-77996886D01*
X117365000Y-67876886D01*
X118250000Y-67876886D01*
X118250000Y-68123114D01*
X118298037Y-68364611D01*
X118392265Y-68592097D01*
X118529062Y-68796828D01*
X118703172Y-68970938D01*
X118907903Y-69107735D01*
X119135389Y-69201963D01*
X119376886Y-69250000D01*
X119135389Y-69298037D01*
X118907903Y-69392265D01*
X118703172Y-69529062D01*
X118529062Y-69703172D01*
X118392265Y-69907903D01*
X118298037Y-70135389D01*
X118250000Y-70376886D01*
X118250000Y-70623114D01*
X118298037Y-70864611D01*
X118392265Y-71092097D01*
X118529062Y-71296828D01*
X118703172Y-71470938D01*
X118907903Y-71607735D01*
X119135389Y-71701963D01*
X119376886Y-71750000D01*
X119623114Y-71750000D01*
X119864611Y-71701963D01*
X120092097Y-71607735D01*
X120296828Y-71470938D01*
X120470938Y-71296828D01*
X120607735Y-71092097D01*
X120701963Y-70864611D01*
X120750000Y-70623114D01*
X120750000Y-70376886D01*
X120715998Y-70205947D01*
X122140205Y-71630155D01*
X122138037Y-71635389D01*
X122090000Y-71876886D01*
X122090000Y-72123114D01*
X122138037Y-72364611D01*
X122232265Y-72592097D01*
X122369062Y-72796828D01*
X122543172Y-72970938D01*
X122640001Y-73035637D01*
X122640001Y-73096973D01*
X122636613Y-73131370D01*
X122646328Y-73230001D01*
X122650129Y-73268594D01*
X122662271Y-73308620D01*
X122690155Y-73400544D01*
X122755155Y-73522151D01*
X122820708Y-73602027D01*
X122842631Y-73628740D01*
X122869342Y-73650661D01*
X125889999Y-76671319D01*
X125890000Y-78625604D01*
X125886612Y-78660001D01*
X125895477Y-78750000D01*
X125900128Y-78797225D01*
X125904254Y-78810826D01*
X125940154Y-78929175D01*
X126005154Y-79050782D01*
X126064516Y-79123114D01*
X126092630Y-79157371D01*
X126119341Y-79179292D01*
X127660707Y-80720659D01*
X127682629Y-80747371D01*
X127709340Y-80769292D01*
X127709341Y-80769293D01*
X127789218Y-80834846D01*
X127910824Y-80899846D01*
X128042775Y-80939873D01*
X128179999Y-80953388D01*
X128214389Y-80950001D01*
X149135612Y-80950001D01*
X149169999Y-80953388D01*
X149204386Y-80950001D01*
X149204389Y-80950001D01*
X149289948Y-80941574D01*
X149232265Y-81027903D01*
X149138037Y-81255389D01*
X149090000Y-81496886D01*
X149090000Y-81743114D01*
X149138037Y-81984611D01*
X149232265Y-82212097D01*
X149369062Y-82416828D01*
X149543172Y-82590938D01*
X149744553Y-82725497D01*
X147697331Y-84772719D01*
X147583114Y-84750000D01*
X147336886Y-84750000D01*
X147095389Y-84798037D01*
X146867903Y-84892265D01*
X146663172Y-85029062D01*
X146489062Y-85203172D01*
X146352265Y-85407903D01*
X146258037Y-85635389D01*
X146210000Y-85876886D01*
X146210000Y-86123114D01*
X146258037Y-86364611D01*
X146352265Y-86592097D01*
X146489062Y-86796828D01*
X146663172Y-86970938D01*
X146867903Y-87107735D01*
X147095389Y-87201963D01*
X147114324Y-87205729D01*
X145159342Y-89160711D01*
X145132631Y-89182632D01*
X145110710Y-89209343D01*
X145110708Y-89209345D01*
X145045155Y-89289221D01*
X144980155Y-89410828D01*
X144940129Y-89542779D01*
X144926613Y-89680002D01*
X144930001Y-89714399D01*
X144930000Y-91147823D01*
X144730000Y-91147823D01*
X144641785Y-91156511D01*
X144556959Y-91182243D01*
X144478784Y-91224029D01*
X144410263Y-91280263D01*
X144354029Y-91348784D01*
X144312243Y-91426959D01*
X144286511Y-91511785D01*
X144277823Y-91600000D01*
X144277823Y-91847767D01*
X144138613Y-91639425D01*
X143950575Y-91451387D01*
X143790000Y-91344094D01*
X143790000Y-85904387D01*
X143793387Y-85870000D01*
X143789624Y-85831796D01*
X143779872Y-85732776D01*
X143739845Y-85600825D01*
X143674845Y-85479219D01*
X143587370Y-85372630D01*
X143560659Y-85350709D01*
X141606566Y-83396616D01*
X146514095Y-83396616D01*
X146583644Y-83626101D01*
X146817869Y-83752021D01*
X147072159Y-83829827D01*
X147336742Y-83856528D01*
X147601449Y-83831098D01*
X147856110Y-83754515D01*
X148090937Y-83629721D01*
X148096356Y-83626101D01*
X148165905Y-83396616D01*
X147340000Y-82570711D01*
X146514095Y-83396616D01*
X141606566Y-83396616D01*
X140947281Y-82737331D01*
X140970000Y-82623114D01*
X140970000Y-82496742D01*
X145983472Y-82496742D01*
X146008902Y-82761449D01*
X146085485Y-83016110D01*
X146210279Y-83250937D01*
X146213899Y-83256356D01*
X146443384Y-83325905D01*
X147269289Y-82500000D01*
X147410711Y-82500000D01*
X148236616Y-83325905D01*
X148466101Y-83256356D01*
X148592021Y-83022131D01*
X148669827Y-82767841D01*
X148696528Y-82503258D01*
X148671098Y-82238551D01*
X148594515Y-81983890D01*
X148469721Y-81749063D01*
X148466101Y-81743644D01*
X148236616Y-81674095D01*
X147410711Y-82500000D01*
X147269289Y-82500000D01*
X146443384Y-81674095D01*
X146213899Y-81743644D01*
X146087979Y-81977869D01*
X146010173Y-82232159D01*
X145983472Y-82496742D01*
X140970000Y-82496742D01*
X140970000Y-82376886D01*
X140921963Y-82135389D01*
X140827735Y-81907903D01*
X140690938Y-81703172D01*
X140591150Y-81603384D01*
X146514095Y-81603384D01*
X147340000Y-82429289D01*
X148165905Y-81603384D01*
X148096356Y-81373899D01*
X147862131Y-81247979D01*
X147607841Y-81170173D01*
X147343258Y-81143472D01*
X147078551Y-81168902D01*
X146823890Y-81245485D01*
X146589063Y-81370279D01*
X146583644Y-81373899D01*
X146514095Y-81603384D01*
X140591150Y-81603384D01*
X140516828Y-81529062D01*
X140312097Y-81392265D01*
X140084611Y-81298037D01*
X139843114Y-81250000D01*
X139596886Y-81250000D01*
X139355389Y-81298037D01*
X139127903Y-81392265D01*
X138923172Y-81529062D01*
X138749062Y-81703172D01*
X138612265Y-81907903D01*
X138518037Y-82135389D01*
X138470000Y-82376886D01*
X138470000Y-82623114D01*
X138518037Y-82864611D01*
X138612265Y-83092097D01*
X138749062Y-83296828D01*
X138923172Y-83470938D01*
X139127903Y-83607735D01*
X139355389Y-83701963D01*
X139596886Y-83750000D01*
X139843114Y-83750000D01*
X139957331Y-83727281D01*
X142390001Y-86159951D01*
X142390000Y-91344094D01*
X142229425Y-91451387D01*
X142041387Y-91639425D01*
X141893646Y-91860535D01*
X141791880Y-92106220D01*
X141740000Y-92367037D01*
X141740000Y-92632963D01*
X141791880Y-92893780D01*
X141893646Y-93139465D01*
X142041387Y-93360575D01*
X142229425Y-93548613D01*
X142450535Y-93696354D01*
X142696220Y-93798120D01*
X142957037Y-93850000D01*
X143222963Y-93850000D01*
X143483780Y-93798120D01*
X143729465Y-93696354D01*
X143950575Y-93548613D01*
X144138613Y-93360575D01*
X144277823Y-93152233D01*
X144277823Y-93400000D01*
X144286511Y-93488215D01*
X144312243Y-93573041D01*
X144354029Y-93651216D01*
X144410263Y-93719737D01*
X144478784Y-93775971D01*
X144556959Y-93817757D01*
X144641785Y-93843489D01*
X144730000Y-93852177D01*
X146530000Y-93852177D01*
X146618215Y-93843489D01*
X146703041Y-93817757D01*
X146781216Y-93775971D01*
X146849737Y-93719737D01*
X146905971Y-93651216D01*
X146947757Y-93573041D01*
X146973489Y-93488215D01*
X146982177Y-93400000D01*
X146982177Y-92469119D01*
X147820443Y-92469119D01*
X147853993Y-92871512D01*
X147965400Y-93259627D01*
X148150384Y-93618551D01*
X148184699Y-93669905D01*
X148485841Y-93823448D01*
X149809289Y-92500000D01*
X148485841Y-91176552D01*
X148184699Y-91330095D01*
X147989036Y-91683311D01*
X147866042Y-92067912D01*
X147820443Y-92469119D01*
X146982177Y-92469119D01*
X146982177Y-91600000D01*
X146973489Y-91511785D01*
X146947757Y-91426959D01*
X146905971Y-91348784D01*
X146849737Y-91280263D01*
X146781216Y-91224029D01*
X146703041Y-91182243D01*
X146618215Y-91156511D01*
X146530000Y-91147823D01*
X146330000Y-91147823D01*
X146330000Y-91105841D01*
X148556552Y-91105841D01*
X149880000Y-92429289D01*
X151203448Y-91105841D01*
X151049905Y-90804699D01*
X150696689Y-90609036D01*
X150312088Y-90486042D01*
X149910881Y-90440443D01*
X149508488Y-90473993D01*
X149120373Y-90585400D01*
X148761449Y-90770384D01*
X148710095Y-90804699D01*
X148556552Y-91105841D01*
X146330000Y-91105841D01*
X146330000Y-89969951D01*
X147923065Y-88376886D01*
X148590000Y-88376886D01*
X148590000Y-88623114D01*
X148638037Y-88864611D01*
X148732265Y-89092097D01*
X148869062Y-89296828D01*
X149043172Y-89470938D01*
X149247903Y-89607735D01*
X149475389Y-89701963D01*
X149716886Y-89750000D01*
X149963114Y-89750000D01*
X150204611Y-89701963D01*
X150432097Y-89607735D01*
X150636828Y-89470938D01*
X150810938Y-89296828D01*
X150947735Y-89092097D01*
X151041963Y-88864611D01*
X151090000Y-88623114D01*
X151090000Y-88376886D01*
X151041963Y-88135389D01*
X150947735Y-87907903D01*
X150810938Y-87703172D01*
X150636828Y-87529062D01*
X150432097Y-87392265D01*
X150204611Y-87298037D01*
X149963114Y-87250000D01*
X149716886Y-87250000D01*
X149475389Y-87298037D01*
X149247903Y-87392265D01*
X149043172Y-87529062D01*
X148869062Y-87703172D01*
X148732265Y-87907903D01*
X148638037Y-88135389D01*
X148590000Y-88376886D01*
X147923065Y-88376886D01*
X150599951Y-85700000D01*
X151184364Y-85700000D01*
X151249062Y-85796828D01*
X151423172Y-85970938D01*
X151627903Y-86107735D01*
X151855389Y-86201963D01*
X152096886Y-86250000D01*
X152343114Y-86250000D01*
X152457331Y-86227281D01*
X152990001Y-86759951D01*
X152990000Y-90679425D01*
X152766390Y-90772047D01*
X152447030Y-90985437D01*
X152175437Y-91257030D01*
X151962047Y-91576390D01*
X151835338Y-91882294D01*
X151794600Y-91740373D01*
X151609616Y-91381449D01*
X151575301Y-91330095D01*
X151274159Y-91176552D01*
X149950711Y-92500000D01*
X151274159Y-93823448D01*
X151575301Y-93669905D01*
X151770964Y-93316689D01*
X151834920Y-93116698D01*
X151962047Y-93423610D01*
X152175437Y-93742970D01*
X152447030Y-94014563D01*
X152766390Y-94227953D01*
X153121244Y-94374938D01*
X153497955Y-94449870D01*
X153882045Y-94449870D01*
X154258756Y-94374938D01*
X154613610Y-94227953D01*
X154932970Y-94014563D01*
X155204563Y-93742970D01*
X155417953Y-93423610D01*
X155547953Y-93109762D01*
X155547953Y-93999870D01*
X155556641Y-94088085D01*
X155582373Y-94172911D01*
X155624159Y-94251086D01*
X155680393Y-94319607D01*
X155748914Y-94375841D01*
X155827089Y-94417627D01*
X155911915Y-94443359D01*
X156000130Y-94452047D01*
X158999870Y-94452047D01*
X159088085Y-94443359D01*
X159172911Y-94417627D01*
X159251086Y-94375841D01*
X159319607Y-94319607D01*
X159375841Y-94251086D01*
X159417627Y-94172911D01*
X159443359Y-94088085D01*
X159452047Y-93999870D01*
X159452047Y-91000130D01*
X160237953Y-91000130D01*
X160237953Y-93999870D01*
X160246641Y-94088085D01*
X160272373Y-94172911D01*
X160314159Y-94251086D01*
X160370393Y-94319607D01*
X160438914Y-94375841D01*
X160517089Y-94417627D01*
X160601915Y-94443359D01*
X160690130Y-94452047D01*
X163689870Y-94452047D01*
X163778085Y-94443359D01*
X163862911Y-94417627D01*
X163941086Y-94375841D01*
X164009607Y-94319607D01*
X164065841Y-94251086D01*
X164107627Y-94172911D01*
X164133359Y-94088085D01*
X164142047Y-93999870D01*
X164142047Y-93109762D01*
X164272047Y-93423610D01*
X164485437Y-93742970D01*
X164757030Y-94014563D01*
X165076390Y-94227953D01*
X165431244Y-94374938D01*
X165807955Y-94449870D01*
X166192045Y-94449870D01*
X166568756Y-94374938D01*
X166923610Y-94227953D01*
X167242970Y-94014563D01*
X167514563Y-93742970D01*
X167727953Y-93423610D01*
X167874938Y-93068756D01*
X167949870Y-92692045D01*
X167949870Y-92307955D01*
X167874938Y-91931244D01*
X167727953Y-91576390D01*
X167514563Y-91257030D01*
X167242970Y-90985437D01*
X166923610Y-90772047D01*
X166568756Y-90625062D01*
X166192045Y-90550130D01*
X165807955Y-90550130D01*
X165431244Y-90625062D01*
X165076390Y-90772047D01*
X164757030Y-90985437D01*
X164485437Y-91257030D01*
X164272047Y-91576390D01*
X164142047Y-91890238D01*
X164142047Y-91000130D01*
X164133359Y-90911915D01*
X164107627Y-90827089D01*
X164065841Y-90748914D01*
X164009607Y-90680393D01*
X163941086Y-90624159D01*
X163862911Y-90582373D01*
X163778085Y-90556641D01*
X163689870Y-90547953D01*
X163132126Y-90547953D01*
X163860080Y-89820000D01*
X167804364Y-89820000D01*
X167869062Y-89916828D01*
X168043172Y-90090938D01*
X168247903Y-90227735D01*
X168475389Y-90321963D01*
X168716886Y-90370000D01*
X168963114Y-90370000D01*
X169204611Y-90321963D01*
X169432097Y-90227735D01*
X169636828Y-90090938D01*
X169810938Y-89916828D01*
X169947735Y-89712097D01*
X170041963Y-89484611D01*
X170090000Y-89243114D01*
X170090000Y-88996886D01*
X170041963Y-88755389D01*
X169947735Y-88527903D01*
X169810938Y-88323172D01*
X169636828Y-88149062D01*
X169432097Y-88012265D01*
X169204611Y-87918037D01*
X168963114Y-87870000D01*
X168716886Y-87870000D01*
X168475389Y-87918037D01*
X168247903Y-88012265D01*
X168043172Y-88149062D01*
X167869062Y-88323172D01*
X167804364Y-88420000D01*
X163604520Y-88420000D01*
X163570130Y-88416613D01*
X163535740Y-88420000D01*
X163432906Y-88430128D01*
X163300955Y-88470155D01*
X163179349Y-88535155D01*
X163072760Y-88622630D01*
X163050838Y-88649342D01*
X161719342Y-89980839D01*
X161692631Y-90002760D01*
X161670710Y-90029471D01*
X161670708Y-90029473D01*
X161605155Y-90109349D01*
X161540155Y-90230956D01*
X161500129Y-90362907D01*
X161486613Y-90500130D01*
X161490001Y-90534527D01*
X161490001Y-90547953D01*
X160690130Y-90547953D01*
X160601915Y-90556641D01*
X160517089Y-90582373D01*
X160438914Y-90624159D01*
X160370393Y-90680393D01*
X160314159Y-90748914D01*
X160272373Y-90827089D01*
X160246641Y-90911915D01*
X160237953Y-91000130D01*
X159452047Y-91000130D01*
X159443359Y-90911915D01*
X159417627Y-90827089D01*
X159375841Y-90748914D01*
X159319607Y-90680393D01*
X159251086Y-90624159D01*
X159172911Y-90582373D01*
X159088085Y-90556641D01*
X158999870Y-90547953D01*
X156000130Y-90547953D01*
X155911915Y-90556641D01*
X155827089Y-90582373D01*
X155748914Y-90624159D01*
X155680393Y-90680393D01*
X155624159Y-90748914D01*
X155582373Y-90827089D01*
X155556641Y-90911915D01*
X155547953Y-91000130D01*
X155547953Y-91890238D01*
X155417953Y-91576390D01*
X155204563Y-91257030D01*
X154932970Y-90985437D01*
X154613610Y-90772047D01*
X154390000Y-90679425D01*
X154390000Y-86504387D01*
X154393387Y-86470000D01*
X154390000Y-86435610D01*
X154379872Y-86332776D01*
X154339845Y-86200825D01*
X154301453Y-86128998D01*
X154274845Y-86079218D01*
X154209292Y-85999342D01*
X154209291Y-85999341D01*
X154187370Y-85972630D01*
X154160658Y-85950708D01*
X153447281Y-85237331D01*
X153470000Y-85123114D01*
X153470000Y-84876886D01*
X158590000Y-84876886D01*
X158590000Y-85123114D01*
X158638037Y-85364611D01*
X158732265Y-85592097D01*
X158869062Y-85796828D01*
X159043172Y-85970938D01*
X159247903Y-86107735D01*
X159475389Y-86201963D01*
X159716886Y-86250000D01*
X159963114Y-86250000D01*
X160204611Y-86201963D01*
X160432097Y-86107735D01*
X160636828Y-85970938D01*
X160810938Y-85796828D01*
X160947735Y-85592097D01*
X161041963Y-85364611D01*
X161090000Y-85123114D01*
X161090000Y-84876886D01*
X161041963Y-84635389D01*
X160947735Y-84407903D01*
X160810938Y-84203172D01*
X160636828Y-84029062D01*
X160432097Y-83892265D01*
X160204611Y-83798037D01*
X159963114Y-83750000D01*
X159716886Y-83750000D01*
X159475389Y-83798037D01*
X159247903Y-83892265D01*
X159043172Y-84029062D01*
X158869062Y-84203172D01*
X158732265Y-84407903D01*
X158638037Y-84635389D01*
X158590000Y-84876886D01*
X153470000Y-84876886D01*
X153421963Y-84635389D01*
X153327735Y-84407903D01*
X153190938Y-84203172D01*
X153016828Y-84029062D01*
X152812097Y-83892265D01*
X152584611Y-83798037D01*
X152343114Y-83750000D01*
X152096886Y-83750000D01*
X151855389Y-83798037D01*
X151627903Y-83892265D01*
X151423172Y-84029062D01*
X151249062Y-84203172D01*
X151184364Y-84300000D01*
X150344388Y-84300000D01*
X150310001Y-84296613D01*
X150275614Y-84300000D01*
X150275612Y-84300000D01*
X150172778Y-84310128D01*
X150125471Y-84324478D01*
X150749950Y-83700000D01*
X156545613Y-83700000D01*
X156580000Y-83703387D01*
X156614387Y-83700000D01*
X156614390Y-83700000D01*
X156717224Y-83689872D01*
X156849175Y-83649845D01*
X156970781Y-83584845D01*
X157077370Y-83497370D01*
X157099296Y-83470653D01*
X157722668Y-82847281D01*
X157836886Y-82870000D01*
X158083114Y-82870000D01*
X158324611Y-82821963D01*
X158552097Y-82727735D01*
X158756828Y-82590938D01*
X158930938Y-82416828D01*
X159067735Y-82212097D01*
X159161963Y-81984611D01*
X159210000Y-81743114D01*
X159210000Y-81496886D01*
X159166066Y-81276015D01*
X160860704Y-82970653D01*
X160882630Y-82997370D01*
X160989219Y-83084845D01*
X161110825Y-83149845D01*
X161242776Y-83189872D01*
X161345610Y-83200000D01*
X161345612Y-83200000D01*
X161379999Y-83203387D01*
X161414386Y-83200000D01*
X163087823Y-83200000D01*
X163087823Y-83300000D01*
X163096511Y-83388215D01*
X163122243Y-83473041D01*
X163164029Y-83551216D01*
X163220263Y-83619737D01*
X163288784Y-83675971D01*
X163366959Y-83717757D01*
X163451785Y-83743489D01*
X163540000Y-83752177D01*
X164205942Y-83752177D01*
X163975389Y-83798037D01*
X163747903Y-83892265D01*
X163543172Y-84029062D01*
X163369062Y-84203172D01*
X163232265Y-84407903D01*
X163138037Y-84635389D01*
X163090000Y-84876886D01*
X163090000Y-85123114D01*
X163112719Y-85237332D01*
X160550051Y-87800000D01*
X158495636Y-87800000D01*
X158430938Y-87703172D01*
X158256828Y-87529062D01*
X158052097Y-87392265D01*
X157824611Y-87298037D01*
X157583114Y-87250000D01*
X157336886Y-87250000D01*
X157095389Y-87298037D01*
X156867903Y-87392265D01*
X156663172Y-87529062D01*
X156489062Y-87703172D01*
X156352265Y-87907903D01*
X156258037Y-88135389D01*
X156210000Y-88376886D01*
X156210000Y-88623114D01*
X156258037Y-88864611D01*
X156352265Y-89092097D01*
X156489062Y-89296828D01*
X156663172Y-89470938D01*
X156867903Y-89607735D01*
X157095389Y-89701963D01*
X157336886Y-89750000D01*
X157583114Y-89750000D01*
X157824611Y-89701963D01*
X158052097Y-89607735D01*
X158256828Y-89470938D01*
X158430938Y-89296828D01*
X158495636Y-89200000D01*
X160805613Y-89200000D01*
X160840000Y-89203387D01*
X160874387Y-89200000D01*
X160874390Y-89200000D01*
X160977224Y-89189872D01*
X161109175Y-89149845D01*
X161230781Y-89084845D01*
X161337370Y-88997370D01*
X161359296Y-88970653D01*
X164102668Y-86227281D01*
X164216886Y-86250000D01*
X164463114Y-86250000D01*
X164704611Y-86201963D01*
X164932097Y-86107735D01*
X165136828Y-85970938D01*
X165310938Y-85796828D01*
X165447735Y-85592097D01*
X165541963Y-85364611D01*
X165590000Y-85123114D01*
X165590000Y-84876886D01*
X165567281Y-84762668D01*
X167951092Y-82378858D01*
X168043172Y-82470938D01*
X168247903Y-82607735D01*
X168475389Y-82701963D01*
X168716886Y-82750000D01*
X168963114Y-82750000D01*
X169204611Y-82701963D01*
X169432097Y-82607735D01*
X169636828Y-82470938D01*
X169810938Y-82296828D01*
X169947735Y-82092097D01*
X170041963Y-81864611D01*
X170090000Y-81623114D01*
X170090000Y-81376886D01*
X170041963Y-81135389D01*
X169947735Y-80907903D01*
X169810938Y-80703172D01*
X169636828Y-80529062D01*
X169432097Y-80392265D01*
X169204611Y-80298037D01*
X168963114Y-80250000D01*
X168716886Y-80250000D01*
X168475389Y-80298037D01*
X168247903Y-80392265D01*
X168043172Y-80529062D01*
X167869062Y-80703172D01*
X167804276Y-80800131D01*
X167702776Y-80810128D01*
X167570825Y-80850155D01*
X167449219Y-80915155D01*
X167342630Y-81002630D01*
X167320704Y-81029347D01*
X165592177Y-82757874D01*
X165592177Y-81700000D01*
X165583489Y-81611785D01*
X165557757Y-81526959D01*
X165515971Y-81448784D01*
X165459737Y-81380263D01*
X165391216Y-81324029D01*
X165313041Y-81282243D01*
X165228215Y-81256511D01*
X165140000Y-81247823D01*
X163540000Y-81247823D01*
X163451785Y-81256511D01*
X163366959Y-81282243D01*
X163288784Y-81324029D01*
X163220263Y-81380263D01*
X163164029Y-81448784D01*
X163122243Y-81526959D01*
X163096511Y-81611785D01*
X163087823Y-81700000D01*
X163087823Y-81800000D01*
X161669949Y-81800000D01*
X159187281Y-79317332D01*
X159210000Y-79203114D01*
X159210000Y-78956886D01*
X159161963Y-78715389D01*
X159067735Y-78487903D01*
X158993556Y-78376886D01*
X160090000Y-78376886D01*
X160090000Y-78623114D01*
X160138037Y-78864611D01*
X160232265Y-79092097D01*
X160369062Y-79296828D01*
X160543172Y-79470938D01*
X160747903Y-79607735D01*
X160975389Y-79701963D01*
X161216886Y-79750000D01*
X161463114Y-79750000D01*
X161704611Y-79701963D01*
X161932097Y-79607735D01*
X162136828Y-79470938D01*
X162310938Y-79296828D01*
X162447735Y-79092097D01*
X162541963Y-78864611D01*
X162590000Y-78623114D01*
X162590000Y-78376886D01*
X162567281Y-78262668D01*
X162610657Y-78219292D01*
X162637368Y-78197371D01*
X162724844Y-78090782D01*
X162789844Y-77969176D01*
X162829871Y-77837225D01*
X162839999Y-77734391D01*
X162839999Y-77734389D01*
X162843386Y-77700002D01*
X162839999Y-77665615D01*
X162839999Y-74227745D01*
X162887823Y-74223034D01*
X162887823Y-75050000D01*
X162896511Y-75138215D01*
X162922243Y-75223041D01*
X162964029Y-75301216D01*
X163020263Y-75369737D01*
X163088784Y-75425971D01*
X163166959Y-75467757D01*
X163251785Y-75493489D01*
X163340000Y-75502177D01*
X163483598Y-75502177D01*
X165526827Y-77545407D01*
X165369062Y-77703172D01*
X165232265Y-77907903D01*
X165138037Y-78135389D01*
X165090000Y-78376886D01*
X165090000Y-78623114D01*
X165138037Y-78864611D01*
X165232265Y-79092097D01*
X165369062Y-79296828D01*
X165543172Y-79470938D01*
X165747903Y-79607735D01*
X165975389Y-79701963D01*
X166216886Y-79750000D01*
X166463114Y-79750000D01*
X166704611Y-79701963D01*
X166932097Y-79607735D01*
X167136828Y-79470938D01*
X167310938Y-79296828D01*
X167447735Y-79092097D01*
X167541963Y-78864611D01*
X167590000Y-78623114D01*
X167590000Y-78376886D01*
X167541963Y-78135389D01*
X167447735Y-77907903D01*
X167310938Y-77703172D01*
X167307766Y-77700000D01*
X168087823Y-77700000D01*
X168087823Y-79300000D01*
X168096511Y-79388215D01*
X168122243Y-79473041D01*
X168164029Y-79551216D01*
X168220263Y-79619737D01*
X168288784Y-79675971D01*
X168366959Y-79717757D01*
X168451785Y-79743489D01*
X168540000Y-79752177D01*
X170140000Y-79752177D01*
X170228215Y-79743489D01*
X170313041Y-79717757D01*
X170391216Y-79675971D01*
X170459737Y-79619737D01*
X170515971Y-79551216D01*
X170557757Y-79473041D01*
X170583489Y-79388215D01*
X170592177Y-79300000D01*
X170592177Y-77700000D01*
X170583489Y-77611785D01*
X170557757Y-77526959D01*
X170515971Y-77448784D01*
X170459737Y-77380263D01*
X170391216Y-77324029D01*
X170313041Y-77282243D01*
X170228215Y-77256511D01*
X170140000Y-77247823D01*
X168540000Y-77247823D01*
X168451785Y-77256511D01*
X168366959Y-77282243D01*
X168288784Y-77324029D01*
X168220263Y-77380263D01*
X168164029Y-77448784D01*
X168122243Y-77526959D01*
X168096511Y-77611785D01*
X168087823Y-77700000D01*
X167307766Y-77700000D01*
X167136828Y-77529062D01*
X167040000Y-77464364D01*
X167040000Y-77403017D01*
X167043387Y-77368630D01*
X167038910Y-77323172D01*
X167029872Y-77231406D01*
X166989845Y-77099455D01*
X166974764Y-77071240D01*
X166924845Y-76977848D01*
X166859292Y-76897972D01*
X166859291Y-76897971D01*
X166837370Y-76871260D01*
X166810659Y-76849339D01*
X165388658Y-75427338D01*
X165391216Y-75425971D01*
X165459737Y-75369737D01*
X165515971Y-75301216D01*
X165557757Y-75223041D01*
X165583489Y-75138215D01*
X165592177Y-75050000D01*
X165592177Y-73950000D01*
X165583489Y-73861785D01*
X165557757Y-73776959D01*
X165515971Y-73698784D01*
X165459737Y-73630263D01*
X165391216Y-73574029D01*
X165313041Y-73532243D01*
X165228215Y-73506511D01*
X165140000Y-73497823D01*
X163522177Y-73497823D01*
X163522177Y-72955000D01*
X163521982Y-72953015D01*
X163615000Y-72962177D01*
X164865000Y-72962177D01*
X165006865Y-72948204D01*
X165143279Y-72906824D01*
X165268998Y-72839626D01*
X165379192Y-72749192D01*
X165452390Y-72660000D01*
X168225613Y-72660000D01*
X168260000Y-72663387D01*
X168294387Y-72660000D01*
X168294390Y-72660000D01*
X168397224Y-72649872D01*
X168529175Y-72609845D01*
X168650781Y-72544845D01*
X168757370Y-72457370D01*
X168779296Y-72430653D01*
X169102669Y-72107281D01*
X169216886Y-72130000D01*
X169463114Y-72130000D01*
X169704611Y-72081963D01*
X169932097Y-71987735D01*
X170136828Y-71850938D01*
X170310938Y-71676828D01*
X170447735Y-71472097D01*
X170541963Y-71244611D01*
X170590000Y-71003114D01*
X170590000Y-70756886D01*
X170541963Y-70515389D01*
X170447735Y-70287903D01*
X170310938Y-70083172D01*
X170136828Y-69909062D01*
X169932097Y-69772265D01*
X169704611Y-69678037D01*
X169463114Y-69630000D01*
X169216886Y-69630000D01*
X168975389Y-69678037D01*
X168747903Y-69772265D01*
X168543172Y-69909062D01*
X168369062Y-70083172D01*
X168232265Y-70287903D01*
X168138037Y-70515389D01*
X168090000Y-70756886D01*
X168090000Y-71003114D01*
X168112719Y-71117331D01*
X167970051Y-71260000D01*
X165452390Y-71260000D01*
X165379192Y-71170808D01*
X165268998Y-71080374D01*
X165143279Y-71013176D01*
X165006865Y-70971796D01*
X164865000Y-70957823D01*
X163615000Y-70957823D01*
X163473135Y-70971796D01*
X163336721Y-71013176D01*
X163211002Y-71080374D01*
X163100808Y-71170808D01*
X163010374Y-71281002D01*
X162943176Y-71406721D01*
X162901796Y-71543135D01*
X162887823Y-71685000D01*
X162887823Y-72235000D01*
X162888018Y-72236985D01*
X162795000Y-72227823D01*
X161545000Y-72227823D01*
X161403135Y-72241796D01*
X161266721Y-72283176D01*
X161141002Y-72350374D01*
X161030808Y-72440808D01*
X160940374Y-72551002D01*
X160873176Y-72676721D01*
X160831796Y-72813135D01*
X160817823Y-72955000D01*
X160817823Y-73505000D01*
X160831796Y-73646865D01*
X160873176Y-73783279D01*
X160940374Y-73908998D01*
X161030808Y-74019192D01*
X161141002Y-74109626D01*
X161266721Y-74176824D01*
X161403135Y-74218204D01*
X161440000Y-74221835D01*
X161439999Y-77250000D01*
X161216886Y-77250000D01*
X160975389Y-77298037D01*
X160747903Y-77392265D01*
X160543172Y-77529062D01*
X160369062Y-77703172D01*
X160232265Y-77907903D01*
X160138037Y-78135389D01*
X160090000Y-78376886D01*
X158993556Y-78376886D01*
X158930938Y-78283172D01*
X158756828Y-78109062D01*
X158660000Y-78044364D01*
X158660000Y-77575636D01*
X158756828Y-77510938D01*
X158930938Y-77336828D01*
X159067735Y-77132097D01*
X159161963Y-76904611D01*
X159210000Y-76663114D01*
X159210000Y-76416886D01*
X159161963Y-76175389D01*
X159067735Y-75947903D01*
X158930938Y-75743172D01*
X158756828Y-75569062D01*
X158552097Y-75432265D01*
X158324611Y-75338037D01*
X158083114Y-75290000D01*
X157836886Y-75290000D01*
X157595389Y-75338037D01*
X157367903Y-75432265D01*
X157163172Y-75569062D01*
X156989062Y-75743172D01*
X156852265Y-75947903D01*
X156758037Y-76175389D01*
X156710000Y-76416886D01*
X156710000Y-76663114D01*
X156758037Y-76904611D01*
X156852265Y-77132097D01*
X156989062Y-77336828D01*
X157163172Y-77510938D01*
X157260000Y-77575637D01*
X157260001Y-78044363D01*
X157163172Y-78109062D01*
X156989062Y-78283172D01*
X156852265Y-78487903D01*
X156758037Y-78715389D01*
X156710000Y-78956886D01*
X156710000Y-79203114D01*
X156753934Y-79423985D01*
X151592177Y-74262228D01*
X151592177Y-73876886D01*
X156710000Y-73876886D01*
X156710000Y-74123114D01*
X156758037Y-74364611D01*
X156852265Y-74592097D01*
X156989062Y-74796828D01*
X157163172Y-74970938D01*
X157367903Y-75107735D01*
X157595389Y-75201963D01*
X157836886Y-75250000D01*
X158083114Y-75250000D01*
X158324611Y-75201963D01*
X158552097Y-75107735D01*
X158756828Y-74970938D01*
X158930938Y-74796828D01*
X159067735Y-74592097D01*
X159161963Y-74364611D01*
X159210000Y-74123114D01*
X159210000Y-73876886D01*
X159161963Y-73635389D01*
X159067735Y-73407903D01*
X158930938Y-73203172D01*
X158756828Y-73029062D01*
X158660000Y-72964364D01*
X158660000Y-71738685D01*
X158716886Y-71750000D01*
X158963114Y-71750000D01*
X159204611Y-71701963D01*
X159432097Y-71607735D01*
X159636828Y-71470938D01*
X159810938Y-71296828D01*
X159947735Y-71092097D01*
X160041963Y-70864611D01*
X160090000Y-70623114D01*
X160090000Y-70376886D01*
X160041963Y-70135389D01*
X159947735Y-69907903D01*
X159810938Y-69703172D01*
X159636828Y-69529062D01*
X159432097Y-69392265D01*
X159204611Y-69298037D01*
X158963114Y-69250000D01*
X158716886Y-69250000D01*
X158475389Y-69298037D01*
X158247903Y-69392265D01*
X158043172Y-69529062D01*
X157869062Y-69703172D01*
X157732265Y-69907903D01*
X157638037Y-70135389D01*
X157590000Y-70376886D01*
X157590000Y-70623114D01*
X157612719Y-70737331D01*
X157489342Y-70860709D01*
X157462631Y-70882630D01*
X157440710Y-70909341D01*
X157440708Y-70909343D01*
X157375155Y-70989219D01*
X157310155Y-71110826D01*
X157270129Y-71242777D01*
X157256613Y-71380000D01*
X157260001Y-71414397D01*
X157260000Y-72964363D01*
X157163172Y-73029062D01*
X156989062Y-73203172D01*
X156852265Y-73407903D01*
X156758037Y-73635389D01*
X156710000Y-73876886D01*
X151592177Y-73876886D01*
X151592177Y-73200000D01*
X151583489Y-73111785D01*
X151557757Y-73026959D01*
X151515971Y-72948784D01*
X151459737Y-72880263D01*
X151391216Y-72824029D01*
X151313041Y-72782243D01*
X151228215Y-72756511D01*
X151140000Y-72747823D01*
X149540000Y-72747823D01*
X149451785Y-72756511D01*
X149366959Y-72782243D01*
X149288784Y-72824029D01*
X149220263Y-72880263D01*
X149164029Y-72948784D01*
X149122243Y-73026959D01*
X149096511Y-73111785D01*
X149087823Y-73200000D01*
X149087823Y-74800000D01*
X149096511Y-74888215D01*
X149122243Y-74973041D01*
X149164029Y-75051216D01*
X149220263Y-75119737D01*
X149288784Y-75175971D01*
X149366959Y-75217757D01*
X149451785Y-75243489D01*
X149540000Y-75252177D01*
X150602228Y-75252177D01*
X150683985Y-75333934D01*
X150463114Y-75290000D01*
X150216886Y-75290000D01*
X149975389Y-75338037D01*
X149747903Y-75432265D01*
X149543172Y-75569062D01*
X149369062Y-75743172D01*
X149304364Y-75840000D01*
X139669950Y-75840000D01*
X134590376Y-70760426D01*
X149895357Y-70760426D01*
X149896527Y-70766316D01*
X149973913Y-71019396D01*
X150099185Y-71252516D01*
X150267530Y-71456717D01*
X150472478Y-71624152D01*
X150706153Y-71748386D01*
X150959574Y-71824645D01*
X151170000Y-71711576D01*
X151170000Y-70550000D01*
X151270000Y-70550000D01*
X151270000Y-71711576D01*
X151480426Y-71824645D01*
X151733847Y-71748386D01*
X151967522Y-71624152D01*
X152172470Y-71456717D01*
X152340815Y-71252516D01*
X152466087Y-71019396D01*
X152543473Y-70766316D01*
X152544643Y-70760426D01*
X152431469Y-70550000D01*
X151270000Y-70550000D01*
X151170000Y-70550000D01*
X150008531Y-70550000D01*
X149895357Y-70760426D01*
X134590376Y-70760426D01*
X134069524Y-70239574D01*
X149895357Y-70239574D01*
X150008531Y-70450000D01*
X151170000Y-70450000D01*
X151170000Y-69288424D01*
X151270000Y-69288424D01*
X151270000Y-70450000D01*
X152431469Y-70450000D01*
X152544643Y-70239574D01*
X152543473Y-70233684D01*
X152466087Y-69980604D01*
X152340815Y-69747484D01*
X152172470Y-69543283D01*
X151967522Y-69375848D01*
X151733847Y-69251614D01*
X151480426Y-69175355D01*
X151270000Y-69288424D01*
X151170000Y-69288424D01*
X150959574Y-69175355D01*
X150706153Y-69251614D01*
X150472478Y-69375848D01*
X150267530Y-69543283D01*
X150099185Y-69747484D01*
X149973913Y-69980604D01*
X149896527Y-70233684D01*
X149895357Y-70239574D01*
X134069524Y-70239574D01*
X132706836Y-68876886D01*
X164590000Y-68876886D01*
X164590000Y-69123114D01*
X164638037Y-69364611D01*
X164732265Y-69592097D01*
X164869062Y-69796828D01*
X165043172Y-69970938D01*
X165247903Y-70107735D01*
X165475389Y-70201963D01*
X165716886Y-70250000D01*
X165963114Y-70250000D01*
X166204611Y-70201963D01*
X166432097Y-70107735D01*
X166636828Y-69970938D01*
X166810938Y-69796828D01*
X166947735Y-69592097D01*
X167041963Y-69364611D01*
X167090000Y-69123114D01*
X167090000Y-68876886D01*
X167041963Y-68635389D01*
X166947735Y-68407903D01*
X166810938Y-68203172D01*
X166636828Y-68029062D01*
X166432097Y-67892265D01*
X166204611Y-67798037D01*
X165963114Y-67750000D01*
X165716886Y-67750000D01*
X165475389Y-67798037D01*
X165247903Y-67892265D01*
X165043172Y-68029062D01*
X164869062Y-68203172D01*
X164732265Y-68407903D01*
X164638037Y-68635389D01*
X164590000Y-68876886D01*
X132706836Y-68876886D01*
X129869843Y-66039894D01*
X129897744Y-65972536D01*
X129960000Y-65659556D01*
X129960000Y-65357187D01*
X142890000Y-65357187D01*
X142890000Y-65642813D01*
X142945723Y-65922949D01*
X143055027Y-66186833D01*
X143213711Y-66424321D01*
X143415679Y-66626289D01*
X143653167Y-66784973D01*
X143917051Y-66894277D01*
X144197187Y-66950000D01*
X144482813Y-66950000D01*
X144762949Y-66894277D01*
X145026833Y-66784973D01*
X145264321Y-66626289D01*
X145466289Y-66424321D01*
X145624973Y-66186833D01*
X145734277Y-65922949D01*
X145790000Y-65642813D01*
X145790000Y-65357187D01*
X145734277Y-65077051D01*
X145624973Y-64813167D01*
X145466289Y-64575679D01*
X145264321Y-64373711D01*
X145026833Y-64215027D01*
X144762949Y-64105723D01*
X144482813Y-64050000D01*
X144197187Y-64050000D01*
X143917051Y-64105723D01*
X143653167Y-64215027D01*
X143415679Y-64373711D01*
X143213711Y-64575679D01*
X143055027Y-64813167D01*
X142945723Y-65077051D01*
X142890000Y-65357187D01*
X129960000Y-65357187D01*
X129960000Y-65340444D01*
X129897744Y-65027464D01*
X129775625Y-64732642D01*
X129598336Y-64467311D01*
X129372689Y-64241664D01*
X129107358Y-64064375D01*
X128812536Y-63942256D01*
X128499556Y-63880000D01*
X128180444Y-63880000D01*
X127867464Y-63942256D01*
X127572642Y-64064375D01*
X127307311Y-64241664D01*
X127081664Y-64467311D01*
X126904375Y-64732642D01*
X126782256Y-65027464D01*
X126720000Y-65340444D01*
X126720000Y-65659556D01*
X126782256Y-65972536D01*
X126904375Y-66267358D01*
X127081664Y-66532689D01*
X127307311Y-66758336D01*
X127572642Y-66935625D01*
X127867464Y-67057744D01*
X128180444Y-67120000D01*
X128499556Y-67120000D01*
X128812536Y-67057744D01*
X128879894Y-67029843D01*
X138860709Y-77010659D01*
X138882630Y-77037370D01*
X138989219Y-77124845D01*
X139110825Y-77189845D01*
X139242776Y-77229872D01*
X139345610Y-77240000D01*
X139345613Y-77240000D01*
X139380000Y-77243387D01*
X139414387Y-77240000D01*
X149304364Y-77240000D01*
X149369062Y-77336828D01*
X149543172Y-77510938D01*
X149747903Y-77647735D01*
X149975389Y-77741963D01*
X150216886Y-77790000D01*
X150463114Y-77790000D01*
X150704611Y-77741963D01*
X150932097Y-77647735D01*
X151136828Y-77510938D01*
X151310938Y-77336828D01*
X151447735Y-77132097D01*
X151541963Y-76904611D01*
X151590000Y-76663114D01*
X151590000Y-76416886D01*
X151546066Y-76196015D01*
X156732719Y-81382668D01*
X156710000Y-81496886D01*
X156710000Y-81743114D01*
X156732719Y-81857332D01*
X156290051Y-82300000D01*
X151389000Y-82300000D01*
X151447735Y-82212097D01*
X151541963Y-81984611D01*
X151590000Y-81743114D01*
X151590000Y-81496886D01*
X151541963Y-81255389D01*
X151447735Y-81027903D01*
X151310938Y-80823172D01*
X151136828Y-80649062D01*
X150932097Y-80512265D01*
X150704611Y-80418037D01*
X150463114Y-80370000D01*
X150216886Y-80370000D01*
X149996015Y-80413934D01*
X150102668Y-80307281D01*
X150216886Y-80330000D01*
X150463114Y-80330000D01*
X150704611Y-80281963D01*
X150932097Y-80187735D01*
X151136828Y-80050938D01*
X151310938Y-79876828D01*
X151447735Y-79672097D01*
X151541963Y-79444611D01*
X151590000Y-79203114D01*
X151590000Y-78956886D01*
X151541963Y-78715389D01*
X151447735Y-78487903D01*
X151310938Y-78283172D01*
X151136828Y-78109062D01*
X150932097Y-77972265D01*
X150704611Y-77878037D01*
X150463114Y-77830000D01*
X150216886Y-77830000D01*
X149975389Y-77878037D01*
X149747903Y-77972265D01*
X149543172Y-78109062D01*
X149369062Y-78283172D01*
X149232265Y-78487903D01*
X149138037Y-78715389D01*
X149090000Y-78956886D01*
X149090000Y-79203114D01*
X149112719Y-79317332D01*
X148880050Y-79550001D01*
X148585172Y-79550001D01*
X148661963Y-79364611D01*
X148710000Y-79123114D01*
X148710000Y-78876886D01*
X148661963Y-78635389D01*
X148567735Y-78407903D01*
X148430938Y-78203172D01*
X148256828Y-78029062D01*
X148052097Y-77892265D01*
X147824611Y-77798037D01*
X147583114Y-77750000D01*
X147336886Y-77750000D01*
X147095389Y-77798037D01*
X146867903Y-77892265D01*
X146663172Y-78029062D01*
X146489062Y-78203172D01*
X146352265Y-78407903D01*
X146258037Y-78635389D01*
X146210000Y-78876886D01*
X146210000Y-79123114D01*
X146258037Y-79364611D01*
X146334828Y-79550001D01*
X140965172Y-79550001D01*
X141041963Y-79364611D01*
X141090000Y-79123114D01*
X141090000Y-78876886D01*
X141041963Y-78635389D01*
X140947735Y-78407903D01*
X140810938Y-78203172D01*
X140636828Y-78029062D01*
X140432097Y-77892265D01*
X140204611Y-77798037D01*
X139963114Y-77750000D01*
X139716886Y-77750000D01*
X139475389Y-77798037D01*
X139247903Y-77892265D01*
X139043172Y-78029062D01*
X138869062Y-78203172D01*
X138732265Y-78407903D01*
X138638037Y-78635389D01*
X138590000Y-78876886D01*
X138590000Y-79123114D01*
X138638037Y-79364611D01*
X138714828Y-79550001D01*
X128469949Y-79550001D01*
X127672124Y-78752177D01*
X128640000Y-78752177D01*
X128728215Y-78743489D01*
X128813041Y-78717757D01*
X128891216Y-78675971D01*
X128959737Y-78619737D01*
X129015971Y-78551216D01*
X129057757Y-78473041D01*
X129083489Y-78388215D01*
X129092177Y-78300000D01*
X129092177Y-77634058D01*
X129138037Y-77864611D01*
X129232265Y-78092097D01*
X129369062Y-78296828D01*
X129543172Y-78470938D01*
X129747903Y-78607735D01*
X129975389Y-78701963D01*
X130216886Y-78750000D01*
X130463114Y-78750000D01*
X130704611Y-78701963D01*
X130932097Y-78607735D01*
X131136828Y-78470938D01*
X131310938Y-78296828D01*
X131447735Y-78092097D01*
X131541963Y-77864611D01*
X131590000Y-77623114D01*
X131590000Y-77376886D01*
X131541963Y-77135389D01*
X131447735Y-76907903D01*
X131310938Y-76703172D01*
X131307766Y-76700000D01*
X132587823Y-76700000D01*
X132587823Y-78300000D01*
X132596511Y-78388215D01*
X132622243Y-78473041D01*
X132664029Y-78551216D01*
X132720263Y-78619737D01*
X132788784Y-78675971D01*
X132866959Y-78717757D01*
X132951785Y-78743489D01*
X133040000Y-78752177D01*
X134640000Y-78752177D01*
X134728215Y-78743489D01*
X134813041Y-78717757D01*
X134891216Y-78675971D01*
X134959737Y-78619737D01*
X135015971Y-78551216D01*
X135057757Y-78473041D01*
X135083489Y-78388215D01*
X135092177Y-78300000D01*
X135092177Y-77634058D01*
X135138037Y-77864611D01*
X135232265Y-78092097D01*
X135369062Y-78296828D01*
X135543172Y-78470938D01*
X135747903Y-78607735D01*
X135975389Y-78701963D01*
X136216886Y-78750000D01*
X136463114Y-78750000D01*
X136704611Y-78701963D01*
X136932097Y-78607735D01*
X137136828Y-78470938D01*
X137310938Y-78296828D01*
X137447735Y-78092097D01*
X137541963Y-77864611D01*
X137590000Y-77623114D01*
X137590000Y-77376886D01*
X137541963Y-77135389D01*
X137447735Y-76907903D01*
X137310938Y-76703172D01*
X137136828Y-76529062D01*
X136932097Y-76392265D01*
X136704611Y-76298037D01*
X136463114Y-76250000D01*
X136216886Y-76250000D01*
X135975389Y-76298037D01*
X135747903Y-76392265D01*
X135543172Y-76529062D01*
X135369062Y-76703172D01*
X135232265Y-76907903D01*
X135138037Y-77135389D01*
X135092177Y-77365942D01*
X135092177Y-76700000D01*
X135083489Y-76611785D01*
X135057757Y-76526959D01*
X135015971Y-76448784D01*
X134959737Y-76380263D01*
X134891216Y-76324029D01*
X134813041Y-76282243D01*
X134728215Y-76256511D01*
X134640000Y-76247823D01*
X133040000Y-76247823D01*
X132951785Y-76256511D01*
X132866959Y-76282243D01*
X132788784Y-76324029D01*
X132720263Y-76380263D01*
X132664029Y-76448784D01*
X132622243Y-76526959D01*
X132596511Y-76611785D01*
X132587823Y-76700000D01*
X131307766Y-76700000D01*
X131136828Y-76529062D01*
X130932097Y-76392265D01*
X130704611Y-76298037D01*
X130463114Y-76250000D01*
X130216886Y-76250000D01*
X129975389Y-76298037D01*
X129747903Y-76392265D01*
X129543172Y-76529062D01*
X129369062Y-76703172D01*
X129232265Y-76907903D01*
X129138037Y-77135389D01*
X129092177Y-77365942D01*
X129092177Y-76700000D01*
X129083489Y-76611785D01*
X129057757Y-76526959D01*
X129015971Y-76448784D01*
X128959737Y-76380263D01*
X128891216Y-76324029D01*
X128813041Y-76282243D01*
X128728215Y-76256511D01*
X128640000Y-76247823D01*
X127280233Y-76247823D01*
X127279871Y-76244145D01*
X127239844Y-76112194D01*
X127174844Y-75990588D01*
X127145765Y-75955155D01*
X127109291Y-75910711D01*
X127109286Y-75910706D01*
X127087368Y-75883999D01*
X127060662Y-75862082D01*
X124153173Y-72954593D01*
X124310938Y-72796828D01*
X124447735Y-72592097D01*
X124541963Y-72364611D01*
X124590000Y-72123114D01*
X124590000Y-71876886D01*
X124541963Y-71635389D01*
X124447735Y-71407903D01*
X124310938Y-71203172D01*
X124136828Y-71029062D01*
X123932097Y-70892265D01*
X123704611Y-70798037D01*
X123463114Y-70750000D01*
X123239950Y-70750000D01*
X122830394Y-70340444D01*
X126720000Y-70340444D01*
X126720000Y-70659556D01*
X126782256Y-70972536D01*
X126904375Y-71267358D01*
X127081664Y-71532689D01*
X127307311Y-71758336D01*
X127572642Y-71935625D01*
X127867464Y-72057744D01*
X128180444Y-72120000D01*
X128499556Y-72120000D01*
X128812536Y-72057744D01*
X129107358Y-71935625D01*
X129372689Y-71758336D01*
X129598336Y-71532689D01*
X129775625Y-71267358D01*
X129897744Y-70972536D01*
X129960000Y-70659556D01*
X129960000Y-70340444D01*
X129897744Y-70027464D01*
X129775625Y-69732642D01*
X129598336Y-69467311D01*
X129372689Y-69241664D01*
X129107358Y-69064375D01*
X128812536Y-68942256D01*
X128499556Y-68880000D01*
X128180444Y-68880000D01*
X127867464Y-68942256D01*
X127572642Y-69064375D01*
X127307311Y-69241664D01*
X127081664Y-69467311D01*
X126904375Y-69732642D01*
X126782256Y-70027464D01*
X126720000Y-70340444D01*
X122830394Y-70340444D01*
X120727281Y-68237331D01*
X120750000Y-68123114D01*
X120750000Y-67996886D01*
X123590000Y-67996886D01*
X123590000Y-68243114D01*
X123638037Y-68484611D01*
X123732265Y-68712097D01*
X123869062Y-68916828D01*
X124043172Y-69090938D01*
X124247903Y-69227735D01*
X124475389Y-69321963D01*
X124716886Y-69370000D01*
X124963114Y-69370000D01*
X125204611Y-69321963D01*
X125432097Y-69227735D01*
X125636828Y-69090938D01*
X125810938Y-68916828D01*
X125947735Y-68712097D01*
X126041963Y-68484611D01*
X126090000Y-68243114D01*
X126090000Y-67996886D01*
X126041963Y-67755389D01*
X125947735Y-67527903D01*
X125810938Y-67323172D01*
X125636828Y-67149062D01*
X125432097Y-67012265D01*
X125204611Y-66918037D01*
X124963114Y-66870000D01*
X124716886Y-66870000D01*
X124475389Y-66918037D01*
X124247903Y-67012265D01*
X124043172Y-67149062D01*
X123869062Y-67323172D01*
X123732265Y-67527903D01*
X123638037Y-67755389D01*
X123590000Y-67996886D01*
X120750000Y-67996886D01*
X120750000Y-67876886D01*
X120701963Y-67635389D01*
X120607735Y-67407903D01*
X120470938Y-67203172D01*
X120296828Y-67029062D01*
X120092097Y-66892265D01*
X119864611Y-66798037D01*
X119623114Y-66750000D01*
X119376886Y-66750000D01*
X119135389Y-66798037D01*
X118907903Y-66892265D01*
X118703172Y-67029062D01*
X118529062Y-67203172D01*
X118392265Y-67407903D01*
X118298037Y-67635389D01*
X118250000Y-67876886D01*
X117365000Y-67876886D01*
X117365000Y-60256886D01*
X118250000Y-60256886D01*
X118250000Y-60503114D01*
X118298037Y-60744611D01*
X118392265Y-60972097D01*
X118529062Y-61176828D01*
X118703172Y-61350938D01*
X118907903Y-61487735D01*
X119135389Y-61581963D01*
X119376886Y-61630000D01*
X119623114Y-61630000D01*
X119864611Y-61581963D01*
X120092097Y-61487735D01*
X120296828Y-61350938D01*
X120470938Y-61176828D01*
X120607735Y-60972097D01*
X120701963Y-60744611D01*
X120750000Y-60503114D01*
X120750000Y-60376886D01*
X123590000Y-60376886D01*
X123590000Y-60623114D01*
X123638037Y-60864611D01*
X123732265Y-61092097D01*
X123869062Y-61296828D01*
X124043172Y-61470938D01*
X124247903Y-61607735D01*
X124475389Y-61701963D01*
X124716886Y-61750000D01*
X124963114Y-61750000D01*
X125204611Y-61701963D01*
X125432097Y-61607735D01*
X125636828Y-61470938D01*
X125810938Y-61296828D01*
X125947735Y-61092097D01*
X126041963Y-60864611D01*
X126090000Y-60623114D01*
X126090000Y-60376886D01*
X126082752Y-60340444D01*
X126720000Y-60340444D01*
X126720000Y-60659556D01*
X126782256Y-60972536D01*
X126904375Y-61267358D01*
X127081664Y-61532689D01*
X127307311Y-61758336D01*
X127572642Y-61935625D01*
X127867464Y-62057744D01*
X128180444Y-62120000D01*
X128499556Y-62120000D01*
X128812536Y-62057744D01*
X129107358Y-61935625D01*
X129372689Y-61758336D01*
X129598336Y-61532689D01*
X129702440Y-61376886D01*
X152090000Y-61376886D01*
X152090000Y-61623114D01*
X152138037Y-61864611D01*
X152232265Y-62092097D01*
X152369062Y-62296828D01*
X152543172Y-62470938D01*
X152747903Y-62607735D01*
X152975389Y-62701963D01*
X153216886Y-62750000D01*
X153463114Y-62750000D01*
X153704611Y-62701963D01*
X153932097Y-62607735D01*
X154136828Y-62470938D01*
X154310938Y-62296828D01*
X154447735Y-62092097D01*
X154541963Y-61864611D01*
X154549221Y-61828120D01*
X159661000Y-61828120D01*
X159661000Y-62091880D01*
X159712457Y-62350572D01*
X159813393Y-62594254D01*
X159959931Y-62813563D01*
X160146437Y-63000069D01*
X160365746Y-63146607D01*
X160567075Y-63230000D01*
X160365746Y-63313393D01*
X160146437Y-63459931D01*
X159959931Y-63646437D01*
X159813393Y-63865746D01*
X159712457Y-64109428D01*
X159661000Y-64368120D01*
X159661000Y-64631880D01*
X159712457Y-64890572D01*
X159813393Y-65134254D01*
X159959931Y-65353563D01*
X160146437Y-65540069D01*
X160365746Y-65686607D01*
X160567075Y-65770000D01*
X160365746Y-65853393D01*
X160146437Y-65999931D01*
X159959931Y-66186437D01*
X159813393Y-66405746D01*
X159712457Y-66649428D01*
X159661000Y-66908120D01*
X159661000Y-67171880D01*
X159712457Y-67430572D01*
X159813393Y-67674254D01*
X159959931Y-67893563D01*
X160146437Y-68080069D01*
X160365746Y-68226607D01*
X160609428Y-68327543D01*
X160868120Y-68379000D01*
X161131880Y-68379000D01*
X161390572Y-68327543D01*
X161634254Y-68226607D01*
X161853563Y-68080069D01*
X162040069Y-67893563D01*
X162186607Y-67674254D01*
X162287543Y-67430572D01*
X162339000Y-67171880D01*
X162339000Y-66908120D01*
X162287543Y-66649428D01*
X162186607Y-66405746D01*
X162040069Y-66186437D01*
X161853563Y-65999931D01*
X161634254Y-65853393D01*
X161432925Y-65770000D01*
X161634254Y-65686607D01*
X161853563Y-65540069D01*
X162040069Y-65353563D01*
X162186607Y-65134254D01*
X162287543Y-64890572D01*
X162339000Y-64631880D01*
X162339000Y-64368120D01*
X162287543Y-64109428D01*
X162186607Y-63865746D01*
X162040069Y-63646437D01*
X161853563Y-63459931D01*
X161634254Y-63313393D01*
X161432925Y-63230000D01*
X161634254Y-63146607D01*
X161853563Y-63000069D01*
X162040069Y-62813563D01*
X162186607Y-62594254D01*
X162287543Y-62350572D01*
X162339000Y-62091880D01*
X162339000Y-61828120D01*
X162287543Y-61569428D01*
X162257496Y-61496886D01*
X164250000Y-61496886D01*
X164250000Y-61743114D01*
X164298037Y-61984611D01*
X164392265Y-62212097D01*
X164529062Y-62416828D01*
X164703172Y-62590938D01*
X164907903Y-62727735D01*
X165135389Y-62821963D01*
X165326062Y-62859890D01*
X165247903Y-62892265D01*
X165043172Y-63029062D01*
X164869062Y-63203172D01*
X164732265Y-63407903D01*
X164638037Y-63635389D01*
X164590000Y-63876886D01*
X164590000Y-64123114D01*
X164638037Y-64364611D01*
X164732265Y-64592097D01*
X164869062Y-64796828D01*
X165043172Y-64970938D01*
X165247903Y-65107735D01*
X165475389Y-65201963D01*
X165716886Y-65250000D01*
X165963114Y-65250000D01*
X166204611Y-65201963D01*
X166432097Y-65107735D01*
X166636828Y-64970938D01*
X166810938Y-64796828D01*
X166947735Y-64592097D01*
X167041963Y-64364611D01*
X167090000Y-64123114D01*
X167090000Y-63876886D01*
X167041963Y-63635389D01*
X166947735Y-63407903D01*
X166810938Y-63203172D01*
X166636828Y-63029062D01*
X166432097Y-62892265D01*
X166204611Y-62798037D01*
X166013938Y-62760110D01*
X166092097Y-62727735D01*
X166296828Y-62590938D01*
X166470938Y-62416828D01*
X166607735Y-62212097D01*
X166701963Y-61984611D01*
X166750000Y-61743114D01*
X166750000Y-61496886D01*
X167750000Y-61496886D01*
X167750000Y-61743114D01*
X167798037Y-61984611D01*
X167892265Y-62212097D01*
X168029062Y-62416828D01*
X168203172Y-62590938D01*
X168407903Y-62727735D01*
X168635389Y-62821963D01*
X168876886Y-62870000D01*
X169123114Y-62870000D01*
X169364611Y-62821963D01*
X169592097Y-62727735D01*
X169796828Y-62590938D01*
X169970938Y-62416828D01*
X170107735Y-62212097D01*
X170201963Y-61984611D01*
X170250000Y-61743114D01*
X170250000Y-61496886D01*
X170201963Y-61255389D01*
X170107735Y-61027903D01*
X169970938Y-60823172D01*
X169796828Y-60649062D01*
X169592097Y-60512265D01*
X169364611Y-60418037D01*
X169123114Y-60370000D01*
X168876886Y-60370000D01*
X168635389Y-60418037D01*
X168407903Y-60512265D01*
X168203172Y-60649062D01*
X168029062Y-60823172D01*
X167892265Y-61027903D01*
X167798037Y-61255389D01*
X167750000Y-61496886D01*
X166750000Y-61496886D01*
X166701963Y-61255389D01*
X166607735Y-61027903D01*
X166470938Y-60823172D01*
X166296828Y-60649062D01*
X166092097Y-60512265D01*
X165864611Y-60418037D01*
X165623114Y-60370000D01*
X165376886Y-60370000D01*
X165135389Y-60418037D01*
X164907903Y-60512265D01*
X164703172Y-60649062D01*
X164529062Y-60823172D01*
X164392265Y-61027903D01*
X164298037Y-61255389D01*
X164250000Y-61496886D01*
X162257496Y-61496886D01*
X162186607Y-61325746D01*
X162040069Y-61106437D01*
X161853563Y-60919931D01*
X161634254Y-60773393D01*
X161390572Y-60672457D01*
X161131880Y-60621000D01*
X160868120Y-60621000D01*
X160609428Y-60672457D01*
X160365746Y-60773393D01*
X160146437Y-60919931D01*
X159959931Y-61106437D01*
X159813393Y-61325746D01*
X159712457Y-61569428D01*
X159661000Y-61828120D01*
X154549221Y-61828120D01*
X154590000Y-61623114D01*
X154590000Y-61376886D01*
X154541963Y-61135389D01*
X154447735Y-60907903D01*
X154310938Y-60703172D01*
X154136828Y-60529062D01*
X153932097Y-60392265D01*
X153704611Y-60298037D01*
X153463114Y-60250000D01*
X153216886Y-60250000D01*
X152975389Y-60298037D01*
X152747903Y-60392265D01*
X152543172Y-60529062D01*
X152369062Y-60703172D01*
X152232265Y-60907903D01*
X152138037Y-61135389D01*
X152090000Y-61376886D01*
X129702440Y-61376886D01*
X129775625Y-61267358D01*
X129897744Y-60972536D01*
X129960000Y-60659556D01*
X129960000Y-60340444D01*
X129897744Y-60027464D01*
X129775625Y-59732642D01*
X129598336Y-59467311D01*
X129372689Y-59241664D01*
X129107358Y-59064375D01*
X128812536Y-58942256D01*
X128499556Y-58880000D01*
X128180444Y-58880000D01*
X127867464Y-58942256D01*
X127572642Y-59064375D01*
X127307311Y-59241664D01*
X127081664Y-59467311D01*
X126904375Y-59732642D01*
X126782256Y-60027464D01*
X126720000Y-60340444D01*
X126082752Y-60340444D01*
X126041963Y-60135389D01*
X125947735Y-59907903D01*
X125810938Y-59703172D01*
X125636828Y-59529062D01*
X125432097Y-59392265D01*
X125204611Y-59298037D01*
X124963114Y-59250000D01*
X124716886Y-59250000D01*
X124475389Y-59298037D01*
X124247903Y-59392265D01*
X124043172Y-59529062D01*
X123869062Y-59703172D01*
X123732265Y-59907903D01*
X123638037Y-60135389D01*
X123590000Y-60376886D01*
X120750000Y-60376886D01*
X120750000Y-60256886D01*
X120727281Y-60142668D01*
X120770657Y-60099292D01*
X120797368Y-60077371D01*
X120884844Y-59970782D01*
X120949844Y-59849176D01*
X120989871Y-59717225D01*
X120999999Y-59614391D01*
X120999999Y-59614389D01*
X121003386Y-59580002D01*
X120999999Y-59545615D01*
X120999999Y-58876886D01*
X157090000Y-58876886D01*
X157090000Y-59123114D01*
X157138037Y-59364611D01*
X157232265Y-59592097D01*
X157369062Y-59796828D01*
X157543172Y-59970938D01*
X157747903Y-60107735D01*
X157975389Y-60201963D01*
X158216886Y-60250000D01*
X158463114Y-60250000D01*
X158704611Y-60201963D01*
X158932097Y-60107735D01*
X159136828Y-59970938D01*
X159310938Y-59796828D01*
X159447735Y-59592097D01*
X159541963Y-59364611D01*
X159590000Y-59123114D01*
X159590000Y-58876886D01*
X160590000Y-58876886D01*
X160590000Y-59123114D01*
X160638037Y-59364611D01*
X160732265Y-59592097D01*
X160869062Y-59796828D01*
X161043172Y-59970938D01*
X161247903Y-60107735D01*
X161475389Y-60201963D01*
X161716886Y-60250000D01*
X161963114Y-60250000D01*
X162204611Y-60201963D01*
X162432097Y-60107735D01*
X162636828Y-59970938D01*
X162810938Y-59796828D01*
X162947735Y-59592097D01*
X163041963Y-59364611D01*
X163090000Y-59123114D01*
X163090000Y-58876886D01*
X163041963Y-58635389D01*
X162947735Y-58407903D01*
X162810938Y-58203172D01*
X162636828Y-58029062D01*
X162432097Y-57892265D01*
X162204611Y-57798037D01*
X161963114Y-57750000D01*
X161716886Y-57750000D01*
X161475389Y-57798037D01*
X161247903Y-57892265D01*
X161043172Y-58029062D01*
X160869062Y-58203172D01*
X160732265Y-58407903D01*
X160638037Y-58635389D01*
X160590000Y-58876886D01*
X159590000Y-58876886D01*
X159541963Y-58635389D01*
X159447735Y-58407903D01*
X159310938Y-58203172D01*
X159136828Y-58029062D01*
X158932097Y-57892265D01*
X158704611Y-57798037D01*
X158463114Y-57750000D01*
X158216886Y-57750000D01*
X157975389Y-57798037D01*
X157747903Y-57892265D01*
X157543172Y-58029062D01*
X157369062Y-58203172D01*
X157232265Y-58407903D01*
X157138037Y-58635389D01*
X157090000Y-58876886D01*
X120999999Y-58876886D01*
X120999999Y-56029950D01*
X121107037Y-55922912D01*
X121122243Y-55973041D01*
X121164029Y-56051216D01*
X121220263Y-56119737D01*
X121288784Y-56175971D01*
X121366959Y-56217757D01*
X121451785Y-56243489D01*
X121540000Y-56252177D01*
X122205942Y-56252177D01*
X121975389Y-56298037D01*
X121747903Y-56392265D01*
X121543172Y-56529062D01*
X121369062Y-56703172D01*
X121232265Y-56907903D01*
X121138037Y-57135389D01*
X121090000Y-57376886D01*
X121090000Y-57623114D01*
X121138037Y-57864611D01*
X121232265Y-58092097D01*
X121369062Y-58296828D01*
X121543172Y-58470938D01*
X121747903Y-58607735D01*
X121975389Y-58701963D01*
X122216886Y-58750000D01*
X122463114Y-58750000D01*
X122704611Y-58701963D01*
X122932097Y-58607735D01*
X123136828Y-58470938D01*
X123310938Y-58296828D01*
X123447735Y-58092097D01*
X123541963Y-57864611D01*
X123590000Y-57623114D01*
X123590000Y-57376886D01*
X123541963Y-57135389D01*
X123447735Y-56907903D01*
X123310938Y-56703172D01*
X123136828Y-56529062D01*
X122932097Y-56392265D01*
X122704611Y-56298037D01*
X122474058Y-56252177D01*
X123140000Y-56252177D01*
X123228215Y-56243489D01*
X123313041Y-56217757D01*
X123391216Y-56175971D01*
X123459737Y-56119737D01*
X123515971Y-56051216D01*
X123557757Y-55973041D01*
X123583489Y-55888215D01*
X123592177Y-55800000D01*
X123592177Y-55700000D01*
X126085613Y-55700000D01*
X126120000Y-55703387D01*
X126154387Y-55700000D01*
X126154390Y-55700000D01*
X126257224Y-55689872D01*
X126389175Y-55649845D01*
X126510781Y-55584845D01*
X126617370Y-55497370D01*
X126639296Y-55470653D01*
X126762669Y-55347281D01*
X126876886Y-55370000D01*
X127123114Y-55370000D01*
X127364611Y-55321963D01*
X127592097Y-55227735D01*
X127796828Y-55090938D01*
X127970938Y-54916828D01*
X128107735Y-54712097D01*
X128112746Y-54700000D01*
X129964364Y-54700000D01*
X130029062Y-54796828D01*
X130203172Y-54970938D01*
X130407903Y-55107735D01*
X130635389Y-55201963D01*
X130876886Y-55250000D01*
X131123114Y-55250000D01*
X131364611Y-55201963D01*
X131592097Y-55107735D01*
X131796828Y-54970938D01*
X131970938Y-54796828D01*
X132107735Y-54592097D01*
X132201963Y-54364611D01*
X132250000Y-54123114D01*
X132250000Y-53996886D01*
X133750000Y-53996886D01*
X133750000Y-54243114D01*
X133798037Y-54484611D01*
X133892265Y-54712097D01*
X134029062Y-54916828D01*
X134203172Y-55090938D01*
X134407903Y-55227735D01*
X134635389Y-55321963D01*
X134876886Y-55370000D01*
X135123114Y-55370000D01*
X135364611Y-55321963D01*
X135592097Y-55227735D01*
X135796828Y-55090938D01*
X135970938Y-54916828D01*
X136107735Y-54712097D01*
X136201963Y-54484611D01*
X136250000Y-54243114D01*
X136250000Y-53996886D01*
X136201963Y-53755389D01*
X136107735Y-53527903D01*
X135970938Y-53323172D01*
X135796828Y-53149062D01*
X135592097Y-53012265D01*
X135364611Y-52918037D01*
X135123114Y-52870000D01*
X134876886Y-52870000D01*
X134635389Y-52918037D01*
X134407903Y-53012265D01*
X134203172Y-53149062D01*
X134029062Y-53323172D01*
X133892265Y-53527903D01*
X133798037Y-53755389D01*
X133750000Y-53996886D01*
X132250000Y-53996886D01*
X132250000Y-53876886D01*
X132201963Y-53635389D01*
X132107735Y-53407903D01*
X131970938Y-53203172D01*
X131796828Y-53029062D01*
X131592097Y-52892265D01*
X131364611Y-52798037D01*
X131123114Y-52750000D01*
X130876886Y-52750000D01*
X130635389Y-52798037D01*
X130407903Y-52892265D01*
X130203172Y-53029062D01*
X130029062Y-53203172D01*
X129964364Y-53300000D01*
X127947766Y-53300000D01*
X127796828Y-53149062D01*
X127592097Y-53012265D01*
X127364611Y-52918037D01*
X127123114Y-52870000D01*
X126876886Y-52870000D01*
X126635389Y-52918037D01*
X126407903Y-53012265D01*
X126203172Y-53149062D01*
X126029062Y-53323172D01*
X125892265Y-53527903D01*
X125798037Y-53755389D01*
X125750000Y-53996886D01*
X125750000Y-54243114D01*
X125761315Y-54300000D01*
X123592177Y-54300000D01*
X123592177Y-54200000D01*
X123583489Y-54111785D01*
X123557757Y-54026959D01*
X123515971Y-53948784D01*
X123459737Y-53880263D01*
X123391216Y-53824029D01*
X123313041Y-53782243D01*
X123228215Y-53756511D01*
X123140000Y-53747823D01*
X121540000Y-53747823D01*
X121451785Y-53756511D01*
X121366959Y-53782243D01*
X121288784Y-53824029D01*
X121220263Y-53880263D01*
X121164029Y-53948784D01*
X121122243Y-54026959D01*
X121096511Y-54111785D01*
X121087823Y-54200000D01*
X121087823Y-54300000D01*
X121074386Y-54300000D01*
X121039999Y-54296613D01*
X121005612Y-54300000D01*
X121005610Y-54300000D01*
X120902776Y-54310128D01*
X120770825Y-54350155D01*
X120649219Y-54415155D01*
X120542630Y-54502630D01*
X120520704Y-54529347D01*
X119829341Y-55220710D01*
X119802630Y-55242631D01*
X119780709Y-55269342D01*
X119780707Y-55269344D01*
X119715154Y-55349220D01*
X119650154Y-55470827D01*
X119610128Y-55602778D01*
X119596612Y-55740001D01*
X119600000Y-55774398D01*
X119599999Y-59130000D01*
X119376886Y-59130000D01*
X119135389Y-59178037D01*
X118907903Y-59272265D01*
X118703172Y-59409062D01*
X118529062Y-59583172D01*
X118392265Y-59787903D01*
X118298037Y-60015389D01*
X118250000Y-60256886D01*
X117365000Y-60256886D01*
X117365000Y-52555000D01*
X124434212Y-52555000D01*
X124460000Y-52557540D01*
X124485788Y-52555000D01*
X124562918Y-52547403D01*
X124661881Y-52517383D01*
X124753086Y-52468633D01*
X124833027Y-52403027D01*
X124898633Y-52323086D01*
X124947383Y-52231881D01*
X124977403Y-52132918D01*
X124987540Y-52030000D01*
X124985000Y-52004212D01*
X124985000Y-49750200D01*
X137438763Y-49750200D01*
X137438763Y-53250320D01*
X137447451Y-53338535D01*
X137473183Y-53423361D01*
X137514969Y-53501536D01*
X137571203Y-53570057D01*
X137639724Y-53626291D01*
X137717899Y-53668077D01*
X137802725Y-53693809D01*
X137890940Y-53702497D01*
X141391060Y-53702497D01*
X141479275Y-53693809D01*
X141564101Y-53668077D01*
X141642276Y-53626291D01*
X141710797Y-53570057D01*
X141767031Y-53501536D01*
X141808817Y-53423361D01*
X141834549Y-53338535D01*
X141843237Y-53250320D01*
X141843237Y-52749940D01*
X142137763Y-52749940D01*
X142137763Y-56250060D01*
X142146451Y-56338275D01*
X142172183Y-56423101D01*
X142213969Y-56501276D01*
X142270203Y-56569797D01*
X142338724Y-56626031D01*
X142416899Y-56667817D01*
X142501725Y-56693549D01*
X142589940Y-56702237D01*
X146090060Y-56702237D01*
X146178275Y-56693549D01*
X146263101Y-56667817D01*
X146341276Y-56626031D01*
X146409797Y-56569797D01*
X146466031Y-56501276D01*
X146507817Y-56423101D01*
X146533549Y-56338275D01*
X146542237Y-56250060D01*
X146542237Y-53756886D01*
X152090000Y-53756886D01*
X152090000Y-54003114D01*
X152138037Y-54244611D01*
X152232265Y-54472097D01*
X152369062Y-54676828D01*
X152543172Y-54850938D01*
X152747903Y-54987735D01*
X152975389Y-55081963D01*
X153216886Y-55130000D01*
X153463114Y-55130000D01*
X153704611Y-55081963D01*
X153932097Y-54987735D01*
X154136828Y-54850938D01*
X154310938Y-54676828D01*
X154447735Y-54472097D01*
X154541963Y-54244611D01*
X154590000Y-54003114D01*
X154590000Y-53876886D01*
X157090000Y-53876886D01*
X157090000Y-54123114D01*
X157138037Y-54364611D01*
X157232265Y-54592097D01*
X157369062Y-54796828D01*
X157543172Y-54970938D01*
X157747903Y-55107735D01*
X157975389Y-55201963D01*
X158216886Y-55250000D01*
X158463114Y-55250000D01*
X158704611Y-55201963D01*
X158932097Y-55107735D01*
X159136828Y-54970938D01*
X159310938Y-54796828D01*
X159447735Y-54592097D01*
X159541963Y-54364611D01*
X159590000Y-54123114D01*
X159590000Y-53876886D01*
X160590000Y-53876886D01*
X160590000Y-54123114D01*
X160638037Y-54364611D01*
X160732265Y-54592097D01*
X160869062Y-54796828D01*
X161043172Y-54970938D01*
X161247903Y-55107735D01*
X161475389Y-55201963D01*
X161716886Y-55250000D01*
X161963114Y-55250000D01*
X162204611Y-55201963D01*
X162432097Y-55107735D01*
X162636828Y-54970938D01*
X162810938Y-54796828D01*
X162947735Y-54592097D01*
X163041963Y-54364611D01*
X163090000Y-54123114D01*
X163090000Y-53876886D01*
X164250000Y-53876886D01*
X164250000Y-54123114D01*
X164298037Y-54364611D01*
X164392265Y-54592097D01*
X164529062Y-54796828D01*
X164703172Y-54970938D01*
X164907903Y-55107735D01*
X165135389Y-55201963D01*
X165376886Y-55250000D01*
X165623114Y-55250000D01*
X165864611Y-55201963D01*
X166092097Y-55107735D01*
X166296828Y-54970938D01*
X166470938Y-54796828D01*
X166607735Y-54592097D01*
X166701963Y-54364611D01*
X166750000Y-54123114D01*
X166750000Y-53876886D01*
X167750000Y-53876886D01*
X167750000Y-54123114D01*
X167798037Y-54364611D01*
X167892265Y-54592097D01*
X168029062Y-54796828D01*
X168203172Y-54970938D01*
X168407903Y-55107735D01*
X168635389Y-55201963D01*
X168876886Y-55250000D01*
X169123114Y-55250000D01*
X169364611Y-55201963D01*
X169592097Y-55107735D01*
X169796828Y-54970938D01*
X169970938Y-54796828D01*
X170107735Y-54592097D01*
X170201963Y-54364611D01*
X170250000Y-54123114D01*
X170250000Y-53876886D01*
X170201963Y-53635389D01*
X170107735Y-53407903D01*
X169970938Y-53203172D01*
X169796828Y-53029062D01*
X169592097Y-52892265D01*
X169364611Y-52798037D01*
X169123114Y-52750000D01*
X168876886Y-52750000D01*
X168635389Y-52798037D01*
X168407903Y-52892265D01*
X168203172Y-53029062D01*
X168029062Y-53203172D01*
X167892265Y-53407903D01*
X167798037Y-53635389D01*
X167750000Y-53876886D01*
X166750000Y-53876886D01*
X166701963Y-53635389D01*
X166607735Y-53407903D01*
X166470938Y-53203172D01*
X166296828Y-53029062D01*
X166092097Y-52892265D01*
X165864611Y-52798037D01*
X165623114Y-52750000D01*
X165376886Y-52750000D01*
X165135389Y-52798037D01*
X164907903Y-52892265D01*
X164703172Y-53029062D01*
X164529062Y-53203172D01*
X164392265Y-53407903D01*
X164298037Y-53635389D01*
X164250000Y-53876886D01*
X163090000Y-53876886D01*
X163041963Y-53635389D01*
X162947735Y-53407903D01*
X162810938Y-53203172D01*
X162636828Y-53029062D01*
X162432097Y-52892265D01*
X162204611Y-52798037D01*
X161963114Y-52750000D01*
X161716886Y-52750000D01*
X161475389Y-52798037D01*
X161247903Y-52892265D01*
X161043172Y-53029062D01*
X160869062Y-53203172D01*
X160732265Y-53407903D01*
X160638037Y-53635389D01*
X160590000Y-53876886D01*
X159590000Y-53876886D01*
X159541963Y-53635389D01*
X159447735Y-53407903D01*
X159310938Y-53203172D01*
X159136828Y-53029062D01*
X158932097Y-52892265D01*
X158704611Y-52798037D01*
X158463114Y-52750000D01*
X158216886Y-52750000D01*
X157975389Y-52798037D01*
X157747903Y-52892265D01*
X157543172Y-53029062D01*
X157369062Y-53203172D01*
X157232265Y-53407903D01*
X157138037Y-53635389D01*
X157090000Y-53876886D01*
X154590000Y-53876886D01*
X154590000Y-53756886D01*
X154541963Y-53515389D01*
X154447735Y-53287903D01*
X154310938Y-53083172D01*
X154136828Y-52909062D01*
X153932097Y-52772265D01*
X153704611Y-52678037D01*
X153463114Y-52630000D01*
X153216886Y-52630000D01*
X152975389Y-52678037D01*
X152747903Y-52772265D01*
X152543172Y-52909062D01*
X152369062Y-53083172D01*
X152232265Y-53287903D01*
X152138037Y-53515389D01*
X152090000Y-53756886D01*
X146542237Y-53756886D01*
X146542237Y-52749940D01*
X146533549Y-52661725D01*
X146507817Y-52576899D01*
X146466031Y-52498724D01*
X146409797Y-52430203D01*
X146341276Y-52373969D01*
X146263101Y-52332183D01*
X146178275Y-52306451D01*
X146090060Y-52297763D01*
X142589940Y-52297763D01*
X142501725Y-52306451D01*
X142416899Y-52332183D01*
X142338724Y-52373969D01*
X142270203Y-52430203D01*
X142213969Y-52498724D01*
X142172183Y-52576899D01*
X142146451Y-52661725D01*
X142137763Y-52749940D01*
X141843237Y-52749940D01*
X141843237Y-50250580D01*
X142037279Y-50250580D01*
X142047898Y-50358399D01*
X142079348Y-50462074D01*
X142130419Y-50557622D01*
X142199150Y-50641370D01*
X142282898Y-50710101D01*
X142378446Y-50761172D01*
X142482121Y-50792622D01*
X142589940Y-50803241D01*
X144152500Y-50800580D01*
X144290000Y-50663080D01*
X144290000Y-48550520D01*
X144390000Y-48550520D01*
X144390000Y-50663080D01*
X144527500Y-50800580D01*
X146090060Y-50803241D01*
X146197879Y-50792622D01*
X146301554Y-50761172D01*
X146397102Y-50710101D01*
X146480850Y-50641370D01*
X146549581Y-50557622D01*
X146600652Y-50462074D01*
X146632102Y-50358399D01*
X146642721Y-50250580D01*
X146640060Y-48688020D01*
X146502560Y-48550520D01*
X144390000Y-48550520D01*
X144290000Y-48550520D01*
X142177440Y-48550520D01*
X142039940Y-48688020D01*
X142037279Y-50250580D01*
X141843237Y-50250580D01*
X141843237Y-49750200D01*
X141834549Y-49661985D01*
X141808817Y-49577159D01*
X141767031Y-49498984D01*
X141710797Y-49430463D01*
X141642276Y-49374229D01*
X141564101Y-49332443D01*
X141479275Y-49306711D01*
X141391060Y-49298023D01*
X137890940Y-49298023D01*
X137802725Y-49306711D01*
X137717899Y-49332443D01*
X137639724Y-49374229D01*
X137571203Y-49430463D01*
X137514969Y-49498984D01*
X137473183Y-49577159D01*
X137447451Y-49661985D01*
X137438763Y-49750200D01*
X124985000Y-49750200D01*
X124985000Y-47396616D01*
X126174095Y-47396616D01*
X126243644Y-47626101D01*
X126477869Y-47752021D01*
X126732159Y-47829827D01*
X126996742Y-47856528D01*
X127261449Y-47831098D01*
X127516110Y-47754515D01*
X127750937Y-47629721D01*
X127756356Y-47626101D01*
X127825905Y-47396616D01*
X127000000Y-46570711D01*
X126174095Y-47396616D01*
X124985000Y-47396616D01*
X124985000Y-46496742D01*
X125643472Y-46496742D01*
X125668902Y-46761449D01*
X125745485Y-47016110D01*
X125870279Y-47250937D01*
X125873899Y-47256356D01*
X126103384Y-47325905D01*
X126929289Y-46500000D01*
X127070711Y-46500000D01*
X127896616Y-47325905D01*
X128126101Y-47256356D01*
X128252021Y-47022131D01*
X128329827Y-46767841D01*
X128356528Y-46503258D01*
X128332860Y-46256886D01*
X129750000Y-46256886D01*
X129750000Y-46503114D01*
X129798037Y-46744611D01*
X129892265Y-46972097D01*
X130029062Y-47176828D01*
X130203172Y-47350938D01*
X130407903Y-47487735D01*
X130635389Y-47581963D01*
X130876886Y-47630000D01*
X131123114Y-47630000D01*
X131364611Y-47581963D01*
X131592097Y-47487735D01*
X131796828Y-47350938D01*
X131847766Y-47300000D01*
X133647339Y-47300000D01*
X133657958Y-47407819D01*
X133689408Y-47511494D01*
X133740479Y-47607042D01*
X133809210Y-47690790D01*
X133892958Y-47759521D01*
X133988506Y-47810592D01*
X134092181Y-47842042D01*
X134200000Y-47852661D01*
X134812500Y-47850000D01*
X134950000Y-47712500D01*
X134950000Y-46550000D01*
X135050000Y-46550000D01*
X135050000Y-47712500D01*
X135187500Y-47850000D01*
X135800000Y-47852661D01*
X135907819Y-47842042D01*
X136011494Y-47810592D01*
X136107042Y-47759521D01*
X136190790Y-47690790D01*
X136259521Y-47607042D01*
X136310592Y-47511494D01*
X136342042Y-47407819D01*
X136352661Y-47300000D01*
X136350274Y-46750460D01*
X142037279Y-46750460D01*
X142039940Y-48313020D01*
X142177440Y-48450520D01*
X144290000Y-48450520D01*
X144290000Y-46337960D01*
X144390000Y-46337960D01*
X144390000Y-48450520D01*
X146502560Y-48450520D01*
X146640060Y-48313020D01*
X146640933Y-47800000D01*
X150647339Y-47800000D01*
X150657958Y-47907819D01*
X150689408Y-48011494D01*
X150740479Y-48107042D01*
X150809210Y-48190790D01*
X150892958Y-48259521D01*
X150988506Y-48310592D01*
X151092181Y-48342042D01*
X151200000Y-48352661D01*
X151506732Y-48351328D01*
X151407903Y-48392265D01*
X151203172Y-48529062D01*
X151029062Y-48703172D01*
X150892265Y-48907903D01*
X150798037Y-49135389D01*
X150750000Y-49376886D01*
X150750000Y-49623114D01*
X150798037Y-49864611D01*
X150892265Y-50092097D01*
X151029062Y-50296828D01*
X151203172Y-50470938D01*
X151407903Y-50607735D01*
X151635389Y-50701963D01*
X151876886Y-50750000D01*
X152123114Y-50750000D01*
X152364611Y-50701963D01*
X152592097Y-50607735D01*
X152796828Y-50470938D01*
X152970938Y-50296828D01*
X153107735Y-50092097D01*
X153201963Y-49864611D01*
X153250000Y-49623114D01*
X153250000Y-49376886D01*
X153201963Y-49135389D01*
X153107735Y-48907903D01*
X152970938Y-48703172D01*
X152796828Y-48529062D01*
X152592097Y-48392265D01*
X152493268Y-48351328D01*
X152800000Y-48352661D01*
X152907819Y-48342042D01*
X153011494Y-48310592D01*
X153107042Y-48259521D01*
X153190790Y-48190790D01*
X153259521Y-48107042D01*
X153310592Y-48011494D01*
X153342042Y-47907819D01*
X153352661Y-47800000D01*
X153350000Y-47187500D01*
X153212500Y-47050000D01*
X152050000Y-47050000D01*
X152050000Y-47070000D01*
X151950000Y-47070000D01*
X151950000Y-47050000D01*
X150787500Y-47050000D01*
X150650000Y-47187500D01*
X150647339Y-47800000D01*
X146640933Y-47800000D01*
X146642721Y-46750460D01*
X146632102Y-46642641D01*
X146600652Y-46538966D01*
X146549581Y-46443418D01*
X146480850Y-46359670D01*
X146397102Y-46290939D01*
X146301554Y-46239868D01*
X146197879Y-46208418D01*
X146112408Y-46200000D01*
X150647339Y-46200000D01*
X150650000Y-46812500D01*
X150787500Y-46950000D01*
X151950000Y-46950000D01*
X151950000Y-45787500D01*
X152050000Y-45787500D01*
X152050000Y-46950000D01*
X153212500Y-46950000D01*
X153350000Y-46812500D01*
X153352661Y-46200000D01*
X156247823Y-46200000D01*
X156247823Y-47800000D01*
X156256511Y-47888215D01*
X156282243Y-47973041D01*
X156324029Y-48051216D01*
X156380263Y-48119737D01*
X156448784Y-48175971D01*
X156526959Y-48217757D01*
X156611785Y-48243489D01*
X156700000Y-48252177D01*
X157365942Y-48252177D01*
X157135389Y-48298037D01*
X156907903Y-48392265D01*
X156703172Y-48529062D01*
X156529062Y-48703172D01*
X156392265Y-48907903D01*
X156298037Y-49135389D01*
X156250000Y-49376886D01*
X156250000Y-49623114D01*
X156298037Y-49864611D01*
X156392265Y-50092097D01*
X156529062Y-50296828D01*
X156703172Y-50470938D01*
X156907903Y-50607735D01*
X157135389Y-50701963D01*
X157376886Y-50750000D01*
X157623114Y-50750000D01*
X157864611Y-50701963D01*
X158092097Y-50607735D01*
X158296828Y-50470938D01*
X158470938Y-50296828D01*
X158607735Y-50092097D01*
X158701963Y-49864611D01*
X158750000Y-49623114D01*
X158750000Y-49376886D01*
X158701963Y-49135389D01*
X158607735Y-48907903D01*
X158470938Y-48703172D01*
X158296828Y-48529062D01*
X158092097Y-48392265D01*
X157864611Y-48298037D01*
X157634058Y-48252177D01*
X158300000Y-48252177D01*
X158388215Y-48243489D01*
X158473041Y-48217757D01*
X158551216Y-48175971D01*
X158619737Y-48119737D01*
X158675971Y-48051216D01*
X158717757Y-47973041D01*
X158743489Y-47888215D01*
X158752177Y-47800000D01*
X158752177Y-46200000D01*
X158743489Y-46111785D01*
X158717757Y-46026959D01*
X158675971Y-45948784D01*
X158619737Y-45880263D01*
X158551216Y-45824029D01*
X158473041Y-45782243D01*
X158388215Y-45756511D01*
X158300000Y-45747823D01*
X156700000Y-45747823D01*
X156611785Y-45756511D01*
X156526959Y-45782243D01*
X156448784Y-45824029D01*
X156380263Y-45880263D01*
X156324029Y-45948784D01*
X156282243Y-46026959D01*
X156256511Y-46111785D01*
X156247823Y-46200000D01*
X153352661Y-46200000D01*
X153342042Y-46092181D01*
X153310592Y-45988506D01*
X153259521Y-45892958D01*
X153190790Y-45809210D01*
X153107042Y-45740479D01*
X153011494Y-45689408D01*
X152907819Y-45657958D01*
X152800000Y-45647339D01*
X152187500Y-45650000D01*
X152050000Y-45787500D01*
X151950000Y-45787500D01*
X151812500Y-45650000D01*
X151200000Y-45647339D01*
X151092181Y-45657958D01*
X150988506Y-45689408D01*
X150892958Y-45740479D01*
X150809210Y-45809210D01*
X150740479Y-45892958D01*
X150689408Y-45988506D01*
X150657958Y-46092181D01*
X150647339Y-46200000D01*
X146112408Y-46200000D01*
X146090060Y-46197799D01*
X144527500Y-46200460D01*
X144390000Y-46337960D01*
X144290000Y-46337960D01*
X144152500Y-46200460D01*
X142589940Y-46197799D01*
X142482121Y-46208418D01*
X142378446Y-46239868D01*
X142282898Y-46290939D01*
X142199150Y-46359670D01*
X142130419Y-46443418D01*
X142079348Y-46538966D01*
X142047898Y-46642641D01*
X142037279Y-46750460D01*
X136350274Y-46750460D01*
X136350000Y-46687500D01*
X136212500Y-46550000D01*
X135050000Y-46550000D01*
X134950000Y-46550000D01*
X133787500Y-46550000D01*
X133650000Y-46687500D01*
X133647339Y-47300000D01*
X131847766Y-47300000D01*
X131970938Y-47176828D01*
X132107735Y-46972097D01*
X132201963Y-46744611D01*
X132250000Y-46503114D01*
X132250000Y-46256886D01*
X132201963Y-46015389D01*
X132107735Y-45787903D01*
X132049001Y-45700000D01*
X133647339Y-45700000D01*
X133650000Y-46312500D01*
X133787500Y-46450000D01*
X134950000Y-46450000D01*
X134950000Y-45287500D01*
X135050000Y-45287500D01*
X135050000Y-46450000D01*
X136212500Y-46450000D01*
X136350000Y-46312500D01*
X136352661Y-45700000D01*
X136342042Y-45592181D01*
X136310592Y-45488506D01*
X136259521Y-45392958D01*
X136190790Y-45309210D01*
X136107042Y-45240479D01*
X136011494Y-45189408D01*
X135907819Y-45157958D01*
X135800000Y-45147339D01*
X135187500Y-45150000D01*
X135050000Y-45287500D01*
X134950000Y-45287500D01*
X134812500Y-45150000D01*
X134200000Y-45147339D01*
X134092181Y-45157958D01*
X133988506Y-45189408D01*
X133892958Y-45240479D01*
X133809210Y-45309210D01*
X133740479Y-45392958D01*
X133689408Y-45488506D01*
X133657958Y-45592181D01*
X133647339Y-45700000D01*
X132049001Y-45700000D01*
X131970938Y-45583172D01*
X131796828Y-45409062D01*
X131592097Y-45272265D01*
X131364611Y-45178037D01*
X131123114Y-45130000D01*
X130876886Y-45130000D01*
X130635389Y-45178037D01*
X130407903Y-45272265D01*
X130203172Y-45409062D01*
X130029062Y-45583172D01*
X129892265Y-45787903D01*
X129798037Y-46015389D01*
X129750000Y-46256886D01*
X128332860Y-46256886D01*
X128331098Y-46238551D01*
X128254515Y-45983890D01*
X128129721Y-45749063D01*
X128126101Y-45743644D01*
X127896616Y-45674095D01*
X127070711Y-46500000D01*
X126929289Y-46500000D01*
X126103384Y-45674095D01*
X125873899Y-45743644D01*
X125747979Y-45977869D01*
X125670173Y-46232159D01*
X125643472Y-46496742D01*
X124985000Y-46496742D01*
X124985000Y-45603384D01*
X126174095Y-45603384D01*
X127000000Y-46429289D01*
X127825905Y-45603384D01*
X127756356Y-45373899D01*
X127522131Y-45247979D01*
X127267841Y-45170173D01*
X127003258Y-45143472D01*
X126738551Y-45168902D01*
X126483890Y-45245485D01*
X126249063Y-45370279D01*
X126243644Y-45373899D01*
X126174095Y-45603384D01*
X124985000Y-45603384D01*
X124985000Y-44935000D01*
X163305000Y-44935000D01*
X163305001Y-52004202D01*
M02*
