G04 #@! TF.GenerationSoftware,KiCad,Pcbnew,(5.1.5-0-10_14)*
G04 #@! TF.CreationDate,2020-04-25T21:08:45+01:00*
G04 #@! TF.ProjectId,GlassBlower,476c6173-7342-46c6-9f77-65722e6b6963,rev?*
G04 #@! TF.SameCoordinates,Original*
G04 #@! TF.FileFunction,Legend,Top*
G04 #@! TF.FilePolarity,Positive*
%FSLAX46Y46*%
G04 Gerber Fmt 4.6, Leading zero omitted, Abs format (unit mm)*
G04 Created by KiCad (PCBNEW (5.1.5-0-10_14)) date 2020-04-25 21:08:45*
%MOMM*%
%LPD*%
G04 APERTURE LIST*
%ADD10C,0.300000*%
%ADD11C,0.150000*%
%ADD12C,0.250000*%
%ADD13C,0.120000*%
G04 APERTURE END LIST*
D10*
X162340000Y-62000000D02*
X162340000Y-64500000D01*
D11*
X163840000Y-63000000D02*
X170840000Y-63000000D01*
X163840000Y-68500000D02*
X163840000Y-63000000D01*
X156340000Y-68500000D02*
X163840000Y-68500000D01*
X156340000Y-52000000D02*
X156340000Y-68500000D01*
X162840000Y-52000000D02*
X156340000Y-52000000D01*
D12*
X157393571Y-67309523D02*
X157441190Y-67166666D01*
X157488809Y-67119047D01*
X157584047Y-67071428D01*
X157726904Y-67071428D01*
X157822142Y-67119047D01*
X157869761Y-67166666D01*
X157917380Y-67261904D01*
X157917380Y-67642857D01*
X156917380Y-67642857D01*
X156917380Y-67309523D01*
X156965000Y-67214285D01*
X157012619Y-67166666D01*
X157107857Y-67119047D01*
X157203095Y-67119047D01*
X157298333Y-67166666D01*
X157345952Y-67214285D01*
X157393571Y-67309523D01*
X157393571Y-67642857D01*
X157917380Y-66214285D02*
X157393571Y-66214285D01*
X157298333Y-66261904D01*
X157250714Y-66357142D01*
X157250714Y-66547619D01*
X157298333Y-66642857D01*
X157869761Y-66214285D02*
X157917380Y-66309523D01*
X157917380Y-66547619D01*
X157869761Y-66642857D01*
X157774523Y-66690476D01*
X157679285Y-66690476D01*
X157584047Y-66642857D01*
X157536428Y-66547619D01*
X157536428Y-66309523D01*
X157488809Y-66214285D01*
X157869761Y-65785714D02*
X157917380Y-65690476D01*
X157917380Y-65500000D01*
X157869761Y-65404761D01*
X157774523Y-65357142D01*
X157726904Y-65357142D01*
X157631666Y-65404761D01*
X157584047Y-65500000D01*
X157584047Y-65642857D01*
X157536428Y-65738095D01*
X157441190Y-65785714D01*
X157393571Y-65785714D01*
X157298333Y-65738095D01*
X157250714Y-65642857D01*
X157250714Y-65500000D01*
X157298333Y-65404761D01*
X157869761Y-64976190D02*
X157917380Y-64880952D01*
X157917380Y-64690476D01*
X157869761Y-64595238D01*
X157774523Y-64547619D01*
X157726904Y-64547619D01*
X157631666Y-64595238D01*
X157584047Y-64690476D01*
X157584047Y-64833333D01*
X157536428Y-64928571D01*
X157441190Y-64976190D01*
X157393571Y-64976190D01*
X157298333Y-64928571D01*
X157250714Y-64833333D01*
X157250714Y-64690476D01*
X157298333Y-64595238D01*
X157822142Y-62785714D02*
X157869761Y-62833333D01*
X157917380Y-62976190D01*
X157917380Y-63071428D01*
X157869761Y-63214285D01*
X157774523Y-63309523D01*
X157679285Y-63357142D01*
X157488809Y-63404761D01*
X157345952Y-63404761D01*
X157155476Y-63357142D01*
X157060238Y-63309523D01*
X156965000Y-63214285D01*
X156917380Y-63071428D01*
X156917380Y-62976190D01*
X156965000Y-62833333D01*
X157012619Y-62785714D01*
X157250714Y-61928571D02*
X157917380Y-61928571D01*
X157250714Y-62357142D02*
X157774523Y-62357142D01*
X157869761Y-62309523D01*
X157917380Y-62214285D01*
X157917380Y-62071428D01*
X157869761Y-61976190D01*
X157822142Y-61928571D01*
X157250714Y-61595238D02*
X157250714Y-61214285D01*
X156917380Y-61452380D02*
X157774523Y-61452380D01*
X157869761Y-61404761D01*
X157917380Y-61309523D01*
X157917380Y-61214285D01*
X159667380Y-65738095D02*
X158667380Y-65738095D01*
X159381666Y-65404761D01*
X158667380Y-65071428D01*
X159667380Y-65071428D01*
X159667380Y-64452380D02*
X159619761Y-64547619D01*
X159572142Y-64595238D01*
X159476904Y-64642857D01*
X159191190Y-64642857D01*
X159095952Y-64595238D01*
X159048333Y-64547619D01*
X159000714Y-64452380D01*
X159000714Y-64309523D01*
X159048333Y-64214285D01*
X159095952Y-64166666D01*
X159191190Y-64119047D01*
X159476904Y-64119047D01*
X159572142Y-64166666D01*
X159619761Y-64214285D01*
X159667380Y-64309523D01*
X159667380Y-64452380D01*
X159667380Y-63261904D02*
X158667380Y-63261904D01*
X159619761Y-63261904D02*
X159667380Y-63357142D01*
X159667380Y-63547619D01*
X159619761Y-63642857D01*
X159572142Y-63690476D01*
X159476904Y-63738095D01*
X159191190Y-63738095D01*
X159095952Y-63690476D01*
X159048333Y-63642857D01*
X159000714Y-63547619D01*
X159000714Y-63357142D01*
X159048333Y-63261904D01*
X151097904Y-94996761D02*
X151193142Y-95044380D01*
X151383619Y-95044380D01*
X151478857Y-94996761D01*
X151526476Y-94901523D01*
X151526476Y-94853904D01*
X151478857Y-94758666D01*
X151383619Y-94711047D01*
X151240761Y-94711047D01*
X151145523Y-94663428D01*
X151097904Y-94568190D01*
X151097904Y-94520571D01*
X151145523Y-94425333D01*
X151240761Y-94377714D01*
X151383619Y-94377714D01*
X151478857Y-94425333D01*
X151859809Y-94377714D02*
X152050285Y-95044380D01*
X152240761Y-94568190D01*
X152431238Y-95044380D01*
X152621714Y-94377714D01*
X163670285Y-94996761D02*
X163813142Y-95044380D01*
X164051238Y-95044380D01*
X164146476Y-94996761D01*
X164194095Y-94949142D01*
X164241714Y-94853904D01*
X164241714Y-94758666D01*
X164194095Y-94663428D01*
X164146476Y-94615809D01*
X164051238Y-94568190D01*
X163860761Y-94520571D01*
X163765523Y-94472952D01*
X163717904Y-94425333D01*
X163670285Y-94330095D01*
X163670285Y-94234857D01*
X163717904Y-94139619D01*
X163765523Y-94092000D01*
X163860761Y-94044380D01*
X164098857Y-94044380D01*
X164241714Y-94092000D01*
X159606285Y-94044380D02*
X160177714Y-94044380D01*
X159892000Y-95044380D02*
X159892000Y-94044380D01*
X127778285Y-94044380D02*
X128349714Y-94044380D01*
X128064000Y-95044380D02*
X128064000Y-94044380D01*
D10*
X141506666Y-60477976D02*
X141506666Y-59227976D01*
X141923333Y-60120833D01*
X142340000Y-59227976D01*
X142340000Y-60477976D01*
X143411428Y-60418452D02*
X143292380Y-60477976D01*
X143054285Y-60477976D01*
X142935238Y-60418452D01*
X142875714Y-60299404D01*
X142875714Y-59823214D01*
X142935238Y-59704166D01*
X143054285Y-59644642D01*
X143292380Y-59644642D01*
X143411428Y-59704166D01*
X143470952Y-59823214D01*
X143470952Y-59942261D01*
X142875714Y-60061309D01*
X144006666Y-60477976D02*
X144006666Y-59644642D01*
X144006666Y-59882738D02*
X144066190Y-59763690D01*
X144125714Y-59704166D01*
X144244761Y-59644642D01*
X144363809Y-59644642D01*
X144959047Y-60477976D02*
X144840000Y-60418452D01*
X144780476Y-60299404D01*
X144780476Y-59227976D01*
X145435238Y-60477976D02*
X145435238Y-59644642D01*
X145435238Y-59227976D02*
X145375714Y-59287500D01*
X145435238Y-59347023D01*
X145494761Y-59287500D01*
X145435238Y-59227976D01*
X145435238Y-59347023D01*
X146030476Y-59644642D02*
X146030476Y-60477976D01*
X146030476Y-59763690D02*
X146090000Y-59704166D01*
X146209047Y-59644642D01*
X146387619Y-59644642D01*
X146506666Y-59704166D01*
X146566190Y-59823214D01*
X146566190Y-60477976D01*
X147220952Y-59227976D02*
X147220952Y-59287500D01*
X147161428Y-59406547D01*
X147101904Y-59466071D01*
X147697142Y-60418452D02*
X147816190Y-60477976D01*
X148054285Y-60477976D01*
X148173333Y-60418452D01*
X148232857Y-60299404D01*
X148232857Y-60239880D01*
X148173333Y-60120833D01*
X148054285Y-60061309D01*
X147875714Y-60061309D01*
X147756666Y-60001785D01*
X147697142Y-59882738D01*
X147697142Y-59823214D01*
X147756666Y-59704166D01*
X147875714Y-59644642D01*
X148054285Y-59644642D01*
X148173333Y-59704166D01*
X140167380Y-61462500D02*
X140048333Y-61402976D01*
X139869761Y-61402976D01*
X139691190Y-61462500D01*
X139572142Y-61581547D01*
X139512619Y-61700595D01*
X139453095Y-61938690D01*
X139453095Y-62117261D01*
X139512619Y-62355357D01*
X139572142Y-62474404D01*
X139691190Y-62593452D01*
X139869761Y-62652976D01*
X139988809Y-62652976D01*
X140167380Y-62593452D01*
X140226904Y-62533928D01*
X140226904Y-62117261D01*
X139988809Y-62117261D01*
X140941190Y-62652976D02*
X140822142Y-62593452D01*
X140762619Y-62474404D01*
X140762619Y-61402976D01*
X141953095Y-62652976D02*
X141953095Y-61998214D01*
X141893571Y-61879166D01*
X141774523Y-61819642D01*
X141536428Y-61819642D01*
X141417380Y-61879166D01*
X141953095Y-62593452D02*
X141834047Y-62652976D01*
X141536428Y-62652976D01*
X141417380Y-62593452D01*
X141357857Y-62474404D01*
X141357857Y-62355357D01*
X141417380Y-62236309D01*
X141536428Y-62176785D01*
X141834047Y-62176785D01*
X141953095Y-62117261D01*
X142488809Y-62593452D02*
X142607857Y-62652976D01*
X142845952Y-62652976D01*
X142965000Y-62593452D01*
X143024523Y-62474404D01*
X143024523Y-62414880D01*
X142965000Y-62295833D01*
X142845952Y-62236309D01*
X142667380Y-62236309D01*
X142548333Y-62176785D01*
X142488809Y-62057738D01*
X142488809Y-61998214D01*
X142548333Y-61879166D01*
X142667380Y-61819642D01*
X142845952Y-61819642D01*
X142965000Y-61879166D01*
X143500714Y-62593452D02*
X143619761Y-62652976D01*
X143857857Y-62652976D01*
X143976904Y-62593452D01*
X144036428Y-62474404D01*
X144036428Y-62414880D01*
X143976904Y-62295833D01*
X143857857Y-62236309D01*
X143679285Y-62236309D01*
X143560238Y-62176785D01*
X143500714Y-62057738D01*
X143500714Y-61998214D01*
X143560238Y-61879166D01*
X143679285Y-61819642D01*
X143857857Y-61819642D01*
X143976904Y-61879166D01*
X144988809Y-61998214D02*
X145167380Y-62057738D01*
X145226904Y-62117261D01*
X145286428Y-62236309D01*
X145286428Y-62414880D01*
X145226904Y-62533928D01*
X145167380Y-62593452D01*
X145048333Y-62652976D01*
X144572142Y-62652976D01*
X144572142Y-61402976D01*
X144988809Y-61402976D01*
X145107857Y-61462500D01*
X145167380Y-61522023D01*
X145226904Y-61641071D01*
X145226904Y-61760119D01*
X145167380Y-61879166D01*
X145107857Y-61938690D01*
X144988809Y-61998214D01*
X144572142Y-61998214D01*
X146000714Y-62652976D02*
X145881666Y-62593452D01*
X145822142Y-62474404D01*
X145822142Y-61402976D01*
X146655476Y-62652976D02*
X146536428Y-62593452D01*
X146476904Y-62533928D01*
X146417380Y-62414880D01*
X146417380Y-62057738D01*
X146476904Y-61938690D01*
X146536428Y-61879166D01*
X146655476Y-61819642D01*
X146834047Y-61819642D01*
X146953095Y-61879166D01*
X147012619Y-61938690D01*
X147072142Y-62057738D01*
X147072142Y-62414880D01*
X147012619Y-62533928D01*
X146953095Y-62593452D01*
X146834047Y-62652976D01*
X146655476Y-62652976D01*
X147488809Y-61819642D02*
X147726904Y-62652976D01*
X147965000Y-62057738D01*
X148203095Y-62652976D01*
X148441190Y-61819642D01*
X149393571Y-62593452D02*
X149274523Y-62652976D01*
X149036428Y-62652976D01*
X148917380Y-62593452D01*
X148857857Y-62474404D01*
X148857857Y-61998214D01*
X148917380Y-61879166D01*
X149036428Y-61819642D01*
X149274523Y-61819642D01*
X149393571Y-61879166D01*
X149453095Y-61998214D01*
X149453095Y-62117261D01*
X148857857Y-62236309D01*
X149988809Y-62652976D02*
X149988809Y-61819642D01*
X149988809Y-62057738D02*
X150048333Y-61938690D01*
X150107857Y-61879166D01*
X150226904Y-61819642D01*
X150345952Y-61819642D01*
D12*
X127008190Y-94502714D02*
X126055809Y-94502714D01*
X118880190Y-94502714D02*
X117927809Y-94502714D01*
X118404000Y-94026523D02*
X118404000Y-94978904D01*
X168502333Y-93399476D02*
X168740428Y-93399476D01*
X168859476Y-93459000D01*
X168978523Y-93578047D01*
X169038047Y-93816142D01*
X169038047Y-94232809D01*
X168978523Y-94470904D01*
X168859476Y-94589952D01*
X168740428Y-94649476D01*
X168502333Y-94649476D01*
X168383285Y-94589952D01*
X168264238Y-94470904D01*
X168204714Y-94232809D01*
X168204714Y-93816142D01*
X168264238Y-93578047D01*
X168383285Y-93459000D01*
X168502333Y-93399476D01*
X170109476Y-93816142D02*
X170109476Y-94649476D01*
X169573761Y-93816142D02*
X169573761Y-94470904D01*
X169633285Y-94589952D01*
X169752333Y-94649476D01*
X169930904Y-94649476D01*
X170049952Y-94589952D01*
X170109476Y-94530428D01*
X170526142Y-93816142D02*
X171002333Y-93816142D01*
X170704714Y-93399476D02*
X170704714Y-94470904D01*
X170764238Y-94589952D01*
X170883285Y-94649476D01*
X171002333Y-94649476D01*
X137938285Y-94996761D02*
X138081142Y-95044380D01*
X138319238Y-95044380D01*
X138414476Y-94996761D01*
X138462095Y-94949142D01*
X138509714Y-94853904D01*
X138509714Y-94758666D01*
X138462095Y-94663428D01*
X138414476Y-94615809D01*
X138319238Y-94568190D01*
X138128761Y-94520571D01*
X138033523Y-94472952D01*
X137985904Y-94425333D01*
X137938285Y-94330095D01*
X137938285Y-94234857D01*
X137985904Y-94139619D01*
X138033523Y-94092000D01*
X138128761Y-94044380D01*
X138366857Y-94044380D01*
X138509714Y-94092000D01*
X132437523Y-95044380D02*
X132104190Y-94568190D01*
X131866095Y-95044380D02*
X131866095Y-94044380D01*
X132247047Y-94044380D01*
X132342285Y-94092000D01*
X132389904Y-94139619D01*
X132437523Y-94234857D01*
X132437523Y-94377714D01*
X132389904Y-94472952D01*
X132342285Y-94520571D01*
X132247047Y-94568190D01*
X131866095Y-94568190D01*
X126990523Y-93125476D02*
X126990523Y-91875476D01*
X127585761Y-92292142D02*
X127585761Y-93125476D01*
X127585761Y-92411190D02*
X127645285Y-92351666D01*
X127764333Y-92292142D01*
X127942904Y-92292142D01*
X128061952Y-92351666D01*
X128121476Y-92470714D01*
X128121476Y-93125476D01*
D13*
X155150000Y-72670000D02*
G75*
G02X153150000Y-72670000I-1000000J0D01*
G01*
X153150000Y-72670000D02*
X151500000Y-72670000D01*
X151500000Y-72670000D02*
X151500000Y-82950000D01*
X151500000Y-82950000D02*
X156800000Y-82950000D01*
X156800000Y-82950000D02*
X156800000Y-72670000D01*
X156800000Y-72670000D02*
X155150000Y-72670000D01*
X149010000Y-72610000D02*
X149010000Y-83010000D01*
X149010000Y-83010000D02*
X159290000Y-83010000D01*
X159290000Y-83010000D02*
X159290000Y-72610000D01*
X159290000Y-72610000D02*
X149010000Y-72610000D01*
X166960000Y-83750000D02*
G75*
G03X166960000Y-83750000I-2620000J0D01*
G01*
X166920000Y-83750000D02*
X161760000Y-83750000D01*
X166920000Y-83790000D02*
X161760000Y-83790000D01*
X166919000Y-83830000D02*
X161761000Y-83830000D01*
X166918000Y-83870000D02*
X161762000Y-83870000D01*
X166916000Y-83910000D02*
X161764000Y-83910000D01*
X166913000Y-83950000D02*
X161767000Y-83950000D01*
X166909000Y-83990000D02*
X165380000Y-83990000D01*
X163300000Y-83990000D02*
X161771000Y-83990000D01*
X166905000Y-84030000D02*
X165380000Y-84030000D01*
X163300000Y-84030000D02*
X161775000Y-84030000D01*
X166901000Y-84070000D02*
X165380000Y-84070000D01*
X163300000Y-84070000D02*
X161779000Y-84070000D01*
X166896000Y-84110000D02*
X165380000Y-84110000D01*
X163300000Y-84110000D02*
X161784000Y-84110000D01*
X166890000Y-84150000D02*
X165380000Y-84150000D01*
X163300000Y-84150000D02*
X161790000Y-84150000D01*
X166883000Y-84190000D02*
X165380000Y-84190000D01*
X163300000Y-84190000D02*
X161797000Y-84190000D01*
X166876000Y-84230000D02*
X165380000Y-84230000D01*
X163300000Y-84230000D02*
X161804000Y-84230000D01*
X166868000Y-84270000D02*
X165380000Y-84270000D01*
X163300000Y-84270000D02*
X161812000Y-84270000D01*
X166860000Y-84310000D02*
X165380000Y-84310000D01*
X163300000Y-84310000D02*
X161820000Y-84310000D01*
X166851000Y-84350000D02*
X165380000Y-84350000D01*
X163300000Y-84350000D02*
X161829000Y-84350000D01*
X166841000Y-84390000D02*
X165380000Y-84390000D01*
X163300000Y-84390000D02*
X161839000Y-84390000D01*
X166831000Y-84430000D02*
X165380000Y-84430000D01*
X163300000Y-84430000D02*
X161849000Y-84430000D01*
X166820000Y-84471000D02*
X165380000Y-84471000D01*
X163300000Y-84471000D02*
X161860000Y-84471000D01*
X166808000Y-84511000D02*
X165380000Y-84511000D01*
X163300000Y-84511000D02*
X161872000Y-84511000D01*
X166795000Y-84551000D02*
X165380000Y-84551000D01*
X163300000Y-84551000D02*
X161885000Y-84551000D01*
X166782000Y-84591000D02*
X165380000Y-84591000D01*
X163300000Y-84591000D02*
X161898000Y-84591000D01*
X166768000Y-84631000D02*
X165380000Y-84631000D01*
X163300000Y-84631000D02*
X161912000Y-84631000D01*
X166754000Y-84671000D02*
X165380000Y-84671000D01*
X163300000Y-84671000D02*
X161926000Y-84671000D01*
X166738000Y-84711000D02*
X165380000Y-84711000D01*
X163300000Y-84711000D02*
X161942000Y-84711000D01*
X166722000Y-84751000D02*
X165380000Y-84751000D01*
X163300000Y-84751000D02*
X161958000Y-84751000D01*
X166705000Y-84791000D02*
X165380000Y-84791000D01*
X163300000Y-84791000D02*
X161975000Y-84791000D01*
X166688000Y-84831000D02*
X165380000Y-84831000D01*
X163300000Y-84831000D02*
X161992000Y-84831000D01*
X166669000Y-84871000D02*
X165380000Y-84871000D01*
X163300000Y-84871000D02*
X162011000Y-84871000D01*
X166650000Y-84911000D02*
X165380000Y-84911000D01*
X163300000Y-84911000D02*
X162030000Y-84911000D01*
X166630000Y-84951000D02*
X165380000Y-84951000D01*
X163300000Y-84951000D02*
X162050000Y-84951000D01*
X166608000Y-84991000D02*
X165380000Y-84991000D01*
X163300000Y-84991000D02*
X162072000Y-84991000D01*
X166587000Y-85031000D02*
X165380000Y-85031000D01*
X163300000Y-85031000D02*
X162093000Y-85031000D01*
X166564000Y-85071000D02*
X165380000Y-85071000D01*
X163300000Y-85071000D02*
X162116000Y-85071000D01*
X166540000Y-85111000D02*
X165380000Y-85111000D01*
X163300000Y-85111000D02*
X162140000Y-85111000D01*
X166515000Y-85151000D02*
X165380000Y-85151000D01*
X163300000Y-85151000D02*
X162165000Y-85151000D01*
X166489000Y-85191000D02*
X165380000Y-85191000D01*
X163300000Y-85191000D02*
X162191000Y-85191000D01*
X166462000Y-85231000D02*
X165380000Y-85231000D01*
X163300000Y-85231000D02*
X162218000Y-85231000D01*
X166435000Y-85271000D02*
X165380000Y-85271000D01*
X163300000Y-85271000D02*
X162245000Y-85271000D01*
X166405000Y-85311000D02*
X165380000Y-85311000D01*
X163300000Y-85311000D02*
X162275000Y-85311000D01*
X166375000Y-85351000D02*
X165380000Y-85351000D01*
X163300000Y-85351000D02*
X162305000Y-85351000D01*
X166344000Y-85391000D02*
X165380000Y-85391000D01*
X163300000Y-85391000D02*
X162336000Y-85391000D01*
X166311000Y-85431000D02*
X165380000Y-85431000D01*
X163300000Y-85431000D02*
X162369000Y-85431000D01*
X166277000Y-85471000D02*
X165380000Y-85471000D01*
X163300000Y-85471000D02*
X162403000Y-85471000D01*
X166241000Y-85511000D02*
X165380000Y-85511000D01*
X163300000Y-85511000D02*
X162439000Y-85511000D01*
X166204000Y-85551000D02*
X165380000Y-85551000D01*
X163300000Y-85551000D02*
X162476000Y-85551000D01*
X166166000Y-85591000D02*
X165380000Y-85591000D01*
X163300000Y-85591000D02*
X162514000Y-85591000D01*
X166125000Y-85631000D02*
X165380000Y-85631000D01*
X163300000Y-85631000D02*
X162555000Y-85631000D01*
X166083000Y-85671000D02*
X165380000Y-85671000D01*
X163300000Y-85671000D02*
X162597000Y-85671000D01*
X166039000Y-85711000D02*
X165380000Y-85711000D01*
X163300000Y-85711000D02*
X162641000Y-85711000D01*
X165993000Y-85751000D02*
X165380000Y-85751000D01*
X163300000Y-85751000D02*
X162687000Y-85751000D01*
X165945000Y-85791000D02*
X165380000Y-85791000D01*
X163300000Y-85791000D02*
X162735000Y-85791000D01*
X165894000Y-85831000D02*
X165380000Y-85831000D01*
X163300000Y-85831000D02*
X162786000Y-85831000D01*
X165840000Y-85871000D02*
X165380000Y-85871000D01*
X163300000Y-85871000D02*
X162840000Y-85871000D01*
X165783000Y-85911000D02*
X165380000Y-85911000D01*
X163300000Y-85911000D02*
X162897000Y-85911000D01*
X165723000Y-85951000D02*
X165380000Y-85951000D01*
X163300000Y-85951000D02*
X162957000Y-85951000D01*
X165659000Y-85991000D02*
X165380000Y-85991000D01*
X163300000Y-85991000D02*
X163021000Y-85991000D01*
X165591000Y-86031000D02*
X165380000Y-86031000D01*
X163300000Y-86031000D02*
X163089000Y-86031000D01*
X165518000Y-86071000D02*
X163162000Y-86071000D01*
X165438000Y-86111000D02*
X163242000Y-86111000D01*
X165351000Y-86151000D02*
X163329000Y-86151000D01*
X165255000Y-86191000D02*
X163425000Y-86191000D01*
X165145000Y-86231000D02*
X163535000Y-86231000D01*
X165017000Y-86271000D02*
X163663000Y-86271000D01*
X164858000Y-86311000D02*
X163822000Y-86311000D01*
X164624000Y-86351000D02*
X164056000Y-86351000D01*
X165815000Y-80945225D02*
X165815000Y-81445225D01*
X166065000Y-81195225D02*
X165565000Y-81195225D01*
X122030000Y-77060000D02*
X122030000Y-71940000D01*
X124650000Y-77060000D02*
X124650000Y-71940000D01*
X122030000Y-77060000D02*
X122344000Y-77060000D01*
X124336000Y-77060000D02*
X124650000Y-77060000D01*
X122030000Y-71940000D02*
X122344000Y-71940000D01*
X124336000Y-71940000D02*
X124650000Y-71940000D01*
X137530000Y-83650000D02*
X133930000Y-83650000D01*
X137541875Y-83658259D02*
G75*
G02X136550000Y-87950000I-1811875J-1841741D01*
G01*
X133921555Y-83672316D02*
G75*
G03X134950000Y-87950000I1808445J-1827684D01*
G01*
X158240000Y-71480000D02*
X158240000Y-71810000D01*
X158240000Y-71810000D02*
X151820000Y-71810000D01*
X151820000Y-71810000D02*
X151820000Y-71480000D01*
X158240000Y-69520000D02*
X158240000Y-69190000D01*
X158240000Y-69190000D02*
X151820000Y-69190000D01*
X151820000Y-69190000D02*
X151820000Y-69520000D01*
D11*
X148840880Y-44299360D02*
X139839120Y-44299360D01*
X148840880Y-40799240D02*
X139839120Y-40799240D01*
X139839120Y-40799240D02*
X139839120Y-55300100D01*
X139839120Y-55300100D02*
X148840880Y-55300100D01*
X148840880Y-55300100D02*
X148840880Y-40799240D01*
D13*
X150440000Y-87520000D02*
X150440000Y-87190000D01*
X150440000Y-87190000D02*
X156860000Y-87190000D01*
X156860000Y-87190000D02*
X156860000Y-87520000D01*
X150440000Y-89480000D02*
X150440000Y-89810000D01*
X150440000Y-89810000D02*
X156860000Y-89810000D01*
X156860000Y-89810000D02*
X156860000Y-89480000D01*
X118520000Y-67400000D02*
X118190000Y-67400000D01*
X118190000Y-67400000D02*
X118190000Y-60980000D01*
X118190000Y-60980000D02*
X118520000Y-60980000D01*
X120480000Y-67400000D02*
X120810000Y-67400000D01*
X120810000Y-67400000D02*
X120810000Y-60980000D01*
X120810000Y-60980000D02*
X120480000Y-60980000D01*
X136060000Y-48250000D02*
X133940000Y-48250000D01*
X133940000Y-48250000D02*
X133940000Y-52370000D01*
X133940000Y-52370000D02*
X136060000Y-52370000D01*
X136060000Y-52370000D02*
X136060000Y-48250000D01*
X135000000Y-47480000D02*
X135000000Y-48250000D01*
X135000000Y-53140000D02*
X135000000Y-52370000D01*
X136060000Y-48910000D02*
X133940000Y-48910000D01*
X168280000Y-76090000D02*
X170400000Y-76090000D01*
X169340000Y-71860000D02*
X169340000Y-72630000D01*
X169340000Y-77520000D02*
X169340000Y-76750000D01*
X168280000Y-72630000D02*
X168280000Y-76750000D01*
X170400000Y-72630000D02*
X168280000Y-72630000D01*
X170400000Y-76750000D02*
X170400000Y-72630000D01*
X168280000Y-76750000D02*
X170400000Y-76750000D01*
X167530000Y-88520000D02*
X167860000Y-88520000D01*
X167530000Y-82100000D02*
X167530000Y-88520000D01*
X167860000Y-82100000D02*
X167530000Y-82100000D01*
X170150000Y-88520000D02*
X169820000Y-88520000D01*
X170150000Y-82100000D02*
X170150000Y-88520000D01*
X169820000Y-82100000D02*
X170150000Y-82100000D01*
X140320000Y-81190000D02*
X140320000Y-81520000D01*
X146740000Y-81190000D02*
X140320000Y-81190000D01*
X146740000Y-81520000D02*
X146740000Y-81190000D01*
X140320000Y-83810000D02*
X140320000Y-83480000D01*
X146740000Y-83810000D02*
X140320000Y-83810000D01*
X146740000Y-83480000D02*
X146740000Y-83810000D01*
X118520000Y-77520000D02*
X118190000Y-77520000D01*
X118190000Y-77520000D02*
X118190000Y-71100000D01*
X118190000Y-71100000D02*
X118520000Y-71100000D01*
X120480000Y-77520000D02*
X120810000Y-77520000D01*
X120810000Y-77520000D02*
X120810000Y-71100000D01*
X120810000Y-71100000D02*
X120480000Y-71100000D01*
X130020000Y-53400000D02*
X129690000Y-53400000D01*
X129690000Y-53400000D02*
X129690000Y-46980000D01*
X129690000Y-46980000D02*
X130020000Y-46980000D01*
X131980000Y-53400000D02*
X132310000Y-53400000D01*
X132310000Y-53400000D02*
X132310000Y-46980000D01*
X132310000Y-46980000D02*
X131980000Y-46980000D01*
X146860000Y-80310000D02*
X146860000Y-79980000D01*
X140440000Y-80310000D02*
X146860000Y-80310000D01*
X140440000Y-79980000D02*
X140440000Y-80310000D01*
X146860000Y-77690000D02*
X146860000Y-78020000D01*
X140440000Y-77690000D02*
X146860000Y-77690000D01*
X140440000Y-78020000D02*
X140440000Y-77690000D01*
X152820000Y-83690000D02*
X152820000Y-84020000D01*
X159240000Y-83690000D02*
X152820000Y-83690000D01*
X159240000Y-84020000D02*
X159240000Y-83690000D01*
X152820000Y-86310000D02*
X152820000Y-85980000D01*
X159240000Y-86310000D02*
X152820000Y-86310000D01*
X159240000Y-85980000D02*
X159240000Y-86310000D01*
X169980000Y-54600000D02*
X170310000Y-54600000D01*
X170310000Y-54600000D02*
X170310000Y-61020000D01*
X170310000Y-61020000D02*
X169980000Y-61020000D01*
X168020000Y-54600000D02*
X167690000Y-54600000D01*
X167690000Y-54600000D02*
X167690000Y-61020000D01*
X167690000Y-61020000D02*
X168020000Y-61020000D01*
X164190000Y-61020000D02*
X164520000Y-61020000D01*
X164190000Y-54600000D02*
X164190000Y-61020000D01*
X164520000Y-54600000D02*
X164190000Y-54600000D01*
X166810000Y-61020000D02*
X166480000Y-61020000D01*
X166810000Y-54600000D02*
X166810000Y-61020000D01*
X166480000Y-54600000D02*
X166810000Y-54600000D01*
X127461555Y-83672316D02*
G75*
G03X128490000Y-87950000I1808445J-1827684D01*
G01*
X131081875Y-83658259D02*
G75*
G02X130090000Y-87950000I-1811875J-1841741D01*
G01*
X131070000Y-83650000D02*
X127470000Y-83650000D01*
X153725000Y-45695225D02*
X153225000Y-45695225D01*
X153475000Y-45445225D02*
X153475000Y-45945225D01*
X152284000Y-50851000D02*
X151716000Y-50851000D01*
X152518000Y-50811000D02*
X151482000Y-50811000D01*
X152677000Y-50771000D02*
X151323000Y-50771000D01*
X152805000Y-50731000D02*
X151195000Y-50731000D01*
X152915000Y-50691000D02*
X151085000Y-50691000D01*
X153011000Y-50651000D02*
X150989000Y-50651000D01*
X153098000Y-50611000D02*
X150902000Y-50611000D01*
X153178000Y-50571000D02*
X150822000Y-50571000D01*
X150960000Y-50531000D02*
X150749000Y-50531000D01*
X153251000Y-50531000D02*
X153040000Y-50531000D01*
X150960000Y-50491000D02*
X150681000Y-50491000D01*
X153319000Y-50491000D02*
X153040000Y-50491000D01*
X150960000Y-50451000D02*
X150617000Y-50451000D01*
X153383000Y-50451000D02*
X153040000Y-50451000D01*
X150960000Y-50411000D02*
X150557000Y-50411000D01*
X153443000Y-50411000D02*
X153040000Y-50411000D01*
X150960000Y-50371000D02*
X150500000Y-50371000D01*
X153500000Y-50371000D02*
X153040000Y-50371000D01*
X150960000Y-50331000D02*
X150446000Y-50331000D01*
X153554000Y-50331000D02*
X153040000Y-50331000D01*
X150960000Y-50291000D02*
X150395000Y-50291000D01*
X153605000Y-50291000D02*
X153040000Y-50291000D01*
X150960000Y-50251000D02*
X150347000Y-50251000D01*
X153653000Y-50251000D02*
X153040000Y-50251000D01*
X150960000Y-50211000D02*
X150301000Y-50211000D01*
X153699000Y-50211000D02*
X153040000Y-50211000D01*
X150960000Y-50171000D02*
X150257000Y-50171000D01*
X153743000Y-50171000D02*
X153040000Y-50171000D01*
X150960000Y-50131000D02*
X150215000Y-50131000D01*
X153785000Y-50131000D02*
X153040000Y-50131000D01*
X150960000Y-50091000D02*
X150174000Y-50091000D01*
X153826000Y-50091000D02*
X153040000Y-50091000D01*
X150960000Y-50051000D02*
X150136000Y-50051000D01*
X153864000Y-50051000D02*
X153040000Y-50051000D01*
X150960000Y-50011000D02*
X150099000Y-50011000D01*
X153901000Y-50011000D02*
X153040000Y-50011000D01*
X150960000Y-49971000D02*
X150063000Y-49971000D01*
X153937000Y-49971000D02*
X153040000Y-49971000D01*
X150960000Y-49931000D02*
X150029000Y-49931000D01*
X153971000Y-49931000D02*
X153040000Y-49931000D01*
X150960000Y-49891000D02*
X149996000Y-49891000D01*
X154004000Y-49891000D02*
X153040000Y-49891000D01*
X150960000Y-49851000D02*
X149965000Y-49851000D01*
X154035000Y-49851000D02*
X153040000Y-49851000D01*
X150960000Y-49811000D02*
X149935000Y-49811000D01*
X154065000Y-49811000D02*
X153040000Y-49811000D01*
X150960000Y-49771000D02*
X149905000Y-49771000D01*
X154095000Y-49771000D02*
X153040000Y-49771000D01*
X150960000Y-49731000D02*
X149878000Y-49731000D01*
X154122000Y-49731000D02*
X153040000Y-49731000D01*
X150960000Y-49691000D02*
X149851000Y-49691000D01*
X154149000Y-49691000D02*
X153040000Y-49691000D01*
X150960000Y-49651000D02*
X149825000Y-49651000D01*
X154175000Y-49651000D02*
X153040000Y-49651000D01*
X150960000Y-49611000D02*
X149800000Y-49611000D01*
X154200000Y-49611000D02*
X153040000Y-49611000D01*
X150960000Y-49571000D02*
X149776000Y-49571000D01*
X154224000Y-49571000D02*
X153040000Y-49571000D01*
X150960000Y-49531000D02*
X149753000Y-49531000D01*
X154247000Y-49531000D02*
X153040000Y-49531000D01*
X150960000Y-49491000D02*
X149732000Y-49491000D01*
X154268000Y-49491000D02*
X153040000Y-49491000D01*
X150960000Y-49451000D02*
X149710000Y-49451000D01*
X154290000Y-49451000D02*
X153040000Y-49451000D01*
X150960000Y-49411000D02*
X149690000Y-49411000D01*
X154310000Y-49411000D02*
X153040000Y-49411000D01*
X150960000Y-49371000D02*
X149671000Y-49371000D01*
X154329000Y-49371000D02*
X153040000Y-49371000D01*
X150960000Y-49331000D02*
X149652000Y-49331000D01*
X154348000Y-49331000D02*
X153040000Y-49331000D01*
X150960000Y-49291000D02*
X149635000Y-49291000D01*
X154365000Y-49291000D02*
X153040000Y-49291000D01*
X150960000Y-49251000D02*
X149618000Y-49251000D01*
X154382000Y-49251000D02*
X153040000Y-49251000D01*
X150960000Y-49211000D02*
X149602000Y-49211000D01*
X154398000Y-49211000D02*
X153040000Y-49211000D01*
X150960000Y-49171000D02*
X149586000Y-49171000D01*
X154414000Y-49171000D02*
X153040000Y-49171000D01*
X150960000Y-49131000D02*
X149572000Y-49131000D01*
X154428000Y-49131000D02*
X153040000Y-49131000D01*
X150960000Y-49091000D02*
X149558000Y-49091000D01*
X154442000Y-49091000D02*
X153040000Y-49091000D01*
X150960000Y-49051000D02*
X149545000Y-49051000D01*
X154455000Y-49051000D02*
X153040000Y-49051000D01*
X150960000Y-49011000D02*
X149532000Y-49011000D01*
X154468000Y-49011000D02*
X153040000Y-49011000D01*
X150960000Y-48971000D02*
X149520000Y-48971000D01*
X154480000Y-48971000D02*
X153040000Y-48971000D01*
X150960000Y-48930000D02*
X149509000Y-48930000D01*
X154491000Y-48930000D02*
X153040000Y-48930000D01*
X150960000Y-48890000D02*
X149499000Y-48890000D01*
X154501000Y-48890000D02*
X153040000Y-48890000D01*
X150960000Y-48850000D02*
X149489000Y-48850000D01*
X154511000Y-48850000D02*
X153040000Y-48850000D01*
X150960000Y-48810000D02*
X149480000Y-48810000D01*
X154520000Y-48810000D02*
X153040000Y-48810000D01*
X150960000Y-48770000D02*
X149472000Y-48770000D01*
X154528000Y-48770000D02*
X153040000Y-48770000D01*
X150960000Y-48730000D02*
X149464000Y-48730000D01*
X154536000Y-48730000D02*
X153040000Y-48730000D01*
X150960000Y-48690000D02*
X149457000Y-48690000D01*
X154543000Y-48690000D02*
X153040000Y-48690000D01*
X150960000Y-48650000D02*
X149450000Y-48650000D01*
X154550000Y-48650000D02*
X153040000Y-48650000D01*
X150960000Y-48610000D02*
X149444000Y-48610000D01*
X154556000Y-48610000D02*
X153040000Y-48610000D01*
X150960000Y-48570000D02*
X149439000Y-48570000D01*
X154561000Y-48570000D02*
X153040000Y-48570000D01*
X150960000Y-48530000D02*
X149435000Y-48530000D01*
X154565000Y-48530000D02*
X153040000Y-48530000D01*
X150960000Y-48490000D02*
X149431000Y-48490000D01*
X154569000Y-48490000D02*
X153040000Y-48490000D01*
X154573000Y-48450000D02*
X149427000Y-48450000D01*
X154576000Y-48410000D02*
X149424000Y-48410000D01*
X154578000Y-48370000D02*
X149422000Y-48370000D01*
X154579000Y-48330000D02*
X149421000Y-48330000D01*
X154580000Y-48290000D02*
X149420000Y-48290000D01*
X154580000Y-48250000D02*
X149420000Y-48250000D01*
X154620000Y-48250000D02*
G75*
G03X154620000Y-48250000I-2620000J0D01*
G01*
X137710000Y-77500000D02*
G75*
G03X137710000Y-77500000I-2620000J0D01*
G01*
X135090000Y-74920000D02*
X135090000Y-80080000D01*
X135130000Y-74920000D02*
X135130000Y-80080000D01*
X135170000Y-74921000D02*
X135170000Y-80079000D01*
X135210000Y-74922000D02*
X135210000Y-80078000D01*
X135250000Y-74924000D02*
X135250000Y-80076000D01*
X135290000Y-74927000D02*
X135290000Y-80073000D01*
X135330000Y-74931000D02*
X135330000Y-76460000D01*
X135330000Y-78540000D02*
X135330000Y-80069000D01*
X135370000Y-74935000D02*
X135370000Y-76460000D01*
X135370000Y-78540000D02*
X135370000Y-80065000D01*
X135410000Y-74939000D02*
X135410000Y-76460000D01*
X135410000Y-78540000D02*
X135410000Y-80061000D01*
X135450000Y-74944000D02*
X135450000Y-76460000D01*
X135450000Y-78540000D02*
X135450000Y-80056000D01*
X135490000Y-74950000D02*
X135490000Y-76460000D01*
X135490000Y-78540000D02*
X135490000Y-80050000D01*
X135530000Y-74957000D02*
X135530000Y-76460000D01*
X135530000Y-78540000D02*
X135530000Y-80043000D01*
X135570000Y-74964000D02*
X135570000Y-76460000D01*
X135570000Y-78540000D02*
X135570000Y-80036000D01*
X135610000Y-74972000D02*
X135610000Y-76460000D01*
X135610000Y-78540000D02*
X135610000Y-80028000D01*
X135650000Y-74980000D02*
X135650000Y-76460000D01*
X135650000Y-78540000D02*
X135650000Y-80020000D01*
X135690000Y-74989000D02*
X135690000Y-76460000D01*
X135690000Y-78540000D02*
X135690000Y-80011000D01*
X135730000Y-74999000D02*
X135730000Y-76460000D01*
X135730000Y-78540000D02*
X135730000Y-80001000D01*
X135770000Y-75009000D02*
X135770000Y-76460000D01*
X135770000Y-78540000D02*
X135770000Y-79991000D01*
X135811000Y-75020000D02*
X135811000Y-76460000D01*
X135811000Y-78540000D02*
X135811000Y-79980000D01*
X135851000Y-75032000D02*
X135851000Y-76460000D01*
X135851000Y-78540000D02*
X135851000Y-79968000D01*
X135891000Y-75045000D02*
X135891000Y-76460000D01*
X135891000Y-78540000D02*
X135891000Y-79955000D01*
X135931000Y-75058000D02*
X135931000Y-76460000D01*
X135931000Y-78540000D02*
X135931000Y-79942000D01*
X135971000Y-75072000D02*
X135971000Y-76460000D01*
X135971000Y-78540000D02*
X135971000Y-79928000D01*
X136011000Y-75086000D02*
X136011000Y-76460000D01*
X136011000Y-78540000D02*
X136011000Y-79914000D01*
X136051000Y-75102000D02*
X136051000Y-76460000D01*
X136051000Y-78540000D02*
X136051000Y-79898000D01*
X136091000Y-75118000D02*
X136091000Y-76460000D01*
X136091000Y-78540000D02*
X136091000Y-79882000D01*
X136131000Y-75135000D02*
X136131000Y-76460000D01*
X136131000Y-78540000D02*
X136131000Y-79865000D01*
X136171000Y-75152000D02*
X136171000Y-76460000D01*
X136171000Y-78540000D02*
X136171000Y-79848000D01*
X136211000Y-75171000D02*
X136211000Y-76460000D01*
X136211000Y-78540000D02*
X136211000Y-79829000D01*
X136251000Y-75190000D02*
X136251000Y-76460000D01*
X136251000Y-78540000D02*
X136251000Y-79810000D01*
X136291000Y-75210000D02*
X136291000Y-76460000D01*
X136291000Y-78540000D02*
X136291000Y-79790000D01*
X136331000Y-75232000D02*
X136331000Y-76460000D01*
X136331000Y-78540000D02*
X136331000Y-79768000D01*
X136371000Y-75253000D02*
X136371000Y-76460000D01*
X136371000Y-78540000D02*
X136371000Y-79747000D01*
X136411000Y-75276000D02*
X136411000Y-76460000D01*
X136411000Y-78540000D02*
X136411000Y-79724000D01*
X136451000Y-75300000D02*
X136451000Y-76460000D01*
X136451000Y-78540000D02*
X136451000Y-79700000D01*
X136491000Y-75325000D02*
X136491000Y-76460000D01*
X136491000Y-78540000D02*
X136491000Y-79675000D01*
X136531000Y-75351000D02*
X136531000Y-76460000D01*
X136531000Y-78540000D02*
X136531000Y-79649000D01*
X136571000Y-75378000D02*
X136571000Y-76460000D01*
X136571000Y-78540000D02*
X136571000Y-79622000D01*
X136611000Y-75405000D02*
X136611000Y-76460000D01*
X136611000Y-78540000D02*
X136611000Y-79595000D01*
X136651000Y-75435000D02*
X136651000Y-76460000D01*
X136651000Y-78540000D02*
X136651000Y-79565000D01*
X136691000Y-75465000D02*
X136691000Y-76460000D01*
X136691000Y-78540000D02*
X136691000Y-79535000D01*
X136731000Y-75496000D02*
X136731000Y-76460000D01*
X136731000Y-78540000D02*
X136731000Y-79504000D01*
X136771000Y-75529000D02*
X136771000Y-76460000D01*
X136771000Y-78540000D02*
X136771000Y-79471000D01*
X136811000Y-75563000D02*
X136811000Y-76460000D01*
X136811000Y-78540000D02*
X136811000Y-79437000D01*
X136851000Y-75599000D02*
X136851000Y-76460000D01*
X136851000Y-78540000D02*
X136851000Y-79401000D01*
X136891000Y-75636000D02*
X136891000Y-76460000D01*
X136891000Y-78540000D02*
X136891000Y-79364000D01*
X136931000Y-75674000D02*
X136931000Y-76460000D01*
X136931000Y-78540000D02*
X136931000Y-79326000D01*
X136971000Y-75715000D02*
X136971000Y-76460000D01*
X136971000Y-78540000D02*
X136971000Y-79285000D01*
X137011000Y-75757000D02*
X137011000Y-76460000D01*
X137011000Y-78540000D02*
X137011000Y-79243000D01*
X137051000Y-75801000D02*
X137051000Y-76460000D01*
X137051000Y-78540000D02*
X137051000Y-79199000D01*
X137091000Y-75847000D02*
X137091000Y-76460000D01*
X137091000Y-78540000D02*
X137091000Y-79153000D01*
X137131000Y-75895000D02*
X137131000Y-76460000D01*
X137131000Y-78540000D02*
X137131000Y-79105000D01*
X137171000Y-75946000D02*
X137171000Y-76460000D01*
X137171000Y-78540000D02*
X137171000Y-79054000D01*
X137211000Y-76000000D02*
X137211000Y-76460000D01*
X137211000Y-78540000D02*
X137211000Y-79000000D01*
X137251000Y-76057000D02*
X137251000Y-76460000D01*
X137251000Y-78540000D02*
X137251000Y-78943000D01*
X137291000Y-76117000D02*
X137291000Y-76460000D01*
X137291000Y-78540000D02*
X137291000Y-78883000D01*
X137331000Y-76181000D02*
X137331000Y-76460000D01*
X137331000Y-78540000D02*
X137331000Y-78819000D01*
X137371000Y-76249000D02*
X137371000Y-76460000D01*
X137371000Y-78540000D02*
X137371000Y-78751000D01*
X137411000Y-76322000D02*
X137411000Y-78678000D01*
X137451000Y-76402000D02*
X137451000Y-78598000D01*
X137491000Y-76489000D02*
X137491000Y-78511000D01*
X137531000Y-76585000D02*
X137531000Y-78415000D01*
X137571000Y-76695000D02*
X137571000Y-78305000D01*
X137611000Y-76823000D02*
X137611000Y-78177000D01*
X137651000Y-76982000D02*
X137651000Y-78018000D01*
X137691000Y-77216000D02*
X137691000Y-77784000D01*
X132285225Y-76025000D02*
X132785225Y-76025000D01*
X132535225Y-75775000D02*
X132535225Y-76275000D01*
X127980000Y-47100000D02*
X128310000Y-47100000D01*
X128310000Y-47100000D02*
X128310000Y-53520000D01*
X128310000Y-53520000D02*
X127980000Y-53520000D01*
X126020000Y-47100000D02*
X125690000Y-47100000D01*
X125690000Y-47100000D02*
X125690000Y-53520000D01*
X125690000Y-53520000D02*
X126020000Y-53520000D01*
X140440000Y-85020000D02*
X140440000Y-84690000D01*
X140440000Y-84690000D02*
X146860000Y-84690000D01*
X146860000Y-84690000D02*
X146860000Y-85020000D01*
X140440000Y-86980000D02*
X140440000Y-87310000D01*
X140440000Y-87310000D02*
X146860000Y-87310000D01*
X146860000Y-87310000D02*
X146860000Y-86980000D01*
X152360000Y-60900000D02*
X152030000Y-60900000D01*
X152030000Y-60900000D02*
X152030000Y-54480000D01*
X152030000Y-54480000D02*
X152360000Y-54480000D01*
X154320000Y-60900000D02*
X154650000Y-60900000D01*
X154650000Y-60900000D02*
X154650000Y-54480000D01*
X154650000Y-54480000D02*
X154320000Y-54480000D01*
X126535225Y-75775000D02*
X126535225Y-76275000D01*
X126285225Y-76025000D02*
X126785225Y-76025000D01*
X131691000Y-77216000D02*
X131691000Y-77784000D01*
X131651000Y-76982000D02*
X131651000Y-78018000D01*
X131611000Y-76823000D02*
X131611000Y-78177000D01*
X131571000Y-76695000D02*
X131571000Y-78305000D01*
X131531000Y-76585000D02*
X131531000Y-78415000D01*
X131491000Y-76489000D02*
X131491000Y-78511000D01*
X131451000Y-76402000D02*
X131451000Y-78598000D01*
X131411000Y-76322000D02*
X131411000Y-78678000D01*
X131371000Y-78540000D02*
X131371000Y-78751000D01*
X131371000Y-76249000D02*
X131371000Y-76460000D01*
X131331000Y-78540000D02*
X131331000Y-78819000D01*
X131331000Y-76181000D02*
X131331000Y-76460000D01*
X131291000Y-78540000D02*
X131291000Y-78883000D01*
X131291000Y-76117000D02*
X131291000Y-76460000D01*
X131251000Y-78540000D02*
X131251000Y-78943000D01*
X131251000Y-76057000D02*
X131251000Y-76460000D01*
X131211000Y-78540000D02*
X131211000Y-79000000D01*
X131211000Y-76000000D02*
X131211000Y-76460000D01*
X131171000Y-78540000D02*
X131171000Y-79054000D01*
X131171000Y-75946000D02*
X131171000Y-76460000D01*
X131131000Y-78540000D02*
X131131000Y-79105000D01*
X131131000Y-75895000D02*
X131131000Y-76460000D01*
X131091000Y-78540000D02*
X131091000Y-79153000D01*
X131091000Y-75847000D02*
X131091000Y-76460000D01*
X131051000Y-78540000D02*
X131051000Y-79199000D01*
X131051000Y-75801000D02*
X131051000Y-76460000D01*
X131011000Y-78540000D02*
X131011000Y-79243000D01*
X131011000Y-75757000D02*
X131011000Y-76460000D01*
X130971000Y-78540000D02*
X130971000Y-79285000D01*
X130971000Y-75715000D02*
X130971000Y-76460000D01*
X130931000Y-78540000D02*
X130931000Y-79326000D01*
X130931000Y-75674000D02*
X130931000Y-76460000D01*
X130891000Y-78540000D02*
X130891000Y-79364000D01*
X130891000Y-75636000D02*
X130891000Y-76460000D01*
X130851000Y-78540000D02*
X130851000Y-79401000D01*
X130851000Y-75599000D02*
X130851000Y-76460000D01*
X130811000Y-78540000D02*
X130811000Y-79437000D01*
X130811000Y-75563000D02*
X130811000Y-76460000D01*
X130771000Y-78540000D02*
X130771000Y-79471000D01*
X130771000Y-75529000D02*
X130771000Y-76460000D01*
X130731000Y-78540000D02*
X130731000Y-79504000D01*
X130731000Y-75496000D02*
X130731000Y-76460000D01*
X130691000Y-78540000D02*
X130691000Y-79535000D01*
X130691000Y-75465000D02*
X130691000Y-76460000D01*
X130651000Y-78540000D02*
X130651000Y-79565000D01*
X130651000Y-75435000D02*
X130651000Y-76460000D01*
X130611000Y-78540000D02*
X130611000Y-79595000D01*
X130611000Y-75405000D02*
X130611000Y-76460000D01*
X130571000Y-78540000D02*
X130571000Y-79622000D01*
X130571000Y-75378000D02*
X130571000Y-76460000D01*
X130531000Y-78540000D02*
X130531000Y-79649000D01*
X130531000Y-75351000D02*
X130531000Y-76460000D01*
X130491000Y-78540000D02*
X130491000Y-79675000D01*
X130491000Y-75325000D02*
X130491000Y-76460000D01*
X130451000Y-78540000D02*
X130451000Y-79700000D01*
X130451000Y-75300000D02*
X130451000Y-76460000D01*
X130411000Y-78540000D02*
X130411000Y-79724000D01*
X130411000Y-75276000D02*
X130411000Y-76460000D01*
X130371000Y-78540000D02*
X130371000Y-79747000D01*
X130371000Y-75253000D02*
X130371000Y-76460000D01*
X130331000Y-78540000D02*
X130331000Y-79768000D01*
X130331000Y-75232000D02*
X130331000Y-76460000D01*
X130291000Y-78540000D02*
X130291000Y-79790000D01*
X130291000Y-75210000D02*
X130291000Y-76460000D01*
X130251000Y-78540000D02*
X130251000Y-79810000D01*
X130251000Y-75190000D02*
X130251000Y-76460000D01*
X130211000Y-78540000D02*
X130211000Y-79829000D01*
X130211000Y-75171000D02*
X130211000Y-76460000D01*
X130171000Y-78540000D02*
X130171000Y-79848000D01*
X130171000Y-75152000D02*
X130171000Y-76460000D01*
X130131000Y-78540000D02*
X130131000Y-79865000D01*
X130131000Y-75135000D02*
X130131000Y-76460000D01*
X130091000Y-78540000D02*
X130091000Y-79882000D01*
X130091000Y-75118000D02*
X130091000Y-76460000D01*
X130051000Y-78540000D02*
X130051000Y-79898000D01*
X130051000Y-75102000D02*
X130051000Y-76460000D01*
X130011000Y-78540000D02*
X130011000Y-79914000D01*
X130011000Y-75086000D02*
X130011000Y-76460000D01*
X129971000Y-78540000D02*
X129971000Y-79928000D01*
X129971000Y-75072000D02*
X129971000Y-76460000D01*
X129931000Y-78540000D02*
X129931000Y-79942000D01*
X129931000Y-75058000D02*
X129931000Y-76460000D01*
X129891000Y-78540000D02*
X129891000Y-79955000D01*
X129891000Y-75045000D02*
X129891000Y-76460000D01*
X129851000Y-78540000D02*
X129851000Y-79968000D01*
X129851000Y-75032000D02*
X129851000Y-76460000D01*
X129811000Y-78540000D02*
X129811000Y-79980000D01*
X129811000Y-75020000D02*
X129811000Y-76460000D01*
X129770000Y-78540000D02*
X129770000Y-79991000D01*
X129770000Y-75009000D02*
X129770000Y-76460000D01*
X129730000Y-78540000D02*
X129730000Y-80001000D01*
X129730000Y-74999000D02*
X129730000Y-76460000D01*
X129690000Y-78540000D02*
X129690000Y-80011000D01*
X129690000Y-74989000D02*
X129690000Y-76460000D01*
X129650000Y-78540000D02*
X129650000Y-80020000D01*
X129650000Y-74980000D02*
X129650000Y-76460000D01*
X129610000Y-78540000D02*
X129610000Y-80028000D01*
X129610000Y-74972000D02*
X129610000Y-76460000D01*
X129570000Y-78540000D02*
X129570000Y-80036000D01*
X129570000Y-74964000D02*
X129570000Y-76460000D01*
X129530000Y-78540000D02*
X129530000Y-80043000D01*
X129530000Y-74957000D02*
X129530000Y-76460000D01*
X129490000Y-78540000D02*
X129490000Y-80050000D01*
X129490000Y-74950000D02*
X129490000Y-76460000D01*
X129450000Y-78540000D02*
X129450000Y-80056000D01*
X129450000Y-74944000D02*
X129450000Y-76460000D01*
X129410000Y-78540000D02*
X129410000Y-80061000D01*
X129410000Y-74939000D02*
X129410000Y-76460000D01*
X129370000Y-78540000D02*
X129370000Y-80065000D01*
X129370000Y-74935000D02*
X129370000Y-76460000D01*
X129330000Y-78540000D02*
X129330000Y-80069000D01*
X129330000Y-74931000D02*
X129330000Y-76460000D01*
X129290000Y-74927000D02*
X129290000Y-80073000D01*
X129250000Y-74924000D02*
X129250000Y-80076000D01*
X129210000Y-74922000D02*
X129210000Y-80078000D01*
X129170000Y-74921000D02*
X129170000Y-80079000D01*
X129130000Y-74920000D02*
X129130000Y-80080000D01*
X129090000Y-74920000D02*
X129090000Y-80080000D01*
X131710000Y-77500000D02*
G75*
G03X131710000Y-77500000I-2620000J0D01*
G01*
X124960000Y-56250000D02*
G75*
G03X124960000Y-56250000I-2620000J0D01*
G01*
X124920000Y-56250000D02*
X119760000Y-56250000D01*
X124920000Y-56290000D02*
X119760000Y-56290000D01*
X124919000Y-56330000D02*
X119761000Y-56330000D01*
X124918000Y-56370000D02*
X119762000Y-56370000D01*
X124916000Y-56410000D02*
X119764000Y-56410000D01*
X124913000Y-56450000D02*
X119767000Y-56450000D01*
X124909000Y-56490000D02*
X123380000Y-56490000D01*
X121300000Y-56490000D02*
X119771000Y-56490000D01*
X124905000Y-56530000D02*
X123380000Y-56530000D01*
X121300000Y-56530000D02*
X119775000Y-56530000D01*
X124901000Y-56570000D02*
X123380000Y-56570000D01*
X121300000Y-56570000D02*
X119779000Y-56570000D01*
X124896000Y-56610000D02*
X123380000Y-56610000D01*
X121300000Y-56610000D02*
X119784000Y-56610000D01*
X124890000Y-56650000D02*
X123380000Y-56650000D01*
X121300000Y-56650000D02*
X119790000Y-56650000D01*
X124883000Y-56690000D02*
X123380000Y-56690000D01*
X121300000Y-56690000D02*
X119797000Y-56690000D01*
X124876000Y-56730000D02*
X123380000Y-56730000D01*
X121300000Y-56730000D02*
X119804000Y-56730000D01*
X124868000Y-56770000D02*
X123380000Y-56770000D01*
X121300000Y-56770000D02*
X119812000Y-56770000D01*
X124860000Y-56810000D02*
X123380000Y-56810000D01*
X121300000Y-56810000D02*
X119820000Y-56810000D01*
X124851000Y-56850000D02*
X123380000Y-56850000D01*
X121300000Y-56850000D02*
X119829000Y-56850000D01*
X124841000Y-56890000D02*
X123380000Y-56890000D01*
X121300000Y-56890000D02*
X119839000Y-56890000D01*
X124831000Y-56930000D02*
X123380000Y-56930000D01*
X121300000Y-56930000D02*
X119849000Y-56930000D01*
X124820000Y-56971000D02*
X123380000Y-56971000D01*
X121300000Y-56971000D02*
X119860000Y-56971000D01*
X124808000Y-57011000D02*
X123380000Y-57011000D01*
X121300000Y-57011000D02*
X119872000Y-57011000D01*
X124795000Y-57051000D02*
X123380000Y-57051000D01*
X121300000Y-57051000D02*
X119885000Y-57051000D01*
X124782000Y-57091000D02*
X123380000Y-57091000D01*
X121300000Y-57091000D02*
X119898000Y-57091000D01*
X124768000Y-57131000D02*
X123380000Y-57131000D01*
X121300000Y-57131000D02*
X119912000Y-57131000D01*
X124754000Y-57171000D02*
X123380000Y-57171000D01*
X121300000Y-57171000D02*
X119926000Y-57171000D01*
X124738000Y-57211000D02*
X123380000Y-57211000D01*
X121300000Y-57211000D02*
X119942000Y-57211000D01*
X124722000Y-57251000D02*
X123380000Y-57251000D01*
X121300000Y-57251000D02*
X119958000Y-57251000D01*
X124705000Y-57291000D02*
X123380000Y-57291000D01*
X121300000Y-57291000D02*
X119975000Y-57291000D01*
X124688000Y-57331000D02*
X123380000Y-57331000D01*
X121300000Y-57331000D02*
X119992000Y-57331000D01*
X124669000Y-57371000D02*
X123380000Y-57371000D01*
X121300000Y-57371000D02*
X120011000Y-57371000D01*
X124650000Y-57411000D02*
X123380000Y-57411000D01*
X121300000Y-57411000D02*
X120030000Y-57411000D01*
X124630000Y-57451000D02*
X123380000Y-57451000D01*
X121300000Y-57451000D02*
X120050000Y-57451000D01*
X124608000Y-57491000D02*
X123380000Y-57491000D01*
X121300000Y-57491000D02*
X120072000Y-57491000D01*
X124587000Y-57531000D02*
X123380000Y-57531000D01*
X121300000Y-57531000D02*
X120093000Y-57531000D01*
X124564000Y-57571000D02*
X123380000Y-57571000D01*
X121300000Y-57571000D02*
X120116000Y-57571000D01*
X124540000Y-57611000D02*
X123380000Y-57611000D01*
X121300000Y-57611000D02*
X120140000Y-57611000D01*
X124515000Y-57651000D02*
X123380000Y-57651000D01*
X121300000Y-57651000D02*
X120165000Y-57651000D01*
X124489000Y-57691000D02*
X123380000Y-57691000D01*
X121300000Y-57691000D02*
X120191000Y-57691000D01*
X124462000Y-57731000D02*
X123380000Y-57731000D01*
X121300000Y-57731000D02*
X120218000Y-57731000D01*
X124435000Y-57771000D02*
X123380000Y-57771000D01*
X121300000Y-57771000D02*
X120245000Y-57771000D01*
X124405000Y-57811000D02*
X123380000Y-57811000D01*
X121300000Y-57811000D02*
X120275000Y-57811000D01*
X124375000Y-57851000D02*
X123380000Y-57851000D01*
X121300000Y-57851000D02*
X120305000Y-57851000D01*
X124344000Y-57891000D02*
X123380000Y-57891000D01*
X121300000Y-57891000D02*
X120336000Y-57891000D01*
X124311000Y-57931000D02*
X123380000Y-57931000D01*
X121300000Y-57931000D02*
X120369000Y-57931000D01*
X124277000Y-57971000D02*
X123380000Y-57971000D01*
X121300000Y-57971000D02*
X120403000Y-57971000D01*
X124241000Y-58011000D02*
X123380000Y-58011000D01*
X121300000Y-58011000D02*
X120439000Y-58011000D01*
X124204000Y-58051000D02*
X123380000Y-58051000D01*
X121300000Y-58051000D02*
X120476000Y-58051000D01*
X124166000Y-58091000D02*
X123380000Y-58091000D01*
X121300000Y-58091000D02*
X120514000Y-58091000D01*
X124125000Y-58131000D02*
X123380000Y-58131000D01*
X121300000Y-58131000D02*
X120555000Y-58131000D01*
X124083000Y-58171000D02*
X123380000Y-58171000D01*
X121300000Y-58171000D02*
X120597000Y-58171000D01*
X124039000Y-58211000D02*
X123380000Y-58211000D01*
X121300000Y-58211000D02*
X120641000Y-58211000D01*
X123993000Y-58251000D02*
X123380000Y-58251000D01*
X121300000Y-58251000D02*
X120687000Y-58251000D01*
X123945000Y-58291000D02*
X123380000Y-58291000D01*
X121300000Y-58291000D02*
X120735000Y-58291000D01*
X123894000Y-58331000D02*
X123380000Y-58331000D01*
X121300000Y-58331000D02*
X120786000Y-58331000D01*
X123840000Y-58371000D02*
X123380000Y-58371000D01*
X121300000Y-58371000D02*
X120840000Y-58371000D01*
X123783000Y-58411000D02*
X123380000Y-58411000D01*
X121300000Y-58411000D02*
X120897000Y-58411000D01*
X123723000Y-58451000D02*
X123380000Y-58451000D01*
X121300000Y-58451000D02*
X120957000Y-58451000D01*
X123659000Y-58491000D02*
X123380000Y-58491000D01*
X121300000Y-58491000D02*
X121021000Y-58491000D01*
X123591000Y-58531000D02*
X123380000Y-58531000D01*
X121300000Y-58531000D02*
X121089000Y-58531000D01*
X123518000Y-58571000D02*
X121162000Y-58571000D01*
X123438000Y-58611000D02*
X121242000Y-58611000D01*
X123351000Y-58651000D02*
X121329000Y-58651000D01*
X123255000Y-58691000D02*
X121425000Y-58691000D01*
X123145000Y-58731000D02*
X121535000Y-58731000D01*
X123017000Y-58771000D02*
X121663000Y-58771000D01*
X122858000Y-58811000D02*
X121822000Y-58811000D01*
X122624000Y-58851000D02*
X122056000Y-58851000D01*
X123815000Y-53445225D02*
X123815000Y-53945225D01*
X124065000Y-53695225D02*
X123565000Y-53695225D01*
X164530000Y-69060000D02*
X164530000Y-63940000D01*
X167150000Y-69060000D02*
X167150000Y-63940000D01*
X164530000Y-69060000D02*
X164844000Y-69060000D01*
X166836000Y-69060000D02*
X167150000Y-69060000D01*
X164530000Y-63940000D02*
X164844000Y-63940000D01*
X166836000Y-63940000D02*
X167150000Y-63940000D01*
X166400000Y-79496000D02*
X166400000Y-79810000D01*
X166400000Y-77190000D02*
X166400000Y-77504000D01*
X161280000Y-79496000D02*
X161280000Y-79810000D01*
X161280000Y-77190000D02*
X161280000Y-77504000D01*
X161280000Y-79810000D02*
X166400000Y-79810000D01*
X161280000Y-77190000D02*
X166400000Y-77190000D01*
X160120000Y-48250000D02*
G75*
G03X160120000Y-48250000I-2620000J0D01*
G01*
X160080000Y-48250000D02*
X154920000Y-48250000D01*
X160080000Y-48290000D02*
X154920000Y-48290000D01*
X160079000Y-48330000D02*
X154921000Y-48330000D01*
X160078000Y-48370000D02*
X154922000Y-48370000D01*
X160076000Y-48410000D02*
X154924000Y-48410000D01*
X160073000Y-48450000D02*
X154927000Y-48450000D01*
X160069000Y-48490000D02*
X158540000Y-48490000D01*
X156460000Y-48490000D02*
X154931000Y-48490000D01*
X160065000Y-48530000D02*
X158540000Y-48530000D01*
X156460000Y-48530000D02*
X154935000Y-48530000D01*
X160061000Y-48570000D02*
X158540000Y-48570000D01*
X156460000Y-48570000D02*
X154939000Y-48570000D01*
X160056000Y-48610000D02*
X158540000Y-48610000D01*
X156460000Y-48610000D02*
X154944000Y-48610000D01*
X160050000Y-48650000D02*
X158540000Y-48650000D01*
X156460000Y-48650000D02*
X154950000Y-48650000D01*
X160043000Y-48690000D02*
X158540000Y-48690000D01*
X156460000Y-48690000D02*
X154957000Y-48690000D01*
X160036000Y-48730000D02*
X158540000Y-48730000D01*
X156460000Y-48730000D02*
X154964000Y-48730000D01*
X160028000Y-48770000D02*
X158540000Y-48770000D01*
X156460000Y-48770000D02*
X154972000Y-48770000D01*
X160020000Y-48810000D02*
X158540000Y-48810000D01*
X156460000Y-48810000D02*
X154980000Y-48810000D01*
X160011000Y-48850000D02*
X158540000Y-48850000D01*
X156460000Y-48850000D02*
X154989000Y-48850000D01*
X160001000Y-48890000D02*
X158540000Y-48890000D01*
X156460000Y-48890000D02*
X154999000Y-48890000D01*
X159991000Y-48930000D02*
X158540000Y-48930000D01*
X156460000Y-48930000D02*
X155009000Y-48930000D01*
X159980000Y-48971000D02*
X158540000Y-48971000D01*
X156460000Y-48971000D02*
X155020000Y-48971000D01*
X159968000Y-49011000D02*
X158540000Y-49011000D01*
X156460000Y-49011000D02*
X155032000Y-49011000D01*
X159955000Y-49051000D02*
X158540000Y-49051000D01*
X156460000Y-49051000D02*
X155045000Y-49051000D01*
X159942000Y-49091000D02*
X158540000Y-49091000D01*
X156460000Y-49091000D02*
X155058000Y-49091000D01*
X159928000Y-49131000D02*
X158540000Y-49131000D01*
X156460000Y-49131000D02*
X155072000Y-49131000D01*
X159914000Y-49171000D02*
X158540000Y-49171000D01*
X156460000Y-49171000D02*
X155086000Y-49171000D01*
X159898000Y-49211000D02*
X158540000Y-49211000D01*
X156460000Y-49211000D02*
X155102000Y-49211000D01*
X159882000Y-49251000D02*
X158540000Y-49251000D01*
X156460000Y-49251000D02*
X155118000Y-49251000D01*
X159865000Y-49291000D02*
X158540000Y-49291000D01*
X156460000Y-49291000D02*
X155135000Y-49291000D01*
X159848000Y-49331000D02*
X158540000Y-49331000D01*
X156460000Y-49331000D02*
X155152000Y-49331000D01*
X159829000Y-49371000D02*
X158540000Y-49371000D01*
X156460000Y-49371000D02*
X155171000Y-49371000D01*
X159810000Y-49411000D02*
X158540000Y-49411000D01*
X156460000Y-49411000D02*
X155190000Y-49411000D01*
X159790000Y-49451000D02*
X158540000Y-49451000D01*
X156460000Y-49451000D02*
X155210000Y-49451000D01*
X159768000Y-49491000D02*
X158540000Y-49491000D01*
X156460000Y-49491000D02*
X155232000Y-49491000D01*
X159747000Y-49531000D02*
X158540000Y-49531000D01*
X156460000Y-49531000D02*
X155253000Y-49531000D01*
X159724000Y-49571000D02*
X158540000Y-49571000D01*
X156460000Y-49571000D02*
X155276000Y-49571000D01*
X159700000Y-49611000D02*
X158540000Y-49611000D01*
X156460000Y-49611000D02*
X155300000Y-49611000D01*
X159675000Y-49651000D02*
X158540000Y-49651000D01*
X156460000Y-49651000D02*
X155325000Y-49651000D01*
X159649000Y-49691000D02*
X158540000Y-49691000D01*
X156460000Y-49691000D02*
X155351000Y-49691000D01*
X159622000Y-49731000D02*
X158540000Y-49731000D01*
X156460000Y-49731000D02*
X155378000Y-49731000D01*
X159595000Y-49771000D02*
X158540000Y-49771000D01*
X156460000Y-49771000D02*
X155405000Y-49771000D01*
X159565000Y-49811000D02*
X158540000Y-49811000D01*
X156460000Y-49811000D02*
X155435000Y-49811000D01*
X159535000Y-49851000D02*
X158540000Y-49851000D01*
X156460000Y-49851000D02*
X155465000Y-49851000D01*
X159504000Y-49891000D02*
X158540000Y-49891000D01*
X156460000Y-49891000D02*
X155496000Y-49891000D01*
X159471000Y-49931000D02*
X158540000Y-49931000D01*
X156460000Y-49931000D02*
X155529000Y-49931000D01*
X159437000Y-49971000D02*
X158540000Y-49971000D01*
X156460000Y-49971000D02*
X155563000Y-49971000D01*
X159401000Y-50011000D02*
X158540000Y-50011000D01*
X156460000Y-50011000D02*
X155599000Y-50011000D01*
X159364000Y-50051000D02*
X158540000Y-50051000D01*
X156460000Y-50051000D02*
X155636000Y-50051000D01*
X159326000Y-50091000D02*
X158540000Y-50091000D01*
X156460000Y-50091000D02*
X155674000Y-50091000D01*
X159285000Y-50131000D02*
X158540000Y-50131000D01*
X156460000Y-50131000D02*
X155715000Y-50131000D01*
X159243000Y-50171000D02*
X158540000Y-50171000D01*
X156460000Y-50171000D02*
X155757000Y-50171000D01*
X159199000Y-50211000D02*
X158540000Y-50211000D01*
X156460000Y-50211000D02*
X155801000Y-50211000D01*
X159153000Y-50251000D02*
X158540000Y-50251000D01*
X156460000Y-50251000D02*
X155847000Y-50251000D01*
X159105000Y-50291000D02*
X158540000Y-50291000D01*
X156460000Y-50291000D02*
X155895000Y-50291000D01*
X159054000Y-50331000D02*
X158540000Y-50331000D01*
X156460000Y-50331000D02*
X155946000Y-50331000D01*
X159000000Y-50371000D02*
X158540000Y-50371000D01*
X156460000Y-50371000D02*
X156000000Y-50371000D01*
X158943000Y-50411000D02*
X158540000Y-50411000D01*
X156460000Y-50411000D02*
X156057000Y-50411000D01*
X158883000Y-50451000D02*
X158540000Y-50451000D01*
X156460000Y-50451000D02*
X156117000Y-50451000D01*
X158819000Y-50491000D02*
X158540000Y-50491000D01*
X156460000Y-50491000D02*
X156181000Y-50491000D01*
X158751000Y-50531000D02*
X158540000Y-50531000D01*
X156460000Y-50531000D02*
X156249000Y-50531000D01*
X158678000Y-50571000D02*
X156322000Y-50571000D01*
X158598000Y-50611000D02*
X156402000Y-50611000D01*
X158511000Y-50651000D02*
X156489000Y-50651000D01*
X158415000Y-50691000D02*
X156585000Y-50691000D01*
X158305000Y-50731000D02*
X156695000Y-50731000D01*
X158177000Y-50771000D02*
X156823000Y-50771000D01*
X158018000Y-50811000D02*
X156982000Y-50811000D01*
X157784000Y-50851000D02*
X157216000Y-50851000D01*
X158975000Y-45445225D02*
X158975000Y-45945225D01*
X159225000Y-45695225D02*
X158725000Y-45695225D01*
X160530000Y-59060000D02*
X160530000Y-53940000D01*
X163150000Y-59060000D02*
X163150000Y-53940000D01*
X160530000Y-59060000D02*
X160844000Y-59060000D01*
X162836000Y-59060000D02*
X163150000Y-59060000D01*
X160530000Y-53940000D02*
X160844000Y-53940000D01*
X162836000Y-53940000D02*
X163150000Y-53940000D01*
X159336000Y-53940000D02*
X159650000Y-53940000D01*
X157030000Y-53940000D02*
X157344000Y-53940000D01*
X159336000Y-59060000D02*
X159650000Y-59060000D01*
X157030000Y-59060000D02*
X157344000Y-59060000D01*
X159650000Y-59060000D02*
X159650000Y-53940000D01*
X157030000Y-59060000D02*
X157030000Y-53940000D01*
X120780000Y-86750000D02*
X122900000Y-86750000D01*
X122900000Y-86750000D02*
X122900000Y-82630000D01*
X122900000Y-82630000D02*
X120780000Y-82630000D01*
X120780000Y-82630000D02*
X120780000Y-86750000D01*
X121840000Y-87520000D02*
X121840000Y-86750000D01*
X121840000Y-81860000D02*
X121840000Y-82630000D01*
X120780000Y-86090000D02*
X122900000Y-86090000D01*
X123780000Y-86090000D02*
X125900000Y-86090000D01*
X124840000Y-81860000D02*
X124840000Y-82630000D01*
X124840000Y-87520000D02*
X124840000Y-86750000D01*
X123780000Y-82630000D02*
X123780000Y-86750000D01*
X125900000Y-82630000D02*
X123780000Y-82630000D01*
X125900000Y-86750000D02*
X125900000Y-82630000D01*
X123780000Y-86750000D02*
X125900000Y-86750000D01*
X142687665Y-93578608D02*
G75*
G03X145920000Y-93735516I1672335J1078608D01*
G01*
X142687665Y-91421392D02*
G75*
G02X145920000Y-91264484I1672335J-1078608D01*
G01*
X143318870Y-93579837D02*
G75*
G03X145400961Y-93580000I1041130J1079837D01*
G01*
X143318870Y-91420163D02*
G75*
G02X145400961Y-91420000I1041130J-1079837D01*
G01*
X145920000Y-93736000D02*
X145920000Y-93580000D01*
X145920000Y-91420000D02*
X145920000Y-91264000D01*
X165690000Y-75030000D02*
X165690000Y-71430000D01*
X165681741Y-75041875D02*
G75*
G02X161390000Y-74050000I-1841741J1811875D01*
G01*
X165667684Y-71421555D02*
G75*
G03X161390000Y-72450000I-1827684J-1808445D01*
G01*
X125820000Y-61100000D02*
X126150000Y-61100000D01*
X126150000Y-61100000D02*
X126150000Y-67520000D01*
X126150000Y-67520000D02*
X125820000Y-67520000D01*
X123860000Y-61100000D02*
X123530000Y-61100000D01*
X123530000Y-61100000D02*
X123530000Y-67520000D01*
X123530000Y-67520000D02*
X123860000Y-67520000D01*
D11*
X153388095Y-74452380D02*
X153388095Y-75261904D01*
X153435714Y-75357142D01*
X153483333Y-75404761D01*
X153578571Y-75452380D01*
X153769047Y-75452380D01*
X153864285Y-75404761D01*
X153911904Y-75357142D01*
X153959523Y-75261904D01*
X153959523Y-74452380D01*
X154959523Y-75452380D02*
X154388095Y-75452380D01*
X154673809Y-75452380D02*
X154673809Y-74452380D01*
X154578571Y-74595238D01*
X154483333Y-74690476D01*
X154388095Y-74738095D01*
X162673142Y-87238666D02*
X162720761Y-87286285D01*
X162768380Y-87429142D01*
X162768380Y-87524380D01*
X162720761Y-87667238D01*
X162625523Y-87762476D01*
X162530285Y-87810095D01*
X162339809Y-87857714D01*
X162196952Y-87857714D01*
X162006476Y-87810095D01*
X161911238Y-87762476D01*
X161816000Y-87667238D01*
X161768380Y-87524380D01*
X161768380Y-87429142D01*
X161816000Y-87286285D01*
X161863619Y-87238666D01*
X162768380Y-86286285D02*
X162768380Y-86857714D01*
X162768380Y-86572000D02*
X161768380Y-86572000D01*
X161911238Y-86667238D01*
X162006476Y-86762476D01*
X162054095Y-86857714D01*
X123697142Y-74666666D02*
X123744761Y-74714285D01*
X123792380Y-74857142D01*
X123792380Y-74952380D01*
X123744761Y-75095238D01*
X123649523Y-75190476D01*
X123554285Y-75238095D01*
X123363809Y-75285714D01*
X123220952Y-75285714D01*
X123030476Y-75238095D01*
X122935238Y-75190476D01*
X122840000Y-75095238D01*
X122792380Y-74952380D01*
X122792380Y-74857142D01*
X122840000Y-74714285D01*
X122887619Y-74666666D01*
X123125714Y-73809523D02*
X123792380Y-73809523D01*
X122744761Y-74047619D02*
X123459047Y-74285714D01*
X123459047Y-73666666D01*
X133378761Y-88487619D02*
X133283523Y-88440000D01*
X133188285Y-88344761D01*
X133045428Y-88201904D01*
X132950190Y-88154285D01*
X132854952Y-88154285D01*
X132902571Y-88392380D02*
X132807333Y-88344761D01*
X132712095Y-88249523D01*
X132664476Y-88059047D01*
X132664476Y-87725714D01*
X132712095Y-87535238D01*
X132807333Y-87440000D01*
X132902571Y-87392380D01*
X133093047Y-87392380D01*
X133188285Y-87440000D01*
X133283523Y-87535238D01*
X133331142Y-87725714D01*
X133331142Y-88059047D01*
X133283523Y-88249523D01*
X133188285Y-88344761D01*
X133093047Y-88392380D01*
X132902571Y-88392380D01*
X134283523Y-88392380D02*
X133712095Y-88392380D01*
X133997809Y-88392380D02*
X133997809Y-87392380D01*
X133902571Y-87535238D01*
X133807333Y-87630476D01*
X133712095Y-87678095D01*
X154873333Y-70952380D02*
X154540000Y-70476190D01*
X154301904Y-70952380D02*
X154301904Y-69952380D01*
X154682857Y-69952380D01*
X154778095Y-70000000D01*
X154825714Y-70047619D01*
X154873333Y-70142857D01*
X154873333Y-70285714D01*
X154825714Y-70380952D01*
X154778095Y-70428571D01*
X154682857Y-70476190D01*
X154301904Y-70476190D01*
X155206666Y-69952380D02*
X155825714Y-69952380D01*
X155492380Y-70333333D01*
X155635238Y-70333333D01*
X155730476Y-70380952D01*
X155778095Y-70428571D01*
X155825714Y-70523809D01*
X155825714Y-70761904D01*
X155778095Y-70857142D01*
X155730476Y-70904761D01*
X155635238Y-70952380D01*
X155349523Y-70952380D01*
X155254285Y-70904761D01*
X155206666Y-70857142D01*
X153473333Y-88952380D02*
X153140000Y-88476190D01*
X152901904Y-88952380D02*
X152901904Y-87952380D01*
X153282857Y-87952380D01*
X153378095Y-88000000D01*
X153425714Y-88047619D01*
X153473333Y-88142857D01*
X153473333Y-88285714D01*
X153425714Y-88380952D01*
X153378095Y-88428571D01*
X153282857Y-88476190D01*
X152901904Y-88476190D01*
X153854285Y-88047619D02*
X153901904Y-88000000D01*
X153997142Y-87952380D01*
X154235238Y-87952380D01*
X154330476Y-88000000D01*
X154378095Y-88047619D01*
X154425714Y-88142857D01*
X154425714Y-88238095D01*
X154378095Y-88380952D01*
X153806666Y-88952380D01*
X154425714Y-88952380D01*
X119952380Y-64366666D02*
X119476190Y-64700000D01*
X119952380Y-64938095D02*
X118952380Y-64938095D01*
X118952380Y-64557142D01*
X119000000Y-64461904D01*
X119047619Y-64414285D01*
X119142857Y-64366666D01*
X119285714Y-64366666D01*
X119380952Y-64414285D01*
X119428571Y-64461904D01*
X119476190Y-64557142D01*
X119476190Y-64938095D01*
X118952380Y-63461904D02*
X118952380Y-63938095D01*
X119428571Y-63985714D01*
X119380952Y-63938095D01*
X119333333Y-63842857D01*
X119333333Y-63604761D01*
X119380952Y-63509523D01*
X119428571Y-63461904D01*
X119523809Y-63414285D01*
X119761904Y-63414285D01*
X119857142Y-63461904D01*
X119904761Y-63509523D01*
X119952380Y-63604761D01*
X119952380Y-63842857D01*
X119904761Y-63938095D01*
X119857142Y-63985714D01*
X135452380Y-51038095D02*
X134452380Y-51038095D01*
X134452380Y-50800000D01*
X134500000Y-50657142D01*
X134595238Y-50561904D01*
X134690476Y-50514285D01*
X134880952Y-50466666D01*
X135023809Y-50466666D01*
X135214285Y-50514285D01*
X135309523Y-50561904D01*
X135404761Y-50657142D01*
X135452380Y-50800000D01*
X135452380Y-51038095D01*
X135452380Y-49514285D02*
X135452380Y-50085714D01*
X135452380Y-49800000D02*
X134452380Y-49800000D01*
X134595238Y-49895238D01*
X134690476Y-49990476D01*
X134738095Y-50085714D01*
X169792380Y-75438095D02*
X168792380Y-75438095D01*
X168792380Y-75200000D01*
X168840000Y-75057142D01*
X168935238Y-74961904D01*
X169030476Y-74914285D01*
X169220952Y-74866666D01*
X169363809Y-74866666D01*
X169554285Y-74914285D01*
X169649523Y-74961904D01*
X169744761Y-75057142D01*
X169792380Y-75200000D01*
X169792380Y-75438095D01*
X168792380Y-73961904D02*
X168792380Y-74438095D01*
X169268571Y-74485714D01*
X169220952Y-74438095D01*
X169173333Y-74342857D01*
X169173333Y-74104761D01*
X169220952Y-74009523D01*
X169268571Y-73961904D01*
X169363809Y-73914285D01*
X169601904Y-73914285D01*
X169697142Y-73961904D01*
X169744761Y-74009523D01*
X169792380Y-74104761D01*
X169792380Y-74342857D01*
X169744761Y-74438095D01*
X169697142Y-74485714D01*
X169292380Y-85466666D02*
X168816190Y-85800000D01*
X169292380Y-86038095D02*
X168292380Y-86038095D01*
X168292380Y-85657142D01*
X168340000Y-85561904D01*
X168387619Y-85514285D01*
X168482857Y-85466666D01*
X168625714Y-85466666D01*
X168720952Y-85514285D01*
X168768571Y-85561904D01*
X168816190Y-85657142D01*
X168816190Y-86038095D01*
X169292380Y-84514285D02*
X169292380Y-85085714D01*
X169292380Y-84800000D02*
X168292380Y-84800000D01*
X168435238Y-84895238D01*
X168530476Y-84990476D01*
X168578095Y-85085714D01*
X143373333Y-82952380D02*
X143040000Y-82476190D01*
X142801904Y-82952380D02*
X142801904Y-81952380D01*
X143182857Y-81952380D01*
X143278095Y-82000000D01*
X143325714Y-82047619D01*
X143373333Y-82142857D01*
X143373333Y-82285714D01*
X143325714Y-82380952D01*
X143278095Y-82428571D01*
X143182857Y-82476190D01*
X142801904Y-82476190D01*
X143706666Y-81952380D02*
X144373333Y-81952380D01*
X143944761Y-82952380D01*
X119952380Y-74486666D02*
X119476190Y-74820000D01*
X119952380Y-75058095D02*
X118952380Y-75058095D01*
X118952380Y-74677142D01*
X119000000Y-74581904D01*
X119047619Y-74534285D01*
X119142857Y-74486666D01*
X119285714Y-74486666D01*
X119380952Y-74534285D01*
X119428571Y-74581904D01*
X119476190Y-74677142D01*
X119476190Y-75058095D01*
X119380952Y-73915238D02*
X119333333Y-74010476D01*
X119285714Y-74058095D01*
X119190476Y-74105714D01*
X119142857Y-74105714D01*
X119047619Y-74058095D01*
X119000000Y-74010476D01*
X118952380Y-73915238D01*
X118952380Y-73724761D01*
X119000000Y-73629523D01*
X119047619Y-73581904D01*
X119142857Y-73534285D01*
X119190476Y-73534285D01*
X119285714Y-73581904D01*
X119333333Y-73629523D01*
X119380952Y-73724761D01*
X119380952Y-73915238D01*
X119428571Y-74010476D01*
X119476190Y-74058095D01*
X119571428Y-74105714D01*
X119761904Y-74105714D01*
X119857142Y-74058095D01*
X119904761Y-74010476D01*
X119952380Y-73915238D01*
X119952380Y-73724761D01*
X119904761Y-73629523D01*
X119857142Y-73581904D01*
X119761904Y-73534285D01*
X119571428Y-73534285D01*
X119476190Y-73581904D01*
X119428571Y-73629523D01*
X119380952Y-73724761D01*
X131452380Y-50366666D02*
X130976190Y-50700000D01*
X131452380Y-50938095D02*
X130452380Y-50938095D01*
X130452380Y-50557142D01*
X130500000Y-50461904D01*
X130547619Y-50414285D01*
X130642857Y-50366666D01*
X130785714Y-50366666D01*
X130880952Y-50414285D01*
X130928571Y-50461904D01*
X130976190Y-50557142D01*
X130976190Y-50938095D01*
X131452380Y-49890476D02*
X131452380Y-49700000D01*
X131404761Y-49604761D01*
X131357142Y-49557142D01*
X131214285Y-49461904D01*
X131023809Y-49414285D01*
X130642857Y-49414285D01*
X130547619Y-49461904D01*
X130500000Y-49509523D01*
X130452380Y-49604761D01*
X130452380Y-49795238D01*
X130500000Y-49890476D01*
X130547619Y-49938095D01*
X130642857Y-49985714D01*
X130880952Y-49985714D01*
X130976190Y-49938095D01*
X131023809Y-49890476D01*
X131071428Y-49795238D01*
X131071428Y-49604761D01*
X131023809Y-49509523D01*
X130976190Y-49461904D01*
X130880952Y-49414285D01*
X142997142Y-79452380D02*
X142663809Y-78976190D01*
X142425714Y-79452380D02*
X142425714Y-78452380D01*
X142806666Y-78452380D01*
X142901904Y-78500000D01*
X142949523Y-78547619D01*
X142997142Y-78642857D01*
X142997142Y-78785714D01*
X142949523Y-78880952D01*
X142901904Y-78928571D01*
X142806666Y-78976190D01*
X142425714Y-78976190D01*
X143949523Y-79452380D02*
X143378095Y-79452380D01*
X143663809Y-79452380D02*
X143663809Y-78452380D01*
X143568571Y-78595238D01*
X143473333Y-78690476D01*
X143378095Y-78738095D01*
X144568571Y-78452380D02*
X144663809Y-78452380D01*
X144759047Y-78500000D01*
X144806666Y-78547619D01*
X144854285Y-78642857D01*
X144901904Y-78833333D01*
X144901904Y-79071428D01*
X144854285Y-79261904D01*
X144806666Y-79357142D01*
X144759047Y-79404761D01*
X144663809Y-79452380D01*
X144568571Y-79452380D01*
X144473333Y-79404761D01*
X144425714Y-79357142D01*
X144378095Y-79261904D01*
X144330476Y-79071428D01*
X144330476Y-78833333D01*
X144378095Y-78642857D01*
X144425714Y-78547619D01*
X144473333Y-78500000D01*
X144568571Y-78452380D01*
X155397142Y-85452380D02*
X155063809Y-84976190D01*
X154825714Y-85452380D02*
X154825714Y-84452380D01*
X155206666Y-84452380D01*
X155301904Y-84500000D01*
X155349523Y-84547619D01*
X155397142Y-84642857D01*
X155397142Y-84785714D01*
X155349523Y-84880952D01*
X155301904Y-84928571D01*
X155206666Y-84976190D01*
X154825714Y-84976190D01*
X156349523Y-85452380D02*
X155778095Y-85452380D01*
X156063809Y-85452380D02*
X156063809Y-84452380D01*
X155968571Y-84595238D01*
X155873333Y-84690476D01*
X155778095Y-84738095D01*
X157301904Y-85452380D02*
X156730476Y-85452380D01*
X157016190Y-85452380D02*
X157016190Y-84452380D01*
X156920952Y-84595238D01*
X156825714Y-84690476D01*
X156730476Y-84738095D01*
X169452380Y-58442857D02*
X168976190Y-58776190D01*
X169452380Y-59014285D02*
X168452380Y-59014285D01*
X168452380Y-58633333D01*
X168500000Y-58538095D01*
X168547619Y-58490476D01*
X168642857Y-58442857D01*
X168785714Y-58442857D01*
X168880952Y-58490476D01*
X168928571Y-58538095D01*
X168976190Y-58633333D01*
X168976190Y-59014285D01*
X169452380Y-57490476D02*
X169452380Y-58061904D01*
X169452380Y-57776190D02*
X168452380Y-57776190D01*
X168595238Y-57871428D01*
X168690476Y-57966666D01*
X168738095Y-58061904D01*
X168785714Y-56633333D02*
X169452380Y-56633333D01*
X168404761Y-56871428D02*
X169119047Y-57109523D01*
X169119047Y-56490476D01*
X165952380Y-58442857D02*
X165476190Y-58776190D01*
X165952380Y-59014285D02*
X164952380Y-59014285D01*
X164952380Y-58633333D01*
X165000000Y-58538095D01*
X165047619Y-58490476D01*
X165142857Y-58442857D01*
X165285714Y-58442857D01*
X165380952Y-58490476D01*
X165428571Y-58538095D01*
X165476190Y-58633333D01*
X165476190Y-59014285D01*
X165952380Y-57490476D02*
X165952380Y-58061904D01*
X165952380Y-57776190D02*
X164952380Y-57776190D01*
X165095238Y-57871428D01*
X165190476Y-57966666D01*
X165238095Y-58061904D01*
X164952380Y-56585714D02*
X164952380Y-57061904D01*
X165428571Y-57109523D01*
X165380952Y-57061904D01*
X165333333Y-56966666D01*
X165333333Y-56728571D01*
X165380952Y-56633333D01*
X165428571Y-56585714D01*
X165523809Y-56538095D01*
X165761904Y-56538095D01*
X165857142Y-56585714D01*
X165904761Y-56633333D01*
X165952380Y-56728571D01*
X165952380Y-56966666D01*
X165904761Y-57061904D01*
X165857142Y-57109523D01*
X131460761Y-88587619D02*
X131365523Y-88540000D01*
X131270285Y-88444761D01*
X131127428Y-88301904D01*
X131032190Y-88254285D01*
X130936952Y-88254285D01*
X130984571Y-88492380D02*
X130889333Y-88444761D01*
X130794095Y-88349523D01*
X130746476Y-88159047D01*
X130746476Y-87825714D01*
X130794095Y-87635238D01*
X130889333Y-87540000D01*
X130984571Y-87492380D01*
X131175047Y-87492380D01*
X131270285Y-87540000D01*
X131365523Y-87635238D01*
X131413142Y-87825714D01*
X131413142Y-88159047D01*
X131365523Y-88349523D01*
X131270285Y-88444761D01*
X131175047Y-88492380D01*
X130984571Y-88492380D01*
X131794095Y-87587619D02*
X131841714Y-87540000D01*
X131936952Y-87492380D01*
X132175047Y-87492380D01*
X132270285Y-87540000D01*
X132317904Y-87587619D01*
X132365523Y-87682857D01*
X132365523Y-87778095D01*
X132317904Y-87920952D01*
X131746476Y-88492380D01*
X132365523Y-88492380D01*
X149817142Y-50976666D02*
X149864761Y-51024285D01*
X149912380Y-51167142D01*
X149912380Y-51262380D01*
X149864761Y-51405238D01*
X149769523Y-51500476D01*
X149674285Y-51548095D01*
X149483809Y-51595714D01*
X149340952Y-51595714D01*
X149150476Y-51548095D01*
X149055238Y-51500476D01*
X148960000Y-51405238D01*
X148912380Y-51262380D01*
X148912380Y-51167142D01*
X148960000Y-51024285D01*
X149007619Y-50976666D01*
X149007619Y-50595714D02*
X148960000Y-50548095D01*
X148912380Y-50452857D01*
X148912380Y-50214761D01*
X148960000Y-50119523D01*
X149007619Y-50071904D01*
X149102857Y-50024285D01*
X149198095Y-50024285D01*
X149340952Y-50071904D01*
X149912380Y-50643333D01*
X149912380Y-50024285D01*
X134923333Y-74107142D02*
X134875714Y-74154761D01*
X134732857Y-74202380D01*
X134637619Y-74202380D01*
X134494761Y-74154761D01*
X134399523Y-74059523D01*
X134351904Y-73964285D01*
X134304285Y-73773809D01*
X134304285Y-73630952D01*
X134351904Y-73440476D01*
X134399523Y-73345238D01*
X134494761Y-73250000D01*
X134637619Y-73202380D01*
X134732857Y-73202380D01*
X134875714Y-73250000D01*
X134923333Y-73297619D01*
X135828095Y-73202380D02*
X135351904Y-73202380D01*
X135304285Y-73678571D01*
X135351904Y-73630952D01*
X135447142Y-73583333D01*
X135685238Y-73583333D01*
X135780476Y-73630952D01*
X135828095Y-73678571D01*
X135875714Y-73773809D01*
X135875714Y-74011904D01*
X135828095Y-74107142D01*
X135780476Y-74154761D01*
X135685238Y-74202380D01*
X135447142Y-74202380D01*
X135351904Y-74154761D01*
X135304285Y-74107142D01*
X127452380Y-50466666D02*
X126976190Y-50800000D01*
X127452380Y-51038095D02*
X126452380Y-51038095D01*
X126452380Y-50657142D01*
X126500000Y-50561904D01*
X126547619Y-50514285D01*
X126642857Y-50466666D01*
X126785714Y-50466666D01*
X126880952Y-50514285D01*
X126928571Y-50561904D01*
X126976190Y-50657142D01*
X126976190Y-51038095D01*
X126452380Y-49609523D02*
X126452380Y-49800000D01*
X126500000Y-49895238D01*
X126547619Y-49942857D01*
X126690476Y-50038095D01*
X126880952Y-50085714D01*
X127261904Y-50085714D01*
X127357142Y-50038095D01*
X127404761Y-49990476D01*
X127452380Y-49895238D01*
X127452380Y-49704761D01*
X127404761Y-49609523D01*
X127357142Y-49561904D01*
X127261904Y-49514285D01*
X127023809Y-49514285D01*
X126928571Y-49561904D01*
X126880952Y-49609523D01*
X126833333Y-49704761D01*
X126833333Y-49895238D01*
X126880952Y-49990476D01*
X126928571Y-50038095D01*
X127023809Y-50085714D01*
X143473333Y-86452380D02*
X143140000Y-85976190D01*
X142901904Y-86452380D02*
X142901904Y-85452380D01*
X143282857Y-85452380D01*
X143378095Y-85500000D01*
X143425714Y-85547619D01*
X143473333Y-85642857D01*
X143473333Y-85785714D01*
X143425714Y-85880952D01*
X143378095Y-85928571D01*
X143282857Y-85976190D01*
X142901904Y-85976190D01*
X144330476Y-85785714D02*
X144330476Y-86452380D01*
X144092380Y-85404761D02*
X143854285Y-86119047D01*
X144473333Y-86119047D01*
X153792380Y-58342857D02*
X153316190Y-58676190D01*
X153792380Y-58914285D02*
X152792380Y-58914285D01*
X152792380Y-58533333D01*
X152840000Y-58438095D01*
X152887619Y-58390476D01*
X152982857Y-58342857D01*
X153125714Y-58342857D01*
X153220952Y-58390476D01*
X153268571Y-58438095D01*
X153316190Y-58533333D01*
X153316190Y-58914285D01*
X153792380Y-57390476D02*
X153792380Y-57961904D01*
X153792380Y-57676190D02*
X152792380Y-57676190D01*
X152935238Y-57771428D01*
X153030476Y-57866666D01*
X153078095Y-57961904D01*
X152792380Y-57057142D02*
X152792380Y-56438095D01*
X153173333Y-56771428D01*
X153173333Y-56628571D01*
X153220952Y-56533333D01*
X153268571Y-56485714D01*
X153363809Y-56438095D01*
X153601904Y-56438095D01*
X153697142Y-56485714D01*
X153744761Y-56533333D01*
X153792380Y-56628571D01*
X153792380Y-56914285D01*
X153744761Y-57009523D01*
X153697142Y-57057142D01*
X128923333Y-74107142D02*
X128875714Y-74154761D01*
X128732857Y-74202380D01*
X128637619Y-74202380D01*
X128494761Y-74154761D01*
X128399523Y-74059523D01*
X128351904Y-73964285D01*
X128304285Y-73773809D01*
X128304285Y-73630952D01*
X128351904Y-73440476D01*
X128399523Y-73345238D01*
X128494761Y-73250000D01*
X128637619Y-73202380D01*
X128732857Y-73202380D01*
X128875714Y-73250000D01*
X128923333Y-73297619D01*
X129256666Y-73202380D02*
X129875714Y-73202380D01*
X129542380Y-73583333D01*
X129685238Y-73583333D01*
X129780476Y-73630952D01*
X129828095Y-73678571D01*
X129875714Y-73773809D01*
X129875714Y-74011904D01*
X129828095Y-74107142D01*
X129780476Y-74154761D01*
X129685238Y-74202380D01*
X129399523Y-74202380D01*
X129304285Y-74154761D01*
X129256666Y-74107142D01*
X126447142Y-56416666D02*
X126494761Y-56464285D01*
X126542380Y-56607142D01*
X126542380Y-56702380D01*
X126494761Y-56845238D01*
X126399523Y-56940476D01*
X126304285Y-56988095D01*
X126113809Y-57035714D01*
X125970952Y-57035714D01*
X125780476Y-56988095D01*
X125685238Y-56940476D01*
X125590000Y-56845238D01*
X125542380Y-56702380D01*
X125542380Y-56607142D01*
X125590000Y-56464285D01*
X125637619Y-56416666D01*
X125542380Y-55559523D02*
X125542380Y-55750000D01*
X125590000Y-55845238D01*
X125637619Y-55892857D01*
X125780476Y-55988095D01*
X125970952Y-56035714D01*
X126351904Y-56035714D01*
X126447142Y-55988095D01*
X126494761Y-55940476D01*
X126542380Y-55845238D01*
X126542380Y-55654761D01*
X126494761Y-55559523D01*
X126447142Y-55511904D01*
X126351904Y-55464285D01*
X126113809Y-55464285D01*
X126018571Y-55511904D01*
X125970952Y-55559523D01*
X125923333Y-55654761D01*
X125923333Y-55845238D01*
X125970952Y-55940476D01*
X126018571Y-55988095D01*
X126113809Y-56035714D01*
X166197142Y-66666666D02*
X166244761Y-66714285D01*
X166292380Y-66857142D01*
X166292380Y-66952380D01*
X166244761Y-67095238D01*
X166149523Y-67190476D01*
X166054285Y-67238095D01*
X165863809Y-67285714D01*
X165720952Y-67285714D01*
X165530476Y-67238095D01*
X165435238Y-67190476D01*
X165340000Y-67095238D01*
X165292380Y-66952380D01*
X165292380Y-66857142D01*
X165340000Y-66714285D01*
X165387619Y-66666666D01*
X165292380Y-66333333D02*
X165292380Y-65666666D01*
X166292380Y-66095238D01*
X163673333Y-78857142D02*
X163625714Y-78904761D01*
X163482857Y-78952380D01*
X163387619Y-78952380D01*
X163244761Y-78904761D01*
X163149523Y-78809523D01*
X163101904Y-78714285D01*
X163054285Y-78523809D01*
X163054285Y-78380952D01*
X163101904Y-78190476D01*
X163149523Y-78095238D01*
X163244761Y-78000000D01*
X163387619Y-77952380D01*
X163482857Y-77952380D01*
X163625714Y-78000000D01*
X163673333Y-78047619D01*
X164244761Y-78380952D02*
X164149523Y-78333333D01*
X164101904Y-78285714D01*
X164054285Y-78190476D01*
X164054285Y-78142857D01*
X164101904Y-78047619D01*
X164149523Y-78000000D01*
X164244761Y-77952380D01*
X164435238Y-77952380D01*
X164530476Y-78000000D01*
X164578095Y-78047619D01*
X164625714Y-78142857D01*
X164625714Y-78190476D01*
X164578095Y-78285714D01*
X164530476Y-78333333D01*
X164435238Y-78380952D01*
X164244761Y-78380952D01*
X164149523Y-78428571D01*
X164101904Y-78476190D01*
X164054285Y-78571428D01*
X164054285Y-78761904D01*
X164101904Y-78857142D01*
X164149523Y-78904761D01*
X164244761Y-78952380D01*
X164435238Y-78952380D01*
X164530476Y-78904761D01*
X164578095Y-78857142D01*
X164625714Y-78761904D01*
X164625714Y-78571428D01*
X164578095Y-78476190D01*
X164530476Y-78428571D01*
X164435238Y-78380952D01*
X161607142Y-48416666D02*
X161654761Y-48464285D01*
X161702380Y-48607142D01*
X161702380Y-48702380D01*
X161654761Y-48845238D01*
X161559523Y-48940476D01*
X161464285Y-48988095D01*
X161273809Y-49035714D01*
X161130952Y-49035714D01*
X160940476Y-48988095D01*
X160845238Y-48940476D01*
X160750000Y-48845238D01*
X160702380Y-48702380D01*
X160702380Y-48607142D01*
X160750000Y-48464285D01*
X160797619Y-48416666D01*
X161702380Y-47940476D02*
X161702380Y-47750000D01*
X161654761Y-47654761D01*
X161607142Y-47607142D01*
X161464285Y-47511904D01*
X161273809Y-47464285D01*
X160892857Y-47464285D01*
X160797619Y-47511904D01*
X160750000Y-47559523D01*
X160702380Y-47654761D01*
X160702380Y-47845238D01*
X160750000Y-47940476D01*
X160797619Y-47988095D01*
X160892857Y-48035714D01*
X161130952Y-48035714D01*
X161226190Y-47988095D01*
X161273809Y-47940476D01*
X161321428Y-47845238D01*
X161321428Y-47654761D01*
X161273809Y-47559523D01*
X161226190Y-47511904D01*
X161130952Y-47464285D01*
X162197142Y-57142857D02*
X162244761Y-57190476D01*
X162292380Y-57333333D01*
X162292380Y-57428571D01*
X162244761Y-57571428D01*
X162149523Y-57666666D01*
X162054285Y-57714285D01*
X161863809Y-57761904D01*
X161720952Y-57761904D01*
X161530476Y-57714285D01*
X161435238Y-57666666D01*
X161340000Y-57571428D01*
X161292380Y-57428571D01*
X161292380Y-57333333D01*
X161340000Y-57190476D01*
X161387619Y-57142857D01*
X162292380Y-56190476D02*
X162292380Y-56761904D01*
X162292380Y-56476190D02*
X161292380Y-56476190D01*
X161435238Y-56571428D01*
X161530476Y-56666666D01*
X161578095Y-56761904D01*
X161292380Y-55571428D02*
X161292380Y-55476190D01*
X161340000Y-55380952D01*
X161387619Y-55333333D01*
X161482857Y-55285714D01*
X161673333Y-55238095D01*
X161911428Y-55238095D01*
X162101904Y-55285714D01*
X162197142Y-55333333D01*
X162244761Y-55380952D01*
X162292380Y-55476190D01*
X162292380Y-55571428D01*
X162244761Y-55666666D01*
X162197142Y-55714285D01*
X162101904Y-55761904D01*
X161911428Y-55809523D01*
X161673333Y-55809523D01*
X161482857Y-55761904D01*
X161387619Y-55714285D01*
X161340000Y-55666666D01*
X161292380Y-55571428D01*
X158697142Y-57142857D02*
X158744761Y-57190476D01*
X158792380Y-57333333D01*
X158792380Y-57428571D01*
X158744761Y-57571428D01*
X158649523Y-57666666D01*
X158554285Y-57714285D01*
X158363809Y-57761904D01*
X158220952Y-57761904D01*
X158030476Y-57714285D01*
X157935238Y-57666666D01*
X157840000Y-57571428D01*
X157792380Y-57428571D01*
X157792380Y-57333333D01*
X157840000Y-57190476D01*
X157887619Y-57142857D01*
X158792380Y-56190476D02*
X158792380Y-56761904D01*
X158792380Y-56476190D02*
X157792380Y-56476190D01*
X157935238Y-56571428D01*
X158030476Y-56666666D01*
X158078095Y-56761904D01*
X158792380Y-55238095D02*
X158792380Y-55809523D01*
X158792380Y-55523809D02*
X157792380Y-55523809D01*
X157935238Y-55619047D01*
X158030476Y-55714285D01*
X158078095Y-55809523D01*
X122292380Y-85438095D02*
X121292380Y-85438095D01*
X121292380Y-85200000D01*
X121340000Y-85057142D01*
X121435238Y-84961904D01*
X121530476Y-84914285D01*
X121720952Y-84866666D01*
X121863809Y-84866666D01*
X122054285Y-84914285D01*
X122149523Y-84961904D01*
X122244761Y-85057142D01*
X122292380Y-85200000D01*
X122292380Y-85438095D01*
X121387619Y-84485714D02*
X121340000Y-84438095D01*
X121292380Y-84342857D01*
X121292380Y-84104761D01*
X121340000Y-84009523D01*
X121387619Y-83961904D01*
X121482857Y-83914285D01*
X121578095Y-83914285D01*
X121720952Y-83961904D01*
X122292380Y-84533333D01*
X122292380Y-83914285D01*
X125292380Y-85438095D02*
X124292380Y-85438095D01*
X124292380Y-85200000D01*
X124340000Y-85057142D01*
X124435238Y-84961904D01*
X124530476Y-84914285D01*
X124720952Y-84866666D01*
X124863809Y-84866666D01*
X125054285Y-84914285D01*
X125149523Y-84961904D01*
X125244761Y-85057142D01*
X125292380Y-85200000D01*
X125292380Y-85438095D01*
X124292380Y-84533333D02*
X124292380Y-83914285D01*
X124673333Y-84247619D01*
X124673333Y-84104761D01*
X124720952Y-84009523D01*
X124768571Y-83961904D01*
X124863809Y-83914285D01*
X125101904Y-83914285D01*
X125197142Y-83961904D01*
X125244761Y-84009523D01*
X125292380Y-84104761D01*
X125292380Y-84390476D01*
X125244761Y-84485714D01*
X125197142Y-84533333D01*
X145891904Y-94952380D02*
X145891904Y-93952380D01*
X146130000Y-93952380D01*
X146272857Y-94000000D01*
X146368095Y-94095238D01*
X146415714Y-94190476D01*
X146463333Y-94380952D01*
X146463333Y-94523809D01*
X146415714Y-94714285D01*
X146368095Y-94809523D01*
X146272857Y-94904761D01*
X146130000Y-94952380D01*
X145891904Y-94952380D01*
X147320476Y-94285714D02*
X147320476Y-94952380D01*
X147082380Y-93904761D02*
X146844285Y-94619047D01*
X147463333Y-94619047D01*
X161887619Y-76095238D02*
X161840000Y-76190476D01*
X161744761Y-76285714D01*
X161601904Y-76428571D01*
X161554285Y-76523809D01*
X161554285Y-76619047D01*
X161792380Y-76571428D02*
X161744761Y-76666666D01*
X161649523Y-76761904D01*
X161459047Y-76809523D01*
X161125714Y-76809523D01*
X160935238Y-76761904D01*
X160840000Y-76666666D01*
X160792380Y-76571428D01*
X160792380Y-76380952D01*
X160840000Y-76285714D01*
X160935238Y-76190476D01*
X161125714Y-76142857D01*
X161459047Y-76142857D01*
X161649523Y-76190476D01*
X161744761Y-76285714D01*
X161792380Y-76380952D01*
X161792380Y-76571428D01*
X160792380Y-75809523D02*
X160792380Y-75190476D01*
X161173333Y-75523809D01*
X161173333Y-75380952D01*
X161220952Y-75285714D01*
X161268571Y-75238095D01*
X161363809Y-75190476D01*
X161601904Y-75190476D01*
X161697142Y-75238095D01*
X161744761Y-75285714D01*
X161792380Y-75380952D01*
X161792380Y-75666666D01*
X161744761Y-75761904D01*
X161697142Y-75809523D01*
X125292380Y-64942857D02*
X124816190Y-65276190D01*
X125292380Y-65514285D02*
X124292380Y-65514285D01*
X124292380Y-65133333D01*
X124340000Y-65038095D01*
X124387619Y-64990476D01*
X124482857Y-64942857D01*
X124625714Y-64942857D01*
X124720952Y-64990476D01*
X124768571Y-65038095D01*
X124816190Y-65133333D01*
X124816190Y-65514285D01*
X125292380Y-63990476D02*
X125292380Y-64561904D01*
X125292380Y-64276190D02*
X124292380Y-64276190D01*
X124435238Y-64371428D01*
X124530476Y-64466666D01*
X124578095Y-64561904D01*
X124387619Y-63609523D02*
X124340000Y-63561904D01*
X124292380Y-63466666D01*
X124292380Y-63228571D01*
X124340000Y-63133333D01*
X124387619Y-63085714D01*
X124482857Y-63038095D01*
X124578095Y-63038095D01*
X124720952Y-63085714D01*
X125292380Y-63657142D01*
X125292380Y-63038095D01*
M02*
