M48
;DRILL file {KiCad (5.0.0-3-g5ebb6b6)} date Sunday, 09 September 2018 at 10:20:47
;FORMAT={-:-/ absolute / metric / decimal}
FMAT,2
METRIC,TZ
T1C0.700
T2C0.750
T3C0.800
T4C0.900
T5C1.000
T6C1.001
T7C1.092
T8C1.300
T9C2.000
%
G90
G05
M71
T1
X124.46Y-67.564
X127.Y-70.104
X129.54Y-67.564
X159.004Y-67.564
X161.544Y-70.104
X164.084Y-67.564
T2
X152.654Y-91.186
X152.654Y-93.726
X153.924Y-92.456
X152.5Y-76.23
X152.5Y-78.77
X153.77Y-77.5
T3
X150.38Y-82.296
X158.Y-82.296
X164.592Y-76.708
X169.592Y-76.708
X124.968Y-79.756
X124.968Y-87.376
X138.Y-70.5
X138.Y-78.12
X144.5Y-86.36
X152.12Y-86.36
X138.684Y-55.031
X138.684Y-57.531
X145.288Y-91.012
X145.288Y-96.012
X133.604Y-80.76
X133.604Y-83.3
X133.604Y-85.84
X133.604Y-88.38
X133.604Y-90.92
X133.604Y-93.46
X133.604Y-96.
X141.224Y-80.76
X141.224Y-83.3
X141.224Y-85.84
X141.224Y-88.38
X141.224Y-90.92
X141.224Y-93.46
X141.224Y-96.
X146.304Y-75.184
X146.304Y-77.684
X154.38Y-47.5
X162.Y-47.5
X120.904Y-89.916
X120.904Y-97.536
X161.Y-80.
X161.Y-82.54
X161.Y-85.08
X161.Y-87.62
X161.Y-90.16
X161.Y-92.7
X161.Y-95.24
X161.Y-97.78
X168.62Y-80.
X168.62Y-82.54
X168.62Y-85.08
X168.62Y-87.62
X168.62Y-90.16
X168.62Y-92.7
X168.62Y-95.24
X168.62Y-97.78
X155.448Y-95.504
X157.988Y-95.504
X125.476Y-77.
X133.096Y-77.
X151.Y-61.468
X151.Y-69.088
X129.54Y-89.996
X129.54Y-94.996
X149.86Y-54.904
X149.86Y-57.404
X140.88Y-69.
X148.5Y-69.
X125.476Y-89.916
X125.476Y-97.536
X151.5Y-43.88
X151.5Y-51.5
X128.016Y-79.756
X128.016Y-87.376
X131.064Y-48.26
X137.663Y-52.07
X157.48Y-84.836
X157.48Y-92.456
X159.512Y-76.708
X162.052Y-76.708
X149.Y-89.408
X149.Y-97.028
X127.5Y-44.196
X127.5Y-46.696
X131.5Y-44.5
X139.12Y-44.5
X138.Y-60.38
X138.Y-68.
X140.88Y-66.
X148.5Y-66.
X146.304Y-80.772
X146.304Y-83.272
X154.38Y-44.5
X162.Y-44.5
X140.88Y-72.
X148.5Y-72.
T4
X120.904Y-83.96
X120.904Y-86.5
X142.875Y-99.568
X145.415Y-99.568
X120.904Y-78.5
X120.904Y-81.04
T5
X123.19Y-99.568
X127.Y-99.568
X153.924Y-99.568
X157.734Y-99.568
X150.368Y-99.568
T6
X133.096Y-99.568
X136.271Y-99.568
X139.446Y-99.568
T7
X144.145Y-55.12
X144.145Y-57.66
X144.145Y-60.2
T8
X156.544Y-73.66
X161.544Y-73.66
X166.544Y-73.66
X121.92Y-73.66
X126.92Y-73.66
X131.92Y-73.66
T9
X161.544Y-57.66
X126.92Y-57.66
T6
X139.446Y-47.921G85X139.446Y-49.92
G05
X145.144Y-45.921G85X143.146Y-45.921
G05
X145.144Y-51.92G85X143.146Y-51.92
G05
T0
M30
