G04 #@! TF.GenerationSoftware,KiCad,Pcbnew,(5.0.0-3-g5ebb6b6)*
G04 #@! TF.CreationDate,2018-09-09T10:20:45+01:00*
G04 #@! TF.ProjectId,EngineersThumb,456E67696E656572735468756D622E6B,rev?*
G04 #@! TF.SameCoordinates,Original*
G04 #@! TF.FileFunction,Copper,L2,Bot,Signal*
G04 #@! TF.FilePolarity,Positive*
%FSLAX46Y46*%
G04 Gerber Fmt 4.6, Leading zero omitted, Abs format (unit mm)*
G04 Created by KiCad (PCBNEW (5.0.0-3-g5ebb6b6)) date Sunday, 09 September 2018 at 10:20:45*
%MOMM*%
%LPD*%
G01*
G04 APERTURE LIST*
G04 #@! TA.AperFunction,Conductor*
%ADD10C,0.100000*%
G04 #@! TD*
G04 #@! TA.AperFunction,ComponentPad*
%ADD11C,1.100000*%
G04 #@! TD*
G04 #@! TA.AperFunction,ComponentPad*
%ADD12R,1.800000X1.100000*%
G04 #@! TD*
G04 #@! TA.AperFunction,ComponentPad*
%ADD13C,1.778000*%
G04 #@! TD*
G04 #@! TA.AperFunction,ComponentPad*
%ADD14O,1.600000X1.600000*%
G04 #@! TD*
G04 #@! TA.AperFunction,ComponentPad*
%ADD15R,1.600000X1.600000*%
G04 #@! TD*
G04 #@! TA.AperFunction,ComponentPad*
%ADD16C,1.600000*%
G04 #@! TD*
G04 #@! TA.AperFunction,ComponentPad*
%ADD17R,3.500120X3.500120*%
G04 #@! TD*
G04 #@! TA.AperFunction,Conductor*
%ADD18C,1.600000*%
G04 #@! TD*
G04 #@! TA.AperFunction,ComponentPad*
%ADD19C,2.340000*%
G04 #@! TD*
G04 #@! TA.AperFunction,ComponentPad*
%ADD20R,2.400000X1.600000*%
G04 #@! TD*
G04 #@! TA.AperFunction,ComponentPad*
%ADD21O,2.400000X1.600000*%
G04 #@! TD*
G04 #@! TA.AperFunction,ComponentPad*
%ADD22C,1.260000*%
G04 #@! TD*
G04 #@! TA.AperFunction,ComponentPad*
%ADD23C,1.800000*%
G04 #@! TD*
G04 #@! TA.AperFunction,ComponentPad*
%ADD24R,1.800000X1.800000*%
G04 #@! TD*
G04 #@! TA.AperFunction,ComponentPad*
%ADD25R,2.500000X2.500000*%
G04 #@! TD*
G04 #@! TA.AperFunction,ComponentPad*
%ADD26C,2.500000*%
G04 #@! TD*
G04 #@! TA.AperFunction,ComponentPad*
%ADD27R,2.499360X2.499360*%
G04 #@! TD*
G04 #@! TA.AperFunction,ComponentPad*
%ADD28C,2.499360*%
G04 #@! TD*
G04 #@! TA.AperFunction,Conductor*
%ADD29C,0.500000*%
G04 #@! TD*
G04 #@! TA.AperFunction,Conductor*
%ADD30C,0.300000*%
G04 #@! TD*
G04 APERTURE END LIST*
D10*
G04 #@! TO.N,Net-(D6-Pad2)*
G04 #@! TO.C,Q1*
G36*
X154821955Y-76951324D02*
X154848650Y-76955284D01*
X154874828Y-76961841D01*
X154900238Y-76970933D01*
X154924634Y-76982472D01*
X154947782Y-76996346D01*
X154969458Y-77012422D01*
X154989454Y-77030546D01*
X155007578Y-77050542D01*
X155023654Y-77072218D01*
X155037528Y-77095366D01*
X155049067Y-77119762D01*
X155058159Y-77145172D01*
X155064716Y-77171350D01*
X155068676Y-77198045D01*
X155070000Y-77225000D01*
X155070000Y-77775000D01*
X155068676Y-77801955D01*
X155064716Y-77828650D01*
X155058159Y-77854828D01*
X155049067Y-77880238D01*
X155037528Y-77904634D01*
X155023654Y-77927782D01*
X155007578Y-77949458D01*
X154989454Y-77969454D01*
X154969458Y-77987578D01*
X154947782Y-78003654D01*
X154924634Y-78017528D01*
X154900238Y-78029067D01*
X154874828Y-78038159D01*
X154848650Y-78044716D01*
X154821955Y-78048676D01*
X154795000Y-78050000D01*
X153545000Y-78050000D01*
X153518045Y-78048676D01*
X153491350Y-78044716D01*
X153465172Y-78038159D01*
X153439762Y-78029067D01*
X153415366Y-78017528D01*
X153392218Y-78003654D01*
X153370542Y-77987578D01*
X153350546Y-77969454D01*
X153332422Y-77949458D01*
X153316346Y-77927782D01*
X153302472Y-77904634D01*
X153290933Y-77880238D01*
X153281841Y-77854828D01*
X153275284Y-77828650D01*
X153271324Y-77801955D01*
X153270000Y-77775000D01*
X153270000Y-77225000D01*
X153271324Y-77198045D01*
X153275284Y-77171350D01*
X153281841Y-77145172D01*
X153290933Y-77119762D01*
X153302472Y-77095366D01*
X153316346Y-77072218D01*
X153332422Y-77050542D01*
X153350546Y-77030546D01*
X153370542Y-77012422D01*
X153392218Y-76996346D01*
X153415366Y-76982472D01*
X153439762Y-76970933D01*
X153465172Y-76961841D01*
X153491350Y-76955284D01*
X153518045Y-76951324D01*
X153545000Y-76950000D01*
X154795000Y-76950000D01*
X154821955Y-76951324D01*
X154821955Y-76951324D01*
G37*
D11*
G04 #@! TD*
G04 #@! TO.P,Q1,2*
G04 #@! TO.N,Net-(D6-Pad2)*
X154170000Y-77500000D03*
D10*
G04 #@! TO.N,Net-(D6-Pad1)*
G04 #@! TO.C,Q1*
G36*
X152751955Y-78221324D02*
X152778650Y-78225284D01*
X152804828Y-78231841D01*
X152830238Y-78240933D01*
X152854634Y-78252472D01*
X152877782Y-78266346D01*
X152899458Y-78282422D01*
X152919454Y-78300546D01*
X152937578Y-78320542D01*
X152953654Y-78342218D01*
X152967528Y-78365366D01*
X152979067Y-78389762D01*
X152988159Y-78415172D01*
X152994716Y-78441350D01*
X152998676Y-78468045D01*
X153000000Y-78495000D01*
X153000000Y-79045000D01*
X152998676Y-79071955D01*
X152994716Y-79098650D01*
X152988159Y-79124828D01*
X152979067Y-79150238D01*
X152967528Y-79174634D01*
X152953654Y-79197782D01*
X152937578Y-79219458D01*
X152919454Y-79239454D01*
X152899458Y-79257578D01*
X152877782Y-79273654D01*
X152854634Y-79287528D01*
X152830238Y-79299067D01*
X152804828Y-79308159D01*
X152778650Y-79314716D01*
X152751955Y-79318676D01*
X152725000Y-79320000D01*
X151475000Y-79320000D01*
X151448045Y-79318676D01*
X151421350Y-79314716D01*
X151395172Y-79308159D01*
X151369762Y-79299067D01*
X151345366Y-79287528D01*
X151322218Y-79273654D01*
X151300542Y-79257578D01*
X151280546Y-79239454D01*
X151262422Y-79219458D01*
X151246346Y-79197782D01*
X151232472Y-79174634D01*
X151220933Y-79150238D01*
X151211841Y-79124828D01*
X151205284Y-79098650D01*
X151201324Y-79071955D01*
X151200000Y-79045000D01*
X151200000Y-78495000D01*
X151201324Y-78468045D01*
X151205284Y-78441350D01*
X151211841Y-78415172D01*
X151220933Y-78389762D01*
X151232472Y-78365366D01*
X151246346Y-78342218D01*
X151262422Y-78320542D01*
X151280546Y-78300546D01*
X151300542Y-78282422D01*
X151322218Y-78266346D01*
X151345366Y-78252472D01*
X151369762Y-78240933D01*
X151395172Y-78231841D01*
X151421350Y-78225284D01*
X151448045Y-78221324D01*
X151475000Y-78220000D01*
X152725000Y-78220000D01*
X152751955Y-78221324D01*
X152751955Y-78221324D01*
G37*
D11*
G04 #@! TD*
G04 #@! TO.P,Q1,3*
G04 #@! TO.N,Net-(D6-Pad1)*
X152100000Y-78770000D03*
D12*
G04 #@! TO.P,Q1,1*
G04 #@! TO.N,Net-(Q1-Pad1)*
X152100000Y-76230000D03*
G04 #@! TD*
D13*
G04 #@! TO.P,SW1,1*
G04 #@! TO.N,Net-(R9-Pad2)*
X144145000Y-55120000D03*
G04 #@! TO.P,SW1,2*
G04 #@! TO.N,Net-(C4-Pad2)*
X144145000Y-57660000D03*
G04 #@! TO.P,SW1,3*
G04 #@! TO.N,N/C*
X144145000Y-60200000D03*
G04 #@! TD*
D14*
G04 #@! TO.P,D6,2*
G04 #@! TO.N,Net-(D6-Pad2)*
X158000000Y-82296000D03*
D15*
G04 #@! TO.P,D6,1*
G04 #@! TO.N,Net-(D6-Pad1)*
X150380000Y-82296000D03*
G04 #@! TD*
D16*
G04 #@! TO.P,R3,1*
G04 #@! TO.N,Net-(C3-Pad1)*
X125476000Y-97536000D03*
D14*
G04 #@! TO.P,R3,2*
G04 #@! TO.N,Net-(J2-Pad1)*
X125476000Y-89916000D03*
G04 #@! TD*
D17*
G04 #@! TO.P,J1,1*
G04 #@! TO.N,GND*
X144145000Y-51920140D03*
G04 #@! TO.P,J1,2*
G04 #@! TO.N,Net-(J1-Pad2)*
X144145000Y-45920660D03*
G04 #@! TO.P,J1,3*
G04 #@! TO.N,Net-(BT1-Pad1)*
X139446000Y-48920400D03*
G04 #@! TD*
D16*
G04 #@! TO.P,R2,1*
G04 #@! TO.N,Net-(J2-Pad1)*
X120904000Y-89916000D03*
D14*
G04 #@! TO.P,R2,2*
G04 #@! TO.N,GND*
X120904000Y-97536000D03*
G04 #@! TD*
D16*
G04 #@! TO.P,R5,1*
G04 #@! TO.N,Net-(C2-Pad1)*
X148500000Y-66000000D03*
D14*
G04 #@! TO.P,R5,2*
G04 #@! TO.N,GND*
X140880000Y-66000000D03*
G04 #@! TD*
D16*
G04 #@! TO.P,D1,1*
G04 #@! TO.N,+9V*
X131064000Y-48260000D03*
D10*
G04 #@! TD*
G04 #@! TO.N,+9V*
G04 #@! TO.C,D1*
G36*
X129971180Y-48552820D02*
X130771180Y-47167180D01*
X132156820Y-47967180D01*
X131356820Y-49352820D01*
X129971180Y-48552820D01*
X129971180Y-48552820D01*
G37*
D16*
G04 #@! TO.P,D1,2*
G04 #@! TO.N,GND*
X137663114Y-52070000D03*
D18*
G04 #@! TD*
G04 #@! TO.N,GND*
G04 #@! TO.C,D1*
X137663114Y-52070000D02*
X137663114Y-52070000D01*
D19*
G04 #@! TO.P,RV1,3*
G04 #@! TO.N,Net-(C4-Pad2)*
X166544000Y-73660000D03*
G04 #@! TO.P,RV1,2*
G04 #@! TO.N,Net-(C4-Pad1)*
X161544000Y-73660000D03*
G04 #@! TO.P,RV1,1*
G04 #@! TO.N,N/C*
X156544000Y-73660000D03*
G04 #@! TD*
D16*
G04 #@! TO.P,C3,1*
G04 #@! TO.N,Net-(C3-Pad1)*
X129540000Y-94996000D03*
G04 #@! TO.P,C3,2*
G04 #@! TO.N,Net-(C3-Pad2)*
X129540000Y-89996000D03*
G04 #@! TD*
G04 #@! TO.P,C4,1*
G04 #@! TO.N,Net-(C4-Pad1)*
X145288000Y-96012000D03*
G04 #@! TO.P,C4,2*
G04 #@! TO.N,Net-(C4-Pad2)*
X145288000Y-91012000D03*
G04 #@! TD*
D20*
G04 #@! TO.P,U2,1*
G04 #@! TO.N,Net-(Q1-Pad1)*
X161000000Y-80000000D03*
D21*
G04 #@! TO.P,U2,9*
G04 #@! TO.N,GND*
X168620000Y-97780000D03*
G04 #@! TO.P,U2,2*
G04 #@! TO.N,N/C*
X161000000Y-82540000D03*
G04 #@! TO.P,U2,10*
G04 #@! TO.N,GND*
X168620000Y-95240000D03*
G04 #@! TO.P,U2,3*
G04 #@! TO.N,Net-(R12-Pad2)*
X161000000Y-85080000D03*
G04 #@! TO.P,U2,11*
G04 #@! TO.N,+9V*
X168620000Y-92700000D03*
G04 #@! TO.P,U2,4*
G04 #@! TO.N,VCC*
X161000000Y-87620000D03*
G04 #@! TO.P,U2,12*
G04 #@! TO.N,Net-(U2-Pad12)*
X168620000Y-90160000D03*
G04 #@! TO.P,U2,5*
G04 #@! TO.N,Net-(C4-Pad2)*
X161000000Y-90160000D03*
G04 #@! TO.P,U2,13*
G04 #@! TO.N,Net-(U2-Pad12)*
X168620000Y-87620000D03*
G04 #@! TO.P,U2,6*
G04 #@! TO.N,GND*
X161000000Y-92700000D03*
G04 #@! TO.P,U2,14*
G04 #@! TO.N,N/C*
X168620000Y-85080000D03*
G04 #@! TO.P,U2,7*
G04 #@! TO.N,GND*
X161000000Y-95240000D03*
G04 #@! TO.P,U2,15*
G04 #@! TO.N,N/C*
X168620000Y-82540000D03*
G04 #@! TO.P,U2,8*
G04 #@! TO.N,GND*
X161000000Y-97780000D03*
G04 #@! TO.P,U2,16*
X168620000Y-80000000D03*
G04 #@! TD*
D16*
G04 #@! TO.P,C6,1*
G04 #@! TO.N,VCC*
X164592000Y-76708000D03*
G04 #@! TO.P,C6,2*
G04 #@! TO.N,Net-(C6-Pad2)*
X169592000Y-76708000D03*
G04 #@! TD*
D15*
G04 #@! TO.P,D4,1*
G04 #@! TO.N,Net-(D4-Pad1)*
X138000000Y-78120000D03*
D14*
G04 #@! TO.P,D4,2*
G04 #@! TO.N,Net-(D4-Pad2)*
X138000000Y-70500000D03*
G04 #@! TD*
G04 #@! TO.P,D5,2*
G04 #@! TO.N,Net-(D5-Pad2)*
X151500000Y-43880000D03*
D15*
G04 #@! TO.P,D5,1*
G04 #@! TO.N,Net-(D4-Pad2)*
X151500000Y-51500000D03*
G04 #@! TD*
G04 #@! TO.P,D7,1*
G04 #@! TO.N,+9V*
X157480000Y-84836000D03*
D14*
G04 #@! TO.P,D7,2*
G04 #@! TO.N,Net-(D7-Pad2)*
X157480000Y-92456000D03*
G04 #@! TD*
G04 #@! TO.P,R1,2*
G04 #@! TO.N,Net-(J1-Pad2)*
X139120000Y-44500000D03*
D16*
G04 #@! TO.P,R1,1*
G04 #@! TO.N,+9V*
X131500000Y-44500000D03*
G04 #@! TD*
D14*
G04 #@! TO.P,R7,2*
G04 #@! TO.N,Net-(D4-Pad1)*
X133096000Y-77000000D03*
D16*
G04 #@! TO.P,R7,1*
G04 #@! TO.N,Net-(R7-Pad1)*
X125476000Y-77000000D03*
G04 #@! TD*
G04 #@! TO.P,R8,1*
G04 #@! TO.N,Net-(R8-Pad1)*
X162000000Y-44500000D03*
D14*
G04 #@! TO.P,R8,2*
G04 #@! TO.N,Net-(D5-Pad2)*
X154380000Y-44500000D03*
G04 #@! TD*
D16*
G04 #@! TO.P,R9,1*
G04 #@! TO.N,Net-(C6-Pad2)*
X162000000Y-47500000D03*
D14*
G04 #@! TO.P,R9,2*
G04 #@! TO.N,Net-(R9-Pad2)*
X154380000Y-47500000D03*
G04 #@! TD*
G04 #@! TO.P,R10,2*
G04 #@! TO.N,Net-(C5-Pad1)*
X138000000Y-60380000D03*
D16*
G04 #@! TO.P,R10,1*
G04 #@! TO.N,Net-(C7-Pad1)*
X138000000Y-68000000D03*
G04 #@! TD*
D14*
G04 #@! TO.P,R11,2*
G04 #@! TO.N,Net-(C4-Pad2)*
X151000000Y-61468000D03*
D16*
G04 #@! TO.P,R11,1*
G04 #@! TO.N,VCC*
X151000000Y-69088000D03*
G04 #@! TD*
G04 #@! TO.P,R14,1*
G04 #@! TO.N,Net-(C4-Pad1)*
X148500000Y-72000000D03*
D14*
G04 #@! TO.P,R14,2*
G04 #@! TO.N,Net-(C8-Pad1)*
X140880000Y-72000000D03*
G04 #@! TD*
G04 #@! TO.P,R15,2*
G04 #@! TO.N,Net-(D6-Pad1)*
X140880000Y-69000000D03*
D16*
G04 #@! TO.P,R15,1*
G04 #@! TO.N,VCC*
X148500000Y-69000000D03*
G04 #@! TD*
G04 #@! TO.P,R17,1*
G04 #@! TO.N,Net-(Q2-Pad3)*
X149000000Y-89408000D03*
D14*
G04 #@! TO.P,R17,2*
G04 #@! TO.N,Net-(D8-Pad2)*
X149000000Y-97028000D03*
G04 #@! TD*
D19*
G04 #@! TO.P,RV4,3*
G04 #@! TO.N,GND*
X131920000Y-73660000D03*
G04 #@! TO.P,RV4,2*
G04 #@! TO.N,Net-(J4-Pad1)*
X126920000Y-73660000D03*
G04 #@! TO.P,RV4,1*
G04 #@! TO.N,Net-(C8-Pad2)*
X121920000Y-73660000D03*
G04 #@! TD*
D12*
G04 #@! TO.P,Q2,1*
G04 #@! TO.N,+9V*
X152254000Y-91186000D03*
D10*
G04 #@! TD*
G04 #@! TO.N,Net-(Q2-Pad3)*
G04 #@! TO.C,Q2*
G36*
X152905955Y-93177324D02*
X152932650Y-93181284D01*
X152958828Y-93187841D01*
X152984238Y-93196933D01*
X153008634Y-93208472D01*
X153031782Y-93222346D01*
X153053458Y-93238422D01*
X153073454Y-93256546D01*
X153091578Y-93276542D01*
X153107654Y-93298218D01*
X153121528Y-93321366D01*
X153133067Y-93345762D01*
X153142159Y-93371172D01*
X153148716Y-93397350D01*
X153152676Y-93424045D01*
X153154000Y-93451000D01*
X153154000Y-94001000D01*
X153152676Y-94027955D01*
X153148716Y-94054650D01*
X153142159Y-94080828D01*
X153133067Y-94106238D01*
X153121528Y-94130634D01*
X153107654Y-94153782D01*
X153091578Y-94175458D01*
X153073454Y-94195454D01*
X153053458Y-94213578D01*
X153031782Y-94229654D01*
X153008634Y-94243528D01*
X152984238Y-94255067D01*
X152958828Y-94264159D01*
X152932650Y-94270716D01*
X152905955Y-94274676D01*
X152879000Y-94276000D01*
X151629000Y-94276000D01*
X151602045Y-94274676D01*
X151575350Y-94270716D01*
X151549172Y-94264159D01*
X151523762Y-94255067D01*
X151499366Y-94243528D01*
X151476218Y-94229654D01*
X151454542Y-94213578D01*
X151434546Y-94195454D01*
X151416422Y-94175458D01*
X151400346Y-94153782D01*
X151386472Y-94130634D01*
X151374933Y-94106238D01*
X151365841Y-94080828D01*
X151359284Y-94054650D01*
X151355324Y-94027955D01*
X151354000Y-94001000D01*
X151354000Y-93451000D01*
X151355324Y-93424045D01*
X151359284Y-93397350D01*
X151365841Y-93371172D01*
X151374933Y-93345762D01*
X151386472Y-93321366D01*
X151400346Y-93298218D01*
X151416422Y-93276542D01*
X151434546Y-93256546D01*
X151454542Y-93238422D01*
X151476218Y-93222346D01*
X151499366Y-93208472D01*
X151523762Y-93196933D01*
X151549172Y-93187841D01*
X151575350Y-93181284D01*
X151602045Y-93177324D01*
X151629000Y-93176000D01*
X152879000Y-93176000D01*
X152905955Y-93177324D01*
X152905955Y-93177324D01*
G37*
D11*
G04 #@! TO.P,Q2,3*
G04 #@! TO.N,Net-(Q2-Pad3)*
X152254000Y-93726000D03*
D10*
G04 #@! TD*
G04 #@! TO.N,Net-(D7-Pad2)*
G04 #@! TO.C,Q2*
G36*
X154975955Y-91907324D02*
X155002650Y-91911284D01*
X155028828Y-91917841D01*
X155054238Y-91926933D01*
X155078634Y-91938472D01*
X155101782Y-91952346D01*
X155123458Y-91968422D01*
X155143454Y-91986546D01*
X155161578Y-92006542D01*
X155177654Y-92028218D01*
X155191528Y-92051366D01*
X155203067Y-92075762D01*
X155212159Y-92101172D01*
X155218716Y-92127350D01*
X155222676Y-92154045D01*
X155224000Y-92181000D01*
X155224000Y-92731000D01*
X155222676Y-92757955D01*
X155218716Y-92784650D01*
X155212159Y-92810828D01*
X155203067Y-92836238D01*
X155191528Y-92860634D01*
X155177654Y-92883782D01*
X155161578Y-92905458D01*
X155143454Y-92925454D01*
X155123458Y-92943578D01*
X155101782Y-92959654D01*
X155078634Y-92973528D01*
X155054238Y-92985067D01*
X155028828Y-92994159D01*
X155002650Y-93000716D01*
X154975955Y-93004676D01*
X154949000Y-93006000D01*
X153699000Y-93006000D01*
X153672045Y-93004676D01*
X153645350Y-93000716D01*
X153619172Y-92994159D01*
X153593762Y-92985067D01*
X153569366Y-92973528D01*
X153546218Y-92959654D01*
X153524542Y-92943578D01*
X153504546Y-92925454D01*
X153486422Y-92905458D01*
X153470346Y-92883782D01*
X153456472Y-92860634D01*
X153444933Y-92836238D01*
X153435841Y-92810828D01*
X153429284Y-92784650D01*
X153425324Y-92757955D01*
X153424000Y-92731000D01*
X153424000Y-92181000D01*
X153425324Y-92154045D01*
X153429284Y-92127350D01*
X153435841Y-92101172D01*
X153444933Y-92075762D01*
X153456472Y-92051366D01*
X153470346Y-92028218D01*
X153486422Y-92006542D01*
X153504546Y-91986546D01*
X153524542Y-91968422D01*
X153546218Y-91952346D01*
X153569366Y-91938472D01*
X153593762Y-91926933D01*
X153619172Y-91917841D01*
X153645350Y-91911284D01*
X153672045Y-91907324D01*
X153699000Y-91906000D01*
X154949000Y-91906000D01*
X154975955Y-91907324D01*
X154975955Y-91907324D01*
G37*
D11*
G04 #@! TO.P,Q2,2*
G04 #@! TO.N,Net-(D7-Pad2)*
X154324000Y-92456000D03*
G04 #@! TD*
D22*
G04 #@! TO.P,RV2,3*
G04 #@! TO.N,Net-(R7-Pad1)*
X124460000Y-67564000D03*
G04 #@! TO.P,RV2,2*
G04 #@! TO.N,Net-(C5-Pad1)*
X127000000Y-70104000D03*
G04 #@! TO.P,RV2,1*
X129540000Y-67564000D03*
G04 #@! TD*
G04 #@! TO.P,RV3,1*
G04 #@! TO.N,Net-(R8-Pad1)*
X164084000Y-67564000D03*
G04 #@! TO.P,RV3,2*
G04 #@! TO.N,Net-(C5-Pad1)*
X161544000Y-70104000D03*
G04 #@! TO.P,RV3,3*
X159004000Y-67564000D03*
G04 #@! TD*
D20*
G04 #@! TO.P,U1,1*
G04 #@! TO.N,VCC*
X133604000Y-80760000D03*
D21*
G04 #@! TO.P,U1,8*
G04 #@! TO.N,Net-(C4-Pad1)*
X141224000Y-96000000D03*
G04 #@! TO.P,U1,2*
G04 #@! TO.N,VCC*
X133604000Y-83300000D03*
G04 #@! TO.P,U1,9*
G04 #@! TO.N,Net-(C4-Pad2)*
X141224000Y-93460000D03*
G04 #@! TO.P,U1,3*
G04 #@! TO.N,Net-(C2-Pad1)*
X133604000Y-85840000D03*
G04 #@! TO.P,U1,10*
G04 #@! TO.N,Net-(C3-Pad2)*
X141224000Y-90920000D03*
G04 #@! TO.P,U1,4*
G04 #@! TO.N,+9V*
X133604000Y-88380000D03*
G04 #@! TO.P,U1,11*
G04 #@! TO.N,GND*
X141224000Y-88380000D03*
G04 #@! TO.P,U1,5*
G04 #@! TO.N,Net-(C3-Pad2)*
X133604000Y-90920000D03*
G04 #@! TO.P,U1,12*
G04 #@! TO.N,Net-(C7-Pad1)*
X141224000Y-85840000D03*
G04 #@! TO.P,U1,6*
G04 #@! TO.N,Net-(D4-Pad1)*
X133604000Y-93460000D03*
G04 #@! TO.P,U1,13*
G04 #@! TO.N,Net-(D6-Pad1)*
X141224000Y-83300000D03*
G04 #@! TO.P,U1,7*
G04 #@! TO.N,Net-(D4-Pad2)*
X133604000Y-96000000D03*
G04 #@! TO.P,U1,14*
G04 #@! TO.N,Net-(D6-Pad2)*
X141224000Y-80760000D03*
G04 #@! TD*
D15*
G04 #@! TO.P,C1,1*
G04 #@! TO.N,+9V*
X127500000Y-44196000D03*
D16*
G04 #@! TO.P,C1,2*
G04 #@! TO.N,GND*
X127500000Y-46696000D03*
G04 #@! TD*
G04 #@! TO.P,C2,2*
G04 #@! TO.N,GND*
X149860000Y-54904000D03*
D15*
G04 #@! TO.P,C2,1*
G04 #@! TO.N,Net-(C2-Pad1)*
X149860000Y-57404000D03*
G04 #@! TD*
G04 #@! TO.P,C5,1*
G04 #@! TO.N,Net-(C5-Pad1)*
X138684000Y-57531000D03*
D16*
G04 #@! TO.P,C5,2*
G04 #@! TO.N,GND*
X138684000Y-55031000D03*
G04 #@! TD*
G04 #@! TO.P,C7,2*
G04 #@! TO.N,GND*
X146304000Y-83272000D03*
D15*
G04 #@! TO.P,C7,1*
G04 #@! TO.N,Net-(C7-Pad1)*
X146304000Y-80772000D03*
G04 #@! TD*
D16*
G04 #@! TO.P,C8,2*
G04 #@! TO.N,Net-(C8-Pad2)*
X146304000Y-77684000D03*
D15*
G04 #@! TO.P,C8,1*
G04 #@! TO.N,Net-(C8-Pad1)*
X146304000Y-75184000D03*
G04 #@! TD*
D23*
G04 #@! TO.P,D2,2*
G04 #@! TO.N,Net-(C3-Pad1)*
X120904000Y-86500000D03*
D24*
G04 #@! TO.P,D2,1*
G04 #@! TO.N,GND*
X120904000Y-83960000D03*
G04 #@! TD*
G04 #@! TO.P,D3,1*
G04 #@! TO.N,Net-(C3-Pad1)*
X120904000Y-78500000D03*
D23*
G04 #@! TO.P,D3,2*
G04 #@! TO.N,GND*
X120904000Y-81040000D03*
G04 #@! TD*
D24*
G04 #@! TO.P,D8,1*
G04 #@! TO.N,GND*
X142875000Y-99568000D03*
D23*
G04 #@! TO.P,D8,2*
G04 #@! TO.N,Net-(D8-Pad2)*
X145415000Y-99568000D03*
G04 #@! TD*
D16*
G04 #@! TO.P,R16,1*
G04 #@! TO.N,Net-(Q1-Pad1)*
X159512000Y-76708000D03*
D14*
G04 #@! TO.P,R16,2*
G04 #@! TO.N,VCC*
X162052000Y-76708000D03*
G04 #@! TD*
D16*
G04 #@! TO.P,R12,1*
G04 #@! TO.N,Net-(C4-Pad1)*
X155448000Y-95504000D03*
D14*
G04 #@! TO.P,R12,2*
G04 #@! TO.N,Net-(R12-Pad2)*
X157988000Y-95504000D03*
G04 #@! TD*
D16*
G04 #@! TO.P,R6,1*
G04 #@! TO.N,Net-(C3-Pad2)*
X124968000Y-87376000D03*
D14*
G04 #@! TO.P,R6,2*
G04 #@! TO.N,VCC*
X124968000Y-79756000D03*
G04 #@! TD*
D16*
G04 #@! TO.P,R4,1*
G04 #@! TO.N,+9V*
X128016000Y-79756000D03*
D14*
G04 #@! TO.P,R4,2*
G04 #@! TO.N,Net-(C2-Pad1)*
X128016000Y-87376000D03*
G04 #@! TD*
D16*
G04 #@! TO.P,R13,1*
G04 #@! TO.N,VCC*
X144500000Y-86360000D03*
D14*
G04 #@! TO.P,R13,2*
G04 #@! TO.N,Net-(R12-Pad2)*
X152120000Y-86360000D03*
G04 #@! TD*
D25*
G04 #@! TO.P,BT1,1*
G04 #@! TO.N,Net-(BT1-Pad1)*
X123190000Y-99568000D03*
D26*
G04 #@! TO.P,BT1,2*
G04 #@! TO.N,Net-(BT1-Pad2)*
X127000000Y-99568000D03*
G04 #@! TD*
D27*
G04 #@! TO.P,J2,1*
G04 #@! TO.N,Net-(J2-Pad1)*
X133096000Y-99568000D03*
D28*
G04 #@! TO.P,J2,2*
G04 #@! TO.N,Net-(BT1-Pad2)*
X136271000Y-99568000D03*
G04 #@! TO.P,J2,3*
G04 #@! TO.N,GND*
X139446000Y-99568000D03*
G04 #@! TD*
D26*
G04 #@! TO.P,J3,1*
G04 #@! TO.N,Net-(D7-Pad2)*
X150368000Y-99568000D03*
G04 #@! TD*
D25*
G04 #@! TO.P,J4,1*
G04 #@! TO.N,Net-(J4-Pad1)*
X153924000Y-99568000D03*
D26*
G04 #@! TO.P,J4,2*
G04 #@! TO.N,GND*
X157734000Y-99568000D03*
G04 #@! TD*
D29*
G04 #@! TO.N,VCC*
X162052000Y-76708000D02*
X164592000Y-76708000D01*
X162700000Y-86320000D02*
X161400000Y-87620000D01*
X162700000Y-78779370D02*
X162700000Y-86320000D01*
X162052000Y-78131370D02*
X162700000Y-78779370D01*
X161400000Y-87620000D02*
X161000000Y-87620000D01*
X160332001Y-75280001D02*
X162052000Y-77000000D01*
X155160001Y-75280001D02*
X160332001Y-75280001D01*
X148500000Y-69000000D02*
X150788000Y-69000000D01*
X150876000Y-70996000D02*
X155160001Y-75280001D01*
X150788000Y-69000000D02*
X150876000Y-69088000D01*
X162052000Y-77000000D02*
X162052000Y-78131370D01*
X150876000Y-69088000D02*
X150876000Y-70996000D01*
X133604000Y-80760000D02*
X133604000Y-83300000D01*
X125767999Y-80555999D02*
X124968000Y-79756000D01*
X126218001Y-81006001D02*
X125767999Y-80555999D01*
X131657999Y-81006001D02*
X126218001Y-81006001D01*
X131904000Y-80760000D02*
X131657999Y-81006001D01*
X133604000Y-80760000D02*
X131904000Y-80760000D01*
G04 #@! TO.N,Net-(D4-Pad2)*
X136749999Y-71750001D02*
X136749999Y-93254001D01*
X134004000Y-96000000D02*
X133604000Y-96000000D01*
X136749999Y-93254001D02*
X134004000Y-96000000D01*
X138000000Y-70500000D02*
X136749999Y-71750001D01*
G04 #@! TO.N,Net-(BT1-Pad2)*
X136144000Y-100892000D02*
X136144000Y-100076000D01*
X135453010Y-101582990D02*
X136144000Y-100892000D01*
X129014990Y-101582990D02*
X135453010Y-101582990D01*
X127000000Y-99568000D02*
X129014990Y-101582990D01*
G04 #@! TO.N,Net-(BT1-Pad1)*
X118872000Y-99568000D02*
X123190000Y-99568000D01*
X117856000Y-98552000D02*
X118872000Y-99568000D01*
X117856000Y-68895340D02*
X117856000Y-98552000D01*
X137830940Y-48920400D02*
X117856000Y-68895340D01*
X140081000Y-48920400D02*
X137830940Y-48920400D01*
G04 #@! TO.N,Net-(Q1-Pad1)*
X161000000Y-78704000D02*
X161000000Y-80000000D01*
X159512000Y-77216000D02*
X161000000Y-78704000D01*
X158380630Y-76708000D02*
X159512000Y-76708000D01*
X157902630Y-76230000D02*
X158380630Y-76708000D01*
X152500000Y-76230000D02*
X157902630Y-76230000D01*
G04 #@! TO.N,Net-(C2-Pad1)*
X147249999Y-64749999D02*
X148500000Y-66000000D01*
X139399999Y-64749999D02*
X147249999Y-64749999D01*
X136049989Y-68100009D02*
X139399999Y-64749999D01*
X136049989Y-83021792D02*
X136049989Y-68100009D01*
X133604000Y-85467781D02*
X136049989Y-83021792D01*
X133604000Y-85840000D02*
X133604000Y-85467781D01*
X132092000Y-85840000D02*
X133604000Y-85840000D01*
X130556000Y-87376000D02*
X132092000Y-85840000D01*
X128016000Y-87376000D02*
X130556000Y-87376000D01*
G04 #@! TO.N,Net-(C3-Pad1)*
X122154001Y-94214001D02*
X125476000Y-97536000D01*
X122154001Y-87750001D02*
X122154001Y-94214001D01*
X120904000Y-86500000D02*
X122154001Y-87750001D01*
X128016000Y-94996000D02*
X129540000Y-94996000D01*
X125476000Y-97536000D02*
X128016000Y-94996000D01*
G04 #@! TO.N,Net-(C4-Pad1)*
X145276000Y-96000000D02*
X145288000Y-96012000D01*
X141224000Y-96000000D02*
X145276000Y-96000000D01*
G04 #@! TO.N,Net-(C4-Pad2)*
X161400000Y-90160000D02*
X161000000Y-90160000D01*
X166544000Y-85016000D02*
X161400000Y-90160000D01*
X166544000Y-73660000D02*
X166544000Y-85016000D01*
X154940000Y-61468000D02*
X150876000Y-61468000D01*
X166624000Y-73152000D02*
X154940000Y-61468000D01*
X166624000Y-73660000D02*
X166624000Y-73152000D01*
X144072000Y-91012000D02*
X145288000Y-91012000D01*
X141624000Y-93460000D02*
X144072000Y-91012000D01*
X141224000Y-93460000D02*
X141624000Y-93460000D01*
X147192000Y-57660000D02*
X144145000Y-57660000D01*
X151000000Y-61468000D02*
X147192000Y-57660000D01*
G04 #@! TO.N,Net-(D8-Pad2)*
X146685000Y-99568000D02*
X145796000Y-99568000D01*
X149000000Y-97253000D02*
X146685000Y-99568000D01*
X149000000Y-97028000D02*
X149000000Y-97253000D01*
G04 #@! TO.N,Net-(Q2-Pad3)*
X152654000Y-93726000D02*
X148844000Y-89916000D01*
G04 #@! TO.N,Net-(U2-Pad12)*
X168620000Y-87620000D02*
X168620000Y-90160000D01*
G04 #@! TO.N,Net-(D5-Pad2)*
X153760000Y-43880000D02*
X154380000Y-44500000D01*
X151500000Y-43880000D02*
X153760000Y-43880000D01*
G04 #@! TO.N,Net-(R8-Pad1)*
X159004000Y-47496000D02*
X162000000Y-44500000D01*
X159004000Y-64008000D02*
X159004000Y-47496000D01*
X162560000Y-67564000D02*
X159004000Y-64008000D01*
X164084000Y-67564000D02*
X162560000Y-67564000D01*
G04 #@! TO.N,Net-(C5-Pad1)*
X138000000Y-58723000D02*
X139192000Y-57531000D01*
X138000000Y-60380000D02*
X138000000Y-58723000D01*
X138000000Y-63500000D02*
X138000000Y-60380000D01*
X159004000Y-67564000D02*
X161544000Y-70104000D01*
X156464000Y-65024000D02*
X159004000Y-67564000D01*
X150374002Y-65024000D02*
X156464000Y-65024000D01*
X148850002Y-63500000D02*
X150374002Y-65024000D01*
X138000000Y-63500000D02*
X148850002Y-63500000D01*
X138000000Y-63564000D02*
X138000000Y-63500000D01*
X134000000Y-67564000D02*
X138000000Y-63564000D01*
X129540000Y-67564000D02*
X134000000Y-67564000D01*
X129540000Y-67564000D02*
X127000000Y-70104000D01*
G04 #@! TO.N,Net-(C3-Pad2)*
X124968000Y-87456000D02*
X127508000Y-89996000D01*
X124968000Y-87376000D02*
X124968000Y-87456000D01*
X132680000Y-89996000D02*
X133604000Y-90920000D01*
X127508000Y-89996000D02*
X132680000Y-89996000D01*
G04 #@! TO.N,Net-(C6-Pad2)*
X162799999Y-48299999D02*
X162000000Y-47500000D01*
X162799999Y-49242475D02*
X162799999Y-48299999D01*
X169592000Y-56034476D02*
X162799999Y-49242475D01*
X169592000Y-76708000D02*
X169592000Y-56034476D01*
G04 #@! TO.N,Net-(C7-Pad1)*
X139250001Y-69250001D02*
X138000000Y-68000000D01*
X139250001Y-84266001D02*
X139250001Y-69250001D01*
X140824000Y-85840000D02*
X139250001Y-84266001D01*
X141224000Y-85840000D02*
X140824000Y-85840000D01*
X145919781Y-80772000D02*
X146304000Y-80772000D01*
X141224000Y-85840000D02*
X141224000Y-85467781D01*
X142924000Y-83136000D02*
X145796000Y-80264000D01*
X142924000Y-84540000D02*
X142924000Y-83136000D01*
X141624000Y-85840000D02*
X142924000Y-84540000D01*
X141224000Y-85840000D02*
X141624000Y-85840000D01*
G04 #@! TO.N,Net-(D6-Pad1)*
X141679999Y-69799999D02*
X140880000Y-69000000D01*
X142130001Y-70250001D02*
X141679999Y-69799999D01*
X142130001Y-72736001D02*
X142130001Y-70250001D01*
X141480001Y-73386001D02*
X142130001Y-72736001D01*
X141480001Y-78848220D02*
X141480001Y-73386001D01*
X142924000Y-80292219D02*
X141480001Y-78848220D01*
X141624000Y-83300000D02*
X142924000Y-82000000D01*
X142924000Y-82000000D02*
X142924000Y-80292219D01*
X141224000Y-83300000D02*
X141624000Y-83300000D01*
X152500000Y-80176000D02*
X150380000Y-82296000D01*
X152500000Y-78770000D02*
X152500000Y-80176000D01*
G04 #@! TO.N,Net-(D7-Pad2)*
X153924000Y-92456000D02*
X157000000Y-92456000D01*
X153924000Y-96012000D02*
X150368000Y-99568000D01*
X153924000Y-92456000D02*
X153924000Y-96012000D01*
G04 #@! TO.N,Net-(J1-Pad2)*
X140540660Y-45920660D02*
X139120000Y-44500000D01*
X144780000Y-45920660D02*
X140540660Y-45920660D01*
G04 #@! TO.N,Net-(R7-Pad1)*
X124460000Y-75984000D02*
X125476000Y-77000000D01*
X124460000Y-67564000D02*
X124460000Y-75984000D01*
G04 #@! TO.N,Net-(R9-Pad2)*
X145033999Y-54231001D02*
X144145000Y-55120000D01*
X146144261Y-54231001D02*
X145033999Y-54231001D01*
X152875262Y-47500000D02*
X146144261Y-54231001D01*
X154380000Y-47500000D02*
X152875262Y-47500000D01*
G04 #@! TO.N,Net-(R12-Pad2)*
X159238001Y-85353999D02*
X159512000Y-85080000D01*
X159238001Y-94253999D02*
X159238001Y-85353999D01*
X157988000Y-95504000D02*
X159238001Y-94253999D01*
X161000000Y-85080000D02*
X159512000Y-85080000D01*
G04 #@! TD*
D30*
G04 #@! TO.N,GND*
G36*
X163305001Y-47795823D02*
X163304670Y-47795328D01*
X163246704Y-47756596D01*
X163250000Y-47748640D01*
X163250000Y-47251360D01*
X163059699Y-46791932D01*
X162708068Y-46440301D01*
X162248640Y-46250000D01*
X161751360Y-46250000D01*
X161291932Y-46440301D01*
X160940301Y-46791932D01*
X160750000Y-47251360D01*
X160750000Y-47748640D01*
X160940301Y-48208068D01*
X161291932Y-48559699D01*
X161751360Y-48750000D01*
X162100000Y-48750000D01*
X162099999Y-49173539D01*
X162086287Y-49242475D01*
X162099999Y-49311410D01*
X162099999Y-49311414D01*
X162140614Y-49515600D01*
X162295328Y-49747145D01*
X162353773Y-49786197D01*
X168892001Y-56324426D01*
X168892000Y-75644959D01*
X168883932Y-75648301D01*
X168532301Y-75999932D01*
X168342000Y-76459360D01*
X168342000Y-76956640D01*
X168532301Y-77416068D01*
X168883932Y-77767699D01*
X169343360Y-77958000D01*
X169840640Y-77958000D01*
X170300068Y-77767699D01*
X170651699Y-77416068D01*
X170842000Y-76956640D01*
X170842000Y-76459360D01*
X170651699Y-75999932D01*
X170300068Y-75648301D01*
X170292000Y-75644959D01*
X170292000Y-56103411D01*
X170305712Y-56034476D01*
X170292000Y-55965541D01*
X170292000Y-55965536D01*
X170251385Y-55761350D01*
X170096671Y-55529805D01*
X170038226Y-55490753D01*
X164602472Y-50055000D01*
X170925000Y-50055000D01*
X170925001Y-101583000D01*
X136442949Y-101583000D01*
X136590231Y-101435719D01*
X136648670Y-101396671D01*
X136687718Y-101338232D01*
X136687722Y-101338228D01*
X136782992Y-101195646D01*
X137233792Y-101008919D01*
X137439607Y-100803104D01*
X138281607Y-100803104D01*
X138408301Y-101081334D01*
X139066419Y-101363249D01*
X139782325Y-101371853D01*
X140447028Y-101105837D01*
X140483699Y-101081334D01*
X140610393Y-100803104D01*
X139446000Y-99638711D01*
X138281607Y-100803104D01*
X137439607Y-100803104D01*
X137711919Y-100530792D01*
X137803946Y-100308618D01*
X137908163Y-100569028D01*
X137932666Y-100605699D01*
X138210896Y-100732393D01*
X139375289Y-99568000D01*
X139516711Y-99568000D01*
X140681104Y-100732393D01*
X140959334Y-100605699D01*
X141241249Y-99947581D01*
X141243557Y-99755500D01*
X141425000Y-99755500D01*
X141425000Y-100577402D01*
X141508732Y-100779550D01*
X141663450Y-100934267D01*
X141865598Y-101018000D01*
X142687500Y-101018000D01*
X142825000Y-100880500D01*
X142825000Y-99618000D01*
X141562500Y-99618000D01*
X141425000Y-99755500D01*
X141243557Y-99755500D01*
X141249853Y-99231675D01*
X140983837Y-98566972D01*
X140978242Y-98558598D01*
X141425000Y-98558598D01*
X141425000Y-99380500D01*
X141562500Y-99518000D01*
X142825000Y-99518000D01*
X142825000Y-98255500D01*
X142687500Y-98118000D01*
X141865598Y-98118000D01*
X141663450Y-98201733D01*
X141508732Y-98356450D01*
X141425000Y-98558598D01*
X140978242Y-98558598D01*
X140959334Y-98530301D01*
X140681104Y-98403607D01*
X139516711Y-99568000D01*
X139375289Y-99568000D01*
X138210896Y-98403607D01*
X137932666Y-98530301D01*
X137804664Y-98829115D01*
X137711919Y-98605208D01*
X137439607Y-98332896D01*
X138281607Y-98332896D01*
X139446000Y-99497289D01*
X140610393Y-98332896D01*
X140483699Y-98054666D01*
X139825581Y-97772751D01*
X139109675Y-97764147D01*
X138444972Y-98030163D01*
X138408301Y-98054666D01*
X138281607Y-98332896D01*
X137439607Y-98332896D01*
X137233792Y-98127081D01*
X136609087Y-97868320D01*
X135932913Y-97868320D01*
X135308208Y-98127081D01*
X134830081Y-98605208D01*
X134804496Y-98666976D01*
X134804496Y-98318320D01*
X134769571Y-98142739D01*
X134670112Y-97993888D01*
X134521261Y-97894429D01*
X134345680Y-97859504D01*
X131846320Y-97859504D01*
X131670739Y-97894429D01*
X131521888Y-97993888D01*
X131422429Y-98142739D01*
X131387504Y-98318320D01*
X131387504Y-100817680D01*
X131400495Y-100882990D01*
X129304939Y-100882990D01*
X128591073Y-100169124D01*
X128700000Y-99906151D01*
X128700000Y-99229849D01*
X128441190Y-98605027D01*
X127962973Y-98126810D01*
X127338151Y-97868000D01*
X126691471Y-97868000D01*
X126726000Y-97784640D01*
X126726000Y-97287360D01*
X126722658Y-97279291D01*
X128305950Y-95696000D01*
X128476959Y-95696000D01*
X128480301Y-95704068D01*
X128831932Y-96055699D01*
X129291360Y-96246000D01*
X129788640Y-96246000D01*
X130248068Y-96055699D01*
X130599699Y-95704068D01*
X130790000Y-95244640D01*
X130790000Y-94747360D01*
X130599699Y-94287932D01*
X130248068Y-93936301D01*
X129788640Y-93746000D01*
X129291360Y-93746000D01*
X128831932Y-93936301D01*
X128480301Y-94287932D01*
X128476959Y-94296000D01*
X128084934Y-94296000D01*
X128015999Y-94282288D01*
X127947064Y-94296000D01*
X127947060Y-94296000D01*
X127742874Y-94336615D01*
X127742872Y-94336616D01*
X127742873Y-94336616D01*
X127569772Y-94452278D01*
X127569771Y-94452279D01*
X127511329Y-94491329D01*
X127472279Y-94549771D01*
X125732709Y-96289342D01*
X125724640Y-96286000D01*
X125227360Y-96286000D01*
X125219291Y-96289342D01*
X122854001Y-93924053D01*
X122854001Y-87818935D01*
X122867713Y-87750000D01*
X122854001Y-87681065D01*
X122854001Y-87681061D01*
X122813386Y-87476875D01*
X122745983Y-87376000D01*
X122697723Y-87303773D01*
X122697719Y-87303769D01*
X122658671Y-87245330D01*
X122600232Y-87206282D01*
X122521310Y-87127360D01*
X123718000Y-87127360D01*
X123718000Y-87624640D01*
X123908301Y-88084068D01*
X124259932Y-88435699D01*
X124719360Y-88626000D01*
X125148051Y-88626000D01*
X125215400Y-88693349D01*
X124988275Y-88738527D01*
X124574801Y-89014801D01*
X124298527Y-89428275D01*
X124201512Y-89916000D01*
X124298527Y-90403725D01*
X124574801Y-90817199D01*
X124988275Y-91093473D01*
X125352891Y-91166000D01*
X125599109Y-91166000D01*
X125963725Y-91093473D01*
X126377199Y-90817199D01*
X126653473Y-90403725D01*
X126698651Y-90176601D01*
X126964279Y-90442229D01*
X127003329Y-90500671D01*
X127061771Y-90539721D01*
X127061772Y-90539722D01*
X127164995Y-90608693D01*
X127234874Y-90655385D01*
X127439060Y-90696000D01*
X127439064Y-90696000D01*
X127507999Y-90709712D01*
X127576934Y-90696000D01*
X128476959Y-90696000D01*
X128480301Y-90704068D01*
X128831932Y-91055699D01*
X129291360Y-91246000D01*
X129788640Y-91246000D01*
X130248068Y-91055699D01*
X130599699Y-90704068D01*
X130603041Y-90696000D01*
X131974069Y-90696000D01*
X131929512Y-90920000D01*
X132026527Y-91407725D01*
X132302801Y-91821199D01*
X132716275Y-92097473D01*
X133080891Y-92170000D01*
X134127109Y-92170000D01*
X134491725Y-92097473D01*
X134905199Y-91821199D01*
X135181473Y-91407725D01*
X135278488Y-90920000D01*
X135181473Y-90432275D01*
X134905199Y-90018801D01*
X134491725Y-89742527D01*
X134127109Y-89670000D01*
X133343948Y-89670000D01*
X133303948Y-89630000D01*
X134127109Y-89630000D01*
X134491725Y-89557473D01*
X134905199Y-89281199D01*
X135181473Y-88867725D01*
X135278488Y-88380000D01*
X135181473Y-87892275D01*
X134905199Y-87478801D01*
X134491725Y-87202527D01*
X134127109Y-87130000D01*
X133080891Y-87130000D01*
X132716275Y-87202527D01*
X132302801Y-87478801D01*
X132026527Y-87892275D01*
X131929512Y-88380000D01*
X132026527Y-88867725D01*
X132302801Y-89281199D01*
X132324952Y-89296000D01*
X130603041Y-89296000D01*
X130599699Y-89287932D01*
X130248068Y-88936301D01*
X129788640Y-88746000D01*
X129291360Y-88746000D01*
X128831932Y-88936301D01*
X128480301Y-89287932D01*
X128476959Y-89296000D01*
X127797950Y-89296000D01*
X126191226Y-87689278D01*
X126218000Y-87624640D01*
X126218000Y-87127360D01*
X126027699Y-86667932D01*
X125676068Y-86316301D01*
X125216640Y-86126000D01*
X124719360Y-86126000D01*
X124259932Y-86316301D01*
X123908301Y-86667932D01*
X123718000Y-87127360D01*
X122521310Y-87127360D01*
X122227195Y-86833246D01*
X122254000Y-86768532D01*
X122254000Y-86231468D01*
X122048475Y-85735286D01*
X121723189Y-85410000D01*
X121913402Y-85410000D01*
X122115550Y-85326268D01*
X122270267Y-85171550D01*
X122354000Y-84969402D01*
X122354000Y-84147500D01*
X122216500Y-84010000D01*
X120954000Y-84010000D01*
X120954000Y-84030000D01*
X120854000Y-84030000D01*
X120854000Y-84010000D01*
X119591500Y-84010000D01*
X119454000Y-84147500D01*
X119454000Y-84969402D01*
X119537733Y-85171550D01*
X119692450Y-85326268D01*
X119894598Y-85410000D01*
X120084811Y-85410000D01*
X119759525Y-85735286D01*
X119554000Y-86231468D01*
X119554000Y-86768532D01*
X119759525Y-87264714D01*
X120139286Y-87644475D01*
X120635468Y-87850000D01*
X121172532Y-87850000D01*
X121237246Y-87823195D01*
X121454001Y-88039951D01*
X121454001Y-88790828D01*
X121152640Y-88666000D01*
X120655360Y-88666000D01*
X120195932Y-88856301D01*
X119844301Y-89207932D01*
X119654000Y-89667360D01*
X119654000Y-90164640D01*
X119844301Y-90624068D01*
X120195932Y-90975699D01*
X120655360Y-91166000D01*
X121152640Y-91166000D01*
X121454002Y-91041172D01*
X121454002Y-94145061D01*
X121440289Y-94214001D01*
X121454002Y-94282941D01*
X121494617Y-94487127D01*
X121649331Y-94718672D01*
X121707775Y-94757723D01*
X124229342Y-97279291D01*
X124226000Y-97287360D01*
X124226000Y-97784640D01*
X124256877Y-97859184D01*
X122202816Y-97859184D01*
X122228647Y-97796427D01*
X122115578Y-97586000D01*
X120954000Y-97586000D01*
X120954000Y-97606000D01*
X120854000Y-97606000D01*
X120854000Y-97586000D01*
X119692422Y-97586000D01*
X119579353Y-97796427D01*
X119779847Y-98283524D01*
X120151483Y-98656817D01*
X120637683Y-98859476D01*
X120643574Y-98860643D01*
X120853998Y-98747470D01*
X120853998Y-98868000D01*
X119161949Y-98868000D01*
X118556000Y-98262052D01*
X118556000Y-97275573D01*
X119579353Y-97275573D01*
X119692422Y-97486000D01*
X120854000Y-97486000D01*
X120854000Y-96324531D01*
X120954000Y-96324531D01*
X120954000Y-97486000D01*
X122115578Y-97486000D01*
X122228647Y-97275573D01*
X122028153Y-96788476D01*
X121656517Y-96415183D01*
X121170317Y-96212524D01*
X121164426Y-96211357D01*
X120954000Y-96324531D01*
X120854000Y-96324531D01*
X120643574Y-96211357D01*
X120637683Y-96212524D01*
X120151483Y-96415183D01*
X119779847Y-96788476D01*
X119579353Y-97275573D01*
X118556000Y-97275573D01*
X118556000Y-82950598D01*
X119454000Y-82950598D01*
X119454000Y-83772500D01*
X119591500Y-83910000D01*
X120854000Y-83910000D01*
X120854000Y-82647500D01*
X120954000Y-82647500D01*
X120954000Y-83910000D01*
X122216500Y-83910000D01*
X122354000Y-83772500D01*
X122354000Y-82950598D01*
X122270267Y-82748450D01*
X122115550Y-82593732D01*
X121913402Y-82510000D01*
X121091500Y-82510000D01*
X120954000Y-82647500D01*
X120854000Y-82647500D01*
X120716500Y-82510000D01*
X119894598Y-82510000D01*
X119692450Y-82593732D01*
X119537733Y-82748450D01*
X119454000Y-82950598D01*
X118556000Y-82950598D01*
X118556000Y-82022860D01*
X119991851Y-82022860D01*
X120075962Y-82264761D01*
X120607689Y-82488409D01*
X121184526Y-82491549D01*
X121718656Y-82273703D01*
X121732038Y-82264761D01*
X121816149Y-82022860D01*
X120904000Y-81110711D01*
X119991851Y-82022860D01*
X118556000Y-82022860D01*
X118556000Y-81320526D01*
X119452451Y-81320526D01*
X119670297Y-81854656D01*
X119679239Y-81868038D01*
X119921140Y-81952149D01*
X120833289Y-81040000D01*
X120974711Y-81040000D01*
X121886860Y-81952149D01*
X122128761Y-81868038D01*
X122352409Y-81336311D01*
X122355549Y-80759474D01*
X122137703Y-80225344D01*
X122128761Y-80211962D01*
X121886860Y-80127851D01*
X120974711Y-81040000D01*
X120833289Y-81040000D01*
X119921140Y-80127851D01*
X119679239Y-80211962D01*
X119455591Y-80743689D01*
X119452451Y-81320526D01*
X118556000Y-81320526D01*
X118556000Y-77600000D01*
X119545184Y-77600000D01*
X119545184Y-79400000D01*
X119580109Y-79575581D01*
X119679568Y-79724432D01*
X119828419Y-79823891D01*
X120004000Y-79858816D01*
X120060810Y-79858816D01*
X119991851Y-80057140D01*
X120904000Y-80969289D01*
X121816149Y-80057140D01*
X121747190Y-79858816D01*
X121804000Y-79858816D01*
X121979581Y-79823891D01*
X122081187Y-79756000D01*
X123693512Y-79756000D01*
X123790527Y-80243725D01*
X124066801Y-80657199D01*
X124480275Y-80933473D01*
X124844891Y-81006000D01*
X125091109Y-81006000D01*
X125205330Y-80983280D01*
X125321771Y-81099721D01*
X125321776Y-81099725D01*
X125674278Y-81452227D01*
X125713330Y-81510672D01*
X125944875Y-81665386D01*
X126149061Y-81706001D01*
X126149066Y-81706001D01*
X126218001Y-81719713D01*
X126286936Y-81706001D01*
X131589064Y-81706001D01*
X131657999Y-81719713D01*
X131726934Y-81706001D01*
X131726939Y-81706001D01*
X131931125Y-81665386D01*
X131962038Y-81644731D01*
X131980109Y-81735581D01*
X132079568Y-81884432D01*
X132228419Y-81983891D01*
X132404000Y-82018816D01*
X132904000Y-82018816D01*
X132904001Y-82085186D01*
X132716275Y-82122527D01*
X132302801Y-82398801D01*
X132026527Y-82812275D01*
X131929512Y-83300000D01*
X132026527Y-83787725D01*
X132302801Y-84201199D01*
X132716275Y-84477473D01*
X133080891Y-84550000D01*
X133531833Y-84550000D01*
X133491833Y-84590000D01*
X133080891Y-84590000D01*
X132716275Y-84662527D01*
X132302801Y-84938801D01*
X132168364Y-85140000D01*
X132160934Y-85140000D01*
X132091999Y-85126288D01*
X132023064Y-85140000D01*
X132023060Y-85140000D01*
X131818874Y-85180615D01*
X131587329Y-85335329D01*
X131548278Y-85393773D01*
X130266052Y-86676000D01*
X129051636Y-86676000D01*
X128917199Y-86474801D01*
X128503725Y-86198527D01*
X128139109Y-86126000D01*
X127892891Y-86126000D01*
X127528275Y-86198527D01*
X127114801Y-86474801D01*
X126838527Y-86888275D01*
X126741512Y-87376000D01*
X126838527Y-87863725D01*
X127114801Y-88277199D01*
X127528275Y-88553473D01*
X127892891Y-88626000D01*
X128139109Y-88626000D01*
X128503725Y-88553473D01*
X128917199Y-88277199D01*
X129051636Y-88076000D01*
X130487065Y-88076000D01*
X130556000Y-88089712D01*
X130624935Y-88076000D01*
X130624940Y-88076000D01*
X130829126Y-88035385D01*
X131060671Y-87880671D01*
X131099724Y-87822224D01*
X132253914Y-86668035D01*
X132302801Y-86741199D01*
X132716275Y-87017473D01*
X133080891Y-87090000D01*
X134127109Y-87090000D01*
X134491725Y-87017473D01*
X134905199Y-86741199D01*
X135181473Y-86327725D01*
X135278488Y-85840000D01*
X135181473Y-85352275D01*
X134992409Y-85069320D01*
X136050000Y-84011730D01*
X136050000Y-92964051D01*
X135210064Y-93803987D01*
X135278488Y-93460000D01*
X135181473Y-92972275D01*
X134905199Y-92558801D01*
X134491725Y-92282527D01*
X134127109Y-92210000D01*
X133080891Y-92210000D01*
X132716275Y-92282527D01*
X132302801Y-92558801D01*
X132026527Y-92972275D01*
X131929512Y-93460000D01*
X132026527Y-93947725D01*
X132302801Y-94361199D01*
X132716275Y-94637473D01*
X133080891Y-94710000D01*
X134127109Y-94710000D01*
X134347987Y-94666064D01*
X134241331Y-94772720D01*
X134127109Y-94750000D01*
X133080891Y-94750000D01*
X132716275Y-94822527D01*
X132302801Y-95098801D01*
X132026527Y-95512275D01*
X131929512Y-96000000D01*
X132026527Y-96487725D01*
X132302801Y-96901199D01*
X132716275Y-97177473D01*
X133080891Y-97250000D01*
X134127109Y-97250000D01*
X134491725Y-97177473D01*
X134905199Y-96901199D01*
X135181473Y-96487725D01*
X135278488Y-96000000D01*
X139549512Y-96000000D01*
X139646527Y-96487725D01*
X139922801Y-96901199D01*
X140336275Y-97177473D01*
X140700891Y-97250000D01*
X141747109Y-97250000D01*
X142111725Y-97177473D01*
X142525199Y-96901199D01*
X142659636Y-96700000D01*
X144219989Y-96700000D01*
X144228301Y-96720068D01*
X144579932Y-97071699D01*
X145039360Y-97262000D01*
X145536640Y-97262000D01*
X145996068Y-97071699D01*
X146347699Y-96720068D01*
X146538000Y-96260640D01*
X146538000Y-95763360D01*
X146347699Y-95303932D01*
X145996068Y-94952301D01*
X145536640Y-94762000D01*
X145039360Y-94762000D01*
X144579932Y-94952301D01*
X144232233Y-95300000D01*
X142659636Y-95300000D01*
X142525199Y-95098801D01*
X142111725Y-94822527D01*
X141747109Y-94750000D01*
X140700891Y-94750000D01*
X140336275Y-94822527D01*
X139922801Y-95098801D01*
X139646527Y-95512275D01*
X139549512Y-96000000D01*
X135278488Y-96000000D01*
X135231280Y-95762669D01*
X137196225Y-93797724D01*
X137254670Y-93758672D01*
X137409384Y-93527127D01*
X137449999Y-93322941D01*
X137449999Y-93322937D01*
X137463711Y-93254002D01*
X137449999Y-93185067D01*
X137449999Y-88640426D01*
X139499357Y-88640426D01*
X139557628Y-88850428D01*
X139834050Y-89299238D01*
X140261183Y-89608103D01*
X140603272Y-89689418D01*
X140336275Y-89742527D01*
X139922801Y-90018801D01*
X139646527Y-90432275D01*
X139549512Y-90920000D01*
X139646527Y-91407725D01*
X139922801Y-91821199D01*
X140336275Y-92097473D01*
X140700891Y-92170000D01*
X141747109Y-92170000D01*
X141967987Y-92126064D01*
X141861331Y-92232720D01*
X141747109Y-92210000D01*
X140700891Y-92210000D01*
X140336275Y-92282527D01*
X139922801Y-92558801D01*
X139646527Y-92972275D01*
X139549512Y-93460000D01*
X139646527Y-93947725D01*
X139922801Y-94361199D01*
X140336275Y-94637473D01*
X140700891Y-94710000D01*
X141747109Y-94710000D01*
X142111725Y-94637473D01*
X142525199Y-94361199D01*
X142801473Y-93947725D01*
X142898488Y-93460000D01*
X142851280Y-93222669D01*
X144291091Y-91782858D01*
X144579932Y-92071699D01*
X145039360Y-92262000D01*
X145536640Y-92262000D01*
X145996068Y-92071699D01*
X146347699Y-91720068D01*
X146538000Y-91260640D01*
X146538000Y-90763360D01*
X146347699Y-90303932D01*
X145996068Y-89952301D01*
X145536640Y-89762000D01*
X145039360Y-89762000D01*
X144579932Y-89952301D01*
X144228301Y-90303932D01*
X144224959Y-90312000D01*
X144140935Y-90312000D01*
X144072000Y-90298288D01*
X144003065Y-90312000D01*
X144003060Y-90312000D01*
X143798874Y-90352615D01*
X143567329Y-90507329D01*
X143528277Y-90565774D01*
X142830064Y-91263987D01*
X142898488Y-90920000D01*
X142801473Y-90432275D01*
X142525199Y-90018801D01*
X142111725Y-89742527D01*
X141844728Y-89689418D01*
X142186817Y-89608103D01*
X142613950Y-89299238D01*
X142890372Y-88850428D01*
X142948643Y-88640426D01*
X142835469Y-88430000D01*
X141274000Y-88430000D01*
X141274000Y-88450000D01*
X141174000Y-88450000D01*
X141174000Y-88430000D01*
X139612531Y-88430000D01*
X139499357Y-88640426D01*
X137449999Y-88640426D01*
X137449999Y-79378816D01*
X138550001Y-79378816D01*
X138550001Y-84197066D01*
X138536289Y-84266001D01*
X138550001Y-84334936D01*
X138550001Y-84334940D01*
X138590616Y-84539126D01*
X138745330Y-84770671D01*
X138803775Y-84809723D01*
X139596720Y-85602669D01*
X139549512Y-85840000D01*
X139646527Y-86327725D01*
X139922801Y-86741199D01*
X140336275Y-87017473D01*
X140603272Y-87070582D01*
X140261183Y-87151897D01*
X139834050Y-87460762D01*
X139557628Y-87909572D01*
X139499357Y-88119574D01*
X139612531Y-88330000D01*
X141174000Y-88330000D01*
X141174000Y-88310000D01*
X141274000Y-88310000D01*
X141274000Y-88330000D01*
X142835469Y-88330000D01*
X142948643Y-88119574D01*
X142890372Y-87909572D01*
X142613950Y-87460762D01*
X142186817Y-87151897D01*
X141844728Y-87070582D01*
X142111725Y-87017473D01*
X142525199Y-86741199D01*
X142801473Y-86327725D01*
X142844510Y-86111360D01*
X143250000Y-86111360D01*
X143250000Y-86608640D01*
X143440301Y-87068068D01*
X143791932Y-87419699D01*
X144251360Y-87610000D01*
X144748640Y-87610000D01*
X145208068Y-87419699D01*
X145559699Y-87068068D01*
X145750000Y-86608640D01*
X145750000Y-86360000D01*
X150845512Y-86360000D01*
X150942527Y-86847725D01*
X151218801Y-87261199D01*
X151632275Y-87537473D01*
X151996891Y-87610000D01*
X152243109Y-87610000D01*
X152607725Y-87537473D01*
X153021199Y-87261199D01*
X153297473Y-86847725D01*
X153394488Y-86360000D01*
X153297473Y-85872275D01*
X153021199Y-85458801D01*
X152607725Y-85182527D01*
X152243109Y-85110000D01*
X151996891Y-85110000D01*
X151632275Y-85182527D01*
X151218801Y-85458801D01*
X150942527Y-85872275D01*
X150845512Y-86360000D01*
X145750000Y-86360000D01*
X145750000Y-86111360D01*
X145559699Y-85651932D01*
X145208068Y-85300301D01*
X144748640Y-85110000D01*
X144251360Y-85110000D01*
X143791932Y-85300301D01*
X143440301Y-85651932D01*
X143250000Y-86111360D01*
X142844510Y-86111360D01*
X142898488Y-85840000D01*
X142851280Y-85602669D01*
X143370228Y-85083721D01*
X143428670Y-85044671D01*
X143467720Y-84986229D01*
X143467722Y-84986227D01*
X143583385Y-84813127D01*
X143606958Y-84694614D01*
X143624000Y-84608940D01*
X143624000Y-84608937D01*
X143637712Y-84540000D01*
X143624000Y-84471064D01*
X143624000Y-84182710D01*
X145464000Y-84182710D01*
X145535929Y-84414224D01*
X146031504Y-84621206D01*
X146568565Y-84622783D01*
X147065349Y-84418716D01*
X147072071Y-84414224D01*
X147144000Y-84182710D01*
X146304000Y-83342711D01*
X145464000Y-84182710D01*
X143624000Y-84182710D01*
X143624000Y-83536565D01*
X144953217Y-83536565D01*
X145157284Y-84033349D01*
X145161776Y-84040071D01*
X145393290Y-84112000D01*
X146233289Y-83272000D01*
X146374711Y-83272000D01*
X147214710Y-84112000D01*
X147446224Y-84040071D01*
X147653206Y-83544496D01*
X147654783Y-83007435D01*
X147450716Y-82510651D01*
X147446224Y-82503929D01*
X147214710Y-82432000D01*
X146374711Y-83272000D01*
X146233289Y-83272000D01*
X145393290Y-82432000D01*
X145161776Y-82503929D01*
X144954794Y-82999504D01*
X144953217Y-83536565D01*
X143624000Y-83536565D01*
X143624000Y-83425948D01*
X145169134Y-81880816D01*
X145179568Y-81896432D01*
X145328419Y-81995891D01*
X145504000Y-82030816D01*
X145772625Y-82030816D01*
X145542651Y-82125284D01*
X145535929Y-82129776D01*
X145464000Y-82361290D01*
X146304000Y-83201289D01*
X147144000Y-82361290D01*
X147072071Y-82129776D01*
X146835132Y-82030816D01*
X147104000Y-82030816D01*
X147279581Y-81995891D01*
X147428432Y-81896432D01*
X147527891Y-81747581D01*
X147562816Y-81572000D01*
X147562816Y-79972000D01*
X147527891Y-79796419D01*
X147428432Y-79647568D01*
X147279581Y-79548109D01*
X147104000Y-79513184D01*
X145504000Y-79513184D01*
X145328419Y-79548109D01*
X145179568Y-79647568D01*
X145080109Y-79796419D01*
X145045184Y-79972000D01*
X145045184Y-80024866D01*
X143624000Y-81446051D01*
X143624000Y-80361154D01*
X143637712Y-80292219D01*
X143624000Y-80223284D01*
X143624000Y-80223279D01*
X143583385Y-80019093D01*
X143428671Y-79787548D01*
X143370226Y-79748496D01*
X142180001Y-78558272D01*
X142180001Y-74384000D01*
X145045184Y-74384000D01*
X145045184Y-75984000D01*
X145080109Y-76159581D01*
X145179568Y-76308432D01*
X145328419Y-76407891D01*
X145504000Y-76442816D01*
X146034076Y-76442816D01*
X145595932Y-76624301D01*
X145244301Y-76975932D01*
X145054000Y-77435360D01*
X145054000Y-77932640D01*
X145244301Y-78392068D01*
X145595932Y-78743699D01*
X146055360Y-78934000D01*
X146552640Y-78934000D01*
X147012068Y-78743699D01*
X147363699Y-78392068D01*
X147554000Y-77932640D01*
X147554000Y-77435360D01*
X147363699Y-76975932D01*
X147012068Y-76624301D01*
X146573924Y-76442816D01*
X147104000Y-76442816D01*
X147279581Y-76407891D01*
X147428432Y-76308432D01*
X147527891Y-76159581D01*
X147562816Y-75984000D01*
X147562816Y-74384000D01*
X147527891Y-74208419D01*
X147428432Y-74059568D01*
X147279581Y-73960109D01*
X147104000Y-73925184D01*
X145504000Y-73925184D01*
X145328419Y-73960109D01*
X145179568Y-74059568D01*
X145080109Y-74208419D01*
X145045184Y-74384000D01*
X142180001Y-74384000D01*
X142180001Y-73675949D01*
X142576229Y-73279722D01*
X142634671Y-73240672D01*
X142673721Y-73182230D01*
X142673723Y-73182228D01*
X142746808Y-73072849D01*
X142789386Y-73009127D01*
X142830001Y-72804941D01*
X142830001Y-72804936D01*
X142843713Y-72736001D01*
X142830001Y-72667066D01*
X142830001Y-71751360D01*
X147250000Y-71751360D01*
X147250000Y-72248640D01*
X147440301Y-72708068D01*
X147791932Y-73059699D01*
X148251360Y-73250000D01*
X148748640Y-73250000D01*
X149208068Y-73059699D01*
X149559699Y-72708068D01*
X149750000Y-72248640D01*
X149750000Y-71751360D01*
X149559699Y-71291932D01*
X149208068Y-70940301D01*
X148748640Y-70750000D01*
X148251360Y-70750000D01*
X147791932Y-70940301D01*
X147440301Y-71291932D01*
X147250000Y-71751360D01*
X142830001Y-71751360D01*
X142830001Y-70318936D01*
X142843713Y-70250001D01*
X142830001Y-70181066D01*
X142830001Y-70181061D01*
X142789386Y-69976875D01*
X142634672Y-69745330D01*
X142576227Y-69706278D01*
X142223725Y-69353776D01*
X142223721Y-69353771D01*
X142107280Y-69237330D01*
X142154488Y-69000000D01*
X142057473Y-68512275D01*
X141781199Y-68098801D01*
X141367725Y-67822527D01*
X141003109Y-67750000D01*
X140756891Y-67750000D01*
X140392275Y-67822527D01*
X139978801Y-68098801D01*
X139702527Y-68512275D01*
X139669295Y-68679345D01*
X139246658Y-68256709D01*
X139250000Y-68248640D01*
X139250000Y-67751360D01*
X139059699Y-67291932D01*
X138708068Y-66940301D01*
X138348559Y-66791388D01*
X138879521Y-66260426D01*
X139555357Y-66260426D01*
X139556524Y-66266317D01*
X139759183Y-66752517D01*
X140132476Y-67124153D01*
X140619573Y-67324647D01*
X140830000Y-67211578D01*
X140830000Y-66050000D01*
X140930000Y-66050000D01*
X140930000Y-67211578D01*
X141140427Y-67324647D01*
X141627524Y-67124153D01*
X142000817Y-66752517D01*
X142203476Y-66266317D01*
X142204643Y-66260426D01*
X142091469Y-66050000D01*
X140930000Y-66050000D01*
X140830000Y-66050000D01*
X139668531Y-66050000D01*
X139555357Y-66260426D01*
X138879521Y-66260426D01*
X139663921Y-65476026D01*
X139556524Y-65733683D01*
X139555357Y-65739574D01*
X139668531Y-65950000D01*
X140830000Y-65950000D01*
X140830000Y-65930000D01*
X140930000Y-65930000D01*
X140930000Y-65950000D01*
X142091469Y-65950000D01*
X142204643Y-65739574D01*
X142203476Y-65733683D01*
X142085230Y-65449999D01*
X146960051Y-65449999D01*
X147253342Y-65743291D01*
X147250000Y-65751360D01*
X147250000Y-66248640D01*
X147440301Y-66708068D01*
X147791932Y-67059699D01*
X148251360Y-67250000D01*
X148748640Y-67250000D01*
X149208068Y-67059699D01*
X149559699Y-66708068D01*
X149750000Y-66248640D01*
X149750000Y-65751360D01*
X149559699Y-65291932D01*
X149208068Y-64940301D01*
X148748640Y-64750000D01*
X148251360Y-64750000D01*
X148243291Y-64753342D01*
X147793723Y-64303775D01*
X147754670Y-64245328D01*
X147686832Y-64200000D01*
X148560054Y-64200000D01*
X149830281Y-65470229D01*
X149869331Y-65528671D01*
X149927773Y-65567721D01*
X149927774Y-65567722D01*
X150030997Y-65636693D01*
X150100876Y-65683385D01*
X150305062Y-65724000D01*
X150305066Y-65724000D01*
X150374001Y-65737712D01*
X150442936Y-65724000D01*
X156174052Y-65724000D01*
X157924000Y-67473950D01*
X157924000Y-67778825D01*
X158088421Y-68175771D01*
X158392229Y-68479579D01*
X158789175Y-68644000D01*
X159094052Y-68644000D01*
X160464000Y-70013950D01*
X160464000Y-70318825D01*
X160628421Y-70715771D01*
X160932229Y-71019579D01*
X161329175Y-71184000D01*
X161758825Y-71184000D01*
X162155771Y-71019579D01*
X162459579Y-70715771D01*
X162624000Y-70318825D01*
X162624000Y-70141949D01*
X165197513Y-72715461D01*
X165170630Y-72742344D01*
X164924000Y-73337762D01*
X164924000Y-73982238D01*
X165170630Y-74577656D01*
X165626344Y-75033370D01*
X165844000Y-75123526D01*
X165844001Y-84726050D01*
X162606064Y-87963987D01*
X162674488Y-87620000D01*
X162627280Y-87382669D01*
X163146226Y-86863723D01*
X163204671Y-86824671D01*
X163349019Y-86608640D01*
X163359385Y-86593127D01*
X163382921Y-86474801D01*
X163400000Y-86388940D01*
X163400000Y-86388937D01*
X163413712Y-86320000D01*
X163400000Y-86251064D01*
X163400000Y-78848304D01*
X163413712Y-78779369D01*
X163400000Y-78710434D01*
X163400000Y-78710430D01*
X163359385Y-78506244D01*
X163309024Y-78430874D01*
X163243722Y-78333142D01*
X163243718Y-78333138D01*
X163204670Y-78274699D01*
X163146231Y-78235651D01*
X162752000Y-77841421D01*
X162752000Y-77743636D01*
X162953199Y-77609199D01*
X163087636Y-77408000D01*
X163528959Y-77408000D01*
X163532301Y-77416068D01*
X163883932Y-77767699D01*
X164343360Y-77958000D01*
X164840640Y-77958000D01*
X165300068Y-77767699D01*
X165651699Y-77416068D01*
X165842000Y-76956640D01*
X165842000Y-76459360D01*
X165651699Y-75999932D01*
X165300068Y-75648301D01*
X164840640Y-75458000D01*
X164343360Y-75458000D01*
X163883932Y-75648301D01*
X163532301Y-75999932D01*
X163528959Y-76008000D01*
X163087636Y-76008000D01*
X162953199Y-75806801D01*
X162539725Y-75530527D01*
X162175109Y-75458000D01*
X161928891Y-75458000D01*
X161571115Y-75529166D01*
X161321948Y-75280000D01*
X161866238Y-75280000D01*
X162461656Y-75033370D01*
X162917370Y-74577656D01*
X163164000Y-73982238D01*
X163164000Y-73337762D01*
X162917370Y-72742344D01*
X162461656Y-72286630D01*
X161866238Y-72040000D01*
X161221762Y-72040000D01*
X160626344Y-72286630D01*
X160170630Y-72742344D01*
X159924000Y-73337762D01*
X159924000Y-73982238D01*
X160170630Y-74577656D01*
X160172975Y-74580001D01*
X157915025Y-74580001D01*
X157917370Y-74577656D01*
X158164000Y-73982238D01*
X158164000Y-73337762D01*
X157917370Y-72742344D01*
X157461656Y-72286630D01*
X156866238Y-72040000D01*
X156221762Y-72040000D01*
X155626344Y-72286630D01*
X155170630Y-72742344D01*
X154924000Y-73337762D01*
X154924000Y-73982238D01*
X154974779Y-74104829D01*
X151576000Y-70706052D01*
X151576000Y-70202403D01*
X151708068Y-70147699D01*
X152059699Y-69796068D01*
X152250000Y-69336640D01*
X152250000Y-68839360D01*
X152059699Y-68379932D01*
X151708068Y-68028301D01*
X151248640Y-67838000D01*
X150751360Y-67838000D01*
X150291932Y-68028301D01*
X150020233Y-68300000D01*
X149563041Y-68300000D01*
X149559699Y-68291932D01*
X149208068Y-67940301D01*
X148748640Y-67750000D01*
X148251360Y-67750000D01*
X147791932Y-67940301D01*
X147440301Y-68291932D01*
X147250000Y-68751360D01*
X147250000Y-69248640D01*
X147440301Y-69708068D01*
X147791932Y-70059699D01*
X148251360Y-70250000D01*
X148748640Y-70250000D01*
X149208068Y-70059699D01*
X149559699Y-69708068D01*
X149563041Y-69700000D01*
X149900508Y-69700000D01*
X149940301Y-69796068D01*
X150176000Y-70031767D01*
X150176001Y-70927060D01*
X150162288Y-70996000D01*
X150176001Y-71064940D01*
X150216616Y-71269126D01*
X150371330Y-71500671D01*
X150429774Y-71539722D01*
X154420050Y-75530000D01*
X153428979Y-75530000D01*
X153423891Y-75504419D01*
X153324432Y-75355568D01*
X153175581Y-75256109D01*
X153000000Y-75221184D01*
X151200000Y-75221184D01*
X151024419Y-75256109D01*
X150875568Y-75355568D01*
X150776109Y-75504419D01*
X150741184Y-75680000D01*
X150741184Y-76780000D01*
X150776109Y-76955581D01*
X150875568Y-77104432D01*
X151024419Y-77203891D01*
X151200000Y-77238816D01*
X152811184Y-77238816D01*
X152811184Y-77775000D01*
X152811873Y-77778464D01*
X152725000Y-77761184D01*
X151475000Y-77761184D01*
X151194181Y-77817042D01*
X150956114Y-77976114D01*
X150797042Y-78214181D01*
X150741184Y-78495000D01*
X150741184Y-79045000D01*
X150797042Y-79325819D01*
X150956114Y-79563886D01*
X151194181Y-79722958D01*
X151475000Y-79778816D01*
X151800001Y-79778816D01*
X151800001Y-79886050D01*
X150648868Y-81037184D01*
X149580000Y-81037184D01*
X149404419Y-81072109D01*
X149255568Y-81171568D01*
X149156109Y-81320419D01*
X149121184Y-81496000D01*
X149121184Y-83096000D01*
X149156109Y-83271581D01*
X149255568Y-83420432D01*
X149404419Y-83519891D01*
X149580000Y-83554816D01*
X151180000Y-83554816D01*
X151355581Y-83519891D01*
X151504432Y-83420432D01*
X151603891Y-83271581D01*
X151638816Y-83096000D01*
X151638816Y-82296000D01*
X156725512Y-82296000D01*
X156822527Y-82783725D01*
X157098801Y-83197199D01*
X157512275Y-83473473D01*
X157876891Y-83546000D01*
X158123109Y-83546000D01*
X158487725Y-83473473D01*
X158901199Y-83197199D01*
X159177473Y-82783725D01*
X159274488Y-82296000D01*
X159177473Y-81808275D01*
X158901199Y-81394801D01*
X158487725Y-81118527D01*
X158123109Y-81046000D01*
X157876891Y-81046000D01*
X157512275Y-81118527D01*
X157098801Y-81394801D01*
X156822527Y-81808275D01*
X156725512Y-82296000D01*
X151638816Y-82296000D01*
X151638816Y-82027132D01*
X152946226Y-80719723D01*
X153004671Y-80680671D01*
X153081730Y-80565345D01*
X153159385Y-80449127D01*
X153187854Y-80306001D01*
X153200000Y-80244940D01*
X153200000Y-80244937D01*
X153213712Y-80176000D01*
X153200000Y-80107064D01*
X153200000Y-79593210D01*
X153243886Y-79563886D01*
X153402958Y-79325819D01*
X153458816Y-79045000D01*
X153458816Y-78495000D01*
X153458127Y-78491536D01*
X153545000Y-78508816D01*
X154795000Y-78508816D01*
X155075819Y-78452958D01*
X155313886Y-78293886D01*
X155472958Y-78055819D01*
X155528816Y-77775000D01*
X155528816Y-77225000D01*
X155472958Y-76944181D01*
X155463483Y-76930000D01*
X157612682Y-76930000D01*
X157836907Y-77154226D01*
X157875959Y-77212671D01*
X158107504Y-77367385D01*
X158311690Y-77408000D01*
X158311694Y-77408000D01*
X158380629Y-77421712D01*
X158449005Y-77408111D01*
X158452301Y-77416068D01*
X158803932Y-77767699D01*
X159263360Y-77958000D01*
X159264052Y-77958000D01*
X160047235Y-78741184D01*
X159800000Y-78741184D01*
X159624419Y-78776109D01*
X159475568Y-78875568D01*
X159376109Y-79024419D01*
X159341184Y-79200000D01*
X159341184Y-80800000D01*
X159376109Y-80975581D01*
X159475568Y-81124432D01*
X159624419Y-81223891D01*
X159800000Y-81258816D01*
X162000000Y-81258816D01*
X162000000Y-81437547D01*
X161887725Y-81362527D01*
X161523109Y-81290000D01*
X160476891Y-81290000D01*
X160112275Y-81362527D01*
X159698801Y-81638801D01*
X159422527Y-82052275D01*
X159325512Y-82540000D01*
X159422527Y-83027725D01*
X159698801Y-83441199D01*
X160112275Y-83717473D01*
X160476891Y-83790000D01*
X161523109Y-83790000D01*
X161887725Y-83717473D01*
X162000001Y-83642453D01*
X162000001Y-83977547D01*
X161887725Y-83902527D01*
X161523109Y-83830000D01*
X160476891Y-83830000D01*
X160112275Y-83902527D01*
X159698801Y-84178801D01*
X159566308Y-84377091D01*
X159511999Y-84366288D01*
X159443064Y-84380000D01*
X159443060Y-84380000D01*
X159238874Y-84420615D01*
X159007329Y-84575329D01*
X158968275Y-84633777D01*
X158791776Y-84810276D01*
X158738816Y-84845663D01*
X158738816Y-84036000D01*
X158703891Y-83860419D01*
X158604432Y-83711568D01*
X158455581Y-83612109D01*
X158280000Y-83577184D01*
X156680000Y-83577184D01*
X156504419Y-83612109D01*
X156355568Y-83711568D01*
X156256109Y-83860419D01*
X156221184Y-84036000D01*
X156221184Y-85636000D01*
X156256109Y-85811581D01*
X156355568Y-85960432D01*
X156504419Y-86059891D01*
X156680000Y-86094816D01*
X158280000Y-86094816D01*
X158455581Y-86059891D01*
X158538002Y-86004819D01*
X158538001Y-91789473D01*
X158381199Y-91554801D01*
X157967725Y-91278527D01*
X157603109Y-91206000D01*
X157356891Y-91206000D01*
X156992275Y-91278527D01*
X156578801Y-91554801D01*
X156444364Y-91756000D01*
X155530619Y-91756000D01*
X155467886Y-91662114D01*
X155229819Y-91503042D01*
X154949000Y-91447184D01*
X153699000Y-91447184D01*
X153612816Y-91464327D01*
X153612816Y-90636000D01*
X153577891Y-90460419D01*
X153478432Y-90311568D01*
X153329581Y-90212109D01*
X153154000Y-90177184D01*
X151354000Y-90177184D01*
X151178419Y-90212109D01*
X151029568Y-90311568D01*
X150930109Y-90460419D01*
X150895184Y-90636000D01*
X150895184Y-90977236D01*
X150046858Y-90128909D01*
X150059699Y-90116068D01*
X150250000Y-89656640D01*
X150250000Y-89159360D01*
X150059699Y-88699932D01*
X149708068Y-88348301D01*
X149248640Y-88158000D01*
X148751360Y-88158000D01*
X148291932Y-88348301D01*
X147940301Y-88699932D01*
X147750000Y-89159360D01*
X147750000Y-89656640D01*
X147940301Y-90116068D01*
X148291932Y-90467699D01*
X148486233Y-90548181D01*
X151014004Y-93075952D01*
X150951042Y-93170181D01*
X150895184Y-93451000D01*
X150895184Y-94001000D01*
X150951042Y-94281819D01*
X151110114Y-94519886D01*
X151348181Y-94678958D01*
X151629000Y-94734816D01*
X152879000Y-94734816D01*
X153159819Y-94678958D01*
X153224001Y-94636073D01*
X153224001Y-95722049D01*
X150969124Y-97976927D01*
X150706151Y-97868000D01*
X150029849Y-97868000D01*
X149908507Y-97918261D01*
X150177473Y-97515725D01*
X150274488Y-97028000D01*
X150177473Y-96540275D01*
X149901199Y-96126801D01*
X149487725Y-95850527D01*
X149123109Y-95778000D01*
X148876891Y-95778000D01*
X148512275Y-95850527D01*
X148098801Y-96126801D01*
X147822527Y-96540275D01*
X147725512Y-97028000D01*
X147810050Y-97453000D01*
X146509620Y-98753431D01*
X146179714Y-98423525D01*
X145683532Y-98218000D01*
X145146468Y-98218000D01*
X144650286Y-98423525D01*
X144325000Y-98748811D01*
X144325000Y-98558598D01*
X144241268Y-98356450D01*
X144086550Y-98201733D01*
X143884402Y-98118000D01*
X143062500Y-98118000D01*
X142925000Y-98255500D01*
X142925000Y-99518000D01*
X142945000Y-99518000D01*
X142945000Y-99618000D01*
X142925000Y-99618000D01*
X142925000Y-100880500D01*
X143062500Y-101018000D01*
X143884402Y-101018000D01*
X144086550Y-100934267D01*
X144241268Y-100779550D01*
X144325000Y-100577402D01*
X144325000Y-100387189D01*
X144650286Y-100712475D01*
X145146468Y-100918000D01*
X145683532Y-100918000D01*
X146179714Y-100712475D01*
X146559475Y-100332714D01*
X146586280Y-100268000D01*
X146616065Y-100268000D01*
X146685000Y-100281712D01*
X146753935Y-100268000D01*
X146753940Y-100268000D01*
X146958126Y-100227385D01*
X147189671Y-100072671D01*
X147228724Y-100014224D01*
X148964950Y-98278000D01*
X149123109Y-98278000D01*
X149286297Y-98245540D01*
X148926810Y-98605027D01*
X148668000Y-99229849D01*
X148668000Y-99906151D01*
X148926810Y-100530973D01*
X149405027Y-101009190D01*
X150029849Y-101268000D01*
X150706151Y-101268000D01*
X151330973Y-101009190D01*
X151809190Y-100530973D01*
X152068000Y-99906151D01*
X152068000Y-99229849D01*
X151959073Y-98966876D01*
X152215184Y-98710765D01*
X152215184Y-100818000D01*
X152250109Y-100993581D01*
X152349568Y-101142432D01*
X152498419Y-101241891D01*
X152674000Y-101276816D01*
X155174000Y-101276816D01*
X155349581Y-101241891D01*
X155498432Y-101142432D01*
X155597891Y-100993581D01*
X155632816Y-100818000D01*
X155632816Y-100803335D01*
X156569375Y-100803335D01*
X156696109Y-101081598D01*
X157354343Y-101363566D01*
X158070376Y-101372175D01*
X158735199Y-101106115D01*
X158771891Y-101081598D01*
X158898625Y-100803335D01*
X157734000Y-99638711D01*
X156569375Y-100803335D01*
X155632816Y-100803335D01*
X155632816Y-99904376D01*
X155929825Y-99904376D01*
X156195885Y-100569199D01*
X156220402Y-100605891D01*
X156498665Y-100732625D01*
X157663289Y-99568000D01*
X157804711Y-99568000D01*
X158969335Y-100732625D01*
X159247598Y-100605891D01*
X159529566Y-99947657D01*
X159538175Y-99231624D01*
X159272115Y-98566801D01*
X159247598Y-98530109D01*
X158969335Y-98403375D01*
X157804711Y-99568000D01*
X157663289Y-99568000D01*
X156498665Y-98403375D01*
X156220402Y-98530109D01*
X155938434Y-99188343D01*
X155929825Y-99904376D01*
X155632816Y-99904376D01*
X155632816Y-98332665D01*
X156569375Y-98332665D01*
X157734000Y-99497289D01*
X158898625Y-98332665D01*
X158771891Y-98054402D01*
X158739266Y-98040426D01*
X159275357Y-98040426D01*
X159333628Y-98250428D01*
X159610050Y-98699238D01*
X160037183Y-99008103D01*
X160550000Y-99130000D01*
X160950000Y-99130000D01*
X160950000Y-97830000D01*
X161050000Y-97830000D01*
X161050000Y-99130000D01*
X161450000Y-99130000D01*
X161962817Y-99008103D01*
X162389950Y-98699238D01*
X162666372Y-98250428D01*
X162724643Y-98040426D01*
X166895357Y-98040426D01*
X166953628Y-98250428D01*
X167230050Y-98699238D01*
X167657183Y-99008103D01*
X168170000Y-99130000D01*
X168570000Y-99130000D01*
X168570000Y-97830000D01*
X168670000Y-97830000D01*
X168670000Y-99130000D01*
X169070000Y-99130000D01*
X169582817Y-99008103D01*
X170009950Y-98699238D01*
X170286372Y-98250428D01*
X170344643Y-98040426D01*
X170231469Y-97830000D01*
X168670000Y-97830000D01*
X168570000Y-97830000D01*
X167008531Y-97830000D01*
X166895357Y-98040426D01*
X162724643Y-98040426D01*
X162611469Y-97830000D01*
X161050000Y-97830000D01*
X160950000Y-97830000D01*
X159388531Y-97830000D01*
X159275357Y-98040426D01*
X158739266Y-98040426D01*
X158113657Y-97772434D01*
X157397624Y-97763825D01*
X156732801Y-98029885D01*
X156696109Y-98054402D01*
X156569375Y-98332665D01*
X155632816Y-98332665D01*
X155632816Y-98318000D01*
X155597891Y-98142419D01*
X155498432Y-97993568D01*
X155349581Y-97894109D01*
X155174000Y-97859184D01*
X153066765Y-97859184D01*
X154370229Y-96555721D01*
X154428671Y-96516671D01*
X154496484Y-96415183D01*
X154534508Y-96358275D01*
X154739932Y-96563699D01*
X155199360Y-96754000D01*
X155696640Y-96754000D01*
X156156068Y-96563699D01*
X156507699Y-96212068D01*
X156698000Y-95752640D01*
X156698000Y-95255360D01*
X156507699Y-94795932D01*
X156156068Y-94444301D01*
X155696640Y-94254000D01*
X155199360Y-94254000D01*
X154739932Y-94444301D01*
X154624000Y-94560233D01*
X154624000Y-93464816D01*
X154949000Y-93464816D01*
X155229819Y-93408958D01*
X155467886Y-93249886D01*
X155530619Y-93156000D01*
X156444364Y-93156000D01*
X156578801Y-93357199D01*
X156992275Y-93633473D01*
X157356891Y-93706000D01*
X157603109Y-93706000D01*
X157967725Y-93633473D01*
X158381199Y-93357199D01*
X158538001Y-93122528D01*
X158538001Y-93964049D01*
X158225331Y-94276720D01*
X158111109Y-94254000D01*
X157864891Y-94254000D01*
X157500275Y-94326527D01*
X157086801Y-94602801D01*
X156810527Y-95016275D01*
X156713512Y-95504000D01*
X156810527Y-95991725D01*
X157086801Y-96405199D01*
X157500275Y-96681473D01*
X157864891Y-96754000D01*
X158111109Y-96754000D01*
X158475725Y-96681473D01*
X158889199Y-96405199D01*
X159165473Y-95991725D01*
X159262488Y-95504000D01*
X159261778Y-95500426D01*
X159275357Y-95500426D01*
X159333628Y-95710428D01*
X159610050Y-96159238D01*
X160037183Y-96468103D01*
X160213442Y-96510000D01*
X160037183Y-96551897D01*
X159610050Y-96860762D01*
X159333628Y-97309572D01*
X159275357Y-97519574D01*
X159388531Y-97730000D01*
X160950000Y-97730000D01*
X160950000Y-95290000D01*
X161050000Y-95290000D01*
X161050000Y-97730000D01*
X162611469Y-97730000D01*
X162724643Y-97519574D01*
X162666372Y-97309572D01*
X162389950Y-96860762D01*
X161962817Y-96551897D01*
X161786558Y-96510000D01*
X161962817Y-96468103D01*
X162389950Y-96159238D01*
X162666372Y-95710428D01*
X162724643Y-95500426D01*
X166895357Y-95500426D01*
X166953628Y-95710428D01*
X167230050Y-96159238D01*
X167657183Y-96468103D01*
X167833442Y-96510000D01*
X167657183Y-96551897D01*
X167230050Y-96860762D01*
X166953628Y-97309572D01*
X166895357Y-97519574D01*
X167008531Y-97730000D01*
X168570000Y-97730000D01*
X168570000Y-95290000D01*
X168670000Y-95290000D01*
X168670000Y-97730000D01*
X170231469Y-97730000D01*
X170344643Y-97519574D01*
X170286372Y-97309572D01*
X170009950Y-96860762D01*
X169582817Y-96551897D01*
X169406558Y-96510000D01*
X169582817Y-96468103D01*
X170009950Y-96159238D01*
X170286372Y-95710428D01*
X170344643Y-95500426D01*
X170231469Y-95290000D01*
X168670000Y-95290000D01*
X168570000Y-95290000D01*
X167008531Y-95290000D01*
X166895357Y-95500426D01*
X162724643Y-95500426D01*
X162611469Y-95290000D01*
X161050000Y-95290000D01*
X160950000Y-95290000D01*
X159388531Y-95290000D01*
X159275357Y-95500426D01*
X159261778Y-95500426D01*
X159215280Y-95266669D01*
X159354753Y-95127196D01*
X159388531Y-95190000D01*
X160950000Y-95190000D01*
X160950000Y-92750000D01*
X161050000Y-92750000D01*
X161050000Y-95190000D01*
X162611469Y-95190000D01*
X162724643Y-94979574D01*
X166895357Y-94979574D01*
X167008531Y-95190000D01*
X168570000Y-95190000D01*
X168570000Y-95170000D01*
X168670000Y-95170000D01*
X168670000Y-95190000D01*
X170231469Y-95190000D01*
X170344643Y-94979574D01*
X170286372Y-94769572D01*
X170009950Y-94320762D01*
X169582817Y-94011897D01*
X169240728Y-93930582D01*
X169507725Y-93877473D01*
X169921199Y-93601199D01*
X170197473Y-93187725D01*
X170294488Y-92700000D01*
X170197473Y-92212275D01*
X169921199Y-91798801D01*
X169507725Y-91522527D01*
X169143109Y-91450000D01*
X168096891Y-91450000D01*
X167732275Y-91522527D01*
X167318801Y-91798801D01*
X167042527Y-92212275D01*
X166945512Y-92700000D01*
X167042527Y-93187725D01*
X167318801Y-93601199D01*
X167732275Y-93877473D01*
X167999272Y-93930582D01*
X167657183Y-94011897D01*
X167230050Y-94320762D01*
X166953628Y-94769572D01*
X166895357Y-94979574D01*
X162724643Y-94979574D01*
X162666372Y-94769572D01*
X162389950Y-94320762D01*
X161962817Y-94011897D01*
X161786558Y-93970000D01*
X161962817Y-93928103D01*
X162389950Y-93619238D01*
X162666372Y-93170428D01*
X162724643Y-92960426D01*
X162611469Y-92750000D01*
X161050000Y-92750000D01*
X160950000Y-92750000D01*
X160930000Y-92750000D01*
X160930000Y-92650000D01*
X160950000Y-92650000D01*
X160950000Y-92630000D01*
X161050000Y-92630000D01*
X161050000Y-92650000D01*
X162611469Y-92650000D01*
X162724643Y-92439574D01*
X162666372Y-92229572D01*
X162389950Y-91780762D01*
X161962817Y-91471897D01*
X161620728Y-91390582D01*
X161887725Y-91337473D01*
X162301199Y-91061199D01*
X162577473Y-90647725D01*
X162674488Y-90160000D01*
X162627280Y-89922669D01*
X164929949Y-87620000D01*
X166945512Y-87620000D01*
X167042527Y-88107725D01*
X167318801Y-88521199D01*
X167732275Y-88797473D01*
X167920000Y-88834814D01*
X167920001Y-88945186D01*
X167732275Y-88982527D01*
X167318801Y-89258801D01*
X167042527Y-89672275D01*
X166945512Y-90160000D01*
X167042527Y-90647725D01*
X167318801Y-91061199D01*
X167732275Y-91337473D01*
X168096891Y-91410000D01*
X169143109Y-91410000D01*
X169507725Y-91337473D01*
X169921199Y-91061199D01*
X170197473Y-90647725D01*
X170294488Y-90160000D01*
X170197473Y-89672275D01*
X169921199Y-89258801D01*
X169507725Y-88982527D01*
X169320000Y-88945186D01*
X169320000Y-88834814D01*
X169507725Y-88797473D01*
X169921199Y-88521199D01*
X170197473Y-88107725D01*
X170294488Y-87620000D01*
X170197473Y-87132275D01*
X169921199Y-86718801D01*
X169507725Y-86442527D01*
X169143109Y-86370000D01*
X168096891Y-86370000D01*
X167732275Y-86442527D01*
X167318801Y-86718801D01*
X167042527Y-87132275D01*
X166945512Y-87620000D01*
X164929949Y-87620000D01*
X166990226Y-85559723D01*
X167034986Y-85529815D01*
X167042527Y-85567725D01*
X167318801Y-85981199D01*
X167732275Y-86257473D01*
X168096891Y-86330000D01*
X169143109Y-86330000D01*
X169507725Y-86257473D01*
X169921199Y-85981199D01*
X170197473Y-85567725D01*
X170294488Y-85080000D01*
X170197473Y-84592275D01*
X169921199Y-84178801D01*
X169507725Y-83902527D01*
X169143109Y-83830000D01*
X168096891Y-83830000D01*
X167732275Y-83902527D01*
X167318801Y-84178801D01*
X167244000Y-84290749D01*
X167244000Y-83329251D01*
X167318801Y-83441199D01*
X167732275Y-83717473D01*
X168096891Y-83790000D01*
X169143109Y-83790000D01*
X169507725Y-83717473D01*
X169921199Y-83441199D01*
X170197473Y-83027725D01*
X170294488Y-82540000D01*
X170197473Y-82052275D01*
X169921199Y-81638801D01*
X169507725Y-81362527D01*
X169240728Y-81309418D01*
X169582817Y-81228103D01*
X170009950Y-80919238D01*
X170286372Y-80470428D01*
X170344643Y-80260426D01*
X170231469Y-80050000D01*
X168670000Y-80050000D01*
X168670000Y-80070000D01*
X168570000Y-80070000D01*
X168570000Y-80050000D01*
X168550000Y-80050000D01*
X168550000Y-79950000D01*
X168570000Y-79950000D01*
X168570000Y-78650000D01*
X168670000Y-78650000D01*
X168670000Y-79950000D01*
X170231469Y-79950000D01*
X170344643Y-79739574D01*
X170286372Y-79529572D01*
X170009950Y-79080762D01*
X169582817Y-78771897D01*
X169070000Y-78650000D01*
X168670000Y-78650000D01*
X168570000Y-78650000D01*
X168170000Y-78650000D01*
X167657183Y-78771897D01*
X167244000Y-79070675D01*
X167244000Y-75123526D01*
X167461656Y-75033370D01*
X167917370Y-74577656D01*
X168164000Y-73982238D01*
X168164000Y-73337762D01*
X167917370Y-72742344D01*
X167461656Y-72286630D01*
X166866238Y-72040000D01*
X166501949Y-72040000D01*
X162725949Y-68264000D01*
X163256650Y-68264000D01*
X163472229Y-68479579D01*
X163869175Y-68644000D01*
X164298825Y-68644000D01*
X164695771Y-68479579D01*
X164999579Y-68175771D01*
X165164000Y-67778825D01*
X165164000Y-67349175D01*
X164999579Y-66952229D01*
X164695771Y-66648421D01*
X164298825Y-66484000D01*
X163869175Y-66484000D01*
X163472229Y-66648421D01*
X163256650Y-66864000D01*
X162849950Y-66864000D01*
X159704000Y-63718052D01*
X159704000Y-57371577D01*
X160094000Y-57371577D01*
X160094000Y-57948423D01*
X160314750Y-58481359D01*
X160722641Y-58889250D01*
X161255577Y-59110000D01*
X161832423Y-59110000D01*
X162365359Y-58889250D01*
X162773250Y-58481359D01*
X162994000Y-57948423D01*
X162994000Y-57371577D01*
X162773250Y-56838641D01*
X162365359Y-56430750D01*
X161832423Y-56210000D01*
X161255577Y-56210000D01*
X160722641Y-56430750D01*
X160314750Y-56838641D01*
X160094000Y-57371577D01*
X159704000Y-57371577D01*
X159704000Y-47785948D01*
X161743291Y-45746658D01*
X161751360Y-45750000D01*
X162248640Y-45750000D01*
X162708068Y-45559699D01*
X163059699Y-45208068D01*
X163250000Y-44748640D01*
X163250000Y-44251360D01*
X163059699Y-43791932D01*
X162708068Y-43440301D01*
X162248640Y-43250000D01*
X161751360Y-43250000D01*
X161291932Y-43440301D01*
X160940301Y-43791932D01*
X160750000Y-44251360D01*
X160750000Y-44748640D01*
X160753342Y-44756709D01*
X158557774Y-46952278D01*
X158499330Y-46991329D01*
X158460278Y-47049774D01*
X158344616Y-47222874D01*
X158290288Y-47496000D01*
X158304001Y-47564940D01*
X158304000Y-63842052D01*
X155483725Y-61021777D01*
X155444671Y-60963329D01*
X155213126Y-60808615D01*
X155008940Y-60768000D01*
X155008935Y-60768000D01*
X154940000Y-60754288D01*
X154871065Y-60768000D01*
X152035636Y-60768000D01*
X151901199Y-60566801D01*
X151487725Y-60290527D01*
X151123109Y-60218000D01*
X150876891Y-60218000D01*
X150762669Y-60240720D01*
X149184764Y-58662816D01*
X150660000Y-58662816D01*
X150835581Y-58627891D01*
X150984432Y-58528432D01*
X151083891Y-58379581D01*
X151118816Y-58204000D01*
X151118816Y-56604000D01*
X151083891Y-56428419D01*
X150984432Y-56279568D01*
X150835581Y-56180109D01*
X150660000Y-56145184D01*
X150391375Y-56145184D01*
X150621349Y-56050716D01*
X150628071Y-56046224D01*
X150700000Y-55814710D01*
X149860000Y-54974711D01*
X149020000Y-55814710D01*
X149091929Y-56046224D01*
X149328868Y-56145184D01*
X149060000Y-56145184D01*
X148884419Y-56180109D01*
X148735568Y-56279568D01*
X148636109Y-56428419D01*
X148601184Y-56604000D01*
X148601184Y-58079236D01*
X147735724Y-57213776D01*
X147696671Y-57155329D01*
X147465126Y-57000615D01*
X147260940Y-56960000D01*
X147260935Y-56960000D01*
X147192000Y-56946288D01*
X147123065Y-56960000D01*
X145304374Y-56960000D01*
X145280150Y-56901517D01*
X144903483Y-56524850D01*
X144577925Y-56390000D01*
X144903483Y-56255150D01*
X145280150Y-55878483D01*
X145484000Y-55386344D01*
X145484000Y-55168565D01*
X148509217Y-55168565D01*
X148713284Y-55665349D01*
X148717776Y-55672071D01*
X148949290Y-55744000D01*
X149789289Y-54904000D01*
X149930711Y-54904000D01*
X150770710Y-55744000D01*
X151002224Y-55672071D01*
X151209206Y-55176496D01*
X151210783Y-54639435D01*
X151006716Y-54142651D01*
X151002224Y-54135929D01*
X150770710Y-54064000D01*
X149930711Y-54904000D01*
X149789289Y-54904000D01*
X148949290Y-54064000D01*
X148717776Y-54135929D01*
X148510794Y-54631504D01*
X148509217Y-55168565D01*
X145484000Y-55168565D01*
X145484000Y-54931001D01*
X146075326Y-54931001D01*
X146144261Y-54944713D01*
X146213196Y-54931001D01*
X146213201Y-54931001D01*
X146417387Y-54890386D01*
X146648932Y-54735672D01*
X146687986Y-54677224D01*
X147371920Y-53993290D01*
X149020000Y-53993290D01*
X149860000Y-54833289D01*
X150700000Y-53993290D01*
X150628071Y-53761776D01*
X150132496Y-53554794D01*
X149595435Y-53553217D01*
X149098651Y-53757284D01*
X149091929Y-53761776D01*
X149020000Y-53993290D01*
X147371920Y-53993290D01*
X150241184Y-51124027D01*
X150241184Y-52300000D01*
X150276109Y-52475581D01*
X150375568Y-52624432D01*
X150524419Y-52723891D01*
X150700000Y-52758816D01*
X152300000Y-52758816D01*
X152475581Y-52723891D01*
X152624432Y-52624432D01*
X152723891Y-52475581D01*
X152758816Y-52300000D01*
X152758816Y-50700000D01*
X152723891Y-50524419D01*
X152624432Y-50375568D01*
X152475581Y-50276109D01*
X152300000Y-50241184D01*
X151124027Y-50241184D01*
X153165211Y-48200000D01*
X153344364Y-48200000D01*
X153478801Y-48401199D01*
X153892275Y-48677473D01*
X154256891Y-48750000D01*
X154503109Y-48750000D01*
X154867725Y-48677473D01*
X155281199Y-48401199D01*
X155557473Y-47987725D01*
X155654488Y-47500000D01*
X155557473Y-47012275D01*
X155281199Y-46598801D01*
X154867725Y-46322527D01*
X154503109Y-46250000D01*
X154256891Y-46250000D01*
X153892275Y-46322527D01*
X153478801Y-46598801D01*
X153344364Y-46800000D01*
X152944197Y-46800000D01*
X152875262Y-46786288D01*
X152806327Y-46800000D01*
X152806322Y-46800000D01*
X152602136Y-46840615D01*
X152370591Y-46995329D01*
X152331539Y-47053774D01*
X146445060Y-52940254D01*
X146445060Y-52107640D01*
X146307560Y-51970140D01*
X144195000Y-51970140D01*
X144195000Y-51990140D01*
X144095000Y-51990140D01*
X144095000Y-51970140D01*
X141982440Y-51970140D01*
X141844940Y-52107640D01*
X141844940Y-53779602D01*
X141928673Y-53981750D01*
X142083390Y-54136468D01*
X142285538Y-54220200D01*
X143151167Y-54220200D01*
X143009850Y-54361517D01*
X142806000Y-54853656D01*
X142806000Y-55386344D01*
X143009850Y-55878483D01*
X143386517Y-56255150D01*
X143712075Y-56390000D01*
X143386517Y-56524850D01*
X143009850Y-56901517D01*
X142806000Y-57393656D01*
X142806000Y-57926344D01*
X143009850Y-58418483D01*
X143386517Y-58795150D01*
X143712075Y-58930000D01*
X143386517Y-59064850D01*
X143009850Y-59441517D01*
X142806000Y-59933656D01*
X142806000Y-60466344D01*
X143009850Y-60958483D01*
X143386517Y-61335150D01*
X143878656Y-61539000D01*
X144411344Y-61539000D01*
X144903483Y-61335150D01*
X145280150Y-60958483D01*
X145484000Y-60466344D01*
X145484000Y-59933656D01*
X145280150Y-59441517D01*
X144903483Y-59064850D01*
X144577925Y-58930000D01*
X144903483Y-58795150D01*
X145280150Y-58418483D01*
X145304374Y-58360000D01*
X146902052Y-58360000D01*
X149772720Y-61230669D01*
X149725512Y-61468000D01*
X149822527Y-61955725D01*
X150098801Y-62369199D01*
X150512275Y-62645473D01*
X150876891Y-62718000D01*
X151123109Y-62718000D01*
X151487725Y-62645473D01*
X151901199Y-62369199D01*
X152035636Y-62168000D01*
X154650052Y-62168000D01*
X158966052Y-66484000D01*
X158913950Y-66484000D01*
X157007724Y-64577776D01*
X156968671Y-64519329D01*
X156737126Y-64364615D01*
X156532940Y-64324000D01*
X156532935Y-64324000D01*
X156464000Y-64310288D01*
X156395065Y-64324000D01*
X150663952Y-64324000D01*
X149393726Y-63053776D01*
X149354673Y-62995329D01*
X149123128Y-62840615D01*
X148918942Y-62800000D01*
X148918937Y-62800000D01*
X148850002Y-62786288D01*
X148781067Y-62800000D01*
X138700000Y-62800000D01*
X138700000Y-61415636D01*
X138901199Y-61281199D01*
X139177473Y-60867725D01*
X139274488Y-60380000D01*
X139177473Y-59892275D01*
X138901199Y-59478801D01*
X138700000Y-59344364D01*
X138700000Y-59012948D01*
X138923132Y-58789816D01*
X139484000Y-58789816D01*
X139659581Y-58754891D01*
X139808432Y-58655432D01*
X139907891Y-58506581D01*
X139942816Y-58331000D01*
X139942816Y-56731000D01*
X139907891Y-56555419D01*
X139808432Y-56406568D01*
X139659581Y-56307109D01*
X139484000Y-56272184D01*
X139215375Y-56272184D01*
X139445349Y-56177716D01*
X139452071Y-56173224D01*
X139524000Y-55941710D01*
X138684000Y-55101711D01*
X137844000Y-55941710D01*
X137915929Y-56173224D01*
X138152868Y-56272184D01*
X137884000Y-56272184D01*
X137708419Y-56307109D01*
X137559568Y-56406568D01*
X137460109Y-56555419D01*
X137425184Y-56731000D01*
X137425184Y-58323309D01*
X137340616Y-58449874D01*
X137286288Y-58723000D01*
X137300001Y-58791940D01*
X137300001Y-59344364D01*
X137098801Y-59478801D01*
X136822527Y-59892275D01*
X136725512Y-60380000D01*
X136822527Y-60867725D01*
X137098801Y-61281199D01*
X137300001Y-61415636D01*
X137300000Y-63274051D01*
X133710052Y-66864000D01*
X130367350Y-66864000D01*
X130151771Y-66648421D01*
X129754825Y-66484000D01*
X129325175Y-66484000D01*
X128928229Y-66648421D01*
X128624421Y-66952229D01*
X128460000Y-67349175D01*
X128460000Y-67654050D01*
X127090052Y-69024000D01*
X126785175Y-69024000D01*
X126388229Y-69188421D01*
X126084421Y-69492229D01*
X125920000Y-69889175D01*
X125920000Y-70318825D01*
X126084421Y-70715771D01*
X126388229Y-71019579D01*
X126785175Y-71184000D01*
X127214825Y-71184000D01*
X127611771Y-71019579D01*
X127915579Y-70715771D01*
X128080000Y-70318825D01*
X128080000Y-70013948D01*
X129449950Y-68644000D01*
X129754825Y-68644000D01*
X130151771Y-68479579D01*
X130367350Y-68264000D01*
X133931065Y-68264000D01*
X134000000Y-68277712D01*
X134068935Y-68264000D01*
X134068940Y-68264000D01*
X134273126Y-68223385D01*
X134504671Y-68068671D01*
X134543725Y-68010224D01*
X138353949Y-64200000D01*
X138963166Y-64200000D01*
X138895328Y-64245328D01*
X138856276Y-64303773D01*
X135603763Y-67556287D01*
X135545319Y-67595338D01*
X135506267Y-67653783D01*
X135390605Y-67826883D01*
X135336277Y-68100009D01*
X135349990Y-68168949D01*
X135349989Y-82731843D01*
X135196087Y-82885745D01*
X135181473Y-82812275D01*
X134905199Y-82398801D01*
X134491725Y-82122527D01*
X134304000Y-82085186D01*
X134304000Y-82018816D01*
X134804000Y-82018816D01*
X134979581Y-81983891D01*
X135128432Y-81884432D01*
X135227891Y-81735581D01*
X135262816Y-81560000D01*
X135262816Y-79960000D01*
X135227891Y-79784419D01*
X135128432Y-79635568D01*
X134979581Y-79536109D01*
X134804000Y-79501184D01*
X132404000Y-79501184D01*
X132228419Y-79536109D01*
X132079568Y-79635568D01*
X131980109Y-79784419D01*
X131945184Y-79960000D01*
X131945184Y-80054480D01*
X131904000Y-80046288D01*
X131835065Y-80060000D01*
X131835060Y-80060000D01*
X131630874Y-80100615D01*
X131399329Y-80255329D01*
X131365471Y-80306001D01*
X129141172Y-80306001D01*
X129266000Y-80004640D01*
X129266000Y-79507360D01*
X129075699Y-79047932D01*
X128724068Y-78696301D01*
X128264640Y-78506000D01*
X127767360Y-78506000D01*
X127307932Y-78696301D01*
X126956301Y-79047932D01*
X126766000Y-79507360D01*
X126766000Y-80004640D01*
X126890828Y-80306001D01*
X126507950Y-80306001D01*
X126311725Y-80109776D01*
X126311721Y-80109771D01*
X126195280Y-79993330D01*
X126242488Y-79756000D01*
X126145473Y-79268275D01*
X125869199Y-78854801D01*
X125455725Y-78578527D01*
X125091109Y-78506000D01*
X124844891Y-78506000D01*
X124480275Y-78578527D01*
X124066801Y-78854801D01*
X123790527Y-79268275D01*
X123693512Y-79756000D01*
X122081187Y-79756000D01*
X122128432Y-79724432D01*
X122227891Y-79575581D01*
X122262816Y-79400000D01*
X122262816Y-77600000D01*
X122227891Y-77424419D01*
X122128432Y-77275568D01*
X121979581Y-77176109D01*
X121804000Y-77141184D01*
X120004000Y-77141184D01*
X119828419Y-77176109D01*
X119679568Y-77275568D01*
X119580109Y-77424419D01*
X119545184Y-77600000D01*
X118556000Y-77600000D01*
X118556000Y-73337762D01*
X120300000Y-73337762D01*
X120300000Y-73982238D01*
X120546630Y-74577656D01*
X121002344Y-75033370D01*
X121597762Y-75280000D01*
X122242238Y-75280000D01*
X122837656Y-75033370D01*
X123293370Y-74577656D01*
X123540000Y-73982238D01*
X123540000Y-73337762D01*
X123293370Y-72742344D01*
X122837656Y-72286630D01*
X122242238Y-72040000D01*
X121597762Y-72040000D01*
X121002344Y-72286630D01*
X120546630Y-72742344D01*
X120300000Y-73337762D01*
X118556000Y-73337762D01*
X118556000Y-69185288D01*
X120392113Y-67349175D01*
X123380000Y-67349175D01*
X123380000Y-67778825D01*
X123544421Y-68175771D01*
X123760000Y-68391350D01*
X123760001Y-75915060D01*
X123746288Y-75984000D01*
X123760001Y-76052940D01*
X123800616Y-76257126D01*
X123955330Y-76488671D01*
X124013774Y-76527722D01*
X124229342Y-76743291D01*
X124226000Y-76751360D01*
X124226000Y-77248640D01*
X124416301Y-77708068D01*
X124767932Y-78059699D01*
X125227360Y-78250000D01*
X125724640Y-78250000D01*
X126184068Y-78059699D01*
X126535699Y-77708068D01*
X126726000Y-77248640D01*
X126726000Y-77000000D01*
X131821512Y-77000000D01*
X131918527Y-77487725D01*
X132194801Y-77901199D01*
X132608275Y-78177473D01*
X132972891Y-78250000D01*
X133219109Y-78250000D01*
X133583725Y-78177473D01*
X133997199Y-77901199D01*
X134273473Y-77487725D01*
X134370488Y-77000000D01*
X134273473Y-76512275D01*
X133997199Y-76098801D01*
X133583725Y-75822527D01*
X133219109Y-75750000D01*
X132972891Y-75750000D01*
X132608275Y-75822527D01*
X132194801Y-76098801D01*
X131918527Y-76512275D01*
X131821512Y-77000000D01*
X126726000Y-77000000D01*
X126726000Y-76751360D01*
X126535699Y-76291932D01*
X126184068Y-75940301D01*
X125724640Y-75750000D01*
X125227360Y-75750000D01*
X125219291Y-75753342D01*
X125160000Y-75694052D01*
X125160000Y-73337762D01*
X125300000Y-73337762D01*
X125300000Y-73982238D01*
X125546630Y-74577656D01*
X126002344Y-75033370D01*
X126597762Y-75280000D01*
X127242238Y-75280000D01*
X127837656Y-75033370D01*
X128033394Y-74837632D01*
X130813079Y-74837632D01*
X130930073Y-75107583D01*
X131559393Y-75376221D01*
X132243612Y-75383580D01*
X132878564Y-75128539D01*
X132909927Y-75107583D01*
X133026921Y-74837632D01*
X131920000Y-73730711D01*
X130813079Y-74837632D01*
X128033394Y-74837632D01*
X128293370Y-74577656D01*
X128539430Y-73983612D01*
X130196420Y-73983612D01*
X130451461Y-74618564D01*
X130472417Y-74649927D01*
X130742368Y-74766921D01*
X131849289Y-73660000D01*
X131990711Y-73660000D01*
X133097632Y-74766921D01*
X133367583Y-74649927D01*
X133636221Y-74020607D01*
X133643580Y-73336388D01*
X133388539Y-72701436D01*
X133367583Y-72670073D01*
X133097632Y-72553079D01*
X131990711Y-73660000D01*
X131849289Y-73660000D01*
X130742368Y-72553079D01*
X130472417Y-72670073D01*
X130203779Y-73299393D01*
X130196420Y-73983612D01*
X128539430Y-73983612D01*
X128540000Y-73982238D01*
X128540000Y-73337762D01*
X128293370Y-72742344D01*
X128033394Y-72482368D01*
X130813079Y-72482368D01*
X131920000Y-73589289D01*
X133026921Y-72482368D01*
X132909927Y-72212417D01*
X132280607Y-71943779D01*
X131596388Y-71936420D01*
X130961436Y-72191461D01*
X130930073Y-72212417D01*
X130813079Y-72482368D01*
X128033394Y-72482368D01*
X127837656Y-72286630D01*
X127242238Y-72040000D01*
X126597762Y-72040000D01*
X126002344Y-72286630D01*
X125546630Y-72742344D01*
X125300000Y-73337762D01*
X125160000Y-73337762D01*
X125160000Y-68391350D01*
X125375579Y-68175771D01*
X125540000Y-67778825D01*
X125540000Y-67349175D01*
X125375579Y-66952229D01*
X125071771Y-66648421D01*
X124674825Y-66484000D01*
X124245175Y-66484000D01*
X123848229Y-66648421D01*
X123544421Y-66952229D01*
X123380000Y-67349175D01*
X120392113Y-67349175D01*
X132445723Y-55295565D01*
X137333217Y-55295565D01*
X137537284Y-55792349D01*
X137541776Y-55799071D01*
X137773290Y-55871000D01*
X138613289Y-55031000D01*
X138754711Y-55031000D01*
X139594710Y-55871000D01*
X139826224Y-55799071D01*
X140033206Y-55303496D01*
X140034783Y-54766435D01*
X139830716Y-54269651D01*
X139826224Y-54262929D01*
X139594710Y-54191000D01*
X138754711Y-55031000D01*
X138613289Y-55031000D01*
X137773290Y-54191000D01*
X137541776Y-54262929D01*
X137334794Y-54758504D01*
X137333217Y-55295565D01*
X132445723Y-55295565D01*
X133620998Y-54120290D01*
X137844000Y-54120290D01*
X138684000Y-54960289D01*
X139524000Y-54120290D01*
X139452071Y-53888776D01*
X138956496Y-53681794D01*
X138419435Y-53680217D01*
X137922651Y-53884284D01*
X137915929Y-53888776D01*
X137844000Y-54120290D01*
X133620998Y-54120290D01*
X134597031Y-53144257D01*
X137100626Y-53144257D01*
X137226327Y-53347391D01*
X137748412Y-53417307D01*
X138257511Y-53282107D01*
X138676119Y-52962375D01*
X138680075Y-52957857D01*
X138687277Y-52719036D01*
X137681415Y-52138301D01*
X137100626Y-53144257D01*
X134597031Y-53144257D01*
X135579998Y-52161290D01*
X136316200Y-52161290D01*
X136453663Y-52669783D01*
X136775254Y-53086964D01*
X137014024Y-53094257D01*
X137594813Y-52088301D01*
X136588951Y-51507567D01*
X136385727Y-51633214D01*
X136383792Y-51638899D01*
X136316200Y-52161290D01*
X135579998Y-52161290D01*
X137237124Y-50504165D01*
X137237124Y-50670460D01*
X137264086Y-50806009D01*
X137068717Y-50857893D01*
X136650109Y-51177625D01*
X136646153Y-51182143D01*
X136638951Y-51420964D01*
X137644813Y-52001699D01*
X137654813Y-51984378D01*
X137741415Y-52034378D01*
X137731415Y-52051699D01*
X138737277Y-52632433D01*
X138940501Y-52506786D01*
X138942436Y-52501101D01*
X139010028Y-51978710D01*
X138872565Y-51470217D01*
X138609745Y-51129276D01*
X141196060Y-51129276D01*
X141371641Y-51094351D01*
X141520492Y-50994892D01*
X141619951Y-50846041D01*
X141654876Y-50670460D01*
X141654876Y-50060678D01*
X141844940Y-50060678D01*
X141844940Y-51732640D01*
X141982440Y-51870140D01*
X144095000Y-51870140D01*
X144095000Y-49757580D01*
X144195000Y-49757580D01*
X144195000Y-51870140D01*
X146307560Y-51870140D01*
X146445060Y-51732640D01*
X146445060Y-50060678D01*
X146361327Y-49858530D01*
X146206610Y-49703812D01*
X146004462Y-49620080D01*
X144332500Y-49620080D01*
X144195000Y-49757580D01*
X144095000Y-49757580D01*
X143957500Y-49620080D01*
X142285538Y-49620080D01*
X142083390Y-49703812D01*
X141928673Y-49858530D01*
X141844940Y-50060678D01*
X141654876Y-50060678D01*
X141654876Y-47170340D01*
X141619951Y-46994759D01*
X141520492Y-46845908D01*
X141371641Y-46746449D01*
X141196060Y-46711524D01*
X137695940Y-46711524D01*
X137520359Y-46746449D01*
X137371508Y-46845908D01*
X137272049Y-46994759D01*
X137237124Y-47170340D01*
X137237124Y-48524267D01*
X128370000Y-57391391D01*
X128370000Y-57371577D01*
X128149250Y-56838641D01*
X127741359Y-56430750D01*
X127208423Y-56210000D01*
X126631577Y-56210000D01*
X126098641Y-56430750D01*
X125690750Y-56838641D01*
X125470000Y-57371577D01*
X125470000Y-57948423D01*
X125690750Y-58481359D01*
X126098641Y-58889250D01*
X126631577Y-59110000D01*
X126651392Y-59110000D01*
X117409774Y-68351618D01*
X117365000Y-68381535D01*
X117365000Y-50055000D01*
X124408294Y-50055000D01*
X124460000Y-50065285D01*
X124511706Y-50055000D01*
X124664845Y-50024539D01*
X124838504Y-49908504D01*
X124954539Y-49734845D01*
X124995285Y-49530000D01*
X124985000Y-49478294D01*
X124985000Y-48492932D01*
X129516289Y-48492932D01*
X129527998Y-48671570D01*
X129607177Y-48832129D01*
X129741772Y-48950166D01*
X131127412Y-49750166D01*
X131296932Y-49807711D01*
X131475570Y-49796002D01*
X131636129Y-49716823D01*
X131754166Y-49582228D01*
X132554166Y-48196588D01*
X132611711Y-48027068D01*
X132600002Y-47848430D01*
X132520823Y-47687871D01*
X132386228Y-47569834D01*
X131000588Y-46769834D01*
X130831068Y-46712289D01*
X130652430Y-46723998D01*
X130491871Y-46803177D01*
X130373834Y-46937772D01*
X129573834Y-48323412D01*
X129516289Y-48492932D01*
X124985000Y-48492932D01*
X124985000Y-47606710D01*
X126660000Y-47606710D01*
X126731929Y-47838224D01*
X127227504Y-48045206D01*
X127764565Y-48046783D01*
X128261349Y-47842716D01*
X128268071Y-47838224D01*
X128340000Y-47606710D01*
X127500000Y-46766711D01*
X126660000Y-47606710D01*
X124985000Y-47606710D01*
X124985000Y-46960565D01*
X126149217Y-46960565D01*
X126353284Y-47457349D01*
X126357776Y-47464071D01*
X126589290Y-47536000D01*
X127429289Y-46696000D01*
X127570711Y-46696000D01*
X128410710Y-47536000D01*
X128642224Y-47464071D01*
X128849206Y-46968496D01*
X128850783Y-46431435D01*
X128646716Y-45934651D01*
X128642224Y-45927929D01*
X128410710Y-45856000D01*
X127570711Y-46696000D01*
X127429289Y-46696000D01*
X126589290Y-45856000D01*
X126357776Y-45927929D01*
X126150794Y-46423504D01*
X126149217Y-46960565D01*
X124985000Y-46960565D01*
X124985000Y-43396000D01*
X126241184Y-43396000D01*
X126241184Y-44996000D01*
X126276109Y-45171581D01*
X126375568Y-45320432D01*
X126524419Y-45419891D01*
X126700000Y-45454816D01*
X126968625Y-45454816D01*
X126738651Y-45549284D01*
X126731929Y-45553776D01*
X126660000Y-45785290D01*
X127500000Y-46625289D01*
X128340000Y-45785290D01*
X128268071Y-45553776D01*
X128031132Y-45454816D01*
X128300000Y-45454816D01*
X128475581Y-45419891D01*
X128624432Y-45320432D01*
X128723891Y-45171581D01*
X128758816Y-44996000D01*
X128758816Y-44251360D01*
X130250000Y-44251360D01*
X130250000Y-44748640D01*
X130440301Y-45208068D01*
X130791932Y-45559699D01*
X131251360Y-45750000D01*
X131748640Y-45750000D01*
X132208068Y-45559699D01*
X132559699Y-45208068D01*
X132750000Y-44748640D01*
X132750000Y-44500000D01*
X137845512Y-44500000D01*
X137942527Y-44987725D01*
X138218801Y-45401199D01*
X138632275Y-45677473D01*
X138996891Y-45750000D01*
X139243109Y-45750000D01*
X139357331Y-45727280D01*
X139996937Y-46366886D01*
X140035989Y-46425331D01*
X140094433Y-46464382D01*
X140267533Y-46580045D01*
X140313700Y-46589228D01*
X140471720Y-46620660D01*
X140471723Y-46620660D01*
X140540660Y-46634372D01*
X140609596Y-46620660D01*
X141936124Y-46620660D01*
X141936124Y-47670720D01*
X141971049Y-47846301D01*
X142070508Y-47995152D01*
X142219359Y-48094611D01*
X142394940Y-48129536D01*
X145895060Y-48129536D01*
X146070641Y-48094611D01*
X146219492Y-47995152D01*
X146318951Y-47846301D01*
X146353876Y-47670720D01*
X146353876Y-44170600D01*
X146318951Y-43995019D01*
X146242098Y-43880000D01*
X150225512Y-43880000D01*
X150322527Y-44367725D01*
X150598801Y-44781199D01*
X151012275Y-45057473D01*
X151376891Y-45130000D01*
X151623109Y-45130000D01*
X151987725Y-45057473D01*
X152401199Y-44781199D01*
X152535636Y-44580000D01*
X153121425Y-44580000D01*
X153202527Y-44987725D01*
X153478801Y-45401199D01*
X153892275Y-45677473D01*
X154256891Y-45750000D01*
X154503109Y-45750000D01*
X154867725Y-45677473D01*
X155281199Y-45401199D01*
X155557473Y-44987725D01*
X155654488Y-44500000D01*
X155557473Y-44012275D01*
X155281199Y-43598801D01*
X154867725Y-43322527D01*
X154503109Y-43250000D01*
X154256891Y-43250000D01*
X154118347Y-43277558D01*
X154033126Y-43220615D01*
X153828940Y-43180000D01*
X153828935Y-43180000D01*
X153760000Y-43166288D01*
X153691065Y-43180000D01*
X152535636Y-43180000D01*
X152401199Y-42978801D01*
X151987725Y-42702527D01*
X151623109Y-42630000D01*
X151376891Y-42630000D01*
X151012275Y-42702527D01*
X150598801Y-42978801D01*
X150322527Y-43392275D01*
X150225512Y-43880000D01*
X146242098Y-43880000D01*
X146219492Y-43846168D01*
X146070641Y-43746709D01*
X145895060Y-43711784D01*
X142394940Y-43711784D01*
X142219359Y-43746709D01*
X142070508Y-43846168D01*
X141971049Y-43995019D01*
X141936124Y-44170600D01*
X141936124Y-45220660D01*
X140830609Y-45220660D01*
X140347280Y-44737331D01*
X140394488Y-44500000D01*
X140297473Y-44012275D01*
X140021199Y-43598801D01*
X139607725Y-43322527D01*
X139243109Y-43250000D01*
X138996891Y-43250000D01*
X138632275Y-43322527D01*
X138218801Y-43598801D01*
X137942527Y-44012275D01*
X137845512Y-44500000D01*
X132750000Y-44500000D01*
X132750000Y-44251360D01*
X132559699Y-43791932D01*
X132208068Y-43440301D01*
X131748640Y-43250000D01*
X131251360Y-43250000D01*
X130791932Y-43440301D01*
X130440301Y-43791932D01*
X130250000Y-44251360D01*
X128758816Y-44251360D01*
X128758816Y-43396000D01*
X128723891Y-43220419D01*
X128624432Y-43071568D01*
X128475581Y-42972109D01*
X128300000Y-42937184D01*
X126700000Y-42937184D01*
X126524419Y-42972109D01*
X126375568Y-43071568D01*
X126276109Y-43220419D01*
X126241184Y-43396000D01*
X124985000Y-43396000D01*
X124985000Y-42435000D01*
X163305000Y-42435000D01*
X163305001Y-47795823D01*
X163305001Y-47795823D01*
G37*
X163305001Y-47795823D02*
X163304670Y-47795328D01*
X163246704Y-47756596D01*
X163250000Y-47748640D01*
X163250000Y-47251360D01*
X163059699Y-46791932D01*
X162708068Y-46440301D01*
X162248640Y-46250000D01*
X161751360Y-46250000D01*
X161291932Y-46440301D01*
X160940301Y-46791932D01*
X160750000Y-47251360D01*
X160750000Y-47748640D01*
X160940301Y-48208068D01*
X161291932Y-48559699D01*
X161751360Y-48750000D01*
X162100000Y-48750000D01*
X162099999Y-49173539D01*
X162086287Y-49242475D01*
X162099999Y-49311410D01*
X162099999Y-49311414D01*
X162140614Y-49515600D01*
X162295328Y-49747145D01*
X162353773Y-49786197D01*
X168892001Y-56324426D01*
X168892000Y-75644959D01*
X168883932Y-75648301D01*
X168532301Y-75999932D01*
X168342000Y-76459360D01*
X168342000Y-76956640D01*
X168532301Y-77416068D01*
X168883932Y-77767699D01*
X169343360Y-77958000D01*
X169840640Y-77958000D01*
X170300068Y-77767699D01*
X170651699Y-77416068D01*
X170842000Y-76956640D01*
X170842000Y-76459360D01*
X170651699Y-75999932D01*
X170300068Y-75648301D01*
X170292000Y-75644959D01*
X170292000Y-56103411D01*
X170305712Y-56034476D01*
X170292000Y-55965541D01*
X170292000Y-55965536D01*
X170251385Y-55761350D01*
X170096671Y-55529805D01*
X170038226Y-55490753D01*
X164602472Y-50055000D01*
X170925000Y-50055000D01*
X170925001Y-101583000D01*
X136442949Y-101583000D01*
X136590231Y-101435719D01*
X136648670Y-101396671D01*
X136687718Y-101338232D01*
X136687722Y-101338228D01*
X136782992Y-101195646D01*
X137233792Y-101008919D01*
X137439607Y-100803104D01*
X138281607Y-100803104D01*
X138408301Y-101081334D01*
X139066419Y-101363249D01*
X139782325Y-101371853D01*
X140447028Y-101105837D01*
X140483699Y-101081334D01*
X140610393Y-100803104D01*
X139446000Y-99638711D01*
X138281607Y-100803104D01*
X137439607Y-100803104D01*
X137711919Y-100530792D01*
X137803946Y-100308618D01*
X137908163Y-100569028D01*
X137932666Y-100605699D01*
X138210896Y-100732393D01*
X139375289Y-99568000D01*
X139516711Y-99568000D01*
X140681104Y-100732393D01*
X140959334Y-100605699D01*
X141241249Y-99947581D01*
X141243557Y-99755500D01*
X141425000Y-99755500D01*
X141425000Y-100577402D01*
X141508732Y-100779550D01*
X141663450Y-100934267D01*
X141865598Y-101018000D01*
X142687500Y-101018000D01*
X142825000Y-100880500D01*
X142825000Y-99618000D01*
X141562500Y-99618000D01*
X141425000Y-99755500D01*
X141243557Y-99755500D01*
X141249853Y-99231675D01*
X140983837Y-98566972D01*
X140978242Y-98558598D01*
X141425000Y-98558598D01*
X141425000Y-99380500D01*
X141562500Y-99518000D01*
X142825000Y-99518000D01*
X142825000Y-98255500D01*
X142687500Y-98118000D01*
X141865598Y-98118000D01*
X141663450Y-98201733D01*
X141508732Y-98356450D01*
X141425000Y-98558598D01*
X140978242Y-98558598D01*
X140959334Y-98530301D01*
X140681104Y-98403607D01*
X139516711Y-99568000D01*
X139375289Y-99568000D01*
X138210896Y-98403607D01*
X137932666Y-98530301D01*
X137804664Y-98829115D01*
X137711919Y-98605208D01*
X137439607Y-98332896D01*
X138281607Y-98332896D01*
X139446000Y-99497289D01*
X140610393Y-98332896D01*
X140483699Y-98054666D01*
X139825581Y-97772751D01*
X139109675Y-97764147D01*
X138444972Y-98030163D01*
X138408301Y-98054666D01*
X138281607Y-98332896D01*
X137439607Y-98332896D01*
X137233792Y-98127081D01*
X136609087Y-97868320D01*
X135932913Y-97868320D01*
X135308208Y-98127081D01*
X134830081Y-98605208D01*
X134804496Y-98666976D01*
X134804496Y-98318320D01*
X134769571Y-98142739D01*
X134670112Y-97993888D01*
X134521261Y-97894429D01*
X134345680Y-97859504D01*
X131846320Y-97859504D01*
X131670739Y-97894429D01*
X131521888Y-97993888D01*
X131422429Y-98142739D01*
X131387504Y-98318320D01*
X131387504Y-100817680D01*
X131400495Y-100882990D01*
X129304939Y-100882990D01*
X128591073Y-100169124D01*
X128700000Y-99906151D01*
X128700000Y-99229849D01*
X128441190Y-98605027D01*
X127962973Y-98126810D01*
X127338151Y-97868000D01*
X126691471Y-97868000D01*
X126726000Y-97784640D01*
X126726000Y-97287360D01*
X126722658Y-97279291D01*
X128305950Y-95696000D01*
X128476959Y-95696000D01*
X128480301Y-95704068D01*
X128831932Y-96055699D01*
X129291360Y-96246000D01*
X129788640Y-96246000D01*
X130248068Y-96055699D01*
X130599699Y-95704068D01*
X130790000Y-95244640D01*
X130790000Y-94747360D01*
X130599699Y-94287932D01*
X130248068Y-93936301D01*
X129788640Y-93746000D01*
X129291360Y-93746000D01*
X128831932Y-93936301D01*
X128480301Y-94287932D01*
X128476959Y-94296000D01*
X128084934Y-94296000D01*
X128015999Y-94282288D01*
X127947064Y-94296000D01*
X127947060Y-94296000D01*
X127742874Y-94336615D01*
X127742872Y-94336616D01*
X127742873Y-94336616D01*
X127569772Y-94452278D01*
X127569771Y-94452279D01*
X127511329Y-94491329D01*
X127472279Y-94549771D01*
X125732709Y-96289342D01*
X125724640Y-96286000D01*
X125227360Y-96286000D01*
X125219291Y-96289342D01*
X122854001Y-93924053D01*
X122854001Y-87818935D01*
X122867713Y-87750000D01*
X122854001Y-87681065D01*
X122854001Y-87681061D01*
X122813386Y-87476875D01*
X122745983Y-87376000D01*
X122697723Y-87303773D01*
X122697719Y-87303769D01*
X122658671Y-87245330D01*
X122600232Y-87206282D01*
X122521310Y-87127360D01*
X123718000Y-87127360D01*
X123718000Y-87624640D01*
X123908301Y-88084068D01*
X124259932Y-88435699D01*
X124719360Y-88626000D01*
X125148051Y-88626000D01*
X125215400Y-88693349D01*
X124988275Y-88738527D01*
X124574801Y-89014801D01*
X124298527Y-89428275D01*
X124201512Y-89916000D01*
X124298527Y-90403725D01*
X124574801Y-90817199D01*
X124988275Y-91093473D01*
X125352891Y-91166000D01*
X125599109Y-91166000D01*
X125963725Y-91093473D01*
X126377199Y-90817199D01*
X126653473Y-90403725D01*
X126698651Y-90176601D01*
X126964279Y-90442229D01*
X127003329Y-90500671D01*
X127061771Y-90539721D01*
X127061772Y-90539722D01*
X127164995Y-90608693D01*
X127234874Y-90655385D01*
X127439060Y-90696000D01*
X127439064Y-90696000D01*
X127507999Y-90709712D01*
X127576934Y-90696000D01*
X128476959Y-90696000D01*
X128480301Y-90704068D01*
X128831932Y-91055699D01*
X129291360Y-91246000D01*
X129788640Y-91246000D01*
X130248068Y-91055699D01*
X130599699Y-90704068D01*
X130603041Y-90696000D01*
X131974069Y-90696000D01*
X131929512Y-90920000D01*
X132026527Y-91407725D01*
X132302801Y-91821199D01*
X132716275Y-92097473D01*
X133080891Y-92170000D01*
X134127109Y-92170000D01*
X134491725Y-92097473D01*
X134905199Y-91821199D01*
X135181473Y-91407725D01*
X135278488Y-90920000D01*
X135181473Y-90432275D01*
X134905199Y-90018801D01*
X134491725Y-89742527D01*
X134127109Y-89670000D01*
X133343948Y-89670000D01*
X133303948Y-89630000D01*
X134127109Y-89630000D01*
X134491725Y-89557473D01*
X134905199Y-89281199D01*
X135181473Y-88867725D01*
X135278488Y-88380000D01*
X135181473Y-87892275D01*
X134905199Y-87478801D01*
X134491725Y-87202527D01*
X134127109Y-87130000D01*
X133080891Y-87130000D01*
X132716275Y-87202527D01*
X132302801Y-87478801D01*
X132026527Y-87892275D01*
X131929512Y-88380000D01*
X132026527Y-88867725D01*
X132302801Y-89281199D01*
X132324952Y-89296000D01*
X130603041Y-89296000D01*
X130599699Y-89287932D01*
X130248068Y-88936301D01*
X129788640Y-88746000D01*
X129291360Y-88746000D01*
X128831932Y-88936301D01*
X128480301Y-89287932D01*
X128476959Y-89296000D01*
X127797950Y-89296000D01*
X126191226Y-87689278D01*
X126218000Y-87624640D01*
X126218000Y-87127360D01*
X126027699Y-86667932D01*
X125676068Y-86316301D01*
X125216640Y-86126000D01*
X124719360Y-86126000D01*
X124259932Y-86316301D01*
X123908301Y-86667932D01*
X123718000Y-87127360D01*
X122521310Y-87127360D01*
X122227195Y-86833246D01*
X122254000Y-86768532D01*
X122254000Y-86231468D01*
X122048475Y-85735286D01*
X121723189Y-85410000D01*
X121913402Y-85410000D01*
X122115550Y-85326268D01*
X122270267Y-85171550D01*
X122354000Y-84969402D01*
X122354000Y-84147500D01*
X122216500Y-84010000D01*
X120954000Y-84010000D01*
X120954000Y-84030000D01*
X120854000Y-84030000D01*
X120854000Y-84010000D01*
X119591500Y-84010000D01*
X119454000Y-84147500D01*
X119454000Y-84969402D01*
X119537733Y-85171550D01*
X119692450Y-85326268D01*
X119894598Y-85410000D01*
X120084811Y-85410000D01*
X119759525Y-85735286D01*
X119554000Y-86231468D01*
X119554000Y-86768532D01*
X119759525Y-87264714D01*
X120139286Y-87644475D01*
X120635468Y-87850000D01*
X121172532Y-87850000D01*
X121237246Y-87823195D01*
X121454001Y-88039951D01*
X121454001Y-88790828D01*
X121152640Y-88666000D01*
X120655360Y-88666000D01*
X120195932Y-88856301D01*
X119844301Y-89207932D01*
X119654000Y-89667360D01*
X119654000Y-90164640D01*
X119844301Y-90624068D01*
X120195932Y-90975699D01*
X120655360Y-91166000D01*
X121152640Y-91166000D01*
X121454002Y-91041172D01*
X121454002Y-94145061D01*
X121440289Y-94214001D01*
X121454002Y-94282941D01*
X121494617Y-94487127D01*
X121649331Y-94718672D01*
X121707775Y-94757723D01*
X124229342Y-97279291D01*
X124226000Y-97287360D01*
X124226000Y-97784640D01*
X124256877Y-97859184D01*
X122202816Y-97859184D01*
X122228647Y-97796427D01*
X122115578Y-97586000D01*
X120954000Y-97586000D01*
X120954000Y-97606000D01*
X120854000Y-97606000D01*
X120854000Y-97586000D01*
X119692422Y-97586000D01*
X119579353Y-97796427D01*
X119779847Y-98283524D01*
X120151483Y-98656817D01*
X120637683Y-98859476D01*
X120643574Y-98860643D01*
X120853998Y-98747470D01*
X120853998Y-98868000D01*
X119161949Y-98868000D01*
X118556000Y-98262052D01*
X118556000Y-97275573D01*
X119579353Y-97275573D01*
X119692422Y-97486000D01*
X120854000Y-97486000D01*
X120854000Y-96324531D01*
X120954000Y-96324531D01*
X120954000Y-97486000D01*
X122115578Y-97486000D01*
X122228647Y-97275573D01*
X122028153Y-96788476D01*
X121656517Y-96415183D01*
X121170317Y-96212524D01*
X121164426Y-96211357D01*
X120954000Y-96324531D01*
X120854000Y-96324531D01*
X120643574Y-96211357D01*
X120637683Y-96212524D01*
X120151483Y-96415183D01*
X119779847Y-96788476D01*
X119579353Y-97275573D01*
X118556000Y-97275573D01*
X118556000Y-82950598D01*
X119454000Y-82950598D01*
X119454000Y-83772500D01*
X119591500Y-83910000D01*
X120854000Y-83910000D01*
X120854000Y-82647500D01*
X120954000Y-82647500D01*
X120954000Y-83910000D01*
X122216500Y-83910000D01*
X122354000Y-83772500D01*
X122354000Y-82950598D01*
X122270267Y-82748450D01*
X122115550Y-82593732D01*
X121913402Y-82510000D01*
X121091500Y-82510000D01*
X120954000Y-82647500D01*
X120854000Y-82647500D01*
X120716500Y-82510000D01*
X119894598Y-82510000D01*
X119692450Y-82593732D01*
X119537733Y-82748450D01*
X119454000Y-82950598D01*
X118556000Y-82950598D01*
X118556000Y-82022860D01*
X119991851Y-82022860D01*
X120075962Y-82264761D01*
X120607689Y-82488409D01*
X121184526Y-82491549D01*
X121718656Y-82273703D01*
X121732038Y-82264761D01*
X121816149Y-82022860D01*
X120904000Y-81110711D01*
X119991851Y-82022860D01*
X118556000Y-82022860D01*
X118556000Y-81320526D01*
X119452451Y-81320526D01*
X119670297Y-81854656D01*
X119679239Y-81868038D01*
X119921140Y-81952149D01*
X120833289Y-81040000D01*
X120974711Y-81040000D01*
X121886860Y-81952149D01*
X122128761Y-81868038D01*
X122352409Y-81336311D01*
X122355549Y-80759474D01*
X122137703Y-80225344D01*
X122128761Y-80211962D01*
X121886860Y-80127851D01*
X120974711Y-81040000D01*
X120833289Y-81040000D01*
X119921140Y-80127851D01*
X119679239Y-80211962D01*
X119455591Y-80743689D01*
X119452451Y-81320526D01*
X118556000Y-81320526D01*
X118556000Y-77600000D01*
X119545184Y-77600000D01*
X119545184Y-79400000D01*
X119580109Y-79575581D01*
X119679568Y-79724432D01*
X119828419Y-79823891D01*
X120004000Y-79858816D01*
X120060810Y-79858816D01*
X119991851Y-80057140D01*
X120904000Y-80969289D01*
X121816149Y-80057140D01*
X121747190Y-79858816D01*
X121804000Y-79858816D01*
X121979581Y-79823891D01*
X122081187Y-79756000D01*
X123693512Y-79756000D01*
X123790527Y-80243725D01*
X124066801Y-80657199D01*
X124480275Y-80933473D01*
X124844891Y-81006000D01*
X125091109Y-81006000D01*
X125205330Y-80983280D01*
X125321771Y-81099721D01*
X125321776Y-81099725D01*
X125674278Y-81452227D01*
X125713330Y-81510672D01*
X125944875Y-81665386D01*
X126149061Y-81706001D01*
X126149066Y-81706001D01*
X126218001Y-81719713D01*
X126286936Y-81706001D01*
X131589064Y-81706001D01*
X131657999Y-81719713D01*
X131726934Y-81706001D01*
X131726939Y-81706001D01*
X131931125Y-81665386D01*
X131962038Y-81644731D01*
X131980109Y-81735581D01*
X132079568Y-81884432D01*
X132228419Y-81983891D01*
X132404000Y-82018816D01*
X132904000Y-82018816D01*
X132904001Y-82085186D01*
X132716275Y-82122527D01*
X132302801Y-82398801D01*
X132026527Y-82812275D01*
X131929512Y-83300000D01*
X132026527Y-83787725D01*
X132302801Y-84201199D01*
X132716275Y-84477473D01*
X133080891Y-84550000D01*
X133531833Y-84550000D01*
X133491833Y-84590000D01*
X133080891Y-84590000D01*
X132716275Y-84662527D01*
X132302801Y-84938801D01*
X132168364Y-85140000D01*
X132160934Y-85140000D01*
X132091999Y-85126288D01*
X132023064Y-85140000D01*
X132023060Y-85140000D01*
X131818874Y-85180615D01*
X131587329Y-85335329D01*
X131548278Y-85393773D01*
X130266052Y-86676000D01*
X129051636Y-86676000D01*
X128917199Y-86474801D01*
X128503725Y-86198527D01*
X128139109Y-86126000D01*
X127892891Y-86126000D01*
X127528275Y-86198527D01*
X127114801Y-86474801D01*
X126838527Y-86888275D01*
X126741512Y-87376000D01*
X126838527Y-87863725D01*
X127114801Y-88277199D01*
X127528275Y-88553473D01*
X127892891Y-88626000D01*
X128139109Y-88626000D01*
X128503725Y-88553473D01*
X128917199Y-88277199D01*
X129051636Y-88076000D01*
X130487065Y-88076000D01*
X130556000Y-88089712D01*
X130624935Y-88076000D01*
X130624940Y-88076000D01*
X130829126Y-88035385D01*
X131060671Y-87880671D01*
X131099724Y-87822224D01*
X132253914Y-86668035D01*
X132302801Y-86741199D01*
X132716275Y-87017473D01*
X133080891Y-87090000D01*
X134127109Y-87090000D01*
X134491725Y-87017473D01*
X134905199Y-86741199D01*
X135181473Y-86327725D01*
X135278488Y-85840000D01*
X135181473Y-85352275D01*
X134992409Y-85069320D01*
X136050000Y-84011730D01*
X136050000Y-92964051D01*
X135210064Y-93803987D01*
X135278488Y-93460000D01*
X135181473Y-92972275D01*
X134905199Y-92558801D01*
X134491725Y-92282527D01*
X134127109Y-92210000D01*
X133080891Y-92210000D01*
X132716275Y-92282527D01*
X132302801Y-92558801D01*
X132026527Y-92972275D01*
X131929512Y-93460000D01*
X132026527Y-93947725D01*
X132302801Y-94361199D01*
X132716275Y-94637473D01*
X133080891Y-94710000D01*
X134127109Y-94710000D01*
X134347987Y-94666064D01*
X134241331Y-94772720D01*
X134127109Y-94750000D01*
X133080891Y-94750000D01*
X132716275Y-94822527D01*
X132302801Y-95098801D01*
X132026527Y-95512275D01*
X131929512Y-96000000D01*
X132026527Y-96487725D01*
X132302801Y-96901199D01*
X132716275Y-97177473D01*
X133080891Y-97250000D01*
X134127109Y-97250000D01*
X134491725Y-97177473D01*
X134905199Y-96901199D01*
X135181473Y-96487725D01*
X135278488Y-96000000D01*
X139549512Y-96000000D01*
X139646527Y-96487725D01*
X139922801Y-96901199D01*
X140336275Y-97177473D01*
X140700891Y-97250000D01*
X141747109Y-97250000D01*
X142111725Y-97177473D01*
X142525199Y-96901199D01*
X142659636Y-96700000D01*
X144219989Y-96700000D01*
X144228301Y-96720068D01*
X144579932Y-97071699D01*
X145039360Y-97262000D01*
X145536640Y-97262000D01*
X145996068Y-97071699D01*
X146347699Y-96720068D01*
X146538000Y-96260640D01*
X146538000Y-95763360D01*
X146347699Y-95303932D01*
X145996068Y-94952301D01*
X145536640Y-94762000D01*
X145039360Y-94762000D01*
X144579932Y-94952301D01*
X144232233Y-95300000D01*
X142659636Y-95300000D01*
X142525199Y-95098801D01*
X142111725Y-94822527D01*
X141747109Y-94750000D01*
X140700891Y-94750000D01*
X140336275Y-94822527D01*
X139922801Y-95098801D01*
X139646527Y-95512275D01*
X139549512Y-96000000D01*
X135278488Y-96000000D01*
X135231280Y-95762669D01*
X137196225Y-93797724D01*
X137254670Y-93758672D01*
X137409384Y-93527127D01*
X137449999Y-93322941D01*
X137449999Y-93322937D01*
X137463711Y-93254002D01*
X137449999Y-93185067D01*
X137449999Y-88640426D01*
X139499357Y-88640426D01*
X139557628Y-88850428D01*
X139834050Y-89299238D01*
X140261183Y-89608103D01*
X140603272Y-89689418D01*
X140336275Y-89742527D01*
X139922801Y-90018801D01*
X139646527Y-90432275D01*
X139549512Y-90920000D01*
X139646527Y-91407725D01*
X139922801Y-91821199D01*
X140336275Y-92097473D01*
X140700891Y-92170000D01*
X141747109Y-92170000D01*
X141967987Y-92126064D01*
X141861331Y-92232720D01*
X141747109Y-92210000D01*
X140700891Y-92210000D01*
X140336275Y-92282527D01*
X139922801Y-92558801D01*
X139646527Y-92972275D01*
X139549512Y-93460000D01*
X139646527Y-93947725D01*
X139922801Y-94361199D01*
X140336275Y-94637473D01*
X140700891Y-94710000D01*
X141747109Y-94710000D01*
X142111725Y-94637473D01*
X142525199Y-94361199D01*
X142801473Y-93947725D01*
X142898488Y-93460000D01*
X142851280Y-93222669D01*
X144291091Y-91782858D01*
X144579932Y-92071699D01*
X145039360Y-92262000D01*
X145536640Y-92262000D01*
X145996068Y-92071699D01*
X146347699Y-91720068D01*
X146538000Y-91260640D01*
X146538000Y-90763360D01*
X146347699Y-90303932D01*
X145996068Y-89952301D01*
X145536640Y-89762000D01*
X145039360Y-89762000D01*
X144579932Y-89952301D01*
X144228301Y-90303932D01*
X144224959Y-90312000D01*
X144140935Y-90312000D01*
X144072000Y-90298288D01*
X144003065Y-90312000D01*
X144003060Y-90312000D01*
X143798874Y-90352615D01*
X143567329Y-90507329D01*
X143528277Y-90565774D01*
X142830064Y-91263987D01*
X142898488Y-90920000D01*
X142801473Y-90432275D01*
X142525199Y-90018801D01*
X142111725Y-89742527D01*
X141844728Y-89689418D01*
X142186817Y-89608103D01*
X142613950Y-89299238D01*
X142890372Y-88850428D01*
X142948643Y-88640426D01*
X142835469Y-88430000D01*
X141274000Y-88430000D01*
X141274000Y-88450000D01*
X141174000Y-88450000D01*
X141174000Y-88430000D01*
X139612531Y-88430000D01*
X139499357Y-88640426D01*
X137449999Y-88640426D01*
X137449999Y-79378816D01*
X138550001Y-79378816D01*
X138550001Y-84197066D01*
X138536289Y-84266001D01*
X138550001Y-84334936D01*
X138550001Y-84334940D01*
X138590616Y-84539126D01*
X138745330Y-84770671D01*
X138803775Y-84809723D01*
X139596720Y-85602669D01*
X139549512Y-85840000D01*
X139646527Y-86327725D01*
X139922801Y-86741199D01*
X140336275Y-87017473D01*
X140603272Y-87070582D01*
X140261183Y-87151897D01*
X139834050Y-87460762D01*
X139557628Y-87909572D01*
X139499357Y-88119574D01*
X139612531Y-88330000D01*
X141174000Y-88330000D01*
X141174000Y-88310000D01*
X141274000Y-88310000D01*
X141274000Y-88330000D01*
X142835469Y-88330000D01*
X142948643Y-88119574D01*
X142890372Y-87909572D01*
X142613950Y-87460762D01*
X142186817Y-87151897D01*
X141844728Y-87070582D01*
X142111725Y-87017473D01*
X142525199Y-86741199D01*
X142801473Y-86327725D01*
X142844510Y-86111360D01*
X143250000Y-86111360D01*
X143250000Y-86608640D01*
X143440301Y-87068068D01*
X143791932Y-87419699D01*
X144251360Y-87610000D01*
X144748640Y-87610000D01*
X145208068Y-87419699D01*
X145559699Y-87068068D01*
X145750000Y-86608640D01*
X145750000Y-86360000D01*
X150845512Y-86360000D01*
X150942527Y-86847725D01*
X151218801Y-87261199D01*
X151632275Y-87537473D01*
X151996891Y-87610000D01*
X152243109Y-87610000D01*
X152607725Y-87537473D01*
X153021199Y-87261199D01*
X153297473Y-86847725D01*
X153394488Y-86360000D01*
X153297473Y-85872275D01*
X153021199Y-85458801D01*
X152607725Y-85182527D01*
X152243109Y-85110000D01*
X151996891Y-85110000D01*
X151632275Y-85182527D01*
X151218801Y-85458801D01*
X150942527Y-85872275D01*
X150845512Y-86360000D01*
X145750000Y-86360000D01*
X145750000Y-86111360D01*
X145559699Y-85651932D01*
X145208068Y-85300301D01*
X144748640Y-85110000D01*
X144251360Y-85110000D01*
X143791932Y-85300301D01*
X143440301Y-85651932D01*
X143250000Y-86111360D01*
X142844510Y-86111360D01*
X142898488Y-85840000D01*
X142851280Y-85602669D01*
X143370228Y-85083721D01*
X143428670Y-85044671D01*
X143467720Y-84986229D01*
X143467722Y-84986227D01*
X143583385Y-84813127D01*
X143606958Y-84694614D01*
X143624000Y-84608940D01*
X143624000Y-84608937D01*
X143637712Y-84540000D01*
X143624000Y-84471064D01*
X143624000Y-84182710D01*
X145464000Y-84182710D01*
X145535929Y-84414224D01*
X146031504Y-84621206D01*
X146568565Y-84622783D01*
X147065349Y-84418716D01*
X147072071Y-84414224D01*
X147144000Y-84182710D01*
X146304000Y-83342711D01*
X145464000Y-84182710D01*
X143624000Y-84182710D01*
X143624000Y-83536565D01*
X144953217Y-83536565D01*
X145157284Y-84033349D01*
X145161776Y-84040071D01*
X145393290Y-84112000D01*
X146233289Y-83272000D01*
X146374711Y-83272000D01*
X147214710Y-84112000D01*
X147446224Y-84040071D01*
X147653206Y-83544496D01*
X147654783Y-83007435D01*
X147450716Y-82510651D01*
X147446224Y-82503929D01*
X147214710Y-82432000D01*
X146374711Y-83272000D01*
X146233289Y-83272000D01*
X145393290Y-82432000D01*
X145161776Y-82503929D01*
X144954794Y-82999504D01*
X144953217Y-83536565D01*
X143624000Y-83536565D01*
X143624000Y-83425948D01*
X145169134Y-81880816D01*
X145179568Y-81896432D01*
X145328419Y-81995891D01*
X145504000Y-82030816D01*
X145772625Y-82030816D01*
X145542651Y-82125284D01*
X145535929Y-82129776D01*
X145464000Y-82361290D01*
X146304000Y-83201289D01*
X147144000Y-82361290D01*
X147072071Y-82129776D01*
X146835132Y-82030816D01*
X147104000Y-82030816D01*
X147279581Y-81995891D01*
X147428432Y-81896432D01*
X147527891Y-81747581D01*
X147562816Y-81572000D01*
X147562816Y-79972000D01*
X147527891Y-79796419D01*
X147428432Y-79647568D01*
X147279581Y-79548109D01*
X147104000Y-79513184D01*
X145504000Y-79513184D01*
X145328419Y-79548109D01*
X145179568Y-79647568D01*
X145080109Y-79796419D01*
X145045184Y-79972000D01*
X145045184Y-80024866D01*
X143624000Y-81446051D01*
X143624000Y-80361154D01*
X143637712Y-80292219D01*
X143624000Y-80223284D01*
X143624000Y-80223279D01*
X143583385Y-80019093D01*
X143428671Y-79787548D01*
X143370226Y-79748496D01*
X142180001Y-78558272D01*
X142180001Y-74384000D01*
X145045184Y-74384000D01*
X145045184Y-75984000D01*
X145080109Y-76159581D01*
X145179568Y-76308432D01*
X145328419Y-76407891D01*
X145504000Y-76442816D01*
X146034076Y-76442816D01*
X145595932Y-76624301D01*
X145244301Y-76975932D01*
X145054000Y-77435360D01*
X145054000Y-77932640D01*
X145244301Y-78392068D01*
X145595932Y-78743699D01*
X146055360Y-78934000D01*
X146552640Y-78934000D01*
X147012068Y-78743699D01*
X147363699Y-78392068D01*
X147554000Y-77932640D01*
X147554000Y-77435360D01*
X147363699Y-76975932D01*
X147012068Y-76624301D01*
X146573924Y-76442816D01*
X147104000Y-76442816D01*
X147279581Y-76407891D01*
X147428432Y-76308432D01*
X147527891Y-76159581D01*
X147562816Y-75984000D01*
X147562816Y-74384000D01*
X147527891Y-74208419D01*
X147428432Y-74059568D01*
X147279581Y-73960109D01*
X147104000Y-73925184D01*
X145504000Y-73925184D01*
X145328419Y-73960109D01*
X145179568Y-74059568D01*
X145080109Y-74208419D01*
X145045184Y-74384000D01*
X142180001Y-74384000D01*
X142180001Y-73675949D01*
X142576229Y-73279722D01*
X142634671Y-73240672D01*
X142673721Y-73182230D01*
X142673723Y-73182228D01*
X142746808Y-73072849D01*
X142789386Y-73009127D01*
X142830001Y-72804941D01*
X142830001Y-72804936D01*
X142843713Y-72736001D01*
X142830001Y-72667066D01*
X142830001Y-71751360D01*
X147250000Y-71751360D01*
X147250000Y-72248640D01*
X147440301Y-72708068D01*
X147791932Y-73059699D01*
X148251360Y-73250000D01*
X148748640Y-73250000D01*
X149208068Y-73059699D01*
X149559699Y-72708068D01*
X149750000Y-72248640D01*
X149750000Y-71751360D01*
X149559699Y-71291932D01*
X149208068Y-70940301D01*
X148748640Y-70750000D01*
X148251360Y-70750000D01*
X147791932Y-70940301D01*
X147440301Y-71291932D01*
X147250000Y-71751360D01*
X142830001Y-71751360D01*
X142830001Y-70318936D01*
X142843713Y-70250001D01*
X142830001Y-70181066D01*
X142830001Y-70181061D01*
X142789386Y-69976875D01*
X142634672Y-69745330D01*
X142576227Y-69706278D01*
X142223725Y-69353776D01*
X142223721Y-69353771D01*
X142107280Y-69237330D01*
X142154488Y-69000000D01*
X142057473Y-68512275D01*
X141781199Y-68098801D01*
X141367725Y-67822527D01*
X141003109Y-67750000D01*
X140756891Y-67750000D01*
X140392275Y-67822527D01*
X139978801Y-68098801D01*
X139702527Y-68512275D01*
X139669295Y-68679345D01*
X139246658Y-68256709D01*
X139250000Y-68248640D01*
X139250000Y-67751360D01*
X139059699Y-67291932D01*
X138708068Y-66940301D01*
X138348559Y-66791388D01*
X138879521Y-66260426D01*
X139555357Y-66260426D01*
X139556524Y-66266317D01*
X139759183Y-66752517D01*
X140132476Y-67124153D01*
X140619573Y-67324647D01*
X140830000Y-67211578D01*
X140830000Y-66050000D01*
X140930000Y-66050000D01*
X140930000Y-67211578D01*
X141140427Y-67324647D01*
X141627524Y-67124153D01*
X142000817Y-66752517D01*
X142203476Y-66266317D01*
X142204643Y-66260426D01*
X142091469Y-66050000D01*
X140930000Y-66050000D01*
X140830000Y-66050000D01*
X139668531Y-66050000D01*
X139555357Y-66260426D01*
X138879521Y-66260426D01*
X139663921Y-65476026D01*
X139556524Y-65733683D01*
X139555357Y-65739574D01*
X139668531Y-65950000D01*
X140830000Y-65950000D01*
X140830000Y-65930000D01*
X140930000Y-65930000D01*
X140930000Y-65950000D01*
X142091469Y-65950000D01*
X142204643Y-65739574D01*
X142203476Y-65733683D01*
X142085230Y-65449999D01*
X146960051Y-65449999D01*
X147253342Y-65743291D01*
X147250000Y-65751360D01*
X147250000Y-66248640D01*
X147440301Y-66708068D01*
X147791932Y-67059699D01*
X148251360Y-67250000D01*
X148748640Y-67250000D01*
X149208068Y-67059699D01*
X149559699Y-66708068D01*
X149750000Y-66248640D01*
X149750000Y-65751360D01*
X149559699Y-65291932D01*
X149208068Y-64940301D01*
X148748640Y-64750000D01*
X148251360Y-64750000D01*
X148243291Y-64753342D01*
X147793723Y-64303775D01*
X147754670Y-64245328D01*
X147686832Y-64200000D01*
X148560054Y-64200000D01*
X149830281Y-65470229D01*
X149869331Y-65528671D01*
X149927773Y-65567721D01*
X149927774Y-65567722D01*
X150030997Y-65636693D01*
X150100876Y-65683385D01*
X150305062Y-65724000D01*
X150305066Y-65724000D01*
X150374001Y-65737712D01*
X150442936Y-65724000D01*
X156174052Y-65724000D01*
X157924000Y-67473950D01*
X157924000Y-67778825D01*
X158088421Y-68175771D01*
X158392229Y-68479579D01*
X158789175Y-68644000D01*
X159094052Y-68644000D01*
X160464000Y-70013950D01*
X160464000Y-70318825D01*
X160628421Y-70715771D01*
X160932229Y-71019579D01*
X161329175Y-71184000D01*
X161758825Y-71184000D01*
X162155771Y-71019579D01*
X162459579Y-70715771D01*
X162624000Y-70318825D01*
X162624000Y-70141949D01*
X165197513Y-72715461D01*
X165170630Y-72742344D01*
X164924000Y-73337762D01*
X164924000Y-73982238D01*
X165170630Y-74577656D01*
X165626344Y-75033370D01*
X165844000Y-75123526D01*
X165844001Y-84726050D01*
X162606064Y-87963987D01*
X162674488Y-87620000D01*
X162627280Y-87382669D01*
X163146226Y-86863723D01*
X163204671Y-86824671D01*
X163349019Y-86608640D01*
X163359385Y-86593127D01*
X163382921Y-86474801D01*
X163400000Y-86388940D01*
X163400000Y-86388937D01*
X163413712Y-86320000D01*
X163400000Y-86251064D01*
X163400000Y-78848304D01*
X163413712Y-78779369D01*
X163400000Y-78710434D01*
X163400000Y-78710430D01*
X163359385Y-78506244D01*
X163309024Y-78430874D01*
X163243722Y-78333142D01*
X163243718Y-78333138D01*
X163204670Y-78274699D01*
X163146231Y-78235651D01*
X162752000Y-77841421D01*
X162752000Y-77743636D01*
X162953199Y-77609199D01*
X163087636Y-77408000D01*
X163528959Y-77408000D01*
X163532301Y-77416068D01*
X163883932Y-77767699D01*
X164343360Y-77958000D01*
X164840640Y-77958000D01*
X165300068Y-77767699D01*
X165651699Y-77416068D01*
X165842000Y-76956640D01*
X165842000Y-76459360D01*
X165651699Y-75999932D01*
X165300068Y-75648301D01*
X164840640Y-75458000D01*
X164343360Y-75458000D01*
X163883932Y-75648301D01*
X163532301Y-75999932D01*
X163528959Y-76008000D01*
X163087636Y-76008000D01*
X162953199Y-75806801D01*
X162539725Y-75530527D01*
X162175109Y-75458000D01*
X161928891Y-75458000D01*
X161571115Y-75529166D01*
X161321948Y-75280000D01*
X161866238Y-75280000D01*
X162461656Y-75033370D01*
X162917370Y-74577656D01*
X163164000Y-73982238D01*
X163164000Y-73337762D01*
X162917370Y-72742344D01*
X162461656Y-72286630D01*
X161866238Y-72040000D01*
X161221762Y-72040000D01*
X160626344Y-72286630D01*
X160170630Y-72742344D01*
X159924000Y-73337762D01*
X159924000Y-73982238D01*
X160170630Y-74577656D01*
X160172975Y-74580001D01*
X157915025Y-74580001D01*
X157917370Y-74577656D01*
X158164000Y-73982238D01*
X158164000Y-73337762D01*
X157917370Y-72742344D01*
X157461656Y-72286630D01*
X156866238Y-72040000D01*
X156221762Y-72040000D01*
X155626344Y-72286630D01*
X155170630Y-72742344D01*
X154924000Y-73337762D01*
X154924000Y-73982238D01*
X154974779Y-74104829D01*
X151576000Y-70706052D01*
X151576000Y-70202403D01*
X151708068Y-70147699D01*
X152059699Y-69796068D01*
X152250000Y-69336640D01*
X152250000Y-68839360D01*
X152059699Y-68379932D01*
X151708068Y-68028301D01*
X151248640Y-67838000D01*
X150751360Y-67838000D01*
X150291932Y-68028301D01*
X150020233Y-68300000D01*
X149563041Y-68300000D01*
X149559699Y-68291932D01*
X149208068Y-67940301D01*
X148748640Y-67750000D01*
X148251360Y-67750000D01*
X147791932Y-67940301D01*
X147440301Y-68291932D01*
X147250000Y-68751360D01*
X147250000Y-69248640D01*
X147440301Y-69708068D01*
X147791932Y-70059699D01*
X148251360Y-70250000D01*
X148748640Y-70250000D01*
X149208068Y-70059699D01*
X149559699Y-69708068D01*
X149563041Y-69700000D01*
X149900508Y-69700000D01*
X149940301Y-69796068D01*
X150176000Y-70031767D01*
X150176001Y-70927060D01*
X150162288Y-70996000D01*
X150176001Y-71064940D01*
X150216616Y-71269126D01*
X150371330Y-71500671D01*
X150429774Y-71539722D01*
X154420050Y-75530000D01*
X153428979Y-75530000D01*
X153423891Y-75504419D01*
X153324432Y-75355568D01*
X153175581Y-75256109D01*
X153000000Y-75221184D01*
X151200000Y-75221184D01*
X151024419Y-75256109D01*
X150875568Y-75355568D01*
X150776109Y-75504419D01*
X150741184Y-75680000D01*
X150741184Y-76780000D01*
X150776109Y-76955581D01*
X150875568Y-77104432D01*
X151024419Y-77203891D01*
X151200000Y-77238816D01*
X152811184Y-77238816D01*
X152811184Y-77775000D01*
X152811873Y-77778464D01*
X152725000Y-77761184D01*
X151475000Y-77761184D01*
X151194181Y-77817042D01*
X150956114Y-77976114D01*
X150797042Y-78214181D01*
X150741184Y-78495000D01*
X150741184Y-79045000D01*
X150797042Y-79325819D01*
X150956114Y-79563886D01*
X151194181Y-79722958D01*
X151475000Y-79778816D01*
X151800001Y-79778816D01*
X151800001Y-79886050D01*
X150648868Y-81037184D01*
X149580000Y-81037184D01*
X149404419Y-81072109D01*
X149255568Y-81171568D01*
X149156109Y-81320419D01*
X149121184Y-81496000D01*
X149121184Y-83096000D01*
X149156109Y-83271581D01*
X149255568Y-83420432D01*
X149404419Y-83519891D01*
X149580000Y-83554816D01*
X151180000Y-83554816D01*
X151355581Y-83519891D01*
X151504432Y-83420432D01*
X151603891Y-83271581D01*
X151638816Y-83096000D01*
X151638816Y-82296000D01*
X156725512Y-82296000D01*
X156822527Y-82783725D01*
X157098801Y-83197199D01*
X157512275Y-83473473D01*
X157876891Y-83546000D01*
X158123109Y-83546000D01*
X158487725Y-83473473D01*
X158901199Y-83197199D01*
X159177473Y-82783725D01*
X159274488Y-82296000D01*
X159177473Y-81808275D01*
X158901199Y-81394801D01*
X158487725Y-81118527D01*
X158123109Y-81046000D01*
X157876891Y-81046000D01*
X157512275Y-81118527D01*
X157098801Y-81394801D01*
X156822527Y-81808275D01*
X156725512Y-82296000D01*
X151638816Y-82296000D01*
X151638816Y-82027132D01*
X152946226Y-80719723D01*
X153004671Y-80680671D01*
X153081730Y-80565345D01*
X153159385Y-80449127D01*
X153187854Y-80306001D01*
X153200000Y-80244940D01*
X153200000Y-80244937D01*
X153213712Y-80176000D01*
X153200000Y-80107064D01*
X153200000Y-79593210D01*
X153243886Y-79563886D01*
X153402958Y-79325819D01*
X153458816Y-79045000D01*
X153458816Y-78495000D01*
X153458127Y-78491536D01*
X153545000Y-78508816D01*
X154795000Y-78508816D01*
X155075819Y-78452958D01*
X155313886Y-78293886D01*
X155472958Y-78055819D01*
X155528816Y-77775000D01*
X155528816Y-77225000D01*
X155472958Y-76944181D01*
X155463483Y-76930000D01*
X157612682Y-76930000D01*
X157836907Y-77154226D01*
X157875959Y-77212671D01*
X158107504Y-77367385D01*
X158311690Y-77408000D01*
X158311694Y-77408000D01*
X158380629Y-77421712D01*
X158449005Y-77408111D01*
X158452301Y-77416068D01*
X158803932Y-77767699D01*
X159263360Y-77958000D01*
X159264052Y-77958000D01*
X160047235Y-78741184D01*
X159800000Y-78741184D01*
X159624419Y-78776109D01*
X159475568Y-78875568D01*
X159376109Y-79024419D01*
X159341184Y-79200000D01*
X159341184Y-80800000D01*
X159376109Y-80975581D01*
X159475568Y-81124432D01*
X159624419Y-81223891D01*
X159800000Y-81258816D01*
X162000000Y-81258816D01*
X162000000Y-81437547D01*
X161887725Y-81362527D01*
X161523109Y-81290000D01*
X160476891Y-81290000D01*
X160112275Y-81362527D01*
X159698801Y-81638801D01*
X159422527Y-82052275D01*
X159325512Y-82540000D01*
X159422527Y-83027725D01*
X159698801Y-83441199D01*
X160112275Y-83717473D01*
X160476891Y-83790000D01*
X161523109Y-83790000D01*
X161887725Y-83717473D01*
X162000001Y-83642453D01*
X162000001Y-83977547D01*
X161887725Y-83902527D01*
X161523109Y-83830000D01*
X160476891Y-83830000D01*
X160112275Y-83902527D01*
X159698801Y-84178801D01*
X159566308Y-84377091D01*
X159511999Y-84366288D01*
X159443064Y-84380000D01*
X159443060Y-84380000D01*
X159238874Y-84420615D01*
X159007329Y-84575329D01*
X158968275Y-84633777D01*
X158791776Y-84810276D01*
X158738816Y-84845663D01*
X158738816Y-84036000D01*
X158703891Y-83860419D01*
X158604432Y-83711568D01*
X158455581Y-83612109D01*
X158280000Y-83577184D01*
X156680000Y-83577184D01*
X156504419Y-83612109D01*
X156355568Y-83711568D01*
X156256109Y-83860419D01*
X156221184Y-84036000D01*
X156221184Y-85636000D01*
X156256109Y-85811581D01*
X156355568Y-85960432D01*
X156504419Y-86059891D01*
X156680000Y-86094816D01*
X158280000Y-86094816D01*
X158455581Y-86059891D01*
X158538002Y-86004819D01*
X158538001Y-91789473D01*
X158381199Y-91554801D01*
X157967725Y-91278527D01*
X157603109Y-91206000D01*
X157356891Y-91206000D01*
X156992275Y-91278527D01*
X156578801Y-91554801D01*
X156444364Y-91756000D01*
X155530619Y-91756000D01*
X155467886Y-91662114D01*
X155229819Y-91503042D01*
X154949000Y-91447184D01*
X153699000Y-91447184D01*
X153612816Y-91464327D01*
X153612816Y-90636000D01*
X153577891Y-90460419D01*
X153478432Y-90311568D01*
X153329581Y-90212109D01*
X153154000Y-90177184D01*
X151354000Y-90177184D01*
X151178419Y-90212109D01*
X151029568Y-90311568D01*
X150930109Y-90460419D01*
X150895184Y-90636000D01*
X150895184Y-90977236D01*
X150046858Y-90128909D01*
X150059699Y-90116068D01*
X150250000Y-89656640D01*
X150250000Y-89159360D01*
X150059699Y-88699932D01*
X149708068Y-88348301D01*
X149248640Y-88158000D01*
X148751360Y-88158000D01*
X148291932Y-88348301D01*
X147940301Y-88699932D01*
X147750000Y-89159360D01*
X147750000Y-89656640D01*
X147940301Y-90116068D01*
X148291932Y-90467699D01*
X148486233Y-90548181D01*
X151014004Y-93075952D01*
X150951042Y-93170181D01*
X150895184Y-93451000D01*
X150895184Y-94001000D01*
X150951042Y-94281819D01*
X151110114Y-94519886D01*
X151348181Y-94678958D01*
X151629000Y-94734816D01*
X152879000Y-94734816D01*
X153159819Y-94678958D01*
X153224001Y-94636073D01*
X153224001Y-95722049D01*
X150969124Y-97976927D01*
X150706151Y-97868000D01*
X150029849Y-97868000D01*
X149908507Y-97918261D01*
X150177473Y-97515725D01*
X150274488Y-97028000D01*
X150177473Y-96540275D01*
X149901199Y-96126801D01*
X149487725Y-95850527D01*
X149123109Y-95778000D01*
X148876891Y-95778000D01*
X148512275Y-95850527D01*
X148098801Y-96126801D01*
X147822527Y-96540275D01*
X147725512Y-97028000D01*
X147810050Y-97453000D01*
X146509620Y-98753431D01*
X146179714Y-98423525D01*
X145683532Y-98218000D01*
X145146468Y-98218000D01*
X144650286Y-98423525D01*
X144325000Y-98748811D01*
X144325000Y-98558598D01*
X144241268Y-98356450D01*
X144086550Y-98201733D01*
X143884402Y-98118000D01*
X143062500Y-98118000D01*
X142925000Y-98255500D01*
X142925000Y-99518000D01*
X142945000Y-99518000D01*
X142945000Y-99618000D01*
X142925000Y-99618000D01*
X142925000Y-100880500D01*
X143062500Y-101018000D01*
X143884402Y-101018000D01*
X144086550Y-100934267D01*
X144241268Y-100779550D01*
X144325000Y-100577402D01*
X144325000Y-100387189D01*
X144650286Y-100712475D01*
X145146468Y-100918000D01*
X145683532Y-100918000D01*
X146179714Y-100712475D01*
X146559475Y-100332714D01*
X146586280Y-100268000D01*
X146616065Y-100268000D01*
X146685000Y-100281712D01*
X146753935Y-100268000D01*
X146753940Y-100268000D01*
X146958126Y-100227385D01*
X147189671Y-100072671D01*
X147228724Y-100014224D01*
X148964950Y-98278000D01*
X149123109Y-98278000D01*
X149286297Y-98245540D01*
X148926810Y-98605027D01*
X148668000Y-99229849D01*
X148668000Y-99906151D01*
X148926810Y-100530973D01*
X149405027Y-101009190D01*
X150029849Y-101268000D01*
X150706151Y-101268000D01*
X151330973Y-101009190D01*
X151809190Y-100530973D01*
X152068000Y-99906151D01*
X152068000Y-99229849D01*
X151959073Y-98966876D01*
X152215184Y-98710765D01*
X152215184Y-100818000D01*
X152250109Y-100993581D01*
X152349568Y-101142432D01*
X152498419Y-101241891D01*
X152674000Y-101276816D01*
X155174000Y-101276816D01*
X155349581Y-101241891D01*
X155498432Y-101142432D01*
X155597891Y-100993581D01*
X155632816Y-100818000D01*
X155632816Y-100803335D01*
X156569375Y-100803335D01*
X156696109Y-101081598D01*
X157354343Y-101363566D01*
X158070376Y-101372175D01*
X158735199Y-101106115D01*
X158771891Y-101081598D01*
X158898625Y-100803335D01*
X157734000Y-99638711D01*
X156569375Y-100803335D01*
X155632816Y-100803335D01*
X155632816Y-99904376D01*
X155929825Y-99904376D01*
X156195885Y-100569199D01*
X156220402Y-100605891D01*
X156498665Y-100732625D01*
X157663289Y-99568000D01*
X157804711Y-99568000D01*
X158969335Y-100732625D01*
X159247598Y-100605891D01*
X159529566Y-99947657D01*
X159538175Y-99231624D01*
X159272115Y-98566801D01*
X159247598Y-98530109D01*
X158969335Y-98403375D01*
X157804711Y-99568000D01*
X157663289Y-99568000D01*
X156498665Y-98403375D01*
X156220402Y-98530109D01*
X155938434Y-99188343D01*
X155929825Y-99904376D01*
X155632816Y-99904376D01*
X155632816Y-98332665D01*
X156569375Y-98332665D01*
X157734000Y-99497289D01*
X158898625Y-98332665D01*
X158771891Y-98054402D01*
X158739266Y-98040426D01*
X159275357Y-98040426D01*
X159333628Y-98250428D01*
X159610050Y-98699238D01*
X160037183Y-99008103D01*
X160550000Y-99130000D01*
X160950000Y-99130000D01*
X160950000Y-97830000D01*
X161050000Y-97830000D01*
X161050000Y-99130000D01*
X161450000Y-99130000D01*
X161962817Y-99008103D01*
X162389950Y-98699238D01*
X162666372Y-98250428D01*
X162724643Y-98040426D01*
X166895357Y-98040426D01*
X166953628Y-98250428D01*
X167230050Y-98699238D01*
X167657183Y-99008103D01*
X168170000Y-99130000D01*
X168570000Y-99130000D01*
X168570000Y-97830000D01*
X168670000Y-97830000D01*
X168670000Y-99130000D01*
X169070000Y-99130000D01*
X169582817Y-99008103D01*
X170009950Y-98699238D01*
X170286372Y-98250428D01*
X170344643Y-98040426D01*
X170231469Y-97830000D01*
X168670000Y-97830000D01*
X168570000Y-97830000D01*
X167008531Y-97830000D01*
X166895357Y-98040426D01*
X162724643Y-98040426D01*
X162611469Y-97830000D01*
X161050000Y-97830000D01*
X160950000Y-97830000D01*
X159388531Y-97830000D01*
X159275357Y-98040426D01*
X158739266Y-98040426D01*
X158113657Y-97772434D01*
X157397624Y-97763825D01*
X156732801Y-98029885D01*
X156696109Y-98054402D01*
X156569375Y-98332665D01*
X155632816Y-98332665D01*
X155632816Y-98318000D01*
X155597891Y-98142419D01*
X155498432Y-97993568D01*
X155349581Y-97894109D01*
X155174000Y-97859184D01*
X153066765Y-97859184D01*
X154370229Y-96555721D01*
X154428671Y-96516671D01*
X154496484Y-96415183D01*
X154534508Y-96358275D01*
X154739932Y-96563699D01*
X155199360Y-96754000D01*
X155696640Y-96754000D01*
X156156068Y-96563699D01*
X156507699Y-96212068D01*
X156698000Y-95752640D01*
X156698000Y-95255360D01*
X156507699Y-94795932D01*
X156156068Y-94444301D01*
X155696640Y-94254000D01*
X155199360Y-94254000D01*
X154739932Y-94444301D01*
X154624000Y-94560233D01*
X154624000Y-93464816D01*
X154949000Y-93464816D01*
X155229819Y-93408958D01*
X155467886Y-93249886D01*
X155530619Y-93156000D01*
X156444364Y-93156000D01*
X156578801Y-93357199D01*
X156992275Y-93633473D01*
X157356891Y-93706000D01*
X157603109Y-93706000D01*
X157967725Y-93633473D01*
X158381199Y-93357199D01*
X158538001Y-93122528D01*
X158538001Y-93964049D01*
X158225331Y-94276720D01*
X158111109Y-94254000D01*
X157864891Y-94254000D01*
X157500275Y-94326527D01*
X157086801Y-94602801D01*
X156810527Y-95016275D01*
X156713512Y-95504000D01*
X156810527Y-95991725D01*
X157086801Y-96405199D01*
X157500275Y-96681473D01*
X157864891Y-96754000D01*
X158111109Y-96754000D01*
X158475725Y-96681473D01*
X158889199Y-96405199D01*
X159165473Y-95991725D01*
X159262488Y-95504000D01*
X159261778Y-95500426D01*
X159275357Y-95500426D01*
X159333628Y-95710428D01*
X159610050Y-96159238D01*
X160037183Y-96468103D01*
X160213442Y-96510000D01*
X160037183Y-96551897D01*
X159610050Y-96860762D01*
X159333628Y-97309572D01*
X159275357Y-97519574D01*
X159388531Y-97730000D01*
X160950000Y-97730000D01*
X160950000Y-95290000D01*
X161050000Y-95290000D01*
X161050000Y-97730000D01*
X162611469Y-97730000D01*
X162724643Y-97519574D01*
X162666372Y-97309572D01*
X162389950Y-96860762D01*
X161962817Y-96551897D01*
X161786558Y-96510000D01*
X161962817Y-96468103D01*
X162389950Y-96159238D01*
X162666372Y-95710428D01*
X162724643Y-95500426D01*
X166895357Y-95500426D01*
X166953628Y-95710428D01*
X167230050Y-96159238D01*
X167657183Y-96468103D01*
X167833442Y-96510000D01*
X167657183Y-96551897D01*
X167230050Y-96860762D01*
X166953628Y-97309572D01*
X166895357Y-97519574D01*
X167008531Y-97730000D01*
X168570000Y-97730000D01*
X168570000Y-95290000D01*
X168670000Y-95290000D01*
X168670000Y-97730000D01*
X170231469Y-97730000D01*
X170344643Y-97519574D01*
X170286372Y-97309572D01*
X170009950Y-96860762D01*
X169582817Y-96551897D01*
X169406558Y-96510000D01*
X169582817Y-96468103D01*
X170009950Y-96159238D01*
X170286372Y-95710428D01*
X170344643Y-95500426D01*
X170231469Y-95290000D01*
X168670000Y-95290000D01*
X168570000Y-95290000D01*
X167008531Y-95290000D01*
X166895357Y-95500426D01*
X162724643Y-95500426D01*
X162611469Y-95290000D01*
X161050000Y-95290000D01*
X160950000Y-95290000D01*
X159388531Y-95290000D01*
X159275357Y-95500426D01*
X159261778Y-95500426D01*
X159215280Y-95266669D01*
X159354753Y-95127196D01*
X159388531Y-95190000D01*
X160950000Y-95190000D01*
X160950000Y-92750000D01*
X161050000Y-92750000D01*
X161050000Y-95190000D01*
X162611469Y-95190000D01*
X162724643Y-94979574D01*
X166895357Y-94979574D01*
X167008531Y-95190000D01*
X168570000Y-95190000D01*
X168570000Y-95170000D01*
X168670000Y-95170000D01*
X168670000Y-95190000D01*
X170231469Y-95190000D01*
X170344643Y-94979574D01*
X170286372Y-94769572D01*
X170009950Y-94320762D01*
X169582817Y-94011897D01*
X169240728Y-93930582D01*
X169507725Y-93877473D01*
X169921199Y-93601199D01*
X170197473Y-93187725D01*
X170294488Y-92700000D01*
X170197473Y-92212275D01*
X169921199Y-91798801D01*
X169507725Y-91522527D01*
X169143109Y-91450000D01*
X168096891Y-91450000D01*
X167732275Y-91522527D01*
X167318801Y-91798801D01*
X167042527Y-92212275D01*
X166945512Y-92700000D01*
X167042527Y-93187725D01*
X167318801Y-93601199D01*
X167732275Y-93877473D01*
X167999272Y-93930582D01*
X167657183Y-94011897D01*
X167230050Y-94320762D01*
X166953628Y-94769572D01*
X166895357Y-94979574D01*
X162724643Y-94979574D01*
X162666372Y-94769572D01*
X162389950Y-94320762D01*
X161962817Y-94011897D01*
X161786558Y-93970000D01*
X161962817Y-93928103D01*
X162389950Y-93619238D01*
X162666372Y-93170428D01*
X162724643Y-92960426D01*
X162611469Y-92750000D01*
X161050000Y-92750000D01*
X160950000Y-92750000D01*
X160930000Y-92750000D01*
X160930000Y-92650000D01*
X160950000Y-92650000D01*
X160950000Y-92630000D01*
X161050000Y-92630000D01*
X161050000Y-92650000D01*
X162611469Y-92650000D01*
X162724643Y-92439574D01*
X162666372Y-92229572D01*
X162389950Y-91780762D01*
X161962817Y-91471897D01*
X161620728Y-91390582D01*
X161887725Y-91337473D01*
X162301199Y-91061199D01*
X162577473Y-90647725D01*
X162674488Y-90160000D01*
X162627280Y-89922669D01*
X164929949Y-87620000D01*
X166945512Y-87620000D01*
X167042527Y-88107725D01*
X167318801Y-88521199D01*
X167732275Y-88797473D01*
X167920000Y-88834814D01*
X167920001Y-88945186D01*
X167732275Y-88982527D01*
X167318801Y-89258801D01*
X167042527Y-89672275D01*
X166945512Y-90160000D01*
X167042527Y-90647725D01*
X167318801Y-91061199D01*
X167732275Y-91337473D01*
X168096891Y-91410000D01*
X169143109Y-91410000D01*
X169507725Y-91337473D01*
X169921199Y-91061199D01*
X170197473Y-90647725D01*
X170294488Y-90160000D01*
X170197473Y-89672275D01*
X169921199Y-89258801D01*
X169507725Y-88982527D01*
X169320000Y-88945186D01*
X169320000Y-88834814D01*
X169507725Y-88797473D01*
X169921199Y-88521199D01*
X170197473Y-88107725D01*
X170294488Y-87620000D01*
X170197473Y-87132275D01*
X169921199Y-86718801D01*
X169507725Y-86442527D01*
X169143109Y-86370000D01*
X168096891Y-86370000D01*
X167732275Y-86442527D01*
X167318801Y-86718801D01*
X167042527Y-87132275D01*
X166945512Y-87620000D01*
X164929949Y-87620000D01*
X166990226Y-85559723D01*
X167034986Y-85529815D01*
X167042527Y-85567725D01*
X167318801Y-85981199D01*
X167732275Y-86257473D01*
X168096891Y-86330000D01*
X169143109Y-86330000D01*
X169507725Y-86257473D01*
X169921199Y-85981199D01*
X170197473Y-85567725D01*
X170294488Y-85080000D01*
X170197473Y-84592275D01*
X169921199Y-84178801D01*
X169507725Y-83902527D01*
X169143109Y-83830000D01*
X168096891Y-83830000D01*
X167732275Y-83902527D01*
X167318801Y-84178801D01*
X167244000Y-84290749D01*
X167244000Y-83329251D01*
X167318801Y-83441199D01*
X167732275Y-83717473D01*
X168096891Y-83790000D01*
X169143109Y-83790000D01*
X169507725Y-83717473D01*
X169921199Y-83441199D01*
X170197473Y-83027725D01*
X170294488Y-82540000D01*
X170197473Y-82052275D01*
X169921199Y-81638801D01*
X169507725Y-81362527D01*
X169240728Y-81309418D01*
X169582817Y-81228103D01*
X170009950Y-80919238D01*
X170286372Y-80470428D01*
X170344643Y-80260426D01*
X170231469Y-80050000D01*
X168670000Y-80050000D01*
X168670000Y-80070000D01*
X168570000Y-80070000D01*
X168570000Y-80050000D01*
X168550000Y-80050000D01*
X168550000Y-79950000D01*
X168570000Y-79950000D01*
X168570000Y-78650000D01*
X168670000Y-78650000D01*
X168670000Y-79950000D01*
X170231469Y-79950000D01*
X170344643Y-79739574D01*
X170286372Y-79529572D01*
X170009950Y-79080762D01*
X169582817Y-78771897D01*
X169070000Y-78650000D01*
X168670000Y-78650000D01*
X168570000Y-78650000D01*
X168170000Y-78650000D01*
X167657183Y-78771897D01*
X167244000Y-79070675D01*
X167244000Y-75123526D01*
X167461656Y-75033370D01*
X167917370Y-74577656D01*
X168164000Y-73982238D01*
X168164000Y-73337762D01*
X167917370Y-72742344D01*
X167461656Y-72286630D01*
X166866238Y-72040000D01*
X166501949Y-72040000D01*
X162725949Y-68264000D01*
X163256650Y-68264000D01*
X163472229Y-68479579D01*
X163869175Y-68644000D01*
X164298825Y-68644000D01*
X164695771Y-68479579D01*
X164999579Y-68175771D01*
X165164000Y-67778825D01*
X165164000Y-67349175D01*
X164999579Y-66952229D01*
X164695771Y-66648421D01*
X164298825Y-66484000D01*
X163869175Y-66484000D01*
X163472229Y-66648421D01*
X163256650Y-66864000D01*
X162849950Y-66864000D01*
X159704000Y-63718052D01*
X159704000Y-57371577D01*
X160094000Y-57371577D01*
X160094000Y-57948423D01*
X160314750Y-58481359D01*
X160722641Y-58889250D01*
X161255577Y-59110000D01*
X161832423Y-59110000D01*
X162365359Y-58889250D01*
X162773250Y-58481359D01*
X162994000Y-57948423D01*
X162994000Y-57371577D01*
X162773250Y-56838641D01*
X162365359Y-56430750D01*
X161832423Y-56210000D01*
X161255577Y-56210000D01*
X160722641Y-56430750D01*
X160314750Y-56838641D01*
X160094000Y-57371577D01*
X159704000Y-57371577D01*
X159704000Y-47785948D01*
X161743291Y-45746658D01*
X161751360Y-45750000D01*
X162248640Y-45750000D01*
X162708068Y-45559699D01*
X163059699Y-45208068D01*
X163250000Y-44748640D01*
X163250000Y-44251360D01*
X163059699Y-43791932D01*
X162708068Y-43440301D01*
X162248640Y-43250000D01*
X161751360Y-43250000D01*
X161291932Y-43440301D01*
X160940301Y-43791932D01*
X160750000Y-44251360D01*
X160750000Y-44748640D01*
X160753342Y-44756709D01*
X158557774Y-46952278D01*
X158499330Y-46991329D01*
X158460278Y-47049774D01*
X158344616Y-47222874D01*
X158290288Y-47496000D01*
X158304001Y-47564940D01*
X158304000Y-63842052D01*
X155483725Y-61021777D01*
X155444671Y-60963329D01*
X155213126Y-60808615D01*
X155008940Y-60768000D01*
X155008935Y-60768000D01*
X154940000Y-60754288D01*
X154871065Y-60768000D01*
X152035636Y-60768000D01*
X151901199Y-60566801D01*
X151487725Y-60290527D01*
X151123109Y-60218000D01*
X150876891Y-60218000D01*
X150762669Y-60240720D01*
X149184764Y-58662816D01*
X150660000Y-58662816D01*
X150835581Y-58627891D01*
X150984432Y-58528432D01*
X151083891Y-58379581D01*
X151118816Y-58204000D01*
X151118816Y-56604000D01*
X151083891Y-56428419D01*
X150984432Y-56279568D01*
X150835581Y-56180109D01*
X150660000Y-56145184D01*
X150391375Y-56145184D01*
X150621349Y-56050716D01*
X150628071Y-56046224D01*
X150700000Y-55814710D01*
X149860000Y-54974711D01*
X149020000Y-55814710D01*
X149091929Y-56046224D01*
X149328868Y-56145184D01*
X149060000Y-56145184D01*
X148884419Y-56180109D01*
X148735568Y-56279568D01*
X148636109Y-56428419D01*
X148601184Y-56604000D01*
X148601184Y-58079236D01*
X147735724Y-57213776D01*
X147696671Y-57155329D01*
X147465126Y-57000615D01*
X147260940Y-56960000D01*
X147260935Y-56960000D01*
X147192000Y-56946288D01*
X147123065Y-56960000D01*
X145304374Y-56960000D01*
X145280150Y-56901517D01*
X144903483Y-56524850D01*
X144577925Y-56390000D01*
X144903483Y-56255150D01*
X145280150Y-55878483D01*
X145484000Y-55386344D01*
X145484000Y-55168565D01*
X148509217Y-55168565D01*
X148713284Y-55665349D01*
X148717776Y-55672071D01*
X148949290Y-55744000D01*
X149789289Y-54904000D01*
X149930711Y-54904000D01*
X150770710Y-55744000D01*
X151002224Y-55672071D01*
X151209206Y-55176496D01*
X151210783Y-54639435D01*
X151006716Y-54142651D01*
X151002224Y-54135929D01*
X150770710Y-54064000D01*
X149930711Y-54904000D01*
X149789289Y-54904000D01*
X148949290Y-54064000D01*
X148717776Y-54135929D01*
X148510794Y-54631504D01*
X148509217Y-55168565D01*
X145484000Y-55168565D01*
X145484000Y-54931001D01*
X146075326Y-54931001D01*
X146144261Y-54944713D01*
X146213196Y-54931001D01*
X146213201Y-54931001D01*
X146417387Y-54890386D01*
X146648932Y-54735672D01*
X146687986Y-54677224D01*
X147371920Y-53993290D01*
X149020000Y-53993290D01*
X149860000Y-54833289D01*
X150700000Y-53993290D01*
X150628071Y-53761776D01*
X150132496Y-53554794D01*
X149595435Y-53553217D01*
X149098651Y-53757284D01*
X149091929Y-53761776D01*
X149020000Y-53993290D01*
X147371920Y-53993290D01*
X150241184Y-51124027D01*
X150241184Y-52300000D01*
X150276109Y-52475581D01*
X150375568Y-52624432D01*
X150524419Y-52723891D01*
X150700000Y-52758816D01*
X152300000Y-52758816D01*
X152475581Y-52723891D01*
X152624432Y-52624432D01*
X152723891Y-52475581D01*
X152758816Y-52300000D01*
X152758816Y-50700000D01*
X152723891Y-50524419D01*
X152624432Y-50375568D01*
X152475581Y-50276109D01*
X152300000Y-50241184D01*
X151124027Y-50241184D01*
X153165211Y-48200000D01*
X153344364Y-48200000D01*
X153478801Y-48401199D01*
X153892275Y-48677473D01*
X154256891Y-48750000D01*
X154503109Y-48750000D01*
X154867725Y-48677473D01*
X155281199Y-48401199D01*
X155557473Y-47987725D01*
X155654488Y-47500000D01*
X155557473Y-47012275D01*
X155281199Y-46598801D01*
X154867725Y-46322527D01*
X154503109Y-46250000D01*
X154256891Y-46250000D01*
X153892275Y-46322527D01*
X153478801Y-46598801D01*
X153344364Y-46800000D01*
X152944197Y-46800000D01*
X152875262Y-46786288D01*
X152806327Y-46800000D01*
X152806322Y-46800000D01*
X152602136Y-46840615D01*
X152370591Y-46995329D01*
X152331539Y-47053774D01*
X146445060Y-52940254D01*
X146445060Y-52107640D01*
X146307560Y-51970140D01*
X144195000Y-51970140D01*
X144195000Y-51990140D01*
X144095000Y-51990140D01*
X144095000Y-51970140D01*
X141982440Y-51970140D01*
X141844940Y-52107640D01*
X141844940Y-53779602D01*
X141928673Y-53981750D01*
X142083390Y-54136468D01*
X142285538Y-54220200D01*
X143151167Y-54220200D01*
X143009850Y-54361517D01*
X142806000Y-54853656D01*
X142806000Y-55386344D01*
X143009850Y-55878483D01*
X143386517Y-56255150D01*
X143712075Y-56390000D01*
X143386517Y-56524850D01*
X143009850Y-56901517D01*
X142806000Y-57393656D01*
X142806000Y-57926344D01*
X143009850Y-58418483D01*
X143386517Y-58795150D01*
X143712075Y-58930000D01*
X143386517Y-59064850D01*
X143009850Y-59441517D01*
X142806000Y-59933656D01*
X142806000Y-60466344D01*
X143009850Y-60958483D01*
X143386517Y-61335150D01*
X143878656Y-61539000D01*
X144411344Y-61539000D01*
X144903483Y-61335150D01*
X145280150Y-60958483D01*
X145484000Y-60466344D01*
X145484000Y-59933656D01*
X145280150Y-59441517D01*
X144903483Y-59064850D01*
X144577925Y-58930000D01*
X144903483Y-58795150D01*
X145280150Y-58418483D01*
X145304374Y-58360000D01*
X146902052Y-58360000D01*
X149772720Y-61230669D01*
X149725512Y-61468000D01*
X149822527Y-61955725D01*
X150098801Y-62369199D01*
X150512275Y-62645473D01*
X150876891Y-62718000D01*
X151123109Y-62718000D01*
X151487725Y-62645473D01*
X151901199Y-62369199D01*
X152035636Y-62168000D01*
X154650052Y-62168000D01*
X158966052Y-66484000D01*
X158913950Y-66484000D01*
X157007724Y-64577776D01*
X156968671Y-64519329D01*
X156737126Y-64364615D01*
X156532940Y-64324000D01*
X156532935Y-64324000D01*
X156464000Y-64310288D01*
X156395065Y-64324000D01*
X150663952Y-64324000D01*
X149393726Y-63053776D01*
X149354673Y-62995329D01*
X149123128Y-62840615D01*
X148918942Y-62800000D01*
X148918937Y-62800000D01*
X148850002Y-62786288D01*
X148781067Y-62800000D01*
X138700000Y-62800000D01*
X138700000Y-61415636D01*
X138901199Y-61281199D01*
X139177473Y-60867725D01*
X139274488Y-60380000D01*
X139177473Y-59892275D01*
X138901199Y-59478801D01*
X138700000Y-59344364D01*
X138700000Y-59012948D01*
X138923132Y-58789816D01*
X139484000Y-58789816D01*
X139659581Y-58754891D01*
X139808432Y-58655432D01*
X139907891Y-58506581D01*
X139942816Y-58331000D01*
X139942816Y-56731000D01*
X139907891Y-56555419D01*
X139808432Y-56406568D01*
X139659581Y-56307109D01*
X139484000Y-56272184D01*
X139215375Y-56272184D01*
X139445349Y-56177716D01*
X139452071Y-56173224D01*
X139524000Y-55941710D01*
X138684000Y-55101711D01*
X137844000Y-55941710D01*
X137915929Y-56173224D01*
X138152868Y-56272184D01*
X137884000Y-56272184D01*
X137708419Y-56307109D01*
X137559568Y-56406568D01*
X137460109Y-56555419D01*
X137425184Y-56731000D01*
X137425184Y-58323309D01*
X137340616Y-58449874D01*
X137286288Y-58723000D01*
X137300001Y-58791940D01*
X137300001Y-59344364D01*
X137098801Y-59478801D01*
X136822527Y-59892275D01*
X136725512Y-60380000D01*
X136822527Y-60867725D01*
X137098801Y-61281199D01*
X137300001Y-61415636D01*
X137300000Y-63274051D01*
X133710052Y-66864000D01*
X130367350Y-66864000D01*
X130151771Y-66648421D01*
X129754825Y-66484000D01*
X129325175Y-66484000D01*
X128928229Y-66648421D01*
X128624421Y-66952229D01*
X128460000Y-67349175D01*
X128460000Y-67654050D01*
X127090052Y-69024000D01*
X126785175Y-69024000D01*
X126388229Y-69188421D01*
X126084421Y-69492229D01*
X125920000Y-69889175D01*
X125920000Y-70318825D01*
X126084421Y-70715771D01*
X126388229Y-71019579D01*
X126785175Y-71184000D01*
X127214825Y-71184000D01*
X127611771Y-71019579D01*
X127915579Y-70715771D01*
X128080000Y-70318825D01*
X128080000Y-70013948D01*
X129449950Y-68644000D01*
X129754825Y-68644000D01*
X130151771Y-68479579D01*
X130367350Y-68264000D01*
X133931065Y-68264000D01*
X134000000Y-68277712D01*
X134068935Y-68264000D01*
X134068940Y-68264000D01*
X134273126Y-68223385D01*
X134504671Y-68068671D01*
X134543725Y-68010224D01*
X138353949Y-64200000D01*
X138963166Y-64200000D01*
X138895328Y-64245328D01*
X138856276Y-64303773D01*
X135603763Y-67556287D01*
X135545319Y-67595338D01*
X135506267Y-67653783D01*
X135390605Y-67826883D01*
X135336277Y-68100009D01*
X135349990Y-68168949D01*
X135349989Y-82731843D01*
X135196087Y-82885745D01*
X135181473Y-82812275D01*
X134905199Y-82398801D01*
X134491725Y-82122527D01*
X134304000Y-82085186D01*
X134304000Y-82018816D01*
X134804000Y-82018816D01*
X134979581Y-81983891D01*
X135128432Y-81884432D01*
X135227891Y-81735581D01*
X135262816Y-81560000D01*
X135262816Y-79960000D01*
X135227891Y-79784419D01*
X135128432Y-79635568D01*
X134979581Y-79536109D01*
X134804000Y-79501184D01*
X132404000Y-79501184D01*
X132228419Y-79536109D01*
X132079568Y-79635568D01*
X131980109Y-79784419D01*
X131945184Y-79960000D01*
X131945184Y-80054480D01*
X131904000Y-80046288D01*
X131835065Y-80060000D01*
X131835060Y-80060000D01*
X131630874Y-80100615D01*
X131399329Y-80255329D01*
X131365471Y-80306001D01*
X129141172Y-80306001D01*
X129266000Y-80004640D01*
X129266000Y-79507360D01*
X129075699Y-79047932D01*
X128724068Y-78696301D01*
X128264640Y-78506000D01*
X127767360Y-78506000D01*
X127307932Y-78696301D01*
X126956301Y-79047932D01*
X126766000Y-79507360D01*
X126766000Y-80004640D01*
X126890828Y-80306001D01*
X126507950Y-80306001D01*
X126311725Y-80109776D01*
X126311721Y-80109771D01*
X126195280Y-79993330D01*
X126242488Y-79756000D01*
X126145473Y-79268275D01*
X125869199Y-78854801D01*
X125455725Y-78578527D01*
X125091109Y-78506000D01*
X124844891Y-78506000D01*
X124480275Y-78578527D01*
X124066801Y-78854801D01*
X123790527Y-79268275D01*
X123693512Y-79756000D01*
X122081187Y-79756000D01*
X122128432Y-79724432D01*
X122227891Y-79575581D01*
X122262816Y-79400000D01*
X122262816Y-77600000D01*
X122227891Y-77424419D01*
X122128432Y-77275568D01*
X121979581Y-77176109D01*
X121804000Y-77141184D01*
X120004000Y-77141184D01*
X119828419Y-77176109D01*
X119679568Y-77275568D01*
X119580109Y-77424419D01*
X119545184Y-77600000D01*
X118556000Y-77600000D01*
X118556000Y-73337762D01*
X120300000Y-73337762D01*
X120300000Y-73982238D01*
X120546630Y-74577656D01*
X121002344Y-75033370D01*
X121597762Y-75280000D01*
X122242238Y-75280000D01*
X122837656Y-75033370D01*
X123293370Y-74577656D01*
X123540000Y-73982238D01*
X123540000Y-73337762D01*
X123293370Y-72742344D01*
X122837656Y-72286630D01*
X122242238Y-72040000D01*
X121597762Y-72040000D01*
X121002344Y-72286630D01*
X120546630Y-72742344D01*
X120300000Y-73337762D01*
X118556000Y-73337762D01*
X118556000Y-69185288D01*
X120392113Y-67349175D01*
X123380000Y-67349175D01*
X123380000Y-67778825D01*
X123544421Y-68175771D01*
X123760000Y-68391350D01*
X123760001Y-75915060D01*
X123746288Y-75984000D01*
X123760001Y-76052940D01*
X123800616Y-76257126D01*
X123955330Y-76488671D01*
X124013774Y-76527722D01*
X124229342Y-76743291D01*
X124226000Y-76751360D01*
X124226000Y-77248640D01*
X124416301Y-77708068D01*
X124767932Y-78059699D01*
X125227360Y-78250000D01*
X125724640Y-78250000D01*
X126184068Y-78059699D01*
X126535699Y-77708068D01*
X126726000Y-77248640D01*
X126726000Y-77000000D01*
X131821512Y-77000000D01*
X131918527Y-77487725D01*
X132194801Y-77901199D01*
X132608275Y-78177473D01*
X132972891Y-78250000D01*
X133219109Y-78250000D01*
X133583725Y-78177473D01*
X133997199Y-77901199D01*
X134273473Y-77487725D01*
X134370488Y-77000000D01*
X134273473Y-76512275D01*
X133997199Y-76098801D01*
X133583725Y-75822527D01*
X133219109Y-75750000D01*
X132972891Y-75750000D01*
X132608275Y-75822527D01*
X132194801Y-76098801D01*
X131918527Y-76512275D01*
X131821512Y-77000000D01*
X126726000Y-77000000D01*
X126726000Y-76751360D01*
X126535699Y-76291932D01*
X126184068Y-75940301D01*
X125724640Y-75750000D01*
X125227360Y-75750000D01*
X125219291Y-75753342D01*
X125160000Y-75694052D01*
X125160000Y-73337762D01*
X125300000Y-73337762D01*
X125300000Y-73982238D01*
X125546630Y-74577656D01*
X126002344Y-75033370D01*
X126597762Y-75280000D01*
X127242238Y-75280000D01*
X127837656Y-75033370D01*
X128033394Y-74837632D01*
X130813079Y-74837632D01*
X130930073Y-75107583D01*
X131559393Y-75376221D01*
X132243612Y-75383580D01*
X132878564Y-75128539D01*
X132909927Y-75107583D01*
X133026921Y-74837632D01*
X131920000Y-73730711D01*
X130813079Y-74837632D01*
X128033394Y-74837632D01*
X128293370Y-74577656D01*
X128539430Y-73983612D01*
X130196420Y-73983612D01*
X130451461Y-74618564D01*
X130472417Y-74649927D01*
X130742368Y-74766921D01*
X131849289Y-73660000D01*
X131990711Y-73660000D01*
X133097632Y-74766921D01*
X133367583Y-74649927D01*
X133636221Y-74020607D01*
X133643580Y-73336388D01*
X133388539Y-72701436D01*
X133367583Y-72670073D01*
X133097632Y-72553079D01*
X131990711Y-73660000D01*
X131849289Y-73660000D01*
X130742368Y-72553079D01*
X130472417Y-72670073D01*
X130203779Y-73299393D01*
X130196420Y-73983612D01*
X128539430Y-73983612D01*
X128540000Y-73982238D01*
X128540000Y-73337762D01*
X128293370Y-72742344D01*
X128033394Y-72482368D01*
X130813079Y-72482368D01*
X131920000Y-73589289D01*
X133026921Y-72482368D01*
X132909927Y-72212417D01*
X132280607Y-71943779D01*
X131596388Y-71936420D01*
X130961436Y-72191461D01*
X130930073Y-72212417D01*
X130813079Y-72482368D01*
X128033394Y-72482368D01*
X127837656Y-72286630D01*
X127242238Y-72040000D01*
X126597762Y-72040000D01*
X126002344Y-72286630D01*
X125546630Y-72742344D01*
X125300000Y-73337762D01*
X125160000Y-73337762D01*
X125160000Y-68391350D01*
X125375579Y-68175771D01*
X125540000Y-67778825D01*
X125540000Y-67349175D01*
X125375579Y-66952229D01*
X125071771Y-66648421D01*
X124674825Y-66484000D01*
X124245175Y-66484000D01*
X123848229Y-66648421D01*
X123544421Y-66952229D01*
X123380000Y-67349175D01*
X120392113Y-67349175D01*
X132445723Y-55295565D01*
X137333217Y-55295565D01*
X137537284Y-55792349D01*
X137541776Y-55799071D01*
X137773290Y-55871000D01*
X138613289Y-55031000D01*
X138754711Y-55031000D01*
X139594710Y-55871000D01*
X139826224Y-55799071D01*
X140033206Y-55303496D01*
X140034783Y-54766435D01*
X139830716Y-54269651D01*
X139826224Y-54262929D01*
X139594710Y-54191000D01*
X138754711Y-55031000D01*
X138613289Y-55031000D01*
X137773290Y-54191000D01*
X137541776Y-54262929D01*
X137334794Y-54758504D01*
X137333217Y-55295565D01*
X132445723Y-55295565D01*
X133620998Y-54120290D01*
X137844000Y-54120290D01*
X138684000Y-54960289D01*
X139524000Y-54120290D01*
X139452071Y-53888776D01*
X138956496Y-53681794D01*
X138419435Y-53680217D01*
X137922651Y-53884284D01*
X137915929Y-53888776D01*
X137844000Y-54120290D01*
X133620998Y-54120290D01*
X134597031Y-53144257D01*
X137100626Y-53144257D01*
X137226327Y-53347391D01*
X137748412Y-53417307D01*
X138257511Y-53282107D01*
X138676119Y-52962375D01*
X138680075Y-52957857D01*
X138687277Y-52719036D01*
X137681415Y-52138301D01*
X137100626Y-53144257D01*
X134597031Y-53144257D01*
X135579998Y-52161290D01*
X136316200Y-52161290D01*
X136453663Y-52669783D01*
X136775254Y-53086964D01*
X137014024Y-53094257D01*
X137594813Y-52088301D01*
X136588951Y-51507567D01*
X136385727Y-51633214D01*
X136383792Y-51638899D01*
X136316200Y-52161290D01*
X135579998Y-52161290D01*
X137237124Y-50504165D01*
X137237124Y-50670460D01*
X137264086Y-50806009D01*
X137068717Y-50857893D01*
X136650109Y-51177625D01*
X136646153Y-51182143D01*
X136638951Y-51420964D01*
X137644813Y-52001699D01*
X137654813Y-51984378D01*
X137741415Y-52034378D01*
X137731415Y-52051699D01*
X138737277Y-52632433D01*
X138940501Y-52506786D01*
X138942436Y-52501101D01*
X139010028Y-51978710D01*
X138872565Y-51470217D01*
X138609745Y-51129276D01*
X141196060Y-51129276D01*
X141371641Y-51094351D01*
X141520492Y-50994892D01*
X141619951Y-50846041D01*
X141654876Y-50670460D01*
X141654876Y-50060678D01*
X141844940Y-50060678D01*
X141844940Y-51732640D01*
X141982440Y-51870140D01*
X144095000Y-51870140D01*
X144095000Y-49757580D01*
X144195000Y-49757580D01*
X144195000Y-51870140D01*
X146307560Y-51870140D01*
X146445060Y-51732640D01*
X146445060Y-50060678D01*
X146361327Y-49858530D01*
X146206610Y-49703812D01*
X146004462Y-49620080D01*
X144332500Y-49620080D01*
X144195000Y-49757580D01*
X144095000Y-49757580D01*
X143957500Y-49620080D01*
X142285538Y-49620080D01*
X142083390Y-49703812D01*
X141928673Y-49858530D01*
X141844940Y-50060678D01*
X141654876Y-50060678D01*
X141654876Y-47170340D01*
X141619951Y-46994759D01*
X141520492Y-46845908D01*
X141371641Y-46746449D01*
X141196060Y-46711524D01*
X137695940Y-46711524D01*
X137520359Y-46746449D01*
X137371508Y-46845908D01*
X137272049Y-46994759D01*
X137237124Y-47170340D01*
X137237124Y-48524267D01*
X128370000Y-57391391D01*
X128370000Y-57371577D01*
X128149250Y-56838641D01*
X127741359Y-56430750D01*
X127208423Y-56210000D01*
X126631577Y-56210000D01*
X126098641Y-56430750D01*
X125690750Y-56838641D01*
X125470000Y-57371577D01*
X125470000Y-57948423D01*
X125690750Y-58481359D01*
X126098641Y-58889250D01*
X126631577Y-59110000D01*
X126651392Y-59110000D01*
X117409774Y-68351618D01*
X117365000Y-68381535D01*
X117365000Y-50055000D01*
X124408294Y-50055000D01*
X124460000Y-50065285D01*
X124511706Y-50055000D01*
X124664845Y-50024539D01*
X124838504Y-49908504D01*
X124954539Y-49734845D01*
X124995285Y-49530000D01*
X124985000Y-49478294D01*
X124985000Y-48492932D01*
X129516289Y-48492932D01*
X129527998Y-48671570D01*
X129607177Y-48832129D01*
X129741772Y-48950166D01*
X131127412Y-49750166D01*
X131296932Y-49807711D01*
X131475570Y-49796002D01*
X131636129Y-49716823D01*
X131754166Y-49582228D01*
X132554166Y-48196588D01*
X132611711Y-48027068D01*
X132600002Y-47848430D01*
X132520823Y-47687871D01*
X132386228Y-47569834D01*
X131000588Y-46769834D01*
X130831068Y-46712289D01*
X130652430Y-46723998D01*
X130491871Y-46803177D01*
X130373834Y-46937772D01*
X129573834Y-48323412D01*
X129516289Y-48492932D01*
X124985000Y-48492932D01*
X124985000Y-47606710D01*
X126660000Y-47606710D01*
X126731929Y-47838224D01*
X127227504Y-48045206D01*
X127764565Y-48046783D01*
X128261349Y-47842716D01*
X128268071Y-47838224D01*
X128340000Y-47606710D01*
X127500000Y-46766711D01*
X126660000Y-47606710D01*
X124985000Y-47606710D01*
X124985000Y-46960565D01*
X126149217Y-46960565D01*
X126353284Y-47457349D01*
X126357776Y-47464071D01*
X126589290Y-47536000D01*
X127429289Y-46696000D01*
X127570711Y-46696000D01*
X128410710Y-47536000D01*
X128642224Y-47464071D01*
X128849206Y-46968496D01*
X128850783Y-46431435D01*
X128646716Y-45934651D01*
X128642224Y-45927929D01*
X128410710Y-45856000D01*
X127570711Y-46696000D01*
X127429289Y-46696000D01*
X126589290Y-45856000D01*
X126357776Y-45927929D01*
X126150794Y-46423504D01*
X126149217Y-46960565D01*
X124985000Y-46960565D01*
X124985000Y-43396000D01*
X126241184Y-43396000D01*
X126241184Y-44996000D01*
X126276109Y-45171581D01*
X126375568Y-45320432D01*
X126524419Y-45419891D01*
X126700000Y-45454816D01*
X126968625Y-45454816D01*
X126738651Y-45549284D01*
X126731929Y-45553776D01*
X126660000Y-45785290D01*
X127500000Y-46625289D01*
X128340000Y-45785290D01*
X128268071Y-45553776D01*
X128031132Y-45454816D01*
X128300000Y-45454816D01*
X128475581Y-45419891D01*
X128624432Y-45320432D01*
X128723891Y-45171581D01*
X128758816Y-44996000D01*
X128758816Y-44251360D01*
X130250000Y-44251360D01*
X130250000Y-44748640D01*
X130440301Y-45208068D01*
X130791932Y-45559699D01*
X131251360Y-45750000D01*
X131748640Y-45750000D01*
X132208068Y-45559699D01*
X132559699Y-45208068D01*
X132750000Y-44748640D01*
X132750000Y-44500000D01*
X137845512Y-44500000D01*
X137942527Y-44987725D01*
X138218801Y-45401199D01*
X138632275Y-45677473D01*
X138996891Y-45750000D01*
X139243109Y-45750000D01*
X139357331Y-45727280D01*
X139996937Y-46366886D01*
X140035989Y-46425331D01*
X140094433Y-46464382D01*
X140267533Y-46580045D01*
X140313700Y-46589228D01*
X140471720Y-46620660D01*
X140471723Y-46620660D01*
X140540660Y-46634372D01*
X140609596Y-46620660D01*
X141936124Y-46620660D01*
X141936124Y-47670720D01*
X141971049Y-47846301D01*
X142070508Y-47995152D01*
X142219359Y-48094611D01*
X142394940Y-48129536D01*
X145895060Y-48129536D01*
X146070641Y-48094611D01*
X146219492Y-47995152D01*
X146318951Y-47846301D01*
X146353876Y-47670720D01*
X146353876Y-44170600D01*
X146318951Y-43995019D01*
X146242098Y-43880000D01*
X150225512Y-43880000D01*
X150322527Y-44367725D01*
X150598801Y-44781199D01*
X151012275Y-45057473D01*
X151376891Y-45130000D01*
X151623109Y-45130000D01*
X151987725Y-45057473D01*
X152401199Y-44781199D01*
X152535636Y-44580000D01*
X153121425Y-44580000D01*
X153202527Y-44987725D01*
X153478801Y-45401199D01*
X153892275Y-45677473D01*
X154256891Y-45750000D01*
X154503109Y-45750000D01*
X154867725Y-45677473D01*
X155281199Y-45401199D01*
X155557473Y-44987725D01*
X155654488Y-44500000D01*
X155557473Y-44012275D01*
X155281199Y-43598801D01*
X154867725Y-43322527D01*
X154503109Y-43250000D01*
X154256891Y-43250000D01*
X154118347Y-43277558D01*
X154033126Y-43220615D01*
X153828940Y-43180000D01*
X153828935Y-43180000D01*
X153760000Y-43166288D01*
X153691065Y-43180000D01*
X152535636Y-43180000D01*
X152401199Y-42978801D01*
X151987725Y-42702527D01*
X151623109Y-42630000D01*
X151376891Y-42630000D01*
X151012275Y-42702527D01*
X150598801Y-42978801D01*
X150322527Y-43392275D01*
X150225512Y-43880000D01*
X146242098Y-43880000D01*
X146219492Y-43846168D01*
X146070641Y-43746709D01*
X145895060Y-43711784D01*
X142394940Y-43711784D01*
X142219359Y-43746709D01*
X142070508Y-43846168D01*
X141971049Y-43995019D01*
X141936124Y-44170600D01*
X141936124Y-45220660D01*
X140830609Y-45220660D01*
X140347280Y-44737331D01*
X140394488Y-44500000D01*
X140297473Y-44012275D01*
X140021199Y-43598801D01*
X139607725Y-43322527D01*
X139243109Y-43250000D01*
X138996891Y-43250000D01*
X138632275Y-43322527D01*
X138218801Y-43598801D01*
X137942527Y-44012275D01*
X137845512Y-44500000D01*
X132750000Y-44500000D01*
X132750000Y-44251360D01*
X132559699Y-43791932D01*
X132208068Y-43440301D01*
X131748640Y-43250000D01*
X131251360Y-43250000D01*
X130791932Y-43440301D01*
X130440301Y-43791932D01*
X130250000Y-44251360D01*
X128758816Y-44251360D01*
X128758816Y-43396000D01*
X128723891Y-43220419D01*
X128624432Y-43071568D01*
X128475581Y-42972109D01*
X128300000Y-42937184D01*
X126700000Y-42937184D01*
X126524419Y-42972109D01*
X126375568Y-43071568D01*
X126276109Y-43220419D01*
X126241184Y-43396000D01*
X124985000Y-43396000D01*
X124985000Y-42435000D01*
X163305000Y-42435000D01*
X163305001Y-47795823D01*
G04 #@! TD*
M02*
