G04 #@! TF.GenerationSoftware,KiCad,Pcbnew,(5.0.0-3-g5ebb6b6)*
G04 #@! TF.CreationDate,2018-09-09T10:20:45+01:00*
G04 #@! TF.ProjectId,EngineersThumb,456E67696E656572735468756D622E6B,rev?*
G04 #@! TF.SameCoordinates,Original*
G04 #@! TF.FileFunction,Copper,L1,Top,Signal*
G04 #@! TF.FilePolarity,Positive*
%FSLAX46Y46*%
G04 Gerber Fmt 4.6, Leading zero omitted, Abs format (unit mm)*
G04 Created by KiCad (PCBNEW (5.0.0-3-g5ebb6b6)) date Sunday, 09 September 2018 at 10:20:45*
%MOMM*%
%LPD*%
G01*
G04 APERTURE LIST*
G04 #@! TA.AperFunction,Conductor*
%ADD10C,0.100000*%
G04 #@! TD*
G04 #@! TA.AperFunction,ComponentPad*
%ADD11C,1.100000*%
G04 #@! TD*
G04 #@! TA.AperFunction,ComponentPad*
%ADD12R,1.800000X1.100000*%
G04 #@! TD*
G04 #@! TA.AperFunction,ComponentPad*
%ADD13C,1.778000*%
G04 #@! TD*
G04 #@! TA.AperFunction,ComponentPad*
%ADD14O,1.600000X1.600000*%
G04 #@! TD*
G04 #@! TA.AperFunction,ComponentPad*
%ADD15R,1.600000X1.600000*%
G04 #@! TD*
G04 #@! TA.AperFunction,ComponentPad*
%ADD16C,1.600000*%
G04 #@! TD*
G04 #@! TA.AperFunction,ComponentPad*
%ADD17R,3.500120X3.500120*%
G04 #@! TD*
G04 #@! TA.AperFunction,Conductor*
%ADD18C,1.600000*%
G04 #@! TD*
G04 #@! TA.AperFunction,ComponentPad*
%ADD19C,2.340000*%
G04 #@! TD*
G04 #@! TA.AperFunction,ComponentPad*
%ADD20R,2.400000X1.600000*%
G04 #@! TD*
G04 #@! TA.AperFunction,ComponentPad*
%ADD21O,2.400000X1.600000*%
G04 #@! TD*
G04 #@! TA.AperFunction,ComponentPad*
%ADD22C,1.260000*%
G04 #@! TD*
G04 #@! TA.AperFunction,ComponentPad*
%ADD23C,1.800000*%
G04 #@! TD*
G04 #@! TA.AperFunction,ComponentPad*
%ADD24R,1.800000X1.800000*%
G04 #@! TD*
G04 #@! TA.AperFunction,ComponentPad*
%ADD25R,2.500000X2.500000*%
G04 #@! TD*
G04 #@! TA.AperFunction,ComponentPad*
%ADD26C,2.500000*%
G04 #@! TD*
G04 #@! TA.AperFunction,ComponentPad*
%ADD27R,2.499360X2.499360*%
G04 #@! TD*
G04 #@! TA.AperFunction,ComponentPad*
%ADD28C,2.499360*%
G04 #@! TD*
G04 #@! TA.AperFunction,Conductor*
%ADD29C,0.500000*%
G04 #@! TD*
G04 #@! TA.AperFunction,Conductor*
%ADD30C,0.300000*%
G04 #@! TD*
G04 APERTURE END LIST*
D10*
G04 #@! TO.N,Net-(D6-Pad2)*
G04 #@! TO.C,Q1*
G36*
X154821955Y-76951324D02*
X154848650Y-76955284D01*
X154874828Y-76961841D01*
X154900238Y-76970933D01*
X154924634Y-76982472D01*
X154947782Y-76996346D01*
X154969458Y-77012422D01*
X154989454Y-77030546D01*
X155007578Y-77050542D01*
X155023654Y-77072218D01*
X155037528Y-77095366D01*
X155049067Y-77119762D01*
X155058159Y-77145172D01*
X155064716Y-77171350D01*
X155068676Y-77198045D01*
X155070000Y-77225000D01*
X155070000Y-77775000D01*
X155068676Y-77801955D01*
X155064716Y-77828650D01*
X155058159Y-77854828D01*
X155049067Y-77880238D01*
X155037528Y-77904634D01*
X155023654Y-77927782D01*
X155007578Y-77949458D01*
X154989454Y-77969454D01*
X154969458Y-77987578D01*
X154947782Y-78003654D01*
X154924634Y-78017528D01*
X154900238Y-78029067D01*
X154874828Y-78038159D01*
X154848650Y-78044716D01*
X154821955Y-78048676D01*
X154795000Y-78050000D01*
X153545000Y-78050000D01*
X153518045Y-78048676D01*
X153491350Y-78044716D01*
X153465172Y-78038159D01*
X153439762Y-78029067D01*
X153415366Y-78017528D01*
X153392218Y-78003654D01*
X153370542Y-77987578D01*
X153350546Y-77969454D01*
X153332422Y-77949458D01*
X153316346Y-77927782D01*
X153302472Y-77904634D01*
X153290933Y-77880238D01*
X153281841Y-77854828D01*
X153275284Y-77828650D01*
X153271324Y-77801955D01*
X153270000Y-77775000D01*
X153270000Y-77225000D01*
X153271324Y-77198045D01*
X153275284Y-77171350D01*
X153281841Y-77145172D01*
X153290933Y-77119762D01*
X153302472Y-77095366D01*
X153316346Y-77072218D01*
X153332422Y-77050542D01*
X153350546Y-77030546D01*
X153370542Y-77012422D01*
X153392218Y-76996346D01*
X153415366Y-76982472D01*
X153439762Y-76970933D01*
X153465172Y-76961841D01*
X153491350Y-76955284D01*
X153518045Y-76951324D01*
X153545000Y-76950000D01*
X154795000Y-76950000D01*
X154821955Y-76951324D01*
X154821955Y-76951324D01*
G37*
D11*
G04 #@! TD*
G04 #@! TO.P,Q1,2*
G04 #@! TO.N,Net-(D6-Pad2)*
X154170000Y-77500000D03*
D10*
G04 #@! TO.N,Net-(D6-Pad1)*
G04 #@! TO.C,Q1*
G36*
X152751955Y-78221324D02*
X152778650Y-78225284D01*
X152804828Y-78231841D01*
X152830238Y-78240933D01*
X152854634Y-78252472D01*
X152877782Y-78266346D01*
X152899458Y-78282422D01*
X152919454Y-78300546D01*
X152937578Y-78320542D01*
X152953654Y-78342218D01*
X152967528Y-78365366D01*
X152979067Y-78389762D01*
X152988159Y-78415172D01*
X152994716Y-78441350D01*
X152998676Y-78468045D01*
X153000000Y-78495000D01*
X153000000Y-79045000D01*
X152998676Y-79071955D01*
X152994716Y-79098650D01*
X152988159Y-79124828D01*
X152979067Y-79150238D01*
X152967528Y-79174634D01*
X152953654Y-79197782D01*
X152937578Y-79219458D01*
X152919454Y-79239454D01*
X152899458Y-79257578D01*
X152877782Y-79273654D01*
X152854634Y-79287528D01*
X152830238Y-79299067D01*
X152804828Y-79308159D01*
X152778650Y-79314716D01*
X152751955Y-79318676D01*
X152725000Y-79320000D01*
X151475000Y-79320000D01*
X151448045Y-79318676D01*
X151421350Y-79314716D01*
X151395172Y-79308159D01*
X151369762Y-79299067D01*
X151345366Y-79287528D01*
X151322218Y-79273654D01*
X151300542Y-79257578D01*
X151280546Y-79239454D01*
X151262422Y-79219458D01*
X151246346Y-79197782D01*
X151232472Y-79174634D01*
X151220933Y-79150238D01*
X151211841Y-79124828D01*
X151205284Y-79098650D01*
X151201324Y-79071955D01*
X151200000Y-79045000D01*
X151200000Y-78495000D01*
X151201324Y-78468045D01*
X151205284Y-78441350D01*
X151211841Y-78415172D01*
X151220933Y-78389762D01*
X151232472Y-78365366D01*
X151246346Y-78342218D01*
X151262422Y-78320542D01*
X151280546Y-78300546D01*
X151300542Y-78282422D01*
X151322218Y-78266346D01*
X151345366Y-78252472D01*
X151369762Y-78240933D01*
X151395172Y-78231841D01*
X151421350Y-78225284D01*
X151448045Y-78221324D01*
X151475000Y-78220000D01*
X152725000Y-78220000D01*
X152751955Y-78221324D01*
X152751955Y-78221324D01*
G37*
D11*
G04 #@! TD*
G04 #@! TO.P,Q1,3*
G04 #@! TO.N,Net-(D6-Pad1)*
X152100000Y-78770000D03*
D12*
G04 #@! TO.P,Q1,1*
G04 #@! TO.N,Net-(Q1-Pad1)*
X152100000Y-76230000D03*
G04 #@! TD*
D13*
G04 #@! TO.P,SW1,1*
G04 #@! TO.N,Net-(R9-Pad2)*
X144145000Y-55120000D03*
G04 #@! TO.P,SW1,2*
G04 #@! TO.N,Net-(C4-Pad2)*
X144145000Y-57660000D03*
G04 #@! TO.P,SW1,3*
G04 #@! TO.N,N/C*
X144145000Y-60200000D03*
G04 #@! TD*
D14*
G04 #@! TO.P,D6,2*
G04 #@! TO.N,Net-(D6-Pad2)*
X158000000Y-82296000D03*
D15*
G04 #@! TO.P,D6,1*
G04 #@! TO.N,Net-(D6-Pad1)*
X150380000Y-82296000D03*
G04 #@! TD*
D16*
G04 #@! TO.P,R3,1*
G04 #@! TO.N,Net-(C3-Pad1)*
X125476000Y-97536000D03*
D14*
G04 #@! TO.P,R3,2*
G04 #@! TO.N,Net-(J2-Pad1)*
X125476000Y-89916000D03*
G04 #@! TD*
D17*
G04 #@! TO.P,J1,1*
G04 #@! TO.N,GND*
X144145000Y-51920140D03*
G04 #@! TO.P,J1,2*
G04 #@! TO.N,Net-(J1-Pad2)*
X144145000Y-45920660D03*
G04 #@! TO.P,J1,3*
G04 #@! TO.N,Net-(BT1-Pad1)*
X139446000Y-48920400D03*
G04 #@! TD*
D16*
G04 #@! TO.P,R2,1*
G04 #@! TO.N,Net-(J2-Pad1)*
X120904000Y-89916000D03*
D14*
G04 #@! TO.P,R2,2*
G04 #@! TO.N,GND*
X120904000Y-97536000D03*
G04 #@! TD*
D16*
G04 #@! TO.P,R5,1*
G04 #@! TO.N,Net-(C2-Pad1)*
X148500000Y-66000000D03*
D14*
G04 #@! TO.P,R5,2*
G04 #@! TO.N,GND*
X140880000Y-66000000D03*
G04 #@! TD*
D16*
G04 #@! TO.P,D1,1*
G04 #@! TO.N,+9V*
X131064000Y-48260000D03*
D10*
G04 #@! TD*
G04 #@! TO.N,+9V*
G04 #@! TO.C,D1*
G36*
X129971180Y-48552820D02*
X130771180Y-47167180D01*
X132156820Y-47967180D01*
X131356820Y-49352820D01*
X129971180Y-48552820D01*
X129971180Y-48552820D01*
G37*
D16*
G04 #@! TO.P,D1,2*
G04 #@! TO.N,GND*
X137663114Y-52070000D03*
D18*
G04 #@! TD*
G04 #@! TO.N,GND*
G04 #@! TO.C,D1*
X137663114Y-52070000D02*
X137663114Y-52070000D01*
D19*
G04 #@! TO.P,RV1,3*
G04 #@! TO.N,Net-(C4-Pad2)*
X166544000Y-73660000D03*
G04 #@! TO.P,RV1,2*
G04 #@! TO.N,Net-(C4-Pad1)*
X161544000Y-73660000D03*
G04 #@! TO.P,RV1,1*
G04 #@! TO.N,N/C*
X156544000Y-73660000D03*
G04 #@! TD*
D16*
G04 #@! TO.P,C3,1*
G04 #@! TO.N,Net-(C3-Pad1)*
X129540000Y-94996000D03*
G04 #@! TO.P,C3,2*
G04 #@! TO.N,Net-(C3-Pad2)*
X129540000Y-89996000D03*
G04 #@! TD*
G04 #@! TO.P,C4,1*
G04 #@! TO.N,Net-(C4-Pad1)*
X145288000Y-96012000D03*
G04 #@! TO.P,C4,2*
G04 #@! TO.N,Net-(C4-Pad2)*
X145288000Y-91012000D03*
G04 #@! TD*
D20*
G04 #@! TO.P,U2,1*
G04 #@! TO.N,Net-(Q1-Pad1)*
X161000000Y-80000000D03*
D21*
G04 #@! TO.P,U2,9*
G04 #@! TO.N,GND*
X168620000Y-97780000D03*
G04 #@! TO.P,U2,2*
G04 #@! TO.N,N/C*
X161000000Y-82540000D03*
G04 #@! TO.P,U2,10*
G04 #@! TO.N,GND*
X168620000Y-95240000D03*
G04 #@! TO.P,U2,3*
G04 #@! TO.N,Net-(R12-Pad2)*
X161000000Y-85080000D03*
G04 #@! TO.P,U2,11*
G04 #@! TO.N,+9V*
X168620000Y-92700000D03*
G04 #@! TO.P,U2,4*
G04 #@! TO.N,VCC*
X161000000Y-87620000D03*
G04 #@! TO.P,U2,12*
G04 #@! TO.N,Net-(U2-Pad12)*
X168620000Y-90160000D03*
G04 #@! TO.P,U2,5*
G04 #@! TO.N,Net-(C4-Pad2)*
X161000000Y-90160000D03*
G04 #@! TO.P,U2,13*
G04 #@! TO.N,Net-(U2-Pad12)*
X168620000Y-87620000D03*
G04 #@! TO.P,U2,6*
G04 #@! TO.N,GND*
X161000000Y-92700000D03*
G04 #@! TO.P,U2,14*
G04 #@! TO.N,N/C*
X168620000Y-85080000D03*
G04 #@! TO.P,U2,7*
G04 #@! TO.N,GND*
X161000000Y-95240000D03*
G04 #@! TO.P,U2,15*
G04 #@! TO.N,N/C*
X168620000Y-82540000D03*
G04 #@! TO.P,U2,8*
G04 #@! TO.N,GND*
X161000000Y-97780000D03*
G04 #@! TO.P,U2,16*
X168620000Y-80000000D03*
G04 #@! TD*
D16*
G04 #@! TO.P,C6,1*
G04 #@! TO.N,VCC*
X164592000Y-76708000D03*
G04 #@! TO.P,C6,2*
G04 #@! TO.N,Net-(C6-Pad2)*
X169592000Y-76708000D03*
G04 #@! TD*
D15*
G04 #@! TO.P,D4,1*
G04 #@! TO.N,Net-(D4-Pad1)*
X138000000Y-78120000D03*
D14*
G04 #@! TO.P,D4,2*
G04 #@! TO.N,Net-(D4-Pad2)*
X138000000Y-70500000D03*
G04 #@! TD*
G04 #@! TO.P,D5,2*
G04 #@! TO.N,Net-(D5-Pad2)*
X151500000Y-43880000D03*
D15*
G04 #@! TO.P,D5,1*
G04 #@! TO.N,Net-(D4-Pad2)*
X151500000Y-51500000D03*
G04 #@! TD*
G04 #@! TO.P,D7,1*
G04 #@! TO.N,+9V*
X157480000Y-84836000D03*
D14*
G04 #@! TO.P,D7,2*
G04 #@! TO.N,Net-(D7-Pad2)*
X157480000Y-92456000D03*
G04 #@! TD*
G04 #@! TO.P,R1,2*
G04 #@! TO.N,Net-(J1-Pad2)*
X139120000Y-44500000D03*
D16*
G04 #@! TO.P,R1,1*
G04 #@! TO.N,+9V*
X131500000Y-44500000D03*
G04 #@! TD*
D14*
G04 #@! TO.P,R7,2*
G04 #@! TO.N,Net-(D4-Pad1)*
X133096000Y-77000000D03*
D16*
G04 #@! TO.P,R7,1*
G04 #@! TO.N,Net-(R7-Pad1)*
X125476000Y-77000000D03*
G04 #@! TD*
G04 #@! TO.P,R8,1*
G04 #@! TO.N,Net-(R8-Pad1)*
X162000000Y-44500000D03*
D14*
G04 #@! TO.P,R8,2*
G04 #@! TO.N,Net-(D5-Pad2)*
X154380000Y-44500000D03*
G04 #@! TD*
D16*
G04 #@! TO.P,R9,1*
G04 #@! TO.N,Net-(C6-Pad2)*
X162000000Y-47500000D03*
D14*
G04 #@! TO.P,R9,2*
G04 #@! TO.N,Net-(R9-Pad2)*
X154380000Y-47500000D03*
G04 #@! TD*
G04 #@! TO.P,R10,2*
G04 #@! TO.N,Net-(C5-Pad1)*
X138000000Y-60380000D03*
D16*
G04 #@! TO.P,R10,1*
G04 #@! TO.N,Net-(C7-Pad1)*
X138000000Y-68000000D03*
G04 #@! TD*
D14*
G04 #@! TO.P,R11,2*
G04 #@! TO.N,Net-(C4-Pad2)*
X151000000Y-61468000D03*
D16*
G04 #@! TO.P,R11,1*
G04 #@! TO.N,VCC*
X151000000Y-69088000D03*
G04 #@! TD*
G04 #@! TO.P,R14,1*
G04 #@! TO.N,Net-(C4-Pad1)*
X148500000Y-72000000D03*
D14*
G04 #@! TO.P,R14,2*
G04 #@! TO.N,Net-(C8-Pad1)*
X140880000Y-72000000D03*
G04 #@! TD*
G04 #@! TO.P,R15,2*
G04 #@! TO.N,Net-(D6-Pad1)*
X140880000Y-69000000D03*
D16*
G04 #@! TO.P,R15,1*
G04 #@! TO.N,VCC*
X148500000Y-69000000D03*
G04 #@! TD*
G04 #@! TO.P,R17,1*
G04 #@! TO.N,Net-(Q2-Pad3)*
X149000000Y-89408000D03*
D14*
G04 #@! TO.P,R17,2*
G04 #@! TO.N,Net-(D8-Pad2)*
X149000000Y-97028000D03*
G04 #@! TD*
D19*
G04 #@! TO.P,RV4,3*
G04 #@! TO.N,GND*
X131920000Y-73660000D03*
G04 #@! TO.P,RV4,2*
G04 #@! TO.N,Net-(J4-Pad1)*
X126920000Y-73660000D03*
G04 #@! TO.P,RV4,1*
G04 #@! TO.N,Net-(C8-Pad2)*
X121920000Y-73660000D03*
G04 #@! TD*
D12*
G04 #@! TO.P,Q2,1*
G04 #@! TO.N,+9V*
X152254000Y-91186000D03*
D10*
G04 #@! TD*
G04 #@! TO.N,Net-(Q2-Pad3)*
G04 #@! TO.C,Q2*
G36*
X152905955Y-93177324D02*
X152932650Y-93181284D01*
X152958828Y-93187841D01*
X152984238Y-93196933D01*
X153008634Y-93208472D01*
X153031782Y-93222346D01*
X153053458Y-93238422D01*
X153073454Y-93256546D01*
X153091578Y-93276542D01*
X153107654Y-93298218D01*
X153121528Y-93321366D01*
X153133067Y-93345762D01*
X153142159Y-93371172D01*
X153148716Y-93397350D01*
X153152676Y-93424045D01*
X153154000Y-93451000D01*
X153154000Y-94001000D01*
X153152676Y-94027955D01*
X153148716Y-94054650D01*
X153142159Y-94080828D01*
X153133067Y-94106238D01*
X153121528Y-94130634D01*
X153107654Y-94153782D01*
X153091578Y-94175458D01*
X153073454Y-94195454D01*
X153053458Y-94213578D01*
X153031782Y-94229654D01*
X153008634Y-94243528D01*
X152984238Y-94255067D01*
X152958828Y-94264159D01*
X152932650Y-94270716D01*
X152905955Y-94274676D01*
X152879000Y-94276000D01*
X151629000Y-94276000D01*
X151602045Y-94274676D01*
X151575350Y-94270716D01*
X151549172Y-94264159D01*
X151523762Y-94255067D01*
X151499366Y-94243528D01*
X151476218Y-94229654D01*
X151454542Y-94213578D01*
X151434546Y-94195454D01*
X151416422Y-94175458D01*
X151400346Y-94153782D01*
X151386472Y-94130634D01*
X151374933Y-94106238D01*
X151365841Y-94080828D01*
X151359284Y-94054650D01*
X151355324Y-94027955D01*
X151354000Y-94001000D01*
X151354000Y-93451000D01*
X151355324Y-93424045D01*
X151359284Y-93397350D01*
X151365841Y-93371172D01*
X151374933Y-93345762D01*
X151386472Y-93321366D01*
X151400346Y-93298218D01*
X151416422Y-93276542D01*
X151434546Y-93256546D01*
X151454542Y-93238422D01*
X151476218Y-93222346D01*
X151499366Y-93208472D01*
X151523762Y-93196933D01*
X151549172Y-93187841D01*
X151575350Y-93181284D01*
X151602045Y-93177324D01*
X151629000Y-93176000D01*
X152879000Y-93176000D01*
X152905955Y-93177324D01*
X152905955Y-93177324D01*
G37*
D11*
G04 #@! TO.P,Q2,3*
G04 #@! TO.N,Net-(Q2-Pad3)*
X152254000Y-93726000D03*
D10*
G04 #@! TD*
G04 #@! TO.N,Net-(D7-Pad2)*
G04 #@! TO.C,Q2*
G36*
X154975955Y-91907324D02*
X155002650Y-91911284D01*
X155028828Y-91917841D01*
X155054238Y-91926933D01*
X155078634Y-91938472D01*
X155101782Y-91952346D01*
X155123458Y-91968422D01*
X155143454Y-91986546D01*
X155161578Y-92006542D01*
X155177654Y-92028218D01*
X155191528Y-92051366D01*
X155203067Y-92075762D01*
X155212159Y-92101172D01*
X155218716Y-92127350D01*
X155222676Y-92154045D01*
X155224000Y-92181000D01*
X155224000Y-92731000D01*
X155222676Y-92757955D01*
X155218716Y-92784650D01*
X155212159Y-92810828D01*
X155203067Y-92836238D01*
X155191528Y-92860634D01*
X155177654Y-92883782D01*
X155161578Y-92905458D01*
X155143454Y-92925454D01*
X155123458Y-92943578D01*
X155101782Y-92959654D01*
X155078634Y-92973528D01*
X155054238Y-92985067D01*
X155028828Y-92994159D01*
X155002650Y-93000716D01*
X154975955Y-93004676D01*
X154949000Y-93006000D01*
X153699000Y-93006000D01*
X153672045Y-93004676D01*
X153645350Y-93000716D01*
X153619172Y-92994159D01*
X153593762Y-92985067D01*
X153569366Y-92973528D01*
X153546218Y-92959654D01*
X153524542Y-92943578D01*
X153504546Y-92925454D01*
X153486422Y-92905458D01*
X153470346Y-92883782D01*
X153456472Y-92860634D01*
X153444933Y-92836238D01*
X153435841Y-92810828D01*
X153429284Y-92784650D01*
X153425324Y-92757955D01*
X153424000Y-92731000D01*
X153424000Y-92181000D01*
X153425324Y-92154045D01*
X153429284Y-92127350D01*
X153435841Y-92101172D01*
X153444933Y-92075762D01*
X153456472Y-92051366D01*
X153470346Y-92028218D01*
X153486422Y-92006542D01*
X153504546Y-91986546D01*
X153524542Y-91968422D01*
X153546218Y-91952346D01*
X153569366Y-91938472D01*
X153593762Y-91926933D01*
X153619172Y-91917841D01*
X153645350Y-91911284D01*
X153672045Y-91907324D01*
X153699000Y-91906000D01*
X154949000Y-91906000D01*
X154975955Y-91907324D01*
X154975955Y-91907324D01*
G37*
D11*
G04 #@! TO.P,Q2,2*
G04 #@! TO.N,Net-(D7-Pad2)*
X154324000Y-92456000D03*
G04 #@! TD*
D22*
G04 #@! TO.P,RV2,3*
G04 #@! TO.N,Net-(R7-Pad1)*
X124460000Y-67564000D03*
G04 #@! TO.P,RV2,2*
G04 #@! TO.N,Net-(C5-Pad1)*
X127000000Y-70104000D03*
G04 #@! TO.P,RV2,1*
X129540000Y-67564000D03*
G04 #@! TD*
G04 #@! TO.P,RV3,1*
G04 #@! TO.N,Net-(R8-Pad1)*
X164084000Y-67564000D03*
G04 #@! TO.P,RV3,2*
G04 #@! TO.N,Net-(C5-Pad1)*
X161544000Y-70104000D03*
G04 #@! TO.P,RV3,3*
X159004000Y-67564000D03*
G04 #@! TD*
D20*
G04 #@! TO.P,U1,1*
G04 #@! TO.N,VCC*
X133604000Y-80760000D03*
D21*
G04 #@! TO.P,U1,8*
G04 #@! TO.N,Net-(C4-Pad1)*
X141224000Y-96000000D03*
G04 #@! TO.P,U1,2*
G04 #@! TO.N,VCC*
X133604000Y-83300000D03*
G04 #@! TO.P,U1,9*
G04 #@! TO.N,Net-(C4-Pad2)*
X141224000Y-93460000D03*
G04 #@! TO.P,U1,3*
G04 #@! TO.N,Net-(C2-Pad1)*
X133604000Y-85840000D03*
G04 #@! TO.P,U1,10*
G04 #@! TO.N,Net-(C3-Pad2)*
X141224000Y-90920000D03*
G04 #@! TO.P,U1,4*
G04 #@! TO.N,+9V*
X133604000Y-88380000D03*
G04 #@! TO.P,U1,11*
G04 #@! TO.N,GND*
X141224000Y-88380000D03*
G04 #@! TO.P,U1,5*
G04 #@! TO.N,Net-(C3-Pad2)*
X133604000Y-90920000D03*
G04 #@! TO.P,U1,12*
G04 #@! TO.N,Net-(C7-Pad1)*
X141224000Y-85840000D03*
G04 #@! TO.P,U1,6*
G04 #@! TO.N,Net-(D4-Pad1)*
X133604000Y-93460000D03*
G04 #@! TO.P,U1,13*
G04 #@! TO.N,Net-(D6-Pad1)*
X141224000Y-83300000D03*
G04 #@! TO.P,U1,7*
G04 #@! TO.N,Net-(D4-Pad2)*
X133604000Y-96000000D03*
G04 #@! TO.P,U1,14*
G04 #@! TO.N,Net-(D6-Pad2)*
X141224000Y-80760000D03*
G04 #@! TD*
D15*
G04 #@! TO.P,C1,1*
G04 #@! TO.N,+9V*
X127500000Y-44196000D03*
D16*
G04 #@! TO.P,C1,2*
G04 #@! TO.N,GND*
X127500000Y-46696000D03*
G04 #@! TD*
G04 #@! TO.P,C2,2*
G04 #@! TO.N,GND*
X149860000Y-54904000D03*
D15*
G04 #@! TO.P,C2,1*
G04 #@! TO.N,Net-(C2-Pad1)*
X149860000Y-57404000D03*
G04 #@! TD*
G04 #@! TO.P,C5,1*
G04 #@! TO.N,Net-(C5-Pad1)*
X138684000Y-57531000D03*
D16*
G04 #@! TO.P,C5,2*
G04 #@! TO.N,GND*
X138684000Y-55031000D03*
G04 #@! TD*
G04 #@! TO.P,C7,2*
G04 #@! TO.N,GND*
X146304000Y-83272000D03*
D15*
G04 #@! TO.P,C7,1*
G04 #@! TO.N,Net-(C7-Pad1)*
X146304000Y-80772000D03*
G04 #@! TD*
D16*
G04 #@! TO.P,C8,2*
G04 #@! TO.N,Net-(C8-Pad2)*
X146304000Y-77684000D03*
D15*
G04 #@! TO.P,C8,1*
G04 #@! TO.N,Net-(C8-Pad1)*
X146304000Y-75184000D03*
G04 #@! TD*
D23*
G04 #@! TO.P,D2,2*
G04 #@! TO.N,Net-(C3-Pad1)*
X120904000Y-86500000D03*
D24*
G04 #@! TO.P,D2,1*
G04 #@! TO.N,GND*
X120904000Y-83960000D03*
G04 #@! TD*
G04 #@! TO.P,D3,1*
G04 #@! TO.N,Net-(C3-Pad1)*
X120904000Y-78500000D03*
D23*
G04 #@! TO.P,D3,2*
G04 #@! TO.N,GND*
X120904000Y-81040000D03*
G04 #@! TD*
D24*
G04 #@! TO.P,D8,1*
G04 #@! TO.N,GND*
X142875000Y-99568000D03*
D23*
G04 #@! TO.P,D8,2*
G04 #@! TO.N,Net-(D8-Pad2)*
X145415000Y-99568000D03*
G04 #@! TD*
D16*
G04 #@! TO.P,R16,1*
G04 #@! TO.N,Net-(Q1-Pad1)*
X159512000Y-76708000D03*
D14*
G04 #@! TO.P,R16,2*
G04 #@! TO.N,VCC*
X162052000Y-76708000D03*
G04 #@! TD*
D16*
G04 #@! TO.P,R12,1*
G04 #@! TO.N,Net-(C4-Pad1)*
X155448000Y-95504000D03*
D14*
G04 #@! TO.P,R12,2*
G04 #@! TO.N,Net-(R12-Pad2)*
X157988000Y-95504000D03*
G04 #@! TD*
D16*
G04 #@! TO.P,R6,1*
G04 #@! TO.N,Net-(C3-Pad2)*
X124968000Y-87376000D03*
D14*
G04 #@! TO.P,R6,2*
G04 #@! TO.N,VCC*
X124968000Y-79756000D03*
G04 #@! TD*
D16*
G04 #@! TO.P,R4,1*
G04 #@! TO.N,+9V*
X128016000Y-79756000D03*
D14*
G04 #@! TO.P,R4,2*
G04 #@! TO.N,Net-(C2-Pad1)*
X128016000Y-87376000D03*
G04 #@! TD*
D16*
G04 #@! TO.P,R13,1*
G04 #@! TO.N,VCC*
X144500000Y-86360000D03*
D14*
G04 #@! TO.P,R13,2*
G04 #@! TO.N,Net-(R12-Pad2)*
X152120000Y-86360000D03*
G04 #@! TD*
D25*
G04 #@! TO.P,BT1,1*
G04 #@! TO.N,Net-(BT1-Pad1)*
X123190000Y-99568000D03*
D26*
G04 #@! TO.P,BT1,2*
G04 #@! TO.N,Net-(BT1-Pad2)*
X127000000Y-99568000D03*
G04 #@! TD*
D27*
G04 #@! TO.P,J2,1*
G04 #@! TO.N,Net-(J2-Pad1)*
X133096000Y-99568000D03*
D28*
G04 #@! TO.P,J2,2*
G04 #@! TO.N,Net-(BT1-Pad2)*
X136271000Y-99568000D03*
G04 #@! TO.P,J2,3*
G04 #@! TO.N,GND*
X139446000Y-99568000D03*
G04 #@! TD*
D26*
G04 #@! TO.P,J3,1*
G04 #@! TO.N,Net-(D7-Pad2)*
X150368000Y-99568000D03*
G04 #@! TD*
D25*
G04 #@! TO.P,J4,1*
G04 #@! TO.N,Net-(J4-Pad1)*
X153924000Y-99568000D03*
D26*
G04 #@! TO.P,J4,2*
G04 #@! TO.N,GND*
X157734000Y-99568000D03*
G04 #@! TD*
D29*
G04 #@! TO.N,VCC*
X135304000Y-83300000D02*
X133604000Y-83300000D01*
X143278620Y-87090010D02*
X139094010Y-87090010D01*
X144500000Y-87000000D02*
X143368630Y-87000000D01*
X139094010Y-87090010D02*
X135304000Y-83300000D01*
X143368630Y-87000000D02*
X143278620Y-87090010D01*
X145760000Y-87620000D02*
X161000000Y-87620000D01*
X144500000Y-86360000D02*
X145760000Y-87620000D01*
G04 #@! TO.N,Net-(C8-Pad2)*
X141732000Y-77724000D02*
X146304000Y-77724000D01*
X136047999Y-72039999D02*
X141732000Y-77724000D01*
X123540001Y-72039999D02*
X136047999Y-72039999D01*
X121920000Y-73660000D02*
X123540001Y-72039999D01*
G04 #@! TO.N,Net-(D4-Pad2)*
X150200000Y-51500000D02*
X151500000Y-51500000D01*
X148143990Y-53556010D02*
X150200000Y-51500000D01*
X148143990Y-63586012D02*
X148143990Y-53556010D01*
X141230002Y-70500000D02*
X148143990Y-63586012D01*
X138000000Y-70500000D02*
X141230002Y-70500000D01*
G04 #@! TO.N,Net-(Q1-Pad1)*
X160600000Y-80000000D02*
X161000000Y-80000000D01*
G04 #@! TO.N,Net-(C2-Pad1)*
X148844000Y-58928000D02*
X150368000Y-57404000D01*
X148844000Y-65656000D02*
X148844000Y-58928000D01*
X148500000Y-66000000D02*
X148844000Y-65656000D01*
G04 #@! TO.N,Net-(C3-Pad1)*
X119553999Y-85149999D02*
X120904000Y-86500000D01*
X119553999Y-79850001D02*
X119553999Y-85149999D01*
X120904000Y-78500000D02*
X119553999Y-79850001D01*
G04 #@! TO.N,Net-(C4-Pad1)*
X163164001Y-72039999D02*
X161544000Y-73660000D01*
X167321601Y-72039999D02*
X163164001Y-72039999D01*
X170842001Y-75560399D02*
X167321601Y-72039999D01*
X170842001Y-97725780D02*
X170842001Y-75560399D01*
X169537771Y-99030010D02*
X170842001Y-97725780D01*
X156247999Y-96303999D02*
X155448000Y-95504000D01*
X156986001Y-96303999D02*
X156247999Y-96303999D01*
X169537771Y-99030010D02*
X159712012Y-99030010D01*
X159712012Y-99030010D02*
X156986001Y-96303999D01*
X154316630Y-95504000D02*
X155448000Y-95504000D01*
X148673998Y-95504000D02*
X154316630Y-95504000D01*
X148165998Y-96012000D02*
X148673998Y-95504000D01*
X145288000Y-96012000D02*
X148165998Y-96012000D01*
X159884000Y-72000000D02*
X161544000Y-73660000D01*
X148500000Y-72000000D02*
X159884000Y-72000000D01*
G04 #@! TO.N,Net-(C4-Pad2)*
X161000000Y-90160000D02*
X160600000Y-90160000D01*
X151019998Y-90160000D02*
X161000000Y-90160000D01*
X150167998Y-91012000D02*
X151019998Y-90160000D01*
X145288000Y-91012000D02*
X150167998Y-91012000D01*
G04 #@! TO.N,Net-(D4-Pad1)*
X134216000Y-78120000D02*
X133096000Y-77000000D01*
X138000000Y-78120000D02*
X134216000Y-78120000D01*
X132296001Y-77799999D02*
X133096000Y-77000000D01*
X131904000Y-78192000D02*
X132296001Y-77799999D01*
X131904000Y-92160000D02*
X131904000Y-78192000D01*
X133204000Y-93460000D02*
X131904000Y-92160000D01*
X133604000Y-93460000D02*
X133204000Y-93460000D01*
G04 #@! TO.N,Net-(C3-Pad2)*
X133604000Y-90920000D02*
X141224000Y-90920000D01*
G04 #@! TO.N,Net-(C8-Pad1)*
X146304000Y-73884000D02*
X146304000Y-75184000D01*
X144420000Y-72000000D02*
X146304000Y-73884000D01*
X140880000Y-72000000D02*
X144420000Y-72000000D01*
G04 #@! TO.N,Net-(D6-Pad2)*
X153770000Y-78066000D02*
X158000000Y-82296000D01*
X153770000Y-77500000D02*
X153770000Y-78066000D01*
X144749999Y-78934001D02*
X142924000Y-80760000D01*
X148338002Y-77500000D02*
X146904001Y-78934001D01*
X146904001Y-78934001D02*
X144749999Y-78934001D01*
X153770000Y-77500000D02*
X148338002Y-77500000D01*
X142924000Y-80760000D02*
X141224000Y-80760000D01*
G04 #@! TO.N,Net-(D6-Pad1)*
X149080000Y-82296000D02*
X150380000Y-82296000D01*
X146853999Y-84522001D02*
X149080000Y-82296000D01*
X142846001Y-84522001D02*
X146853999Y-84522001D01*
X141624000Y-83300000D02*
X142846001Y-84522001D01*
X141224000Y-83300000D02*
X141624000Y-83300000D01*
G04 #@! TO.N,Net-(J2-Pad1)*
X121000000Y-89916000D02*
X125476000Y-89916000D01*
X133096000Y-97818320D02*
X133096000Y-99568000D01*
X131953990Y-96676310D02*
X133096000Y-97818320D01*
X131953990Y-95559988D02*
X131953990Y-96676310D01*
X127110001Y-90715999D02*
X131953990Y-95559988D01*
X126275999Y-90715999D02*
X127110001Y-90715999D01*
X125476000Y-89916000D02*
X126275999Y-90715999D01*
G04 #@! TO.N,Net-(J4-Pad1)*
X117856000Y-101092000D02*
X118346990Y-101582990D01*
X120396000Y-76200000D02*
X117856000Y-78740000D01*
X153924000Y-100584000D02*
X153924000Y-99568000D01*
X117856000Y-78740000D02*
X117856000Y-101092000D01*
X122725371Y-76200000D02*
X120396000Y-76200000D01*
X152925010Y-101582990D02*
X153924000Y-100584000D01*
X125265371Y-73660000D02*
X122725371Y-76200000D01*
X118346990Y-101582990D02*
X152925010Y-101582990D01*
X126920000Y-73660000D02*
X125265371Y-73660000D01*
G04 #@! TO.N,Net-(R12-Pad2)*
X159879999Y-86200001D02*
X161000000Y-85080000D01*
X153067999Y-86200001D02*
X159879999Y-86200001D01*
X152400000Y-86868000D02*
X153067999Y-86200001D01*
G04 #@! TD*
D30*
G04 #@! TO.N,+9V*
G36*
X163305001Y-49478289D02*
X163294715Y-49530000D01*
X163335461Y-49734845D01*
X163451496Y-49908504D01*
X163625155Y-50024539D01*
X163778294Y-50055000D01*
X163830000Y-50065285D01*
X163881706Y-50055000D01*
X170925000Y-50055000D01*
X170925000Y-74653449D01*
X167865325Y-71593775D01*
X167826272Y-71535328D01*
X167594727Y-71380614D01*
X167390541Y-71339999D01*
X167390536Y-71339999D01*
X167321601Y-71326287D01*
X167252666Y-71339999D01*
X163232935Y-71339999D01*
X163164000Y-71326287D01*
X163095065Y-71339999D01*
X163095061Y-71339999D01*
X162890875Y-71380614D01*
X162820996Y-71427306D01*
X162717773Y-71496277D01*
X162717772Y-71496278D01*
X162659330Y-71535328D01*
X162620280Y-71593770D01*
X162083895Y-72130156D01*
X161866238Y-72040000D01*
X161221762Y-72040000D01*
X161004105Y-72130156D01*
X160427724Y-71553776D01*
X160388671Y-71495329D01*
X160157126Y-71340615D01*
X159952940Y-71300000D01*
X159952935Y-71300000D01*
X159884000Y-71286288D01*
X159815065Y-71300000D01*
X149563041Y-71300000D01*
X149559699Y-71291932D01*
X149208068Y-70940301D01*
X148748640Y-70750000D01*
X148251360Y-70750000D01*
X147791932Y-70940301D01*
X147440301Y-71291932D01*
X147250000Y-71751360D01*
X147250000Y-72248640D01*
X147440301Y-72708068D01*
X147791932Y-73059699D01*
X148251360Y-73250000D01*
X148748640Y-73250000D01*
X149208068Y-73059699D01*
X149559699Y-72708068D01*
X149563041Y-72700000D01*
X155212974Y-72700000D01*
X155170630Y-72742344D01*
X154924000Y-73337762D01*
X154924000Y-73982238D01*
X155170630Y-74577656D01*
X155626344Y-75033370D01*
X156221762Y-75280000D01*
X156866238Y-75280000D01*
X157461656Y-75033370D01*
X157917370Y-74577656D01*
X158164000Y-73982238D01*
X158164000Y-73337762D01*
X157917370Y-72742344D01*
X157875026Y-72700000D01*
X159594052Y-72700000D01*
X160014156Y-73120105D01*
X159924000Y-73337762D01*
X159924000Y-73982238D01*
X160170630Y-74577656D01*
X160626344Y-75033370D01*
X161221762Y-75280000D01*
X161866238Y-75280000D01*
X162461656Y-75033370D01*
X162917370Y-74577656D01*
X163164000Y-73982238D01*
X163164000Y-73337762D01*
X163073844Y-73120105D01*
X163453951Y-72739999D01*
X165172975Y-72739999D01*
X165170630Y-72742344D01*
X164924000Y-73337762D01*
X164924000Y-73982238D01*
X165170630Y-74577656D01*
X165626344Y-75033370D01*
X166221762Y-75280000D01*
X166866238Y-75280000D01*
X167461656Y-75033370D01*
X167917370Y-74577656D01*
X168164000Y-73982238D01*
X168164000Y-73872347D01*
X169749652Y-75458000D01*
X169343360Y-75458000D01*
X168883932Y-75648301D01*
X168532301Y-75999932D01*
X168342000Y-76459360D01*
X168342000Y-76956640D01*
X168532301Y-77416068D01*
X168883932Y-77767699D01*
X169343360Y-77958000D01*
X169840640Y-77958000D01*
X170142002Y-77833172D01*
X170142002Y-79429256D01*
X169921199Y-79098801D01*
X169507725Y-78822527D01*
X169143109Y-78750000D01*
X168096891Y-78750000D01*
X167732275Y-78822527D01*
X167318801Y-79098801D01*
X167042527Y-79512275D01*
X166945512Y-80000000D01*
X167042527Y-80487725D01*
X167318801Y-80901199D01*
X167732275Y-81177473D01*
X168096891Y-81250000D01*
X169143109Y-81250000D01*
X169507725Y-81177473D01*
X169921199Y-80901199D01*
X170142002Y-80570744D01*
X170142002Y-81969256D01*
X169921199Y-81638801D01*
X169507725Y-81362527D01*
X169143109Y-81290000D01*
X168096891Y-81290000D01*
X167732275Y-81362527D01*
X167318801Y-81638801D01*
X167042527Y-82052275D01*
X166945512Y-82540000D01*
X167042527Y-83027725D01*
X167318801Y-83441199D01*
X167732275Y-83717473D01*
X168096891Y-83790000D01*
X169143109Y-83790000D01*
X169507725Y-83717473D01*
X169921199Y-83441199D01*
X170142002Y-83110744D01*
X170142002Y-84509256D01*
X169921199Y-84178801D01*
X169507725Y-83902527D01*
X169143109Y-83830000D01*
X168096891Y-83830000D01*
X167732275Y-83902527D01*
X167318801Y-84178801D01*
X167042527Y-84592275D01*
X166945512Y-85080000D01*
X167042527Y-85567725D01*
X167318801Y-85981199D01*
X167732275Y-86257473D01*
X168096891Y-86330000D01*
X169143109Y-86330000D01*
X169507725Y-86257473D01*
X169921199Y-85981199D01*
X170142002Y-85650744D01*
X170142001Y-87049256D01*
X169921199Y-86718801D01*
X169507725Y-86442527D01*
X169143109Y-86370000D01*
X168096891Y-86370000D01*
X167732275Y-86442527D01*
X167318801Y-86718801D01*
X167042527Y-87132275D01*
X166945512Y-87620000D01*
X167042527Y-88107725D01*
X167318801Y-88521199D01*
X167732275Y-88797473D01*
X168096891Y-88870000D01*
X169143109Y-88870000D01*
X169507725Y-88797473D01*
X169921199Y-88521199D01*
X170142001Y-88190744D01*
X170142001Y-89589256D01*
X169921199Y-89258801D01*
X169507725Y-88982527D01*
X169143109Y-88910000D01*
X168096891Y-88910000D01*
X167732275Y-88982527D01*
X167318801Y-89258801D01*
X167042527Y-89672275D01*
X166945512Y-90160000D01*
X167042527Y-90647725D01*
X167318801Y-91061199D01*
X167732275Y-91337473D01*
X167999272Y-91390582D01*
X167657183Y-91471897D01*
X167230050Y-91780762D01*
X166953628Y-92229572D01*
X166895357Y-92439574D01*
X167008531Y-92650000D01*
X168570000Y-92650000D01*
X168570000Y-92630000D01*
X168670000Y-92630000D01*
X168670000Y-92650000D01*
X168690000Y-92650000D01*
X168690000Y-92750000D01*
X168670000Y-92750000D01*
X168670000Y-92770000D01*
X168570000Y-92770000D01*
X168570000Y-92750000D01*
X167008531Y-92750000D01*
X166895357Y-92960426D01*
X166953628Y-93170428D01*
X167230050Y-93619238D01*
X167657183Y-93928103D01*
X167999272Y-94009418D01*
X167732275Y-94062527D01*
X167318801Y-94338801D01*
X167042527Y-94752275D01*
X166945512Y-95240000D01*
X167042527Y-95727725D01*
X167318801Y-96141199D01*
X167732275Y-96417473D01*
X168096891Y-96490000D01*
X169143109Y-96490000D01*
X169507725Y-96417473D01*
X169921199Y-96141199D01*
X170142001Y-95810745D01*
X170142001Y-97209255D01*
X169921199Y-96878801D01*
X169507725Y-96602527D01*
X169143109Y-96530000D01*
X168096891Y-96530000D01*
X167732275Y-96602527D01*
X167318801Y-96878801D01*
X167042527Y-97292275D01*
X166945512Y-97780000D01*
X167042527Y-98267725D01*
X167084144Y-98330010D01*
X162535856Y-98330010D01*
X162577473Y-98267725D01*
X162674488Y-97780000D01*
X162577473Y-97292275D01*
X162301199Y-96878801D01*
X161887725Y-96602527D01*
X161523109Y-96530000D01*
X160476891Y-96530000D01*
X160112275Y-96602527D01*
X159698801Y-96878801D01*
X159422527Y-97292275D01*
X159346490Y-97674539D01*
X158373715Y-96701764D01*
X158475725Y-96681473D01*
X158889199Y-96405199D01*
X159165473Y-95991725D01*
X159262488Y-95504000D01*
X159209975Y-95240000D01*
X159325512Y-95240000D01*
X159422527Y-95727725D01*
X159698801Y-96141199D01*
X160112275Y-96417473D01*
X160476891Y-96490000D01*
X161523109Y-96490000D01*
X161887725Y-96417473D01*
X162301199Y-96141199D01*
X162577473Y-95727725D01*
X162674488Y-95240000D01*
X162577473Y-94752275D01*
X162301199Y-94338801D01*
X161887725Y-94062527D01*
X161523109Y-93990000D01*
X160476891Y-93990000D01*
X160112275Y-94062527D01*
X159698801Y-94338801D01*
X159422527Y-94752275D01*
X159325512Y-95240000D01*
X159209975Y-95240000D01*
X159165473Y-95016275D01*
X158889199Y-94602801D01*
X158475725Y-94326527D01*
X158111109Y-94254000D01*
X157864891Y-94254000D01*
X157500275Y-94326527D01*
X157086801Y-94602801D01*
X156810527Y-95016275D01*
X156713512Y-95504000D01*
X156733403Y-95603999D01*
X156698000Y-95603999D01*
X156698000Y-95255360D01*
X156507699Y-94795932D01*
X156156068Y-94444301D01*
X155696640Y-94254000D01*
X155199360Y-94254000D01*
X154739932Y-94444301D01*
X154388301Y-94795932D01*
X154384959Y-94804000D01*
X148742932Y-94804000D01*
X148673997Y-94790288D01*
X148605062Y-94804000D01*
X148605058Y-94804000D01*
X148400872Y-94844615D01*
X148400870Y-94844616D01*
X148400871Y-94844616D01*
X148227770Y-94960278D01*
X148227769Y-94960279D01*
X148169327Y-94999329D01*
X148130277Y-95057771D01*
X147876049Y-95312000D01*
X146351041Y-95312000D01*
X146347699Y-95303932D01*
X145996068Y-94952301D01*
X145536640Y-94762000D01*
X145039360Y-94762000D01*
X144579932Y-94952301D01*
X144228301Y-95303932D01*
X144038000Y-95763360D01*
X144038000Y-96260640D01*
X144228301Y-96720068D01*
X144579932Y-97071699D01*
X145039360Y-97262000D01*
X145536640Y-97262000D01*
X145996068Y-97071699D01*
X146347699Y-96720068D01*
X146351041Y-96712000D01*
X147788369Y-96712000D01*
X147725512Y-97028000D01*
X147822527Y-97515725D01*
X148098801Y-97929199D01*
X148512275Y-98205473D01*
X148876891Y-98278000D01*
X149123109Y-98278000D01*
X149286297Y-98245540D01*
X148926810Y-98605027D01*
X148668000Y-99229849D01*
X148668000Y-99906151D01*
X148926810Y-100530973D01*
X149278827Y-100882990D01*
X145768054Y-100882990D01*
X146179714Y-100712475D01*
X146559475Y-100332714D01*
X146765000Y-99836532D01*
X146765000Y-99299468D01*
X146559475Y-98803286D01*
X146179714Y-98423525D01*
X145683532Y-98218000D01*
X145146468Y-98218000D01*
X144650286Y-98423525D01*
X144270525Y-98803286D01*
X144233816Y-98891910D01*
X144233816Y-98668000D01*
X144198891Y-98492419D01*
X144099432Y-98343568D01*
X143950581Y-98244109D01*
X143775000Y-98209184D01*
X141975000Y-98209184D01*
X141799419Y-98244109D01*
X141650568Y-98343568D01*
X141551109Y-98492419D01*
X141516184Y-98668000D01*
X141516184Y-100468000D01*
X141551109Y-100643581D01*
X141650568Y-100792432D01*
X141786098Y-100882990D01*
X140534721Y-100882990D01*
X140886919Y-100530792D01*
X141145680Y-99906087D01*
X141145680Y-99229913D01*
X140886919Y-98605208D01*
X140408792Y-98127081D01*
X139784087Y-97868320D01*
X139107913Y-97868320D01*
X138483208Y-98127081D01*
X138005081Y-98605208D01*
X137858500Y-98959086D01*
X137711919Y-98605208D01*
X137233792Y-98127081D01*
X136609087Y-97868320D01*
X135932913Y-97868320D01*
X135308208Y-98127081D01*
X134830081Y-98605208D01*
X134804496Y-98666976D01*
X134804496Y-98318320D01*
X134769571Y-98142739D01*
X134670112Y-97993888D01*
X134521261Y-97894429D01*
X134345680Y-97859504D01*
X133801520Y-97859504D01*
X133809712Y-97818319D01*
X133796000Y-97749384D01*
X133796000Y-97749380D01*
X133755385Y-97545194D01*
X133651702Y-97390023D01*
X133639722Y-97372093D01*
X133639720Y-97372091D01*
X133600670Y-97313649D01*
X133542228Y-97274599D01*
X133517629Y-97250000D01*
X134127109Y-97250000D01*
X134491725Y-97177473D01*
X134905199Y-96901199D01*
X135181473Y-96487725D01*
X135278488Y-96000000D01*
X139549512Y-96000000D01*
X139646527Y-96487725D01*
X139922801Y-96901199D01*
X140336275Y-97177473D01*
X140700891Y-97250000D01*
X141747109Y-97250000D01*
X142111725Y-97177473D01*
X142525199Y-96901199D01*
X142801473Y-96487725D01*
X142898488Y-96000000D01*
X142801473Y-95512275D01*
X142525199Y-95098801D01*
X142111725Y-94822527D01*
X141747109Y-94750000D01*
X140700891Y-94750000D01*
X140336275Y-94822527D01*
X139922801Y-95098801D01*
X139646527Y-95512275D01*
X139549512Y-96000000D01*
X135278488Y-96000000D01*
X135181473Y-95512275D01*
X134905199Y-95098801D01*
X134491725Y-94822527D01*
X134127109Y-94750000D01*
X133080891Y-94750000D01*
X132716275Y-94822527D01*
X132413270Y-95024988D01*
X132400218Y-95016267D01*
X127653726Y-90269775D01*
X127614672Y-90211328D01*
X127383127Y-90056614D01*
X127178941Y-90015999D01*
X127178936Y-90015999D01*
X127110001Y-90002287D01*
X127041066Y-90015999D01*
X126730597Y-90015999D01*
X126750488Y-89916000D01*
X126716944Y-89747360D01*
X128290000Y-89747360D01*
X128290000Y-90244640D01*
X128480301Y-90704068D01*
X128831932Y-91055699D01*
X129291360Y-91246000D01*
X129788640Y-91246000D01*
X130248068Y-91055699D01*
X130599699Y-90704068D01*
X130790000Y-90244640D01*
X130790000Y-89747360D01*
X130599699Y-89287932D01*
X130248068Y-88936301D01*
X129788640Y-88746000D01*
X129291360Y-88746000D01*
X128831932Y-88936301D01*
X128480301Y-89287932D01*
X128290000Y-89747360D01*
X126716944Y-89747360D01*
X126653473Y-89428275D01*
X126377199Y-89014801D01*
X125963725Y-88738527D01*
X125599109Y-88666000D01*
X125352891Y-88666000D01*
X124988275Y-88738527D01*
X124574801Y-89014801D01*
X124440364Y-89216000D01*
X121967041Y-89216000D01*
X121963699Y-89207932D01*
X121612068Y-88856301D01*
X121152640Y-88666000D01*
X120655360Y-88666000D01*
X120195932Y-88856301D01*
X119844301Y-89207932D01*
X119654000Y-89667360D01*
X119654000Y-90164640D01*
X119844301Y-90624068D01*
X120195932Y-90975699D01*
X120655360Y-91166000D01*
X121152640Y-91166000D01*
X121612068Y-90975699D01*
X121963699Y-90624068D01*
X121967041Y-90616000D01*
X124440364Y-90616000D01*
X124574801Y-90817199D01*
X124988275Y-91093473D01*
X125352891Y-91166000D01*
X125599109Y-91166000D01*
X125713330Y-91143280D01*
X125732278Y-91162228D01*
X125771328Y-91220670D01*
X125829770Y-91259720D01*
X125829771Y-91259721D01*
X125932994Y-91328692D01*
X126002873Y-91375384D01*
X126207059Y-91415999D01*
X126207063Y-91415999D01*
X126275998Y-91429711D01*
X126344933Y-91415999D01*
X126820053Y-91415999D01*
X129191441Y-93787388D01*
X128831932Y-93936301D01*
X128480301Y-94287932D01*
X128290000Y-94747360D01*
X128290000Y-95244640D01*
X128480301Y-95704068D01*
X128831932Y-96055699D01*
X129291360Y-96246000D01*
X129788640Y-96246000D01*
X130248068Y-96055699D01*
X130599699Y-95704068D01*
X130748612Y-95344559D01*
X131253990Y-95849937D01*
X131253991Y-96607370D01*
X131240278Y-96676310D01*
X131294606Y-96949436D01*
X131336456Y-97012068D01*
X131449320Y-97180981D01*
X131507764Y-97220032D01*
X132147235Y-97859504D01*
X131846320Y-97859504D01*
X131670739Y-97894429D01*
X131521888Y-97993888D01*
X131422429Y-98142739D01*
X131387504Y-98318320D01*
X131387504Y-100817680D01*
X131400495Y-100882990D01*
X128089173Y-100882990D01*
X128441190Y-100530973D01*
X128700000Y-99906151D01*
X128700000Y-99229849D01*
X128441190Y-98605027D01*
X127962973Y-98126810D01*
X127338151Y-97868000D01*
X126691471Y-97868000D01*
X126726000Y-97784640D01*
X126726000Y-97287360D01*
X126535699Y-96827932D01*
X126184068Y-96476301D01*
X125724640Y-96286000D01*
X125227360Y-96286000D01*
X124767932Y-96476301D01*
X124416301Y-96827932D01*
X124226000Y-97287360D01*
X124226000Y-97784640D01*
X124256877Y-97859184D01*
X122114202Y-97859184D01*
X122178488Y-97536000D01*
X122081473Y-97048275D01*
X121805199Y-96634801D01*
X121391725Y-96358527D01*
X121027109Y-96286000D01*
X120780891Y-96286000D01*
X120416275Y-96358527D01*
X120002801Y-96634801D01*
X119726527Y-97048275D01*
X119629512Y-97536000D01*
X119726527Y-98023725D01*
X120002801Y-98437199D01*
X120416275Y-98713473D01*
X120780891Y-98786000D01*
X121027109Y-98786000D01*
X121391725Y-98713473D01*
X121481184Y-98653699D01*
X121481184Y-100818000D01*
X121494111Y-100882990D01*
X118636939Y-100882990D01*
X118556000Y-100802052D01*
X118556000Y-79029948D01*
X119545184Y-78040765D01*
X119545184Y-78868868D01*
X119107773Y-79306279D01*
X119049328Y-79345331D01*
X118894614Y-79576876D01*
X118853999Y-79781062D01*
X118853999Y-79781066D01*
X118840287Y-79850001D01*
X118853999Y-79918936D01*
X118854000Y-85081059D01*
X118840287Y-85149999D01*
X118854000Y-85218939D01*
X118894615Y-85423125D01*
X119049329Y-85654670D01*
X119107773Y-85693721D01*
X119580805Y-86166754D01*
X119554000Y-86231468D01*
X119554000Y-86768532D01*
X119759525Y-87264714D01*
X120139286Y-87644475D01*
X120635468Y-87850000D01*
X121172532Y-87850000D01*
X121668714Y-87644475D01*
X122048475Y-87264714D01*
X122105368Y-87127360D01*
X123718000Y-87127360D01*
X123718000Y-87624640D01*
X123908301Y-88084068D01*
X124259932Y-88435699D01*
X124719360Y-88626000D01*
X125216640Y-88626000D01*
X125676068Y-88435699D01*
X126027699Y-88084068D01*
X126218000Y-87624640D01*
X126218000Y-87376000D01*
X126741512Y-87376000D01*
X126838527Y-87863725D01*
X127114801Y-88277199D01*
X127528275Y-88553473D01*
X127892891Y-88626000D01*
X128139109Y-88626000D01*
X128503725Y-88553473D01*
X128917199Y-88277199D01*
X129193473Y-87863725D01*
X129290488Y-87376000D01*
X129193473Y-86888275D01*
X128917199Y-86474801D01*
X128503725Y-86198527D01*
X128139109Y-86126000D01*
X127892891Y-86126000D01*
X127528275Y-86198527D01*
X127114801Y-86474801D01*
X126838527Y-86888275D01*
X126741512Y-87376000D01*
X126218000Y-87376000D01*
X126218000Y-87127360D01*
X126027699Y-86667932D01*
X125676068Y-86316301D01*
X125216640Y-86126000D01*
X124719360Y-86126000D01*
X124259932Y-86316301D01*
X123908301Y-86667932D01*
X123718000Y-87127360D01*
X122105368Y-87127360D01*
X122254000Y-86768532D01*
X122254000Y-86231468D01*
X122048475Y-85735286D01*
X121668714Y-85355525D01*
X121580090Y-85318816D01*
X121804000Y-85318816D01*
X121979581Y-85283891D01*
X122128432Y-85184432D01*
X122227891Y-85035581D01*
X122262816Y-84860000D01*
X122262816Y-83060000D01*
X122227891Y-82884419D01*
X122128432Y-82735568D01*
X121979581Y-82636109D01*
X121804000Y-82601184D01*
X120253999Y-82601184D01*
X120253999Y-82231991D01*
X120635468Y-82390000D01*
X121172532Y-82390000D01*
X121668714Y-82184475D01*
X122048475Y-81804714D01*
X122254000Y-81308532D01*
X122254000Y-80771468D01*
X122048475Y-80275286D01*
X121668714Y-79895525D01*
X121580090Y-79858816D01*
X121804000Y-79858816D01*
X121979581Y-79823891D01*
X122081187Y-79756000D01*
X123693512Y-79756000D01*
X123790527Y-80243725D01*
X124066801Y-80657199D01*
X124480275Y-80933473D01*
X124844891Y-81006000D01*
X125091109Y-81006000D01*
X125455725Y-80933473D01*
X125854964Y-80666710D01*
X127176000Y-80666710D01*
X127247929Y-80898224D01*
X127743504Y-81105206D01*
X128280565Y-81106783D01*
X128777349Y-80902716D01*
X128784071Y-80898224D01*
X128856000Y-80666710D01*
X128016000Y-79826711D01*
X127176000Y-80666710D01*
X125854964Y-80666710D01*
X125869199Y-80657199D01*
X126145473Y-80243725D01*
X126189862Y-80020565D01*
X126665217Y-80020565D01*
X126869284Y-80517349D01*
X126873776Y-80524071D01*
X127105290Y-80596000D01*
X127945289Y-79756000D01*
X128086711Y-79756000D01*
X128926710Y-80596000D01*
X129158224Y-80524071D01*
X129365206Y-80028496D01*
X129366783Y-79491435D01*
X129162716Y-78994651D01*
X129158224Y-78987929D01*
X128926710Y-78916000D01*
X128086711Y-79756000D01*
X127945289Y-79756000D01*
X127105290Y-78916000D01*
X126873776Y-78987929D01*
X126666794Y-79483504D01*
X126665217Y-80020565D01*
X126189862Y-80020565D01*
X126242488Y-79756000D01*
X126145473Y-79268275D01*
X125869199Y-78854801D01*
X125854965Y-78845290D01*
X127176000Y-78845290D01*
X128016000Y-79685289D01*
X128856000Y-78845290D01*
X128784071Y-78613776D01*
X128288496Y-78406794D01*
X127751435Y-78405217D01*
X127254651Y-78609284D01*
X127247929Y-78613776D01*
X127176000Y-78845290D01*
X125854965Y-78845290D01*
X125455725Y-78578527D01*
X125091109Y-78506000D01*
X124844891Y-78506000D01*
X124480275Y-78578527D01*
X124066801Y-78854801D01*
X123790527Y-79268275D01*
X123693512Y-79756000D01*
X122081187Y-79756000D01*
X122128432Y-79724432D01*
X122227891Y-79575581D01*
X122262816Y-79400000D01*
X122262816Y-77600000D01*
X122227891Y-77424419D01*
X122128432Y-77275568D01*
X121979581Y-77176109D01*
X121804000Y-77141184D01*
X120444766Y-77141184D01*
X120685950Y-76900000D01*
X122656436Y-76900000D01*
X122725371Y-76913712D01*
X122794306Y-76900000D01*
X122794311Y-76900000D01*
X122998497Y-76859385D01*
X123160167Y-76751360D01*
X124226000Y-76751360D01*
X124226000Y-77248640D01*
X124416301Y-77708068D01*
X124767932Y-78059699D01*
X125227360Y-78250000D01*
X125724640Y-78250000D01*
X126184068Y-78059699D01*
X126535699Y-77708068D01*
X126726000Y-77248640D01*
X126726000Y-76751360D01*
X126535699Y-76291932D01*
X126184068Y-75940301D01*
X125724640Y-75750000D01*
X125227360Y-75750000D01*
X124767932Y-75940301D01*
X124416301Y-76291932D01*
X124226000Y-76751360D01*
X123160167Y-76751360D01*
X123230042Y-76704671D01*
X123269095Y-76646224D01*
X125485426Y-74429895D01*
X125546630Y-74577656D01*
X126002344Y-75033370D01*
X126597762Y-75280000D01*
X127242238Y-75280000D01*
X127837656Y-75033370D01*
X128293370Y-74577656D01*
X128540000Y-73982238D01*
X128540000Y-73337762D01*
X128293370Y-72742344D01*
X128291025Y-72739999D01*
X130548975Y-72739999D01*
X130546630Y-72742344D01*
X130300000Y-73337762D01*
X130300000Y-73982238D01*
X130546630Y-74577656D01*
X131002344Y-75033370D01*
X131597762Y-75280000D01*
X132242238Y-75280000D01*
X132837656Y-75033370D01*
X133293370Y-74577656D01*
X133540000Y-73982238D01*
X133540000Y-73337762D01*
X133293370Y-72742344D01*
X133291025Y-72739999D01*
X135758051Y-72739999D01*
X141188279Y-78170229D01*
X141227329Y-78228671D01*
X141285771Y-78267721D01*
X141285772Y-78267722D01*
X141341069Y-78304670D01*
X141458874Y-78383385D01*
X141663060Y-78424000D01*
X141663064Y-78424000D01*
X141731999Y-78437712D01*
X141800934Y-78424000D01*
X144253305Y-78424000D01*
X144245328Y-78429330D01*
X144206278Y-78487772D01*
X142649388Y-80044664D01*
X142525199Y-79858801D01*
X142111725Y-79582527D01*
X141747109Y-79510000D01*
X140700891Y-79510000D01*
X140336275Y-79582527D01*
X139922801Y-79858801D01*
X139646527Y-80272275D01*
X139549512Y-80760000D01*
X139646527Y-81247725D01*
X139922801Y-81661199D01*
X140336275Y-81937473D01*
X140700891Y-82010000D01*
X141747109Y-82010000D01*
X142111725Y-81937473D01*
X142525199Y-81661199D01*
X142659636Y-81460000D01*
X142855065Y-81460000D01*
X142924000Y-81473712D01*
X142992935Y-81460000D01*
X142992940Y-81460000D01*
X143197126Y-81419385D01*
X143428671Y-81264671D01*
X143467724Y-81206224D01*
X145039949Y-79634001D01*
X145199872Y-79634001D01*
X145179568Y-79647568D01*
X145080109Y-79796419D01*
X145045184Y-79972000D01*
X145045184Y-81572000D01*
X145080109Y-81747581D01*
X145179568Y-81896432D01*
X145328419Y-81995891D01*
X145504000Y-82030816D01*
X146034076Y-82030816D01*
X145595932Y-82212301D01*
X145244301Y-82563932D01*
X145054000Y-83023360D01*
X145054000Y-83520640D01*
X145178828Y-83822001D01*
X143135951Y-83822001D01*
X142851280Y-83537331D01*
X142898488Y-83300000D01*
X142801473Y-82812275D01*
X142525199Y-82398801D01*
X142111725Y-82122527D01*
X141747109Y-82050000D01*
X140700891Y-82050000D01*
X140336275Y-82122527D01*
X139922801Y-82398801D01*
X139646527Y-82812275D01*
X139549512Y-83300000D01*
X139646527Y-83787725D01*
X139922801Y-84201199D01*
X140336275Y-84477473D01*
X140700891Y-84550000D01*
X141747109Y-84550000D01*
X141861331Y-84527280D01*
X141967986Y-84633935D01*
X141747109Y-84590000D01*
X140700891Y-84590000D01*
X140336275Y-84662527D01*
X139922801Y-84938801D01*
X139646527Y-85352275D01*
X139549512Y-85840000D01*
X139646527Y-86327725D01*
X139688144Y-86390010D01*
X139383960Y-86390010D01*
X135847724Y-82853776D01*
X135808671Y-82795329D01*
X135577126Y-82640615D01*
X135372940Y-82600000D01*
X135372935Y-82600000D01*
X135304000Y-82586288D01*
X135235065Y-82600000D01*
X135039636Y-82600000D01*
X134905199Y-82398801D01*
X134491725Y-82122527D01*
X134127109Y-82050000D01*
X133080891Y-82050000D01*
X132716275Y-82122527D01*
X132604000Y-82197547D01*
X132604000Y-82018816D01*
X134804000Y-82018816D01*
X134979581Y-81983891D01*
X135128432Y-81884432D01*
X135227891Y-81735581D01*
X135262816Y-81560000D01*
X135262816Y-79960000D01*
X135227891Y-79784419D01*
X135128432Y-79635568D01*
X134979581Y-79536109D01*
X134804000Y-79501184D01*
X132604000Y-79501184D01*
X132604000Y-78481948D01*
X132839723Y-78246225D01*
X132858669Y-78227280D01*
X132972891Y-78250000D01*
X133219109Y-78250000D01*
X133333331Y-78227280D01*
X133672277Y-78566226D01*
X133711329Y-78624671D01*
X133942874Y-78779385D01*
X134147060Y-78820000D01*
X134147064Y-78820000D01*
X134215999Y-78833712D01*
X134284934Y-78820000D01*
X136741184Y-78820000D01*
X136741184Y-78920000D01*
X136776109Y-79095581D01*
X136875568Y-79244432D01*
X137024419Y-79343891D01*
X137200000Y-79378816D01*
X138800000Y-79378816D01*
X138975581Y-79343891D01*
X139124432Y-79244432D01*
X139223891Y-79095581D01*
X139258816Y-78920000D01*
X139258816Y-77320000D01*
X139223891Y-77144419D01*
X139124432Y-76995568D01*
X138975581Y-76896109D01*
X138800000Y-76861184D01*
X137200000Y-76861184D01*
X137024419Y-76896109D01*
X136875568Y-76995568D01*
X136776109Y-77144419D01*
X136741184Y-77320000D01*
X136741184Y-77420000D01*
X134505949Y-77420000D01*
X134323280Y-77237331D01*
X134370488Y-77000000D01*
X134273473Y-76512275D01*
X133997199Y-76098801D01*
X133583725Y-75822527D01*
X133219109Y-75750000D01*
X132972891Y-75750000D01*
X132608275Y-75822527D01*
X132194801Y-76098801D01*
X131918527Y-76512275D01*
X131821512Y-77000000D01*
X131868720Y-77237331D01*
X131849774Y-77256277D01*
X131849775Y-77256277D01*
X131457775Y-77648277D01*
X131399330Y-77687329D01*
X131360278Y-77745774D01*
X131244616Y-77918874D01*
X131190288Y-78192000D01*
X131204001Y-78260940D01*
X131204000Y-92091065D01*
X131190288Y-92160000D01*
X131204000Y-92228935D01*
X131204000Y-92228939D01*
X131244615Y-92433125D01*
X131399329Y-92664670D01*
X131457774Y-92703722D01*
X131976720Y-93222669D01*
X131929512Y-93460000D01*
X132026527Y-93947725D01*
X132302801Y-94361199D01*
X132716275Y-94637473D01*
X133080891Y-94710000D01*
X134127109Y-94710000D01*
X134491725Y-94637473D01*
X134905199Y-94361199D01*
X135181473Y-93947725D01*
X135278488Y-93460000D01*
X139549512Y-93460000D01*
X139646527Y-93947725D01*
X139922801Y-94361199D01*
X140336275Y-94637473D01*
X140700891Y-94710000D01*
X141747109Y-94710000D01*
X142111725Y-94637473D01*
X142525199Y-94361199D01*
X142801473Y-93947725D01*
X142898488Y-93460000D01*
X142896698Y-93451000D01*
X150895184Y-93451000D01*
X150895184Y-94001000D01*
X150951042Y-94281819D01*
X151110114Y-94519886D01*
X151348181Y-94678958D01*
X151629000Y-94734816D01*
X152879000Y-94734816D01*
X153159819Y-94678958D01*
X153397886Y-94519886D01*
X153556958Y-94281819D01*
X153612816Y-94001000D01*
X153612816Y-93451000D01*
X153612127Y-93447536D01*
X153699000Y-93464816D01*
X154949000Y-93464816D01*
X155229819Y-93408958D01*
X155467886Y-93249886D01*
X155626958Y-93011819D01*
X155682816Y-92731000D01*
X155682816Y-92456000D01*
X156205512Y-92456000D01*
X156302527Y-92943725D01*
X156578801Y-93357199D01*
X156992275Y-93633473D01*
X157356891Y-93706000D01*
X157603109Y-93706000D01*
X157967725Y-93633473D01*
X158381199Y-93357199D01*
X158657473Y-92943725D01*
X158705953Y-92700000D01*
X159325512Y-92700000D01*
X159422527Y-93187725D01*
X159698801Y-93601199D01*
X160112275Y-93877473D01*
X160476891Y-93950000D01*
X161523109Y-93950000D01*
X161887725Y-93877473D01*
X162301199Y-93601199D01*
X162577473Y-93187725D01*
X162674488Y-92700000D01*
X162577473Y-92212275D01*
X162301199Y-91798801D01*
X161887725Y-91522527D01*
X161523109Y-91450000D01*
X160476891Y-91450000D01*
X160112275Y-91522527D01*
X159698801Y-91798801D01*
X159422527Y-92212275D01*
X159325512Y-92700000D01*
X158705953Y-92700000D01*
X158754488Y-92456000D01*
X158657473Y-91968275D01*
X158381199Y-91554801D01*
X157967725Y-91278527D01*
X157603109Y-91206000D01*
X157356891Y-91206000D01*
X156992275Y-91278527D01*
X156578801Y-91554801D01*
X156302527Y-91968275D01*
X156205512Y-92456000D01*
X155682816Y-92456000D01*
X155682816Y-92181000D01*
X155626958Y-91900181D01*
X155467886Y-91662114D01*
X155229819Y-91503042D01*
X154949000Y-91447184D01*
X153704000Y-91447184D01*
X153704000Y-91373500D01*
X153566500Y-91236000D01*
X152304000Y-91236000D01*
X152304000Y-92148500D01*
X152441500Y-92286000D01*
X152965184Y-92286000D01*
X152965184Y-92731000D01*
X152965873Y-92734464D01*
X152879000Y-92717184D01*
X151629000Y-92717184D01*
X151348181Y-92773042D01*
X151110114Y-92932114D01*
X150951042Y-93170181D01*
X150895184Y-93451000D01*
X142896698Y-93451000D01*
X142801473Y-92972275D01*
X142525199Y-92558801D01*
X142111725Y-92282527D01*
X141747109Y-92210000D01*
X140700891Y-92210000D01*
X140336275Y-92282527D01*
X139922801Y-92558801D01*
X139646527Y-92972275D01*
X139549512Y-93460000D01*
X135278488Y-93460000D01*
X135181473Y-92972275D01*
X134905199Y-92558801D01*
X134491725Y-92282527D01*
X134127109Y-92210000D01*
X133080891Y-92210000D01*
X132966669Y-92232720D01*
X132860013Y-92126064D01*
X133080891Y-92170000D01*
X134127109Y-92170000D01*
X134491725Y-92097473D01*
X134905199Y-91821199D01*
X135039636Y-91620000D01*
X139788364Y-91620000D01*
X139922801Y-91821199D01*
X140336275Y-92097473D01*
X140700891Y-92170000D01*
X141747109Y-92170000D01*
X142111725Y-92097473D01*
X142525199Y-91821199D01*
X142801473Y-91407725D01*
X142898488Y-90920000D01*
X142801473Y-90432275D01*
X142525199Y-90018801D01*
X142111725Y-89742527D01*
X141747109Y-89670000D01*
X140700891Y-89670000D01*
X140336275Y-89742527D01*
X139922801Y-90018801D01*
X139788364Y-90220000D01*
X135039636Y-90220000D01*
X134905199Y-90018801D01*
X134491725Y-89742527D01*
X134224728Y-89689418D01*
X134566817Y-89608103D01*
X134993950Y-89299238D01*
X135270372Y-88850428D01*
X135328643Y-88640426D01*
X135215469Y-88430000D01*
X133654000Y-88430000D01*
X133654000Y-88450000D01*
X133554000Y-88450000D01*
X133554000Y-88430000D01*
X133534000Y-88430000D01*
X133534000Y-88330000D01*
X133554000Y-88330000D01*
X133554000Y-88310000D01*
X133654000Y-88310000D01*
X133654000Y-88330000D01*
X135215469Y-88330000D01*
X135328643Y-88119574D01*
X135270372Y-87909572D01*
X134993950Y-87460762D01*
X134566817Y-87151897D01*
X134224728Y-87070582D01*
X134491725Y-87017473D01*
X134905199Y-86741199D01*
X135181473Y-86327725D01*
X135278488Y-85840000D01*
X135181473Y-85352275D01*
X134905199Y-84938801D01*
X134491725Y-84662527D01*
X134127109Y-84590000D01*
X133080891Y-84590000D01*
X132716275Y-84662527D01*
X132604000Y-84737547D01*
X132604000Y-84402453D01*
X132716275Y-84477473D01*
X133080891Y-84550000D01*
X134127109Y-84550000D01*
X134491725Y-84477473D01*
X134905199Y-84201199D01*
X135029388Y-84015336D01*
X138550289Y-87536239D01*
X138589339Y-87594681D01*
X138647781Y-87633731D01*
X138647783Y-87633733D01*
X138820883Y-87749395D01*
X138867050Y-87758578D01*
X139025070Y-87790010D01*
X139025073Y-87790010D01*
X139094010Y-87803722D01*
X139162946Y-87790010D01*
X139714858Y-87790010D01*
X139646527Y-87892275D01*
X139549512Y-88380000D01*
X139646527Y-88867725D01*
X139922801Y-89281199D01*
X140336275Y-89557473D01*
X140700891Y-89630000D01*
X141747109Y-89630000D01*
X142111725Y-89557473D01*
X142525199Y-89281199D01*
X142801473Y-88867725D01*
X142898488Y-88380000D01*
X142801473Y-87892275D01*
X142733142Y-87790010D01*
X143209685Y-87790010D01*
X143278620Y-87803722D01*
X143347555Y-87790010D01*
X143347560Y-87790010D01*
X143551746Y-87749395D01*
X143625671Y-87700000D01*
X144568940Y-87700000D01*
X144773126Y-87659385D01*
X144794892Y-87644841D01*
X145216277Y-88066226D01*
X145255329Y-88124671D01*
X145486874Y-88279385D01*
X145691060Y-88320000D01*
X145691064Y-88320000D01*
X145759999Y-88333712D01*
X145828934Y-88320000D01*
X148360257Y-88320000D01*
X148291932Y-88348301D01*
X147940301Y-88699932D01*
X147750000Y-89159360D01*
X147750000Y-89656640D01*
X147940301Y-90116068D01*
X148136233Y-90312000D01*
X146351041Y-90312000D01*
X146347699Y-90303932D01*
X145996068Y-89952301D01*
X145536640Y-89762000D01*
X145039360Y-89762000D01*
X144579932Y-89952301D01*
X144228301Y-90303932D01*
X144038000Y-90763360D01*
X144038000Y-91260640D01*
X144228301Y-91720068D01*
X144579932Y-92071699D01*
X145039360Y-92262000D01*
X145536640Y-92262000D01*
X145996068Y-92071699D01*
X146347699Y-91720068D01*
X146351041Y-91712000D01*
X150099063Y-91712000D01*
X150167998Y-91725712D01*
X150236933Y-91712000D01*
X150236938Y-91712000D01*
X150441124Y-91671385D01*
X150672669Y-91516671D01*
X150711722Y-91458224D01*
X150933944Y-91236002D01*
X150941498Y-91236002D01*
X150804000Y-91373500D01*
X150804000Y-91845402D01*
X150887733Y-92047550D01*
X151042450Y-92202268D01*
X151244598Y-92286000D01*
X152066500Y-92286000D01*
X152204000Y-92148500D01*
X152204000Y-91236000D01*
X152184000Y-91236000D01*
X152184000Y-91136000D01*
X152204000Y-91136000D01*
X152204000Y-91116000D01*
X152304000Y-91116000D01*
X152304000Y-91136000D01*
X153566500Y-91136000D01*
X153704000Y-90998500D01*
X153704000Y-90860000D01*
X159564364Y-90860000D01*
X159698801Y-91061199D01*
X160112275Y-91337473D01*
X160476891Y-91410000D01*
X161523109Y-91410000D01*
X161887725Y-91337473D01*
X162301199Y-91061199D01*
X162577473Y-90647725D01*
X162674488Y-90160000D01*
X162577473Y-89672275D01*
X162301199Y-89258801D01*
X161887725Y-88982527D01*
X161523109Y-88910000D01*
X160476891Y-88910000D01*
X160112275Y-88982527D01*
X159698801Y-89258801D01*
X159564364Y-89460000D01*
X151088933Y-89460000D01*
X151019998Y-89446288D01*
X150951063Y-89460000D01*
X150951058Y-89460000D01*
X150746872Y-89500615D01*
X150515327Y-89655329D01*
X150476275Y-89713774D01*
X149878050Y-90312000D01*
X149863767Y-90312000D01*
X150059699Y-90116068D01*
X150250000Y-89656640D01*
X150250000Y-89159360D01*
X150059699Y-88699932D01*
X149708068Y-88348301D01*
X149639743Y-88320000D01*
X159564364Y-88320000D01*
X159698801Y-88521199D01*
X160112275Y-88797473D01*
X160476891Y-88870000D01*
X161523109Y-88870000D01*
X161887725Y-88797473D01*
X162301199Y-88521199D01*
X162577473Y-88107725D01*
X162674488Y-87620000D01*
X162577473Y-87132275D01*
X162301199Y-86718801D01*
X161887725Y-86442527D01*
X161523109Y-86370000D01*
X160699948Y-86370000D01*
X160739948Y-86330000D01*
X161523109Y-86330000D01*
X161887725Y-86257473D01*
X162301199Y-85981199D01*
X162577473Y-85567725D01*
X162674488Y-85080000D01*
X162577473Y-84592275D01*
X162301199Y-84178801D01*
X161887725Y-83902527D01*
X161523109Y-83830000D01*
X160476891Y-83830000D01*
X160112275Y-83902527D01*
X159698801Y-84178801D01*
X159422527Y-84592275D01*
X159325512Y-85080000D01*
X159409056Y-85500001D01*
X158830000Y-85500001D01*
X158830000Y-85023500D01*
X158692500Y-84886000D01*
X157530000Y-84886000D01*
X157530000Y-84906000D01*
X157430000Y-84906000D01*
X157430000Y-84886000D01*
X156267500Y-84886000D01*
X156130000Y-85023500D01*
X156130000Y-85500001D01*
X153136933Y-85500001D01*
X153067998Y-85486289D01*
X153042901Y-85491281D01*
X153021199Y-85458801D01*
X152607725Y-85182527D01*
X152243109Y-85110000D01*
X151996891Y-85110000D01*
X151632275Y-85182527D01*
X151218801Y-85458801D01*
X150942527Y-85872275D01*
X150845512Y-86360000D01*
X150942527Y-86847725D01*
X150990820Y-86920000D01*
X146049949Y-86920000D01*
X145746658Y-86616709D01*
X145750000Y-86608640D01*
X145750000Y-86111360D01*
X145559699Y-85651932D01*
X145208068Y-85300301D01*
X145019035Y-85222001D01*
X146785064Y-85222001D01*
X146853999Y-85235713D01*
X146922934Y-85222001D01*
X146922939Y-85222001D01*
X147127125Y-85181386D01*
X147358670Y-85026672D01*
X147397723Y-84968225D01*
X148439350Y-83926598D01*
X156130000Y-83926598D01*
X156130000Y-84648500D01*
X156267500Y-84786000D01*
X157430000Y-84786000D01*
X157430000Y-83623500D01*
X157292500Y-83486000D01*
X156570598Y-83486000D01*
X156368450Y-83569732D01*
X156213733Y-83724450D01*
X156130000Y-83926598D01*
X148439350Y-83926598D01*
X149145866Y-83220083D01*
X149156109Y-83271581D01*
X149255568Y-83420432D01*
X149404419Y-83519891D01*
X149580000Y-83554816D01*
X151180000Y-83554816D01*
X151355581Y-83519891D01*
X151504432Y-83420432D01*
X151603891Y-83271581D01*
X151638816Y-83096000D01*
X151638816Y-81496000D01*
X151603891Y-81320419D01*
X151504432Y-81171568D01*
X151355581Y-81072109D01*
X151180000Y-81037184D01*
X149580000Y-81037184D01*
X149404419Y-81072109D01*
X149255568Y-81171568D01*
X149156109Y-81320419D01*
X149121184Y-81496000D01*
X149121184Y-81590480D01*
X149080000Y-81582288D01*
X149011065Y-81596000D01*
X149011060Y-81596000D01*
X148806874Y-81636615D01*
X148575329Y-81791329D01*
X148536277Y-81849774D01*
X147497967Y-82888084D01*
X147363699Y-82563932D01*
X147012068Y-82212301D01*
X146573924Y-82030816D01*
X147104000Y-82030816D01*
X147279581Y-81995891D01*
X147428432Y-81896432D01*
X147527891Y-81747581D01*
X147562816Y-81572000D01*
X147562816Y-79972000D01*
X147527891Y-79796419D01*
X147428432Y-79647568D01*
X147279581Y-79548109D01*
X147252847Y-79542791D01*
X147408672Y-79438672D01*
X147447725Y-79380225D01*
X148627951Y-78200000D01*
X150806517Y-78200000D01*
X150797042Y-78214181D01*
X150741184Y-78495000D01*
X150741184Y-79045000D01*
X150797042Y-79325819D01*
X150956114Y-79563886D01*
X151194181Y-79722958D01*
X151475000Y-79778816D01*
X152725000Y-79778816D01*
X153005819Y-79722958D01*
X153243886Y-79563886D01*
X153402958Y-79325819D01*
X153458816Y-79045000D01*
X153458816Y-78744764D01*
X156772720Y-82058670D01*
X156725512Y-82296000D01*
X156822527Y-82783725D01*
X157098801Y-83197199D01*
X157512275Y-83473473D01*
X157652195Y-83501305D01*
X157530000Y-83623500D01*
X157530000Y-84786000D01*
X158692500Y-84786000D01*
X158830000Y-84648500D01*
X158830000Y-83926598D01*
X158746267Y-83724450D01*
X158591550Y-83569732D01*
X158400869Y-83490750D01*
X158487725Y-83473473D01*
X158901199Y-83197199D01*
X159177473Y-82783725D01*
X159225953Y-82540000D01*
X159325512Y-82540000D01*
X159422527Y-83027725D01*
X159698801Y-83441199D01*
X160112275Y-83717473D01*
X160476891Y-83790000D01*
X161523109Y-83790000D01*
X161887725Y-83717473D01*
X162301199Y-83441199D01*
X162577473Y-83027725D01*
X162674488Y-82540000D01*
X162577473Y-82052275D01*
X162301199Y-81638801D01*
X161887725Y-81362527D01*
X161523109Y-81290000D01*
X160476891Y-81290000D01*
X160112275Y-81362527D01*
X159698801Y-81638801D01*
X159422527Y-82052275D01*
X159325512Y-82540000D01*
X159225953Y-82540000D01*
X159274488Y-82296000D01*
X159177473Y-81808275D01*
X158901199Y-81394801D01*
X158487725Y-81118527D01*
X158123109Y-81046000D01*
X157876891Y-81046000D01*
X157762670Y-81068720D01*
X155893950Y-79200000D01*
X159341184Y-79200000D01*
X159341184Y-80800000D01*
X159376109Y-80975581D01*
X159475568Y-81124432D01*
X159624419Y-81223891D01*
X159800000Y-81258816D01*
X162200000Y-81258816D01*
X162375581Y-81223891D01*
X162524432Y-81124432D01*
X162623891Y-80975581D01*
X162658816Y-80800000D01*
X162658816Y-79200000D01*
X162623891Y-79024419D01*
X162524432Y-78875568D01*
X162375581Y-78776109D01*
X162200000Y-78741184D01*
X159800000Y-78741184D01*
X159624419Y-78776109D01*
X159475568Y-78875568D01*
X159376109Y-79024419D01*
X159341184Y-79200000D01*
X155893950Y-79200000D01*
X155118433Y-78424484D01*
X155313886Y-78293886D01*
X155472958Y-78055819D01*
X155528816Y-77775000D01*
X155528816Y-77225000D01*
X155472958Y-76944181D01*
X155313886Y-76706114D01*
X155075819Y-76547042D01*
X154795000Y-76491184D01*
X153545000Y-76491184D01*
X153458816Y-76508327D01*
X153458816Y-76459360D01*
X158262000Y-76459360D01*
X158262000Y-76956640D01*
X158452301Y-77416068D01*
X158803932Y-77767699D01*
X159263360Y-77958000D01*
X159760640Y-77958000D01*
X160220068Y-77767699D01*
X160571699Y-77416068D01*
X160762000Y-76956640D01*
X160762000Y-76708000D01*
X160777512Y-76708000D01*
X160874527Y-77195725D01*
X161150801Y-77609199D01*
X161564275Y-77885473D01*
X161928891Y-77958000D01*
X162175109Y-77958000D01*
X162539725Y-77885473D01*
X162953199Y-77609199D01*
X163229473Y-77195725D01*
X163326488Y-76708000D01*
X163277031Y-76459360D01*
X163342000Y-76459360D01*
X163342000Y-76956640D01*
X163532301Y-77416068D01*
X163883932Y-77767699D01*
X164343360Y-77958000D01*
X164840640Y-77958000D01*
X165300068Y-77767699D01*
X165651699Y-77416068D01*
X165842000Y-76956640D01*
X165842000Y-76459360D01*
X165651699Y-75999932D01*
X165300068Y-75648301D01*
X164840640Y-75458000D01*
X164343360Y-75458000D01*
X163883932Y-75648301D01*
X163532301Y-75999932D01*
X163342000Y-76459360D01*
X163277031Y-76459360D01*
X163229473Y-76220275D01*
X162953199Y-75806801D01*
X162539725Y-75530527D01*
X162175109Y-75458000D01*
X161928891Y-75458000D01*
X161564275Y-75530527D01*
X161150801Y-75806801D01*
X160874527Y-76220275D01*
X160777512Y-76708000D01*
X160762000Y-76708000D01*
X160762000Y-76459360D01*
X160571699Y-75999932D01*
X160220068Y-75648301D01*
X159760640Y-75458000D01*
X159263360Y-75458000D01*
X158803932Y-75648301D01*
X158452301Y-75999932D01*
X158262000Y-76459360D01*
X153458816Y-76459360D01*
X153458816Y-75680000D01*
X153423891Y-75504419D01*
X153324432Y-75355568D01*
X153175581Y-75256109D01*
X153000000Y-75221184D01*
X151200000Y-75221184D01*
X151024419Y-75256109D01*
X150875568Y-75355568D01*
X150776109Y-75504419D01*
X150741184Y-75680000D01*
X150741184Y-76780000D01*
X150745162Y-76800000D01*
X148406938Y-76800000D01*
X148338002Y-76786288D01*
X148269065Y-76800000D01*
X148269062Y-76800000D01*
X148111042Y-76831432D01*
X148064875Y-76840615D01*
X147976000Y-76900000D01*
X147833331Y-76995329D01*
X147794279Y-77053774D01*
X147512612Y-77335441D01*
X147363699Y-76975932D01*
X147012068Y-76624301D01*
X146573924Y-76442816D01*
X147104000Y-76442816D01*
X147279581Y-76407891D01*
X147428432Y-76308432D01*
X147527891Y-76159581D01*
X147562816Y-75984000D01*
X147562816Y-74384000D01*
X147527891Y-74208419D01*
X147428432Y-74059568D01*
X147279581Y-73960109D01*
X147104000Y-73925184D01*
X147009520Y-73925184D01*
X147017712Y-73883999D01*
X147004000Y-73815064D01*
X147004000Y-73815060D01*
X146963385Y-73610874D01*
X146938932Y-73574279D01*
X146847722Y-73437772D01*
X146847718Y-73437768D01*
X146808670Y-73379329D01*
X146750231Y-73340281D01*
X144963724Y-71553776D01*
X144924671Y-71495329D01*
X144693126Y-71340615D01*
X144488940Y-71300000D01*
X144488935Y-71300000D01*
X144420000Y-71286288D01*
X144351065Y-71300000D01*
X141915636Y-71300000D01*
X141781199Y-71098801D01*
X141687498Y-71036192D01*
X141734673Y-71004671D01*
X141773727Y-70946223D01*
X143968590Y-68751360D01*
X147250000Y-68751360D01*
X147250000Y-69248640D01*
X147440301Y-69708068D01*
X147791932Y-70059699D01*
X148251360Y-70250000D01*
X148748640Y-70250000D01*
X149208068Y-70059699D01*
X149559699Y-69708068D01*
X149750000Y-69248640D01*
X149750000Y-69336640D01*
X149940301Y-69796068D01*
X150291932Y-70147699D01*
X150751360Y-70338000D01*
X151248640Y-70338000D01*
X151708068Y-70147699D01*
X151966592Y-69889175D01*
X160464000Y-69889175D01*
X160464000Y-70318825D01*
X160628421Y-70715771D01*
X160932229Y-71019579D01*
X161329175Y-71184000D01*
X161758825Y-71184000D01*
X162155771Y-71019579D01*
X162459579Y-70715771D01*
X162624000Y-70318825D01*
X162624000Y-69889175D01*
X162459579Y-69492229D01*
X162155771Y-69188421D01*
X161758825Y-69024000D01*
X161329175Y-69024000D01*
X160932229Y-69188421D01*
X160628421Y-69492229D01*
X160464000Y-69889175D01*
X151966592Y-69889175D01*
X152059699Y-69796068D01*
X152250000Y-69336640D01*
X152250000Y-68839360D01*
X152059699Y-68379932D01*
X151708068Y-68028301D01*
X151248640Y-67838000D01*
X150751360Y-67838000D01*
X150291932Y-68028301D01*
X149940301Y-68379932D01*
X149750000Y-68839360D01*
X149750000Y-68751360D01*
X149559699Y-68291932D01*
X149208068Y-67940301D01*
X148748640Y-67750000D01*
X148251360Y-67750000D01*
X147791932Y-67940301D01*
X147440301Y-68291932D01*
X147250000Y-68751360D01*
X143968590Y-68751360D01*
X145370775Y-67349175D01*
X157924000Y-67349175D01*
X157924000Y-67778825D01*
X158088421Y-68175771D01*
X158392229Y-68479579D01*
X158789175Y-68644000D01*
X159218825Y-68644000D01*
X159615771Y-68479579D01*
X159919579Y-68175771D01*
X160084000Y-67778825D01*
X160084000Y-67349175D01*
X163004000Y-67349175D01*
X163004000Y-67778825D01*
X163168421Y-68175771D01*
X163472229Y-68479579D01*
X163869175Y-68644000D01*
X164298825Y-68644000D01*
X164695771Y-68479579D01*
X164999579Y-68175771D01*
X165164000Y-67778825D01*
X165164000Y-67349175D01*
X164999579Y-66952229D01*
X164695771Y-66648421D01*
X164298825Y-66484000D01*
X163869175Y-66484000D01*
X163472229Y-66648421D01*
X163168421Y-66952229D01*
X163004000Y-67349175D01*
X160084000Y-67349175D01*
X159919579Y-66952229D01*
X159615771Y-66648421D01*
X159218825Y-66484000D01*
X158789175Y-66484000D01*
X158392229Y-66648421D01*
X158088421Y-66952229D01*
X157924000Y-67349175D01*
X145370775Y-67349175D01*
X148144000Y-64575951D01*
X148144000Y-64794470D01*
X147791932Y-64940301D01*
X147440301Y-65291932D01*
X147250000Y-65751360D01*
X147250000Y-66248640D01*
X147440301Y-66708068D01*
X147791932Y-67059699D01*
X148251360Y-67250000D01*
X148748640Y-67250000D01*
X149208068Y-67059699D01*
X149559699Y-66708068D01*
X149750000Y-66248640D01*
X149750000Y-65751360D01*
X149559699Y-65291932D01*
X149544000Y-65276233D01*
X149544000Y-61468000D01*
X149725512Y-61468000D01*
X149822527Y-61955725D01*
X150098801Y-62369199D01*
X150512275Y-62645473D01*
X150876891Y-62718000D01*
X151123109Y-62718000D01*
X151487725Y-62645473D01*
X151901199Y-62369199D01*
X152177473Y-61955725D01*
X152274488Y-61468000D01*
X152177473Y-60980275D01*
X151901199Y-60566801D01*
X151487725Y-60290527D01*
X151123109Y-60218000D01*
X150876891Y-60218000D01*
X150512275Y-60290527D01*
X150098801Y-60566801D01*
X149822527Y-60980275D01*
X149725512Y-61468000D01*
X149544000Y-61468000D01*
X149544000Y-59217948D01*
X150099133Y-58662816D01*
X150660000Y-58662816D01*
X150835581Y-58627891D01*
X150984432Y-58528432D01*
X151083891Y-58379581D01*
X151118816Y-58204000D01*
X151118816Y-57371577D01*
X160094000Y-57371577D01*
X160094000Y-57948423D01*
X160314750Y-58481359D01*
X160722641Y-58889250D01*
X161255577Y-59110000D01*
X161832423Y-59110000D01*
X162365359Y-58889250D01*
X162773250Y-58481359D01*
X162994000Y-57948423D01*
X162994000Y-57371577D01*
X162773250Y-56838641D01*
X162365359Y-56430750D01*
X161832423Y-56210000D01*
X161255577Y-56210000D01*
X160722641Y-56430750D01*
X160314750Y-56838641D01*
X160094000Y-57371577D01*
X151118816Y-57371577D01*
X151118816Y-56604000D01*
X151083891Y-56428419D01*
X150984432Y-56279568D01*
X150835581Y-56180109D01*
X150660000Y-56145184D01*
X150129924Y-56145184D01*
X150568068Y-55963699D01*
X150919699Y-55612068D01*
X151110000Y-55152640D01*
X151110000Y-54655360D01*
X150919699Y-54195932D01*
X150568068Y-53844301D01*
X150108640Y-53654000D01*
X149611360Y-53654000D01*
X149151932Y-53844301D01*
X148843990Y-54152243D01*
X148843990Y-53845958D01*
X150265866Y-52424083D01*
X150276109Y-52475581D01*
X150375568Y-52624432D01*
X150524419Y-52723891D01*
X150700000Y-52758816D01*
X152300000Y-52758816D01*
X152475581Y-52723891D01*
X152624432Y-52624432D01*
X152723891Y-52475581D01*
X152758816Y-52300000D01*
X152758816Y-50700000D01*
X152723891Y-50524419D01*
X152624432Y-50375568D01*
X152475581Y-50276109D01*
X152300000Y-50241184D01*
X150700000Y-50241184D01*
X150524419Y-50276109D01*
X150375568Y-50375568D01*
X150276109Y-50524419D01*
X150241184Y-50700000D01*
X150241184Y-50794480D01*
X150199999Y-50786288D01*
X150131064Y-50800000D01*
X150131060Y-50800000D01*
X149926874Y-50840615D01*
X149695329Y-50995329D01*
X149656277Y-51053774D01*
X147697764Y-53012288D01*
X147639320Y-53051339D01*
X147600268Y-53109784D01*
X147484606Y-53282884D01*
X147430278Y-53556010D01*
X147443991Y-53624950D01*
X147443990Y-63296063D01*
X142085729Y-68654325D01*
X142057473Y-68512275D01*
X141781199Y-68098801D01*
X141367725Y-67822527D01*
X141003109Y-67750000D01*
X140756891Y-67750000D01*
X140392275Y-67822527D01*
X139978801Y-68098801D01*
X139702527Y-68512275D01*
X139605512Y-69000000D01*
X139702527Y-69487725D01*
X139911182Y-69800000D01*
X139035636Y-69800000D01*
X138901199Y-69598801D01*
X138487725Y-69322527D01*
X138123109Y-69250000D01*
X138248640Y-69250000D01*
X138708068Y-69059699D01*
X139059699Y-68708068D01*
X139250000Y-68248640D01*
X139250000Y-67751360D01*
X139059699Y-67291932D01*
X138708068Y-66940301D01*
X138248640Y-66750000D01*
X137751360Y-66750000D01*
X137291932Y-66940301D01*
X136940301Y-67291932D01*
X136750000Y-67751360D01*
X136750000Y-68248640D01*
X136940301Y-68708068D01*
X137291932Y-69059699D01*
X137751360Y-69250000D01*
X137876891Y-69250000D01*
X137512275Y-69322527D01*
X137098801Y-69598801D01*
X136822527Y-70012275D01*
X136725512Y-70500000D01*
X136822527Y-70987725D01*
X137098801Y-71401199D01*
X137512275Y-71677473D01*
X137876891Y-71750000D01*
X138123109Y-71750000D01*
X138487725Y-71677473D01*
X138901199Y-71401199D01*
X139035636Y-71200000D01*
X139911182Y-71200000D01*
X139702527Y-71512275D01*
X139605512Y-72000000D01*
X139702527Y-72487725D01*
X139978801Y-72901199D01*
X140392275Y-73177473D01*
X140756891Y-73250000D01*
X141003109Y-73250000D01*
X141367725Y-73177473D01*
X141781199Y-72901199D01*
X141915636Y-72700000D01*
X144130052Y-72700000D01*
X145379916Y-73949866D01*
X145328419Y-73960109D01*
X145179568Y-74059568D01*
X145080109Y-74208419D01*
X145045184Y-74384000D01*
X145045184Y-75984000D01*
X145080109Y-76159581D01*
X145179568Y-76308432D01*
X145328419Y-76407891D01*
X145504000Y-76442816D01*
X146034076Y-76442816D01*
X145595932Y-76624301D01*
X145244301Y-76975932D01*
X145224391Y-77024000D01*
X142021950Y-77024000D01*
X136591723Y-71593775D01*
X136552670Y-71535328D01*
X136321125Y-71380614D01*
X136116939Y-71339999D01*
X136116934Y-71339999D01*
X136047999Y-71326287D01*
X135979064Y-71339999D01*
X123608935Y-71339999D01*
X123540000Y-71326287D01*
X123471065Y-71339999D01*
X123471061Y-71339999D01*
X123266875Y-71380614D01*
X123196996Y-71427306D01*
X123093773Y-71496277D01*
X123093772Y-71496278D01*
X123035330Y-71535328D01*
X122996280Y-71593770D01*
X122459895Y-72130156D01*
X122242238Y-72040000D01*
X121597762Y-72040000D01*
X121002344Y-72286630D01*
X120546630Y-72742344D01*
X120300000Y-73337762D01*
X120300000Y-73982238D01*
X120546630Y-74577656D01*
X121002344Y-75033370D01*
X121597762Y-75280000D01*
X122242238Y-75280000D01*
X122837656Y-75033370D01*
X123293370Y-74577656D01*
X123540000Y-73982238D01*
X123540000Y-73337762D01*
X123449844Y-73120105D01*
X123829951Y-72739999D01*
X125548975Y-72739999D01*
X125546630Y-72742344D01*
X125456474Y-72960000D01*
X125334305Y-72960000D01*
X125265370Y-72946288D01*
X125196435Y-72960000D01*
X125196431Y-72960000D01*
X124992245Y-73000615D01*
X124992243Y-73000616D01*
X124992244Y-73000616D01*
X124819143Y-73116278D01*
X124819142Y-73116279D01*
X124760700Y-73155329D01*
X124721650Y-73213771D01*
X122435423Y-75500000D01*
X120464934Y-75500000D01*
X120395999Y-75486288D01*
X120327064Y-75500000D01*
X120327060Y-75500000D01*
X120122874Y-75540615D01*
X120122872Y-75540616D01*
X120122873Y-75540616D01*
X119949772Y-75656278D01*
X119949771Y-75656279D01*
X119891329Y-75695329D01*
X119852279Y-75753771D01*
X117409774Y-78196278D01*
X117365000Y-78226195D01*
X117365000Y-69889175D01*
X125920000Y-69889175D01*
X125920000Y-70318825D01*
X126084421Y-70715771D01*
X126388229Y-71019579D01*
X126785175Y-71184000D01*
X127214825Y-71184000D01*
X127611771Y-71019579D01*
X127915579Y-70715771D01*
X128080000Y-70318825D01*
X128080000Y-69889175D01*
X127915579Y-69492229D01*
X127611771Y-69188421D01*
X127214825Y-69024000D01*
X126785175Y-69024000D01*
X126388229Y-69188421D01*
X126084421Y-69492229D01*
X125920000Y-69889175D01*
X117365000Y-69889175D01*
X117365000Y-67349175D01*
X123380000Y-67349175D01*
X123380000Y-67778825D01*
X123544421Y-68175771D01*
X123848229Y-68479579D01*
X124245175Y-68644000D01*
X124674825Y-68644000D01*
X125071771Y-68479579D01*
X125375579Y-68175771D01*
X125540000Y-67778825D01*
X125540000Y-67349175D01*
X128460000Y-67349175D01*
X128460000Y-67778825D01*
X128624421Y-68175771D01*
X128928229Y-68479579D01*
X129325175Y-68644000D01*
X129754825Y-68644000D01*
X130151771Y-68479579D01*
X130455579Y-68175771D01*
X130620000Y-67778825D01*
X130620000Y-67349175D01*
X130455579Y-66952229D01*
X130151771Y-66648421D01*
X129754825Y-66484000D01*
X129325175Y-66484000D01*
X128928229Y-66648421D01*
X128624421Y-66952229D01*
X128460000Y-67349175D01*
X125540000Y-67349175D01*
X125375579Y-66952229D01*
X125071771Y-66648421D01*
X124674825Y-66484000D01*
X124245175Y-66484000D01*
X123848229Y-66648421D01*
X123544421Y-66952229D01*
X123380000Y-67349175D01*
X117365000Y-67349175D01*
X117365000Y-66000000D01*
X139605512Y-66000000D01*
X139702527Y-66487725D01*
X139978801Y-66901199D01*
X140392275Y-67177473D01*
X140756891Y-67250000D01*
X141003109Y-67250000D01*
X141367725Y-67177473D01*
X141781199Y-66901199D01*
X142057473Y-66487725D01*
X142154488Y-66000000D01*
X142057473Y-65512275D01*
X141781199Y-65098801D01*
X141367725Y-64822527D01*
X141003109Y-64750000D01*
X140756891Y-64750000D01*
X140392275Y-64822527D01*
X139978801Y-65098801D01*
X139702527Y-65512275D01*
X139605512Y-66000000D01*
X117365000Y-66000000D01*
X117365000Y-60380000D01*
X136725512Y-60380000D01*
X136822527Y-60867725D01*
X137098801Y-61281199D01*
X137512275Y-61557473D01*
X137876891Y-61630000D01*
X138123109Y-61630000D01*
X138487725Y-61557473D01*
X138901199Y-61281199D01*
X139177473Y-60867725D01*
X139274488Y-60380000D01*
X139177473Y-59892275D01*
X138901199Y-59478801D01*
X138487725Y-59202527D01*
X138123109Y-59130000D01*
X137876891Y-59130000D01*
X137512275Y-59202527D01*
X137098801Y-59478801D01*
X136822527Y-59892275D01*
X136725512Y-60380000D01*
X117365000Y-60380000D01*
X117365000Y-57371577D01*
X125470000Y-57371577D01*
X125470000Y-57948423D01*
X125690750Y-58481359D01*
X126098641Y-58889250D01*
X126631577Y-59110000D01*
X127208423Y-59110000D01*
X127741359Y-58889250D01*
X128149250Y-58481359D01*
X128370000Y-57948423D01*
X128370000Y-57371577D01*
X128149250Y-56838641D01*
X128041609Y-56731000D01*
X137425184Y-56731000D01*
X137425184Y-58331000D01*
X137460109Y-58506581D01*
X137559568Y-58655432D01*
X137708419Y-58754891D01*
X137884000Y-58789816D01*
X139484000Y-58789816D01*
X139659581Y-58754891D01*
X139808432Y-58655432D01*
X139907891Y-58506581D01*
X139942816Y-58331000D01*
X139942816Y-56731000D01*
X139907891Y-56555419D01*
X139808432Y-56406568D01*
X139659581Y-56307109D01*
X139484000Y-56272184D01*
X138953924Y-56272184D01*
X139392068Y-56090699D01*
X139743699Y-55739068D01*
X139934000Y-55279640D01*
X139934000Y-54782360D01*
X139743699Y-54322932D01*
X139392068Y-53971301D01*
X138932640Y-53781000D01*
X138435360Y-53781000D01*
X137975932Y-53971301D01*
X137624301Y-54322932D01*
X137434000Y-54782360D01*
X137434000Y-55279640D01*
X137624301Y-55739068D01*
X137975932Y-56090699D01*
X138414076Y-56272184D01*
X137884000Y-56272184D01*
X137708419Y-56307109D01*
X137559568Y-56406568D01*
X137460109Y-56555419D01*
X137425184Y-56731000D01*
X128041609Y-56731000D01*
X127741359Y-56430750D01*
X127208423Y-56210000D01*
X126631577Y-56210000D01*
X126098641Y-56430750D01*
X125690750Y-56838641D01*
X125470000Y-57371577D01*
X117365000Y-57371577D01*
X117365000Y-52070000D01*
X136388626Y-52070000D01*
X136485641Y-52557725D01*
X136761915Y-52971199D01*
X137175389Y-53247473D01*
X137540005Y-53320000D01*
X137786223Y-53320000D01*
X138150839Y-53247473D01*
X138564313Y-52971199D01*
X138840587Y-52557725D01*
X138937602Y-52070000D01*
X138840587Y-51582275D01*
X138564313Y-51168801D01*
X138505160Y-51129276D01*
X141196060Y-51129276D01*
X141371641Y-51094351D01*
X141520492Y-50994892D01*
X141619951Y-50846041D01*
X141654876Y-50670460D01*
X141654876Y-50170080D01*
X141936124Y-50170080D01*
X141936124Y-53670200D01*
X141971049Y-53845781D01*
X142070508Y-53994632D01*
X142219359Y-54094091D01*
X142394940Y-54129016D01*
X143242351Y-54129016D01*
X143009850Y-54361517D01*
X142806000Y-54853656D01*
X142806000Y-55386344D01*
X143009850Y-55878483D01*
X143386517Y-56255150D01*
X143712075Y-56390000D01*
X143386517Y-56524850D01*
X143009850Y-56901517D01*
X142806000Y-57393656D01*
X142806000Y-57926344D01*
X143009850Y-58418483D01*
X143386517Y-58795150D01*
X143712075Y-58930000D01*
X143386517Y-59064850D01*
X143009850Y-59441517D01*
X142806000Y-59933656D01*
X142806000Y-60466344D01*
X143009850Y-60958483D01*
X143386517Y-61335150D01*
X143878656Y-61539000D01*
X144411344Y-61539000D01*
X144903483Y-61335150D01*
X145280150Y-60958483D01*
X145484000Y-60466344D01*
X145484000Y-59933656D01*
X145280150Y-59441517D01*
X144903483Y-59064850D01*
X144577925Y-58930000D01*
X144903483Y-58795150D01*
X145280150Y-58418483D01*
X145484000Y-57926344D01*
X145484000Y-57393656D01*
X145280150Y-56901517D01*
X144903483Y-56524850D01*
X144577925Y-56390000D01*
X144903483Y-56255150D01*
X145280150Y-55878483D01*
X145484000Y-55386344D01*
X145484000Y-54853656D01*
X145280150Y-54361517D01*
X145047649Y-54129016D01*
X145895060Y-54129016D01*
X146070641Y-54094091D01*
X146219492Y-53994632D01*
X146318951Y-53845781D01*
X146353876Y-53670200D01*
X146353876Y-50170080D01*
X146318951Y-49994499D01*
X146219492Y-49845648D01*
X146070641Y-49746189D01*
X145895060Y-49711264D01*
X142394940Y-49711264D01*
X142219359Y-49746189D01*
X142070508Y-49845648D01*
X141971049Y-49994499D01*
X141936124Y-50170080D01*
X141654876Y-50170080D01*
X141654876Y-47170340D01*
X141619951Y-46994759D01*
X141520492Y-46845908D01*
X141371641Y-46746449D01*
X141196060Y-46711524D01*
X137695940Y-46711524D01*
X137520359Y-46746449D01*
X137371508Y-46845908D01*
X137272049Y-46994759D01*
X137237124Y-47170340D01*
X137237124Y-50670460D01*
X137272049Y-50846041D01*
X137288126Y-50870102D01*
X137175389Y-50892527D01*
X136761915Y-51168801D01*
X136485641Y-51582275D01*
X136388626Y-52070000D01*
X117365000Y-52070000D01*
X117365000Y-50055000D01*
X124408294Y-50055000D01*
X124460000Y-50065285D01*
X124511706Y-50055000D01*
X124664845Y-50024539D01*
X124838504Y-49908504D01*
X124954539Y-49734845D01*
X124995285Y-49530000D01*
X124985000Y-49478294D01*
X124985000Y-48589497D01*
X129411605Y-48589497D01*
X129468236Y-48800844D01*
X129601435Y-48974433D01*
X130226620Y-49335384D01*
X130227844Y-49335056D01*
X130501051Y-49335056D01*
X130551380Y-49522884D01*
X131176565Y-49883835D01*
X131393497Y-49912394D01*
X131604845Y-49855765D01*
X131778433Y-49722565D01*
X131887835Y-49533075D01*
X132139384Y-49097380D01*
X132089056Y-48909551D01*
X131082301Y-48328301D01*
X130501051Y-49335056D01*
X130227844Y-49335056D01*
X130414449Y-49285056D01*
X130995699Y-48278301D01*
X130932303Y-48241699D01*
X131132301Y-48241699D01*
X132139056Y-48822949D01*
X132326884Y-48772620D01*
X132578433Y-48336925D01*
X132687835Y-48147435D01*
X132716395Y-47930503D01*
X132659764Y-47719156D01*
X132526565Y-47545567D01*
X131901380Y-47184616D01*
X131713551Y-47234944D01*
X131132301Y-48241699D01*
X130932303Y-48241699D01*
X129988944Y-47697051D01*
X129801116Y-47747380D01*
X129549567Y-48183075D01*
X129440165Y-48372565D01*
X129411605Y-48589497D01*
X124985000Y-48589497D01*
X124985000Y-44383500D01*
X126150000Y-44383500D01*
X126150000Y-45105402D01*
X126233733Y-45307550D01*
X126388450Y-45462268D01*
X126590598Y-45546000D01*
X127009938Y-45546000D01*
X126791932Y-45636301D01*
X126440301Y-45987932D01*
X126250000Y-46447360D01*
X126250000Y-46944640D01*
X126440301Y-47404068D01*
X126791932Y-47755699D01*
X127251360Y-47946000D01*
X127748640Y-47946000D01*
X128208068Y-47755699D01*
X128541147Y-47422620D01*
X129988616Y-47422620D01*
X130038944Y-47610449D01*
X131045699Y-48191699D01*
X131626949Y-47184944D01*
X131576620Y-46997116D01*
X130951435Y-46636165D01*
X130734503Y-46607606D01*
X130523155Y-46664235D01*
X130349567Y-46797435D01*
X130240165Y-46986925D01*
X129988616Y-47422620D01*
X128541147Y-47422620D01*
X128559699Y-47404068D01*
X128750000Y-46944640D01*
X128750000Y-46447360D01*
X128559699Y-45987932D01*
X128208068Y-45636301D01*
X127990062Y-45546000D01*
X128409402Y-45546000D01*
X128611550Y-45462268D01*
X128663107Y-45410710D01*
X130660000Y-45410710D01*
X130731929Y-45642224D01*
X131227504Y-45849206D01*
X131764565Y-45850783D01*
X132261349Y-45646716D01*
X132268071Y-45642224D01*
X132340000Y-45410710D01*
X131500000Y-44570711D01*
X130660000Y-45410710D01*
X128663107Y-45410710D01*
X128766267Y-45307550D01*
X128850000Y-45105402D01*
X128850000Y-44764565D01*
X130149217Y-44764565D01*
X130353284Y-45261349D01*
X130357776Y-45268071D01*
X130589290Y-45340000D01*
X131429289Y-44500000D01*
X131570711Y-44500000D01*
X132410710Y-45340000D01*
X132642224Y-45268071D01*
X132849206Y-44772496D01*
X132850006Y-44500000D01*
X137845512Y-44500000D01*
X137942527Y-44987725D01*
X138218801Y-45401199D01*
X138632275Y-45677473D01*
X138996891Y-45750000D01*
X139243109Y-45750000D01*
X139607725Y-45677473D01*
X140021199Y-45401199D01*
X140297473Y-44987725D01*
X140394488Y-44500000D01*
X140328966Y-44170600D01*
X141936124Y-44170600D01*
X141936124Y-47670720D01*
X141971049Y-47846301D01*
X142070508Y-47995152D01*
X142219359Y-48094611D01*
X142394940Y-48129536D01*
X145895060Y-48129536D01*
X146070641Y-48094611D01*
X146219492Y-47995152D01*
X146318951Y-47846301D01*
X146353876Y-47670720D01*
X146353876Y-47500000D01*
X153105512Y-47500000D01*
X153202527Y-47987725D01*
X153478801Y-48401199D01*
X153892275Y-48677473D01*
X154256891Y-48750000D01*
X154503109Y-48750000D01*
X154867725Y-48677473D01*
X155281199Y-48401199D01*
X155557473Y-47987725D01*
X155654488Y-47500000D01*
X155605031Y-47251360D01*
X160750000Y-47251360D01*
X160750000Y-47748640D01*
X160940301Y-48208068D01*
X161291932Y-48559699D01*
X161751360Y-48750000D01*
X162248640Y-48750000D01*
X162708068Y-48559699D01*
X163059699Y-48208068D01*
X163250000Y-47748640D01*
X163250000Y-47251360D01*
X163059699Y-46791932D01*
X162708068Y-46440301D01*
X162248640Y-46250000D01*
X161751360Y-46250000D01*
X161291932Y-46440301D01*
X160940301Y-46791932D01*
X160750000Y-47251360D01*
X155605031Y-47251360D01*
X155557473Y-47012275D01*
X155281199Y-46598801D01*
X154867725Y-46322527D01*
X154503109Y-46250000D01*
X154256891Y-46250000D01*
X153892275Y-46322527D01*
X153478801Y-46598801D01*
X153202527Y-47012275D01*
X153105512Y-47500000D01*
X146353876Y-47500000D01*
X146353876Y-44170600D01*
X146318951Y-43995019D01*
X146242098Y-43880000D01*
X150225512Y-43880000D01*
X150322527Y-44367725D01*
X150598801Y-44781199D01*
X151012275Y-45057473D01*
X151376891Y-45130000D01*
X151623109Y-45130000D01*
X151987725Y-45057473D01*
X152401199Y-44781199D01*
X152589089Y-44500000D01*
X153105512Y-44500000D01*
X153202527Y-44987725D01*
X153478801Y-45401199D01*
X153892275Y-45677473D01*
X154256891Y-45750000D01*
X154503109Y-45750000D01*
X154867725Y-45677473D01*
X155281199Y-45401199D01*
X155557473Y-44987725D01*
X155654488Y-44500000D01*
X155605031Y-44251360D01*
X160750000Y-44251360D01*
X160750000Y-44748640D01*
X160940301Y-45208068D01*
X161291932Y-45559699D01*
X161751360Y-45750000D01*
X162248640Y-45750000D01*
X162708068Y-45559699D01*
X163059699Y-45208068D01*
X163250000Y-44748640D01*
X163250000Y-44251360D01*
X163059699Y-43791932D01*
X162708068Y-43440301D01*
X162248640Y-43250000D01*
X161751360Y-43250000D01*
X161291932Y-43440301D01*
X160940301Y-43791932D01*
X160750000Y-44251360D01*
X155605031Y-44251360D01*
X155557473Y-44012275D01*
X155281199Y-43598801D01*
X154867725Y-43322527D01*
X154503109Y-43250000D01*
X154256891Y-43250000D01*
X153892275Y-43322527D01*
X153478801Y-43598801D01*
X153202527Y-44012275D01*
X153105512Y-44500000D01*
X152589089Y-44500000D01*
X152677473Y-44367725D01*
X152774488Y-43880000D01*
X152677473Y-43392275D01*
X152401199Y-42978801D01*
X151987725Y-42702527D01*
X151623109Y-42630000D01*
X151376891Y-42630000D01*
X151012275Y-42702527D01*
X150598801Y-42978801D01*
X150322527Y-43392275D01*
X150225512Y-43880000D01*
X146242098Y-43880000D01*
X146219492Y-43846168D01*
X146070641Y-43746709D01*
X145895060Y-43711784D01*
X142394940Y-43711784D01*
X142219359Y-43746709D01*
X142070508Y-43846168D01*
X141971049Y-43995019D01*
X141936124Y-44170600D01*
X140328966Y-44170600D01*
X140297473Y-44012275D01*
X140021199Y-43598801D01*
X139607725Y-43322527D01*
X139243109Y-43250000D01*
X138996891Y-43250000D01*
X138632275Y-43322527D01*
X138218801Y-43598801D01*
X137942527Y-44012275D01*
X137845512Y-44500000D01*
X132850006Y-44500000D01*
X132850783Y-44235435D01*
X132646716Y-43738651D01*
X132642224Y-43731929D01*
X132410710Y-43660000D01*
X131570711Y-44500000D01*
X131429289Y-44500000D01*
X130589290Y-43660000D01*
X130357776Y-43731929D01*
X130150794Y-44227504D01*
X130149217Y-44764565D01*
X128850000Y-44764565D01*
X128850000Y-44383500D01*
X128712500Y-44246000D01*
X127550000Y-44246000D01*
X127550000Y-44266000D01*
X127450000Y-44266000D01*
X127450000Y-44246000D01*
X126287500Y-44246000D01*
X126150000Y-44383500D01*
X124985000Y-44383500D01*
X124985000Y-43286598D01*
X126150000Y-43286598D01*
X126150000Y-44008500D01*
X126287500Y-44146000D01*
X127450000Y-44146000D01*
X127450000Y-42983500D01*
X127550000Y-42983500D01*
X127550000Y-44146000D01*
X128712500Y-44146000D01*
X128850000Y-44008500D01*
X128850000Y-43589290D01*
X130660000Y-43589290D01*
X131500000Y-44429289D01*
X132340000Y-43589290D01*
X132268071Y-43357776D01*
X131772496Y-43150794D01*
X131235435Y-43149217D01*
X130738651Y-43353284D01*
X130731929Y-43357776D01*
X130660000Y-43589290D01*
X128850000Y-43589290D01*
X128850000Y-43286598D01*
X128766267Y-43084450D01*
X128611550Y-42929732D01*
X128409402Y-42846000D01*
X127687500Y-42846000D01*
X127550000Y-42983500D01*
X127450000Y-42983500D01*
X127312500Y-42846000D01*
X126590598Y-42846000D01*
X126388450Y-42929732D01*
X126233733Y-43084450D01*
X126150000Y-43286598D01*
X124985000Y-43286598D01*
X124985000Y-42435000D01*
X163305000Y-42435000D01*
X163305001Y-49478289D01*
X163305001Y-49478289D01*
G37*
X163305001Y-49478289D02*
X163294715Y-49530000D01*
X163335461Y-49734845D01*
X163451496Y-49908504D01*
X163625155Y-50024539D01*
X163778294Y-50055000D01*
X163830000Y-50065285D01*
X163881706Y-50055000D01*
X170925000Y-50055000D01*
X170925000Y-74653449D01*
X167865325Y-71593775D01*
X167826272Y-71535328D01*
X167594727Y-71380614D01*
X167390541Y-71339999D01*
X167390536Y-71339999D01*
X167321601Y-71326287D01*
X167252666Y-71339999D01*
X163232935Y-71339999D01*
X163164000Y-71326287D01*
X163095065Y-71339999D01*
X163095061Y-71339999D01*
X162890875Y-71380614D01*
X162820996Y-71427306D01*
X162717773Y-71496277D01*
X162717772Y-71496278D01*
X162659330Y-71535328D01*
X162620280Y-71593770D01*
X162083895Y-72130156D01*
X161866238Y-72040000D01*
X161221762Y-72040000D01*
X161004105Y-72130156D01*
X160427724Y-71553776D01*
X160388671Y-71495329D01*
X160157126Y-71340615D01*
X159952940Y-71300000D01*
X159952935Y-71300000D01*
X159884000Y-71286288D01*
X159815065Y-71300000D01*
X149563041Y-71300000D01*
X149559699Y-71291932D01*
X149208068Y-70940301D01*
X148748640Y-70750000D01*
X148251360Y-70750000D01*
X147791932Y-70940301D01*
X147440301Y-71291932D01*
X147250000Y-71751360D01*
X147250000Y-72248640D01*
X147440301Y-72708068D01*
X147791932Y-73059699D01*
X148251360Y-73250000D01*
X148748640Y-73250000D01*
X149208068Y-73059699D01*
X149559699Y-72708068D01*
X149563041Y-72700000D01*
X155212974Y-72700000D01*
X155170630Y-72742344D01*
X154924000Y-73337762D01*
X154924000Y-73982238D01*
X155170630Y-74577656D01*
X155626344Y-75033370D01*
X156221762Y-75280000D01*
X156866238Y-75280000D01*
X157461656Y-75033370D01*
X157917370Y-74577656D01*
X158164000Y-73982238D01*
X158164000Y-73337762D01*
X157917370Y-72742344D01*
X157875026Y-72700000D01*
X159594052Y-72700000D01*
X160014156Y-73120105D01*
X159924000Y-73337762D01*
X159924000Y-73982238D01*
X160170630Y-74577656D01*
X160626344Y-75033370D01*
X161221762Y-75280000D01*
X161866238Y-75280000D01*
X162461656Y-75033370D01*
X162917370Y-74577656D01*
X163164000Y-73982238D01*
X163164000Y-73337762D01*
X163073844Y-73120105D01*
X163453951Y-72739999D01*
X165172975Y-72739999D01*
X165170630Y-72742344D01*
X164924000Y-73337762D01*
X164924000Y-73982238D01*
X165170630Y-74577656D01*
X165626344Y-75033370D01*
X166221762Y-75280000D01*
X166866238Y-75280000D01*
X167461656Y-75033370D01*
X167917370Y-74577656D01*
X168164000Y-73982238D01*
X168164000Y-73872347D01*
X169749652Y-75458000D01*
X169343360Y-75458000D01*
X168883932Y-75648301D01*
X168532301Y-75999932D01*
X168342000Y-76459360D01*
X168342000Y-76956640D01*
X168532301Y-77416068D01*
X168883932Y-77767699D01*
X169343360Y-77958000D01*
X169840640Y-77958000D01*
X170142002Y-77833172D01*
X170142002Y-79429256D01*
X169921199Y-79098801D01*
X169507725Y-78822527D01*
X169143109Y-78750000D01*
X168096891Y-78750000D01*
X167732275Y-78822527D01*
X167318801Y-79098801D01*
X167042527Y-79512275D01*
X166945512Y-80000000D01*
X167042527Y-80487725D01*
X167318801Y-80901199D01*
X167732275Y-81177473D01*
X168096891Y-81250000D01*
X169143109Y-81250000D01*
X169507725Y-81177473D01*
X169921199Y-80901199D01*
X170142002Y-80570744D01*
X170142002Y-81969256D01*
X169921199Y-81638801D01*
X169507725Y-81362527D01*
X169143109Y-81290000D01*
X168096891Y-81290000D01*
X167732275Y-81362527D01*
X167318801Y-81638801D01*
X167042527Y-82052275D01*
X166945512Y-82540000D01*
X167042527Y-83027725D01*
X167318801Y-83441199D01*
X167732275Y-83717473D01*
X168096891Y-83790000D01*
X169143109Y-83790000D01*
X169507725Y-83717473D01*
X169921199Y-83441199D01*
X170142002Y-83110744D01*
X170142002Y-84509256D01*
X169921199Y-84178801D01*
X169507725Y-83902527D01*
X169143109Y-83830000D01*
X168096891Y-83830000D01*
X167732275Y-83902527D01*
X167318801Y-84178801D01*
X167042527Y-84592275D01*
X166945512Y-85080000D01*
X167042527Y-85567725D01*
X167318801Y-85981199D01*
X167732275Y-86257473D01*
X168096891Y-86330000D01*
X169143109Y-86330000D01*
X169507725Y-86257473D01*
X169921199Y-85981199D01*
X170142002Y-85650744D01*
X170142001Y-87049256D01*
X169921199Y-86718801D01*
X169507725Y-86442527D01*
X169143109Y-86370000D01*
X168096891Y-86370000D01*
X167732275Y-86442527D01*
X167318801Y-86718801D01*
X167042527Y-87132275D01*
X166945512Y-87620000D01*
X167042527Y-88107725D01*
X167318801Y-88521199D01*
X167732275Y-88797473D01*
X168096891Y-88870000D01*
X169143109Y-88870000D01*
X169507725Y-88797473D01*
X169921199Y-88521199D01*
X170142001Y-88190744D01*
X170142001Y-89589256D01*
X169921199Y-89258801D01*
X169507725Y-88982527D01*
X169143109Y-88910000D01*
X168096891Y-88910000D01*
X167732275Y-88982527D01*
X167318801Y-89258801D01*
X167042527Y-89672275D01*
X166945512Y-90160000D01*
X167042527Y-90647725D01*
X167318801Y-91061199D01*
X167732275Y-91337473D01*
X167999272Y-91390582D01*
X167657183Y-91471897D01*
X167230050Y-91780762D01*
X166953628Y-92229572D01*
X166895357Y-92439574D01*
X167008531Y-92650000D01*
X168570000Y-92650000D01*
X168570000Y-92630000D01*
X168670000Y-92630000D01*
X168670000Y-92650000D01*
X168690000Y-92650000D01*
X168690000Y-92750000D01*
X168670000Y-92750000D01*
X168670000Y-92770000D01*
X168570000Y-92770000D01*
X168570000Y-92750000D01*
X167008531Y-92750000D01*
X166895357Y-92960426D01*
X166953628Y-93170428D01*
X167230050Y-93619238D01*
X167657183Y-93928103D01*
X167999272Y-94009418D01*
X167732275Y-94062527D01*
X167318801Y-94338801D01*
X167042527Y-94752275D01*
X166945512Y-95240000D01*
X167042527Y-95727725D01*
X167318801Y-96141199D01*
X167732275Y-96417473D01*
X168096891Y-96490000D01*
X169143109Y-96490000D01*
X169507725Y-96417473D01*
X169921199Y-96141199D01*
X170142001Y-95810745D01*
X170142001Y-97209255D01*
X169921199Y-96878801D01*
X169507725Y-96602527D01*
X169143109Y-96530000D01*
X168096891Y-96530000D01*
X167732275Y-96602527D01*
X167318801Y-96878801D01*
X167042527Y-97292275D01*
X166945512Y-97780000D01*
X167042527Y-98267725D01*
X167084144Y-98330010D01*
X162535856Y-98330010D01*
X162577473Y-98267725D01*
X162674488Y-97780000D01*
X162577473Y-97292275D01*
X162301199Y-96878801D01*
X161887725Y-96602527D01*
X161523109Y-96530000D01*
X160476891Y-96530000D01*
X160112275Y-96602527D01*
X159698801Y-96878801D01*
X159422527Y-97292275D01*
X159346490Y-97674539D01*
X158373715Y-96701764D01*
X158475725Y-96681473D01*
X158889199Y-96405199D01*
X159165473Y-95991725D01*
X159262488Y-95504000D01*
X159209975Y-95240000D01*
X159325512Y-95240000D01*
X159422527Y-95727725D01*
X159698801Y-96141199D01*
X160112275Y-96417473D01*
X160476891Y-96490000D01*
X161523109Y-96490000D01*
X161887725Y-96417473D01*
X162301199Y-96141199D01*
X162577473Y-95727725D01*
X162674488Y-95240000D01*
X162577473Y-94752275D01*
X162301199Y-94338801D01*
X161887725Y-94062527D01*
X161523109Y-93990000D01*
X160476891Y-93990000D01*
X160112275Y-94062527D01*
X159698801Y-94338801D01*
X159422527Y-94752275D01*
X159325512Y-95240000D01*
X159209975Y-95240000D01*
X159165473Y-95016275D01*
X158889199Y-94602801D01*
X158475725Y-94326527D01*
X158111109Y-94254000D01*
X157864891Y-94254000D01*
X157500275Y-94326527D01*
X157086801Y-94602801D01*
X156810527Y-95016275D01*
X156713512Y-95504000D01*
X156733403Y-95603999D01*
X156698000Y-95603999D01*
X156698000Y-95255360D01*
X156507699Y-94795932D01*
X156156068Y-94444301D01*
X155696640Y-94254000D01*
X155199360Y-94254000D01*
X154739932Y-94444301D01*
X154388301Y-94795932D01*
X154384959Y-94804000D01*
X148742932Y-94804000D01*
X148673997Y-94790288D01*
X148605062Y-94804000D01*
X148605058Y-94804000D01*
X148400872Y-94844615D01*
X148400870Y-94844616D01*
X148400871Y-94844616D01*
X148227770Y-94960278D01*
X148227769Y-94960279D01*
X148169327Y-94999329D01*
X148130277Y-95057771D01*
X147876049Y-95312000D01*
X146351041Y-95312000D01*
X146347699Y-95303932D01*
X145996068Y-94952301D01*
X145536640Y-94762000D01*
X145039360Y-94762000D01*
X144579932Y-94952301D01*
X144228301Y-95303932D01*
X144038000Y-95763360D01*
X144038000Y-96260640D01*
X144228301Y-96720068D01*
X144579932Y-97071699D01*
X145039360Y-97262000D01*
X145536640Y-97262000D01*
X145996068Y-97071699D01*
X146347699Y-96720068D01*
X146351041Y-96712000D01*
X147788369Y-96712000D01*
X147725512Y-97028000D01*
X147822527Y-97515725D01*
X148098801Y-97929199D01*
X148512275Y-98205473D01*
X148876891Y-98278000D01*
X149123109Y-98278000D01*
X149286297Y-98245540D01*
X148926810Y-98605027D01*
X148668000Y-99229849D01*
X148668000Y-99906151D01*
X148926810Y-100530973D01*
X149278827Y-100882990D01*
X145768054Y-100882990D01*
X146179714Y-100712475D01*
X146559475Y-100332714D01*
X146765000Y-99836532D01*
X146765000Y-99299468D01*
X146559475Y-98803286D01*
X146179714Y-98423525D01*
X145683532Y-98218000D01*
X145146468Y-98218000D01*
X144650286Y-98423525D01*
X144270525Y-98803286D01*
X144233816Y-98891910D01*
X144233816Y-98668000D01*
X144198891Y-98492419D01*
X144099432Y-98343568D01*
X143950581Y-98244109D01*
X143775000Y-98209184D01*
X141975000Y-98209184D01*
X141799419Y-98244109D01*
X141650568Y-98343568D01*
X141551109Y-98492419D01*
X141516184Y-98668000D01*
X141516184Y-100468000D01*
X141551109Y-100643581D01*
X141650568Y-100792432D01*
X141786098Y-100882990D01*
X140534721Y-100882990D01*
X140886919Y-100530792D01*
X141145680Y-99906087D01*
X141145680Y-99229913D01*
X140886919Y-98605208D01*
X140408792Y-98127081D01*
X139784087Y-97868320D01*
X139107913Y-97868320D01*
X138483208Y-98127081D01*
X138005081Y-98605208D01*
X137858500Y-98959086D01*
X137711919Y-98605208D01*
X137233792Y-98127081D01*
X136609087Y-97868320D01*
X135932913Y-97868320D01*
X135308208Y-98127081D01*
X134830081Y-98605208D01*
X134804496Y-98666976D01*
X134804496Y-98318320D01*
X134769571Y-98142739D01*
X134670112Y-97993888D01*
X134521261Y-97894429D01*
X134345680Y-97859504D01*
X133801520Y-97859504D01*
X133809712Y-97818319D01*
X133796000Y-97749384D01*
X133796000Y-97749380D01*
X133755385Y-97545194D01*
X133651702Y-97390023D01*
X133639722Y-97372093D01*
X133639720Y-97372091D01*
X133600670Y-97313649D01*
X133542228Y-97274599D01*
X133517629Y-97250000D01*
X134127109Y-97250000D01*
X134491725Y-97177473D01*
X134905199Y-96901199D01*
X135181473Y-96487725D01*
X135278488Y-96000000D01*
X139549512Y-96000000D01*
X139646527Y-96487725D01*
X139922801Y-96901199D01*
X140336275Y-97177473D01*
X140700891Y-97250000D01*
X141747109Y-97250000D01*
X142111725Y-97177473D01*
X142525199Y-96901199D01*
X142801473Y-96487725D01*
X142898488Y-96000000D01*
X142801473Y-95512275D01*
X142525199Y-95098801D01*
X142111725Y-94822527D01*
X141747109Y-94750000D01*
X140700891Y-94750000D01*
X140336275Y-94822527D01*
X139922801Y-95098801D01*
X139646527Y-95512275D01*
X139549512Y-96000000D01*
X135278488Y-96000000D01*
X135181473Y-95512275D01*
X134905199Y-95098801D01*
X134491725Y-94822527D01*
X134127109Y-94750000D01*
X133080891Y-94750000D01*
X132716275Y-94822527D01*
X132413270Y-95024988D01*
X132400218Y-95016267D01*
X127653726Y-90269775D01*
X127614672Y-90211328D01*
X127383127Y-90056614D01*
X127178941Y-90015999D01*
X127178936Y-90015999D01*
X127110001Y-90002287D01*
X127041066Y-90015999D01*
X126730597Y-90015999D01*
X126750488Y-89916000D01*
X126716944Y-89747360D01*
X128290000Y-89747360D01*
X128290000Y-90244640D01*
X128480301Y-90704068D01*
X128831932Y-91055699D01*
X129291360Y-91246000D01*
X129788640Y-91246000D01*
X130248068Y-91055699D01*
X130599699Y-90704068D01*
X130790000Y-90244640D01*
X130790000Y-89747360D01*
X130599699Y-89287932D01*
X130248068Y-88936301D01*
X129788640Y-88746000D01*
X129291360Y-88746000D01*
X128831932Y-88936301D01*
X128480301Y-89287932D01*
X128290000Y-89747360D01*
X126716944Y-89747360D01*
X126653473Y-89428275D01*
X126377199Y-89014801D01*
X125963725Y-88738527D01*
X125599109Y-88666000D01*
X125352891Y-88666000D01*
X124988275Y-88738527D01*
X124574801Y-89014801D01*
X124440364Y-89216000D01*
X121967041Y-89216000D01*
X121963699Y-89207932D01*
X121612068Y-88856301D01*
X121152640Y-88666000D01*
X120655360Y-88666000D01*
X120195932Y-88856301D01*
X119844301Y-89207932D01*
X119654000Y-89667360D01*
X119654000Y-90164640D01*
X119844301Y-90624068D01*
X120195932Y-90975699D01*
X120655360Y-91166000D01*
X121152640Y-91166000D01*
X121612068Y-90975699D01*
X121963699Y-90624068D01*
X121967041Y-90616000D01*
X124440364Y-90616000D01*
X124574801Y-90817199D01*
X124988275Y-91093473D01*
X125352891Y-91166000D01*
X125599109Y-91166000D01*
X125713330Y-91143280D01*
X125732278Y-91162228D01*
X125771328Y-91220670D01*
X125829770Y-91259720D01*
X125829771Y-91259721D01*
X125932994Y-91328692D01*
X126002873Y-91375384D01*
X126207059Y-91415999D01*
X126207063Y-91415999D01*
X126275998Y-91429711D01*
X126344933Y-91415999D01*
X126820053Y-91415999D01*
X129191441Y-93787388D01*
X128831932Y-93936301D01*
X128480301Y-94287932D01*
X128290000Y-94747360D01*
X128290000Y-95244640D01*
X128480301Y-95704068D01*
X128831932Y-96055699D01*
X129291360Y-96246000D01*
X129788640Y-96246000D01*
X130248068Y-96055699D01*
X130599699Y-95704068D01*
X130748612Y-95344559D01*
X131253990Y-95849937D01*
X131253991Y-96607370D01*
X131240278Y-96676310D01*
X131294606Y-96949436D01*
X131336456Y-97012068D01*
X131449320Y-97180981D01*
X131507764Y-97220032D01*
X132147235Y-97859504D01*
X131846320Y-97859504D01*
X131670739Y-97894429D01*
X131521888Y-97993888D01*
X131422429Y-98142739D01*
X131387504Y-98318320D01*
X131387504Y-100817680D01*
X131400495Y-100882990D01*
X128089173Y-100882990D01*
X128441190Y-100530973D01*
X128700000Y-99906151D01*
X128700000Y-99229849D01*
X128441190Y-98605027D01*
X127962973Y-98126810D01*
X127338151Y-97868000D01*
X126691471Y-97868000D01*
X126726000Y-97784640D01*
X126726000Y-97287360D01*
X126535699Y-96827932D01*
X126184068Y-96476301D01*
X125724640Y-96286000D01*
X125227360Y-96286000D01*
X124767932Y-96476301D01*
X124416301Y-96827932D01*
X124226000Y-97287360D01*
X124226000Y-97784640D01*
X124256877Y-97859184D01*
X122114202Y-97859184D01*
X122178488Y-97536000D01*
X122081473Y-97048275D01*
X121805199Y-96634801D01*
X121391725Y-96358527D01*
X121027109Y-96286000D01*
X120780891Y-96286000D01*
X120416275Y-96358527D01*
X120002801Y-96634801D01*
X119726527Y-97048275D01*
X119629512Y-97536000D01*
X119726527Y-98023725D01*
X120002801Y-98437199D01*
X120416275Y-98713473D01*
X120780891Y-98786000D01*
X121027109Y-98786000D01*
X121391725Y-98713473D01*
X121481184Y-98653699D01*
X121481184Y-100818000D01*
X121494111Y-100882990D01*
X118636939Y-100882990D01*
X118556000Y-100802052D01*
X118556000Y-79029948D01*
X119545184Y-78040765D01*
X119545184Y-78868868D01*
X119107773Y-79306279D01*
X119049328Y-79345331D01*
X118894614Y-79576876D01*
X118853999Y-79781062D01*
X118853999Y-79781066D01*
X118840287Y-79850001D01*
X118853999Y-79918936D01*
X118854000Y-85081059D01*
X118840287Y-85149999D01*
X118854000Y-85218939D01*
X118894615Y-85423125D01*
X119049329Y-85654670D01*
X119107773Y-85693721D01*
X119580805Y-86166754D01*
X119554000Y-86231468D01*
X119554000Y-86768532D01*
X119759525Y-87264714D01*
X120139286Y-87644475D01*
X120635468Y-87850000D01*
X121172532Y-87850000D01*
X121668714Y-87644475D01*
X122048475Y-87264714D01*
X122105368Y-87127360D01*
X123718000Y-87127360D01*
X123718000Y-87624640D01*
X123908301Y-88084068D01*
X124259932Y-88435699D01*
X124719360Y-88626000D01*
X125216640Y-88626000D01*
X125676068Y-88435699D01*
X126027699Y-88084068D01*
X126218000Y-87624640D01*
X126218000Y-87376000D01*
X126741512Y-87376000D01*
X126838527Y-87863725D01*
X127114801Y-88277199D01*
X127528275Y-88553473D01*
X127892891Y-88626000D01*
X128139109Y-88626000D01*
X128503725Y-88553473D01*
X128917199Y-88277199D01*
X129193473Y-87863725D01*
X129290488Y-87376000D01*
X129193473Y-86888275D01*
X128917199Y-86474801D01*
X128503725Y-86198527D01*
X128139109Y-86126000D01*
X127892891Y-86126000D01*
X127528275Y-86198527D01*
X127114801Y-86474801D01*
X126838527Y-86888275D01*
X126741512Y-87376000D01*
X126218000Y-87376000D01*
X126218000Y-87127360D01*
X126027699Y-86667932D01*
X125676068Y-86316301D01*
X125216640Y-86126000D01*
X124719360Y-86126000D01*
X124259932Y-86316301D01*
X123908301Y-86667932D01*
X123718000Y-87127360D01*
X122105368Y-87127360D01*
X122254000Y-86768532D01*
X122254000Y-86231468D01*
X122048475Y-85735286D01*
X121668714Y-85355525D01*
X121580090Y-85318816D01*
X121804000Y-85318816D01*
X121979581Y-85283891D01*
X122128432Y-85184432D01*
X122227891Y-85035581D01*
X122262816Y-84860000D01*
X122262816Y-83060000D01*
X122227891Y-82884419D01*
X122128432Y-82735568D01*
X121979581Y-82636109D01*
X121804000Y-82601184D01*
X120253999Y-82601184D01*
X120253999Y-82231991D01*
X120635468Y-82390000D01*
X121172532Y-82390000D01*
X121668714Y-82184475D01*
X122048475Y-81804714D01*
X122254000Y-81308532D01*
X122254000Y-80771468D01*
X122048475Y-80275286D01*
X121668714Y-79895525D01*
X121580090Y-79858816D01*
X121804000Y-79858816D01*
X121979581Y-79823891D01*
X122081187Y-79756000D01*
X123693512Y-79756000D01*
X123790527Y-80243725D01*
X124066801Y-80657199D01*
X124480275Y-80933473D01*
X124844891Y-81006000D01*
X125091109Y-81006000D01*
X125455725Y-80933473D01*
X125854964Y-80666710D01*
X127176000Y-80666710D01*
X127247929Y-80898224D01*
X127743504Y-81105206D01*
X128280565Y-81106783D01*
X128777349Y-80902716D01*
X128784071Y-80898224D01*
X128856000Y-80666710D01*
X128016000Y-79826711D01*
X127176000Y-80666710D01*
X125854964Y-80666710D01*
X125869199Y-80657199D01*
X126145473Y-80243725D01*
X126189862Y-80020565D01*
X126665217Y-80020565D01*
X126869284Y-80517349D01*
X126873776Y-80524071D01*
X127105290Y-80596000D01*
X127945289Y-79756000D01*
X128086711Y-79756000D01*
X128926710Y-80596000D01*
X129158224Y-80524071D01*
X129365206Y-80028496D01*
X129366783Y-79491435D01*
X129162716Y-78994651D01*
X129158224Y-78987929D01*
X128926710Y-78916000D01*
X128086711Y-79756000D01*
X127945289Y-79756000D01*
X127105290Y-78916000D01*
X126873776Y-78987929D01*
X126666794Y-79483504D01*
X126665217Y-80020565D01*
X126189862Y-80020565D01*
X126242488Y-79756000D01*
X126145473Y-79268275D01*
X125869199Y-78854801D01*
X125854965Y-78845290D01*
X127176000Y-78845290D01*
X128016000Y-79685289D01*
X128856000Y-78845290D01*
X128784071Y-78613776D01*
X128288496Y-78406794D01*
X127751435Y-78405217D01*
X127254651Y-78609284D01*
X127247929Y-78613776D01*
X127176000Y-78845290D01*
X125854965Y-78845290D01*
X125455725Y-78578527D01*
X125091109Y-78506000D01*
X124844891Y-78506000D01*
X124480275Y-78578527D01*
X124066801Y-78854801D01*
X123790527Y-79268275D01*
X123693512Y-79756000D01*
X122081187Y-79756000D01*
X122128432Y-79724432D01*
X122227891Y-79575581D01*
X122262816Y-79400000D01*
X122262816Y-77600000D01*
X122227891Y-77424419D01*
X122128432Y-77275568D01*
X121979581Y-77176109D01*
X121804000Y-77141184D01*
X120444766Y-77141184D01*
X120685950Y-76900000D01*
X122656436Y-76900000D01*
X122725371Y-76913712D01*
X122794306Y-76900000D01*
X122794311Y-76900000D01*
X122998497Y-76859385D01*
X123160167Y-76751360D01*
X124226000Y-76751360D01*
X124226000Y-77248640D01*
X124416301Y-77708068D01*
X124767932Y-78059699D01*
X125227360Y-78250000D01*
X125724640Y-78250000D01*
X126184068Y-78059699D01*
X126535699Y-77708068D01*
X126726000Y-77248640D01*
X126726000Y-76751360D01*
X126535699Y-76291932D01*
X126184068Y-75940301D01*
X125724640Y-75750000D01*
X125227360Y-75750000D01*
X124767932Y-75940301D01*
X124416301Y-76291932D01*
X124226000Y-76751360D01*
X123160167Y-76751360D01*
X123230042Y-76704671D01*
X123269095Y-76646224D01*
X125485426Y-74429895D01*
X125546630Y-74577656D01*
X126002344Y-75033370D01*
X126597762Y-75280000D01*
X127242238Y-75280000D01*
X127837656Y-75033370D01*
X128293370Y-74577656D01*
X128540000Y-73982238D01*
X128540000Y-73337762D01*
X128293370Y-72742344D01*
X128291025Y-72739999D01*
X130548975Y-72739999D01*
X130546630Y-72742344D01*
X130300000Y-73337762D01*
X130300000Y-73982238D01*
X130546630Y-74577656D01*
X131002344Y-75033370D01*
X131597762Y-75280000D01*
X132242238Y-75280000D01*
X132837656Y-75033370D01*
X133293370Y-74577656D01*
X133540000Y-73982238D01*
X133540000Y-73337762D01*
X133293370Y-72742344D01*
X133291025Y-72739999D01*
X135758051Y-72739999D01*
X141188279Y-78170229D01*
X141227329Y-78228671D01*
X141285771Y-78267721D01*
X141285772Y-78267722D01*
X141341069Y-78304670D01*
X141458874Y-78383385D01*
X141663060Y-78424000D01*
X141663064Y-78424000D01*
X141731999Y-78437712D01*
X141800934Y-78424000D01*
X144253305Y-78424000D01*
X144245328Y-78429330D01*
X144206278Y-78487772D01*
X142649388Y-80044664D01*
X142525199Y-79858801D01*
X142111725Y-79582527D01*
X141747109Y-79510000D01*
X140700891Y-79510000D01*
X140336275Y-79582527D01*
X139922801Y-79858801D01*
X139646527Y-80272275D01*
X139549512Y-80760000D01*
X139646527Y-81247725D01*
X139922801Y-81661199D01*
X140336275Y-81937473D01*
X140700891Y-82010000D01*
X141747109Y-82010000D01*
X142111725Y-81937473D01*
X142525199Y-81661199D01*
X142659636Y-81460000D01*
X142855065Y-81460000D01*
X142924000Y-81473712D01*
X142992935Y-81460000D01*
X142992940Y-81460000D01*
X143197126Y-81419385D01*
X143428671Y-81264671D01*
X143467724Y-81206224D01*
X145039949Y-79634001D01*
X145199872Y-79634001D01*
X145179568Y-79647568D01*
X145080109Y-79796419D01*
X145045184Y-79972000D01*
X145045184Y-81572000D01*
X145080109Y-81747581D01*
X145179568Y-81896432D01*
X145328419Y-81995891D01*
X145504000Y-82030816D01*
X146034076Y-82030816D01*
X145595932Y-82212301D01*
X145244301Y-82563932D01*
X145054000Y-83023360D01*
X145054000Y-83520640D01*
X145178828Y-83822001D01*
X143135951Y-83822001D01*
X142851280Y-83537331D01*
X142898488Y-83300000D01*
X142801473Y-82812275D01*
X142525199Y-82398801D01*
X142111725Y-82122527D01*
X141747109Y-82050000D01*
X140700891Y-82050000D01*
X140336275Y-82122527D01*
X139922801Y-82398801D01*
X139646527Y-82812275D01*
X139549512Y-83300000D01*
X139646527Y-83787725D01*
X139922801Y-84201199D01*
X140336275Y-84477473D01*
X140700891Y-84550000D01*
X141747109Y-84550000D01*
X141861331Y-84527280D01*
X141967986Y-84633935D01*
X141747109Y-84590000D01*
X140700891Y-84590000D01*
X140336275Y-84662527D01*
X139922801Y-84938801D01*
X139646527Y-85352275D01*
X139549512Y-85840000D01*
X139646527Y-86327725D01*
X139688144Y-86390010D01*
X139383960Y-86390010D01*
X135847724Y-82853776D01*
X135808671Y-82795329D01*
X135577126Y-82640615D01*
X135372940Y-82600000D01*
X135372935Y-82600000D01*
X135304000Y-82586288D01*
X135235065Y-82600000D01*
X135039636Y-82600000D01*
X134905199Y-82398801D01*
X134491725Y-82122527D01*
X134127109Y-82050000D01*
X133080891Y-82050000D01*
X132716275Y-82122527D01*
X132604000Y-82197547D01*
X132604000Y-82018816D01*
X134804000Y-82018816D01*
X134979581Y-81983891D01*
X135128432Y-81884432D01*
X135227891Y-81735581D01*
X135262816Y-81560000D01*
X135262816Y-79960000D01*
X135227891Y-79784419D01*
X135128432Y-79635568D01*
X134979581Y-79536109D01*
X134804000Y-79501184D01*
X132604000Y-79501184D01*
X132604000Y-78481948D01*
X132839723Y-78246225D01*
X132858669Y-78227280D01*
X132972891Y-78250000D01*
X133219109Y-78250000D01*
X133333331Y-78227280D01*
X133672277Y-78566226D01*
X133711329Y-78624671D01*
X133942874Y-78779385D01*
X134147060Y-78820000D01*
X134147064Y-78820000D01*
X134215999Y-78833712D01*
X134284934Y-78820000D01*
X136741184Y-78820000D01*
X136741184Y-78920000D01*
X136776109Y-79095581D01*
X136875568Y-79244432D01*
X137024419Y-79343891D01*
X137200000Y-79378816D01*
X138800000Y-79378816D01*
X138975581Y-79343891D01*
X139124432Y-79244432D01*
X139223891Y-79095581D01*
X139258816Y-78920000D01*
X139258816Y-77320000D01*
X139223891Y-77144419D01*
X139124432Y-76995568D01*
X138975581Y-76896109D01*
X138800000Y-76861184D01*
X137200000Y-76861184D01*
X137024419Y-76896109D01*
X136875568Y-76995568D01*
X136776109Y-77144419D01*
X136741184Y-77320000D01*
X136741184Y-77420000D01*
X134505949Y-77420000D01*
X134323280Y-77237331D01*
X134370488Y-77000000D01*
X134273473Y-76512275D01*
X133997199Y-76098801D01*
X133583725Y-75822527D01*
X133219109Y-75750000D01*
X132972891Y-75750000D01*
X132608275Y-75822527D01*
X132194801Y-76098801D01*
X131918527Y-76512275D01*
X131821512Y-77000000D01*
X131868720Y-77237331D01*
X131849774Y-77256277D01*
X131849775Y-77256277D01*
X131457775Y-77648277D01*
X131399330Y-77687329D01*
X131360278Y-77745774D01*
X131244616Y-77918874D01*
X131190288Y-78192000D01*
X131204001Y-78260940D01*
X131204000Y-92091065D01*
X131190288Y-92160000D01*
X131204000Y-92228935D01*
X131204000Y-92228939D01*
X131244615Y-92433125D01*
X131399329Y-92664670D01*
X131457774Y-92703722D01*
X131976720Y-93222669D01*
X131929512Y-93460000D01*
X132026527Y-93947725D01*
X132302801Y-94361199D01*
X132716275Y-94637473D01*
X133080891Y-94710000D01*
X134127109Y-94710000D01*
X134491725Y-94637473D01*
X134905199Y-94361199D01*
X135181473Y-93947725D01*
X135278488Y-93460000D01*
X139549512Y-93460000D01*
X139646527Y-93947725D01*
X139922801Y-94361199D01*
X140336275Y-94637473D01*
X140700891Y-94710000D01*
X141747109Y-94710000D01*
X142111725Y-94637473D01*
X142525199Y-94361199D01*
X142801473Y-93947725D01*
X142898488Y-93460000D01*
X142896698Y-93451000D01*
X150895184Y-93451000D01*
X150895184Y-94001000D01*
X150951042Y-94281819D01*
X151110114Y-94519886D01*
X151348181Y-94678958D01*
X151629000Y-94734816D01*
X152879000Y-94734816D01*
X153159819Y-94678958D01*
X153397886Y-94519886D01*
X153556958Y-94281819D01*
X153612816Y-94001000D01*
X153612816Y-93451000D01*
X153612127Y-93447536D01*
X153699000Y-93464816D01*
X154949000Y-93464816D01*
X155229819Y-93408958D01*
X155467886Y-93249886D01*
X155626958Y-93011819D01*
X155682816Y-92731000D01*
X155682816Y-92456000D01*
X156205512Y-92456000D01*
X156302527Y-92943725D01*
X156578801Y-93357199D01*
X156992275Y-93633473D01*
X157356891Y-93706000D01*
X157603109Y-93706000D01*
X157967725Y-93633473D01*
X158381199Y-93357199D01*
X158657473Y-92943725D01*
X158705953Y-92700000D01*
X159325512Y-92700000D01*
X159422527Y-93187725D01*
X159698801Y-93601199D01*
X160112275Y-93877473D01*
X160476891Y-93950000D01*
X161523109Y-93950000D01*
X161887725Y-93877473D01*
X162301199Y-93601199D01*
X162577473Y-93187725D01*
X162674488Y-92700000D01*
X162577473Y-92212275D01*
X162301199Y-91798801D01*
X161887725Y-91522527D01*
X161523109Y-91450000D01*
X160476891Y-91450000D01*
X160112275Y-91522527D01*
X159698801Y-91798801D01*
X159422527Y-92212275D01*
X159325512Y-92700000D01*
X158705953Y-92700000D01*
X158754488Y-92456000D01*
X158657473Y-91968275D01*
X158381199Y-91554801D01*
X157967725Y-91278527D01*
X157603109Y-91206000D01*
X157356891Y-91206000D01*
X156992275Y-91278527D01*
X156578801Y-91554801D01*
X156302527Y-91968275D01*
X156205512Y-92456000D01*
X155682816Y-92456000D01*
X155682816Y-92181000D01*
X155626958Y-91900181D01*
X155467886Y-91662114D01*
X155229819Y-91503042D01*
X154949000Y-91447184D01*
X153704000Y-91447184D01*
X153704000Y-91373500D01*
X153566500Y-91236000D01*
X152304000Y-91236000D01*
X152304000Y-92148500D01*
X152441500Y-92286000D01*
X152965184Y-92286000D01*
X152965184Y-92731000D01*
X152965873Y-92734464D01*
X152879000Y-92717184D01*
X151629000Y-92717184D01*
X151348181Y-92773042D01*
X151110114Y-92932114D01*
X150951042Y-93170181D01*
X150895184Y-93451000D01*
X142896698Y-93451000D01*
X142801473Y-92972275D01*
X142525199Y-92558801D01*
X142111725Y-92282527D01*
X141747109Y-92210000D01*
X140700891Y-92210000D01*
X140336275Y-92282527D01*
X139922801Y-92558801D01*
X139646527Y-92972275D01*
X139549512Y-93460000D01*
X135278488Y-93460000D01*
X135181473Y-92972275D01*
X134905199Y-92558801D01*
X134491725Y-92282527D01*
X134127109Y-92210000D01*
X133080891Y-92210000D01*
X132966669Y-92232720D01*
X132860013Y-92126064D01*
X133080891Y-92170000D01*
X134127109Y-92170000D01*
X134491725Y-92097473D01*
X134905199Y-91821199D01*
X135039636Y-91620000D01*
X139788364Y-91620000D01*
X139922801Y-91821199D01*
X140336275Y-92097473D01*
X140700891Y-92170000D01*
X141747109Y-92170000D01*
X142111725Y-92097473D01*
X142525199Y-91821199D01*
X142801473Y-91407725D01*
X142898488Y-90920000D01*
X142801473Y-90432275D01*
X142525199Y-90018801D01*
X142111725Y-89742527D01*
X141747109Y-89670000D01*
X140700891Y-89670000D01*
X140336275Y-89742527D01*
X139922801Y-90018801D01*
X139788364Y-90220000D01*
X135039636Y-90220000D01*
X134905199Y-90018801D01*
X134491725Y-89742527D01*
X134224728Y-89689418D01*
X134566817Y-89608103D01*
X134993950Y-89299238D01*
X135270372Y-88850428D01*
X135328643Y-88640426D01*
X135215469Y-88430000D01*
X133654000Y-88430000D01*
X133654000Y-88450000D01*
X133554000Y-88450000D01*
X133554000Y-88430000D01*
X133534000Y-88430000D01*
X133534000Y-88330000D01*
X133554000Y-88330000D01*
X133554000Y-88310000D01*
X133654000Y-88310000D01*
X133654000Y-88330000D01*
X135215469Y-88330000D01*
X135328643Y-88119574D01*
X135270372Y-87909572D01*
X134993950Y-87460762D01*
X134566817Y-87151897D01*
X134224728Y-87070582D01*
X134491725Y-87017473D01*
X134905199Y-86741199D01*
X135181473Y-86327725D01*
X135278488Y-85840000D01*
X135181473Y-85352275D01*
X134905199Y-84938801D01*
X134491725Y-84662527D01*
X134127109Y-84590000D01*
X133080891Y-84590000D01*
X132716275Y-84662527D01*
X132604000Y-84737547D01*
X132604000Y-84402453D01*
X132716275Y-84477473D01*
X133080891Y-84550000D01*
X134127109Y-84550000D01*
X134491725Y-84477473D01*
X134905199Y-84201199D01*
X135029388Y-84015336D01*
X138550289Y-87536239D01*
X138589339Y-87594681D01*
X138647781Y-87633731D01*
X138647783Y-87633733D01*
X138820883Y-87749395D01*
X138867050Y-87758578D01*
X139025070Y-87790010D01*
X139025073Y-87790010D01*
X139094010Y-87803722D01*
X139162946Y-87790010D01*
X139714858Y-87790010D01*
X139646527Y-87892275D01*
X139549512Y-88380000D01*
X139646527Y-88867725D01*
X139922801Y-89281199D01*
X140336275Y-89557473D01*
X140700891Y-89630000D01*
X141747109Y-89630000D01*
X142111725Y-89557473D01*
X142525199Y-89281199D01*
X142801473Y-88867725D01*
X142898488Y-88380000D01*
X142801473Y-87892275D01*
X142733142Y-87790010D01*
X143209685Y-87790010D01*
X143278620Y-87803722D01*
X143347555Y-87790010D01*
X143347560Y-87790010D01*
X143551746Y-87749395D01*
X143625671Y-87700000D01*
X144568940Y-87700000D01*
X144773126Y-87659385D01*
X144794892Y-87644841D01*
X145216277Y-88066226D01*
X145255329Y-88124671D01*
X145486874Y-88279385D01*
X145691060Y-88320000D01*
X145691064Y-88320000D01*
X145759999Y-88333712D01*
X145828934Y-88320000D01*
X148360257Y-88320000D01*
X148291932Y-88348301D01*
X147940301Y-88699932D01*
X147750000Y-89159360D01*
X147750000Y-89656640D01*
X147940301Y-90116068D01*
X148136233Y-90312000D01*
X146351041Y-90312000D01*
X146347699Y-90303932D01*
X145996068Y-89952301D01*
X145536640Y-89762000D01*
X145039360Y-89762000D01*
X144579932Y-89952301D01*
X144228301Y-90303932D01*
X144038000Y-90763360D01*
X144038000Y-91260640D01*
X144228301Y-91720068D01*
X144579932Y-92071699D01*
X145039360Y-92262000D01*
X145536640Y-92262000D01*
X145996068Y-92071699D01*
X146347699Y-91720068D01*
X146351041Y-91712000D01*
X150099063Y-91712000D01*
X150167998Y-91725712D01*
X150236933Y-91712000D01*
X150236938Y-91712000D01*
X150441124Y-91671385D01*
X150672669Y-91516671D01*
X150711722Y-91458224D01*
X150933944Y-91236002D01*
X150941498Y-91236002D01*
X150804000Y-91373500D01*
X150804000Y-91845402D01*
X150887733Y-92047550D01*
X151042450Y-92202268D01*
X151244598Y-92286000D01*
X152066500Y-92286000D01*
X152204000Y-92148500D01*
X152204000Y-91236000D01*
X152184000Y-91236000D01*
X152184000Y-91136000D01*
X152204000Y-91136000D01*
X152204000Y-91116000D01*
X152304000Y-91116000D01*
X152304000Y-91136000D01*
X153566500Y-91136000D01*
X153704000Y-90998500D01*
X153704000Y-90860000D01*
X159564364Y-90860000D01*
X159698801Y-91061199D01*
X160112275Y-91337473D01*
X160476891Y-91410000D01*
X161523109Y-91410000D01*
X161887725Y-91337473D01*
X162301199Y-91061199D01*
X162577473Y-90647725D01*
X162674488Y-90160000D01*
X162577473Y-89672275D01*
X162301199Y-89258801D01*
X161887725Y-88982527D01*
X161523109Y-88910000D01*
X160476891Y-88910000D01*
X160112275Y-88982527D01*
X159698801Y-89258801D01*
X159564364Y-89460000D01*
X151088933Y-89460000D01*
X151019998Y-89446288D01*
X150951063Y-89460000D01*
X150951058Y-89460000D01*
X150746872Y-89500615D01*
X150515327Y-89655329D01*
X150476275Y-89713774D01*
X149878050Y-90312000D01*
X149863767Y-90312000D01*
X150059699Y-90116068D01*
X150250000Y-89656640D01*
X150250000Y-89159360D01*
X150059699Y-88699932D01*
X149708068Y-88348301D01*
X149639743Y-88320000D01*
X159564364Y-88320000D01*
X159698801Y-88521199D01*
X160112275Y-88797473D01*
X160476891Y-88870000D01*
X161523109Y-88870000D01*
X161887725Y-88797473D01*
X162301199Y-88521199D01*
X162577473Y-88107725D01*
X162674488Y-87620000D01*
X162577473Y-87132275D01*
X162301199Y-86718801D01*
X161887725Y-86442527D01*
X161523109Y-86370000D01*
X160699948Y-86370000D01*
X160739948Y-86330000D01*
X161523109Y-86330000D01*
X161887725Y-86257473D01*
X162301199Y-85981199D01*
X162577473Y-85567725D01*
X162674488Y-85080000D01*
X162577473Y-84592275D01*
X162301199Y-84178801D01*
X161887725Y-83902527D01*
X161523109Y-83830000D01*
X160476891Y-83830000D01*
X160112275Y-83902527D01*
X159698801Y-84178801D01*
X159422527Y-84592275D01*
X159325512Y-85080000D01*
X159409056Y-85500001D01*
X158830000Y-85500001D01*
X158830000Y-85023500D01*
X158692500Y-84886000D01*
X157530000Y-84886000D01*
X157530000Y-84906000D01*
X157430000Y-84906000D01*
X157430000Y-84886000D01*
X156267500Y-84886000D01*
X156130000Y-85023500D01*
X156130000Y-85500001D01*
X153136933Y-85500001D01*
X153067998Y-85486289D01*
X153042901Y-85491281D01*
X153021199Y-85458801D01*
X152607725Y-85182527D01*
X152243109Y-85110000D01*
X151996891Y-85110000D01*
X151632275Y-85182527D01*
X151218801Y-85458801D01*
X150942527Y-85872275D01*
X150845512Y-86360000D01*
X150942527Y-86847725D01*
X150990820Y-86920000D01*
X146049949Y-86920000D01*
X145746658Y-86616709D01*
X145750000Y-86608640D01*
X145750000Y-86111360D01*
X145559699Y-85651932D01*
X145208068Y-85300301D01*
X145019035Y-85222001D01*
X146785064Y-85222001D01*
X146853999Y-85235713D01*
X146922934Y-85222001D01*
X146922939Y-85222001D01*
X147127125Y-85181386D01*
X147358670Y-85026672D01*
X147397723Y-84968225D01*
X148439350Y-83926598D01*
X156130000Y-83926598D01*
X156130000Y-84648500D01*
X156267500Y-84786000D01*
X157430000Y-84786000D01*
X157430000Y-83623500D01*
X157292500Y-83486000D01*
X156570598Y-83486000D01*
X156368450Y-83569732D01*
X156213733Y-83724450D01*
X156130000Y-83926598D01*
X148439350Y-83926598D01*
X149145866Y-83220083D01*
X149156109Y-83271581D01*
X149255568Y-83420432D01*
X149404419Y-83519891D01*
X149580000Y-83554816D01*
X151180000Y-83554816D01*
X151355581Y-83519891D01*
X151504432Y-83420432D01*
X151603891Y-83271581D01*
X151638816Y-83096000D01*
X151638816Y-81496000D01*
X151603891Y-81320419D01*
X151504432Y-81171568D01*
X151355581Y-81072109D01*
X151180000Y-81037184D01*
X149580000Y-81037184D01*
X149404419Y-81072109D01*
X149255568Y-81171568D01*
X149156109Y-81320419D01*
X149121184Y-81496000D01*
X149121184Y-81590480D01*
X149080000Y-81582288D01*
X149011065Y-81596000D01*
X149011060Y-81596000D01*
X148806874Y-81636615D01*
X148575329Y-81791329D01*
X148536277Y-81849774D01*
X147497967Y-82888084D01*
X147363699Y-82563932D01*
X147012068Y-82212301D01*
X146573924Y-82030816D01*
X147104000Y-82030816D01*
X147279581Y-81995891D01*
X147428432Y-81896432D01*
X147527891Y-81747581D01*
X147562816Y-81572000D01*
X147562816Y-79972000D01*
X147527891Y-79796419D01*
X147428432Y-79647568D01*
X147279581Y-79548109D01*
X147252847Y-79542791D01*
X147408672Y-79438672D01*
X147447725Y-79380225D01*
X148627951Y-78200000D01*
X150806517Y-78200000D01*
X150797042Y-78214181D01*
X150741184Y-78495000D01*
X150741184Y-79045000D01*
X150797042Y-79325819D01*
X150956114Y-79563886D01*
X151194181Y-79722958D01*
X151475000Y-79778816D01*
X152725000Y-79778816D01*
X153005819Y-79722958D01*
X153243886Y-79563886D01*
X153402958Y-79325819D01*
X153458816Y-79045000D01*
X153458816Y-78744764D01*
X156772720Y-82058670D01*
X156725512Y-82296000D01*
X156822527Y-82783725D01*
X157098801Y-83197199D01*
X157512275Y-83473473D01*
X157652195Y-83501305D01*
X157530000Y-83623500D01*
X157530000Y-84786000D01*
X158692500Y-84786000D01*
X158830000Y-84648500D01*
X158830000Y-83926598D01*
X158746267Y-83724450D01*
X158591550Y-83569732D01*
X158400869Y-83490750D01*
X158487725Y-83473473D01*
X158901199Y-83197199D01*
X159177473Y-82783725D01*
X159225953Y-82540000D01*
X159325512Y-82540000D01*
X159422527Y-83027725D01*
X159698801Y-83441199D01*
X160112275Y-83717473D01*
X160476891Y-83790000D01*
X161523109Y-83790000D01*
X161887725Y-83717473D01*
X162301199Y-83441199D01*
X162577473Y-83027725D01*
X162674488Y-82540000D01*
X162577473Y-82052275D01*
X162301199Y-81638801D01*
X161887725Y-81362527D01*
X161523109Y-81290000D01*
X160476891Y-81290000D01*
X160112275Y-81362527D01*
X159698801Y-81638801D01*
X159422527Y-82052275D01*
X159325512Y-82540000D01*
X159225953Y-82540000D01*
X159274488Y-82296000D01*
X159177473Y-81808275D01*
X158901199Y-81394801D01*
X158487725Y-81118527D01*
X158123109Y-81046000D01*
X157876891Y-81046000D01*
X157762670Y-81068720D01*
X155893950Y-79200000D01*
X159341184Y-79200000D01*
X159341184Y-80800000D01*
X159376109Y-80975581D01*
X159475568Y-81124432D01*
X159624419Y-81223891D01*
X159800000Y-81258816D01*
X162200000Y-81258816D01*
X162375581Y-81223891D01*
X162524432Y-81124432D01*
X162623891Y-80975581D01*
X162658816Y-80800000D01*
X162658816Y-79200000D01*
X162623891Y-79024419D01*
X162524432Y-78875568D01*
X162375581Y-78776109D01*
X162200000Y-78741184D01*
X159800000Y-78741184D01*
X159624419Y-78776109D01*
X159475568Y-78875568D01*
X159376109Y-79024419D01*
X159341184Y-79200000D01*
X155893950Y-79200000D01*
X155118433Y-78424484D01*
X155313886Y-78293886D01*
X155472958Y-78055819D01*
X155528816Y-77775000D01*
X155528816Y-77225000D01*
X155472958Y-76944181D01*
X155313886Y-76706114D01*
X155075819Y-76547042D01*
X154795000Y-76491184D01*
X153545000Y-76491184D01*
X153458816Y-76508327D01*
X153458816Y-76459360D01*
X158262000Y-76459360D01*
X158262000Y-76956640D01*
X158452301Y-77416068D01*
X158803932Y-77767699D01*
X159263360Y-77958000D01*
X159760640Y-77958000D01*
X160220068Y-77767699D01*
X160571699Y-77416068D01*
X160762000Y-76956640D01*
X160762000Y-76708000D01*
X160777512Y-76708000D01*
X160874527Y-77195725D01*
X161150801Y-77609199D01*
X161564275Y-77885473D01*
X161928891Y-77958000D01*
X162175109Y-77958000D01*
X162539725Y-77885473D01*
X162953199Y-77609199D01*
X163229473Y-77195725D01*
X163326488Y-76708000D01*
X163277031Y-76459360D01*
X163342000Y-76459360D01*
X163342000Y-76956640D01*
X163532301Y-77416068D01*
X163883932Y-77767699D01*
X164343360Y-77958000D01*
X164840640Y-77958000D01*
X165300068Y-77767699D01*
X165651699Y-77416068D01*
X165842000Y-76956640D01*
X165842000Y-76459360D01*
X165651699Y-75999932D01*
X165300068Y-75648301D01*
X164840640Y-75458000D01*
X164343360Y-75458000D01*
X163883932Y-75648301D01*
X163532301Y-75999932D01*
X163342000Y-76459360D01*
X163277031Y-76459360D01*
X163229473Y-76220275D01*
X162953199Y-75806801D01*
X162539725Y-75530527D01*
X162175109Y-75458000D01*
X161928891Y-75458000D01*
X161564275Y-75530527D01*
X161150801Y-75806801D01*
X160874527Y-76220275D01*
X160777512Y-76708000D01*
X160762000Y-76708000D01*
X160762000Y-76459360D01*
X160571699Y-75999932D01*
X160220068Y-75648301D01*
X159760640Y-75458000D01*
X159263360Y-75458000D01*
X158803932Y-75648301D01*
X158452301Y-75999932D01*
X158262000Y-76459360D01*
X153458816Y-76459360D01*
X153458816Y-75680000D01*
X153423891Y-75504419D01*
X153324432Y-75355568D01*
X153175581Y-75256109D01*
X153000000Y-75221184D01*
X151200000Y-75221184D01*
X151024419Y-75256109D01*
X150875568Y-75355568D01*
X150776109Y-75504419D01*
X150741184Y-75680000D01*
X150741184Y-76780000D01*
X150745162Y-76800000D01*
X148406938Y-76800000D01*
X148338002Y-76786288D01*
X148269065Y-76800000D01*
X148269062Y-76800000D01*
X148111042Y-76831432D01*
X148064875Y-76840615D01*
X147976000Y-76900000D01*
X147833331Y-76995329D01*
X147794279Y-77053774D01*
X147512612Y-77335441D01*
X147363699Y-76975932D01*
X147012068Y-76624301D01*
X146573924Y-76442816D01*
X147104000Y-76442816D01*
X147279581Y-76407891D01*
X147428432Y-76308432D01*
X147527891Y-76159581D01*
X147562816Y-75984000D01*
X147562816Y-74384000D01*
X147527891Y-74208419D01*
X147428432Y-74059568D01*
X147279581Y-73960109D01*
X147104000Y-73925184D01*
X147009520Y-73925184D01*
X147017712Y-73883999D01*
X147004000Y-73815064D01*
X147004000Y-73815060D01*
X146963385Y-73610874D01*
X146938932Y-73574279D01*
X146847722Y-73437772D01*
X146847718Y-73437768D01*
X146808670Y-73379329D01*
X146750231Y-73340281D01*
X144963724Y-71553776D01*
X144924671Y-71495329D01*
X144693126Y-71340615D01*
X144488940Y-71300000D01*
X144488935Y-71300000D01*
X144420000Y-71286288D01*
X144351065Y-71300000D01*
X141915636Y-71300000D01*
X141781199Y-71098801D01*
X141687498Y-71036192D01*
X141734673Y-71004671D01*
X141773727Y-70946223D01*
X143968590Y-68751360D01*
X147250000Y-68751360D01*
X147250000Y-69248640D01*
X147440301Y-69708068D01*
X147791932Y-70059699D01*
X148251360Y-70250000D01*
X148748640Y-70250000D01*
X149208068Y-70059699D01*
X149559699Y-69708068D01*
X149750000Y-69248640D01*
X149750000Y-69336640D01*
X149940301Y-69796068D01*
X150291932Y-70147699D01*
X150751360Y-70338000D01*
X151248640Y-70338000D01*
X151708068Y-70147699D01*
X151966592Y-69889175D01*
X160464000Y-69889175D01*
X160464000Y-70318825D01*
X160628421Y-70715771D01*
X160932229Y-71019579D01*
X161329175Y-71184000D01*
X161758825Y-71184000D01*
X162155771Y-71019579D01*
X162459579Y-70715771D01*
X162624000Y-70318825D01*
X162624000Y-69889175D01*
X162459579Y-69492229D01*
X162155771Y-69188421D01*
X161758825Y-69024000D01*
X161329175Y-69024000D01*
X160932229Y-69188421D01*
X160628421Y-69492229D01*
X160464000Y-69889175D01*
X151966592Y-69889175D01*
X152059699Y-69796068D01*
X152250000Y-69336640D01*
X152250000Y-68839360D01*
X152059699Y-68379932D01*
X151708068Y-68028301D01*
X151248640Y-67838000D01*
X150751360Y-67838000D01*
X150291932Y-68028301D01*
X149940301Y-68379932D01*
X149750000Y-68839360D01*
X149750000Y-68751360D01*
X149559699Y-68291932D01*
X149208068Y-67940301D01*
X148748640Y-67750000D01*
X148251360Y-67750000D01*
X147791932Y-67940301D01*
X147440301Y-68291932D01*
X147250000Y-68751360D01*
X143968590Y-68751360D01*
X145370775Y-67349175D01*
X157924000Y-67349175D01*
X157924000Y-67778825D01*
X158088421Y-68175771D01*
X158392229Y-68479579D01*
X158789175Y-68644000D01*
X159218825Y-68644000D01*
X159615771Y-68479579D01*
X159919579Y-68175771D01*
X160084000Y-67778825D01*
X160084000Y-67349175D01*
X163004000Y-67349175D01*
X163004000Y-67778825D01*
X163168421Y-68175771D01*
X163472229Y-68479579D01*
X163869175Y-68644000D01*
X164298825Y-68644000D01*
X164695771Y-68479579D01*
X164999579Y-68175771D01*
X165164000Y-67778825D01*
X165164000Y-67349175D01*
X164999579Y-66952229D01*
X164695771Y-66648421D01*
X164298825Y-66484000D01*
X163869175Y-66484000D01*
X163472229Y-66648421D01*
X163168421Y-66952229D01*
X163004000Y-67349175D01*
X160084000Y-67349175D01*
X159919579Y-66952229D01*
X159615771Y-66648421D01*
X159218825Y-66484000D01*
X158789175Y-66484000D01*
X158392229Y-66648421D01*
X158088421Y-66952229D01*
X157924000Y-67349175D01*
X145370775Y-67349175D01*
X148144000Y-64575951D01*
X148144000Y-64794470D01*
X147791932Y-64940301D01*
X147440301Y-65291932D01*
X147250000Y-65751360D01*
X147250000Y-66248640D01*
X147440301Y-66708068D01*
X147791932Y-67059699D01*
X148251360Y-67250000D01*
X148748640Y-67250000D01*
X149208068Y-67059699D01*
X149559699Y-66708068D01*
X149750000Y-66248640D01*
X149750000Y-65751360D01*
X149559699Y-65291932D01*
X149544000Y-65276233D01*
X149544000Y-61468000D01*
X149725512Y-61468000D01*
X149822527Y-61955725D01*
X150098801Y-62369199D01*
X150512275Y-62645473D01*
X150876891Y-62718000D01*
X151123109Y-62718000D01*
X151487725Y-62645473D01*
X151901199Y-62369199D01*
X152177473Y-61955725D01*
X152274488Y-61468000D01*
X152177473Y-60980275D01*
X151901199Y-60566801D01*
X151487725Y-60290527D01*
X151123109Y-60218000D01*
X150876891Y-60218000D01*
X150512275Y-60290527D01*
X150098801Y-60566801D01*
X149822527Y-60980275D01*
X149725512Y-61468000D01*
X149544000Y-61468000D01*
X149544000Y-59217948D01*
X150099133Y-58662816D01*
X150660000Y-58662816D01*
X150835581Y-58627891D01*
X150984432Y-58528432D01*
X151083891Y-58379581D01*
X151118816Y-58204000D01*
X151118816Y-57371577D01*
X160094000Y-57371577D01*
X160094000Y-57948423D01*
X160314750Y-58481359D01*
X160722641Y-58889250D01*
X161255577Y-59110000D01*
X161832423Y-59110000D01*
X162365359Y-58889250D01*
X162773250Y-58481359D01*
X162994000Y-57948423D01*
X162994000Y-57371577D01*
X162773250Y-56838641D01*
X162365359Y-56430750D01*
X161832423Y-56210000D01*
X161255577Y-56210000D01*
X160722641Y-56430750D01*
X160314750Y-56838641D01*
X160094000Y-57371577D01*
X151118816Y-57371577D01*
X151118816Y-56604000D01*
X151083891Y-56428419D01*
X150984432Y-56279568D01*
X150835581Y-56180109D01*
X150660000Y-56145184D01*
X150129924Y-56145184D01*
X150568068Y-55963699D01*
X150919699Y-55612068D01*
X151110000Y-55152640D01*
X151110000Y-54655360D01*
X150919699Y-54195932D01*
X150568068Y-53844301D01*
X150108640Y-53654000D01*
X149611360Y-53654000D01*
X149151932Y-53844301D01*
X148843990Y-54152243D01*
X148843990Y-53845958D01*
X150265866Y-52424083D01*
X150276109Y-52475581D01*
X150375568Y-52624432D01*
X150524419Y-52723891D01*
X150700000Y-52758816D01*
X152300000Y-52758816D01*
X152475581Y-52723891D01*
X152624432Y-52624432D01*
X152723891Y-52475581D01*
X152758816Y-52300000D01*
X152758816Y-50700000D01*
X152723891Y-50524419D01*
X152624432Y-50375568D01*
X152475581Y-50276109D01*
X152300000Y-50241184D01*
X150700000Y-50241184D01*
X150524419Y-50276109D01*
X150375568Y-50375568D01*
X150276109Y-50524419D01*
X150241184Y-50700000D01*
X150241184Y-50794480D01*
X150199999Y-50786288D01*
X150131064Y-50800000D01*
X150131060Y-50800000D01*
X149926874Y-50840615D01*
X149695329Y-50995329D01*
X149656277Y-51053774D01*
X147697764Y-53012288D01*
X147639320Y-53051339D01*
X147600268Y-53109784D01*
X147484606Y-53282884D01*
X147430278Y-53556010D01*
X147443991Y-53624950D01*
X147443990Y-63296063D01*
X142085729Y-68654325D01*
X142057473Y-68512275D01*
X141781199Y-68098801D01*
X141367725Y-67822527D01*
X141003109Y-67750000D01*
X140756891Y-67750000D01*
X140392275Y-67822527D01*
X139978801Y-68098801D01*
X139702527Y-68512275D01*
X139605512Y-69000000D01*
X139702527Y-69487725D01*
X139911182Y-69800000D01*
X139035636Y-69800000D01*
X138901199Y-69598801D01*
X138487725Y-69322527D01*
X138123109Y-69250000D01*
X138248640Y-69250000D01*
X138708068Y-69059699D01*
X139059699Y-68708068D01*
X139250000Y-68248640D01*
X139250000Y-67751360D01*
X139059699Y-67291932D01*
X138708068Y-66940301D01*
X138248640Y-66750000D01*
X137751360Y-66750000D01*
X137291932Y-66940301D01*
X136940301Y-67291932D01*
X136750000Y-67751360D01*
X136750000Y-68248640D01*
X136940301Y-68708068D01*
X137291932Y-69059699D01*
X137751360Y-69250000D01*
X137876891Y-69250000D01*
X137512275Y-69322527D01*
X137098801Y-69598801D01*
X136822527Y-70012275D01*
X136725512Y-70500000D01*
X136822527Y-70987725D01*
X137098801Y-71401199D01*
X137512275Y-71677473D01*
X137876891Y-71750000D01*
X138123109Y-71750000D01*
X138487725Y-71677473D01*
X138901199Y-71401199D01*
X139035636Y-71200000D01*
X139911182Y-71200000D01*
X139702527Y-71512275D01*
X139605512Y-72000000D01*
X139702527Y-72487725D01*
X139978801Y-72901199D01*
X140392275Y-73177473D01*
X140756891Y-73250000D01*
X141003109Y-73250000D01*
X141367725Y-73177473D01*
X141781199Y-72901199D01*
X141915636Y-72700000D01*
X144130052Y-72700000D01*
X145379916Y-73949866D01*
X145328419Y-73960109D01*
X145179568Y-74059568D01*
X145080109Y-74208419D01*
X145045184Y-74384000D01*
X145045184Y-75984000D01*
X145080109Y-76159581D01*
X145179568Y-76308432D01*
X145328419Y-76407891D01*
X145504000Y-76442816D01*
X146034076Y-76442816D01*
X145595932Y-76624301D01*
X145244301Y-76975932D01*
X145224391Y-77024000D01*
X142021950Y-77024000D01*
X136591723Y-71593775D01*
X136552670Y-71535328D01*
X136321125Y-71380614D01*
X136116939Y-71339999D01*
X136116934Y-71339999D01*
X136047999Y-71326287D01*
X135979064Y-71339999D01*
X123608935Y-71339999D01*
X123540000Y-71326287D01*
X123471065Y-71339999D01*
X123471061Y-71339999D01*
X123266875Y-71380614D01*
X123196996Y-71427306D01*
X123093773Y-71496277D01*
X123093772Y-71496278D01*
X123035330Y-71535328D01*
X122996280Y-71593770D01*
X122459895Y-72130156D01*
X122242238Y-72040000D01*
X121597762Y-72040000D01*
X121002344Y-72286630D01*
X120546630Y-72742344D01*
X120300000Y-73337762D01*
X120300000Y-73982238D01*
X120546630Y-74577656D01*
X121002344Y-75033370D01*
X121597762Y-75280000D01*
X122242238Y-75280000D01*
X122837656Y-75033370D01*
X123293370Y-74577656D01*
X123540000Y-73982238D01*
X123540000Y-73337762D01*
X123449844Y-73120105D01*
X123829951Y-72739999D01*
X125548975Y-72739999D01*
X125546630Y-72742344D01*
X125456474Y-72960000D01*
X125334305Y-72960000D01*
X125265370Y-72946288D01*
X125196435Y-72960000D01*
X125196431Y-72960000D01*
X124992245Y-73000615D01*
X124992243Y-73000616D01*
X124992244Y-73000616D01*
X124819143Y-73116278D01*
X124819142Y-73116279D01*
X124760700Y-73155329D01*
X124721650Y-73213771D01*
X122435423Y-75500000D01*
X120464934Y-75500000D01*
X120395999Y-75486288D01*
X120327064Y-75500000D01*
X120327060Y-75500000D01*
X120122874Y-75540615D01*
X120122872Y-75540616D01*
X120122873Y-75540616D01*
X119949772Y-75656278D01*
X119949771Y-75656279D01*
X119891329Y-75695329D01*
X119852279Y-75753771D01*
X117409774Y-78196278D01*
X117365000Y-78226195D01*
X117365000Y-69889175D01*
X125920000Y-69889175D01*
X125920000Y-70318825D01*
X126084421Y-70715771D01*
X126388229Y-71019579D01*
X126785175Y-71184000D01*
X127214825Y-71184000D01*
X127611771Y-71019579D01*
X127915579Y-70715771D01*
X128080000Y-70318825D01*
X128080000Y-69889175D01*
X127915579Y-69492229D01*
X127611771Y-69188421D01*
X127214825Y-69024000D01*
X126785175Y-69024000D01*
X126388229Y-69188421D01*
X126084421Y-69492229D01*
X125920000Y-69889175D01*
X117365000Y-69889175D01*
X117365000Y-67349175D01*
X123380000Y-67349175D01*
X123380000Y-67778825D01*
X123544421Y-68175771D01*
X123848229Y-68479579D01*
X124245175Y-68644000D01*
X124674825Y-68644000D01*
X125071771Y-68479579D01*
X125375579Y-68175771D01*
X125540000Y-67778825D01*
X125540000Y-67349175D01*
X128460000Y-67349175D01*
X128460000Y-67778825D01*
X128624421Y-68175771D01*
X128928229Y-68479579D01*
X129325175Y-68644000D01*
X129754825Y-68644000D01*
X130151771Y-68479579D01*
X130455579Y-68175771D01*
X130620000Y-67778825D01*
X130620000Y-67349175D01*
X130455579Y-66952229D01*
X130151771Y-66648421D01*
X129754825Y-66484000D01*
X129325175Y-66484000D01*
X128928229Y-66648421D01*
X128624421Y-66952229D01*
X128460000Y-67349175D01*
X125540000Y-67349175D01*
X125375579Y-66952229D01*
X125071771Y-66648421D01*
X124674825Y-66484000D01*
X124245175Y-66484000D01*
X123848229Y-66648421D01*
X123544421Y-66952229D01*
X123380000Y-67349175D01*
X117365000Y-67349175D01*
X117365000Y-66000000D01*
X139605512Y-66000000D01*
X139702527Y-66487725D01*
X139978801Y-66901199D01*
X140392275Y-67177473D01*
X140756891Y-67250000D01*
X141003109Y-67250000D01*
X141367725Y-67177473D01*
X141781199Y-66901199D01*
X142057473Y-66487725D01*
X142154488Y-66000000D01*
X142057473Y-65512275D01*
X141781199Y-65098801D01*
X141367725Y-64822527D01*
X141003109Y-64750000D01*
X140756891Y-64750000D01*
X140392275Y-64822527D01*
X139978801Y-65098801D01*
X139702527Y-65512275D01*
X139605512Y-66000000D01*
X117365000Y-66000000D01*
X117365000Y-60380000D01*
X136725512Y-60380000D01*
X136822527Y-60867725D01*
X137098801Y-61281199D01*
X137512275Y-61557473D01*
X137876891Y-61630000D01*
X138123109Y-61630000D01*
X138487725Y-61557473D01*
X138901199Y-61281199D01*
X139177473Y-60867725D01*
X139274488Y-60380000D01*
X139177473Y-59892275D01*
X138901199Y-59478801D01*
X138487725Y-59202527D01*
X138123109Y-59130000D01*
X137876891Y-59130000D01*
X137512275Y-59202527D01*
X137098801Y-59478801D01*
X136822527Y-59892275D01*
X136725512Y-60380000D01*
X117365000Y-60380000D01*
X117365000Y-57371577D01*
X125470000Y-57371577D01*
X125470000Y-57948423D01*
X125690750Y-58481359D01*
X126098641Y-58889250D01*
X126631577Y-59110000D01*
X127208423Y-59110000D01*
X127741359Y-58889250D01*
X128149250Y-58481359D01*
X128370000Y-57948423D01*
X128370000Y-57371577D01*
X128149250Y-56838641D01*
X128041609Y-56731000D01*
X137425184Y-56731000D01*
X137425184Y-58331000D01*
X137460109Y-58506581D01*
X137559568Y-58655432D01*
X137708419Y-58754891D01*
X137884000Y-58789816D01*
X139484000Y-58789816D01*
X139659581Y-58754891D01*
X139808432Y-58655432D01*
X139907891Y-58506581D01*
X139942816Y-58331000D01*
X139942816Y-56731000D01*
X139907891Y-56555419D01*
X139808432Y-56406568D01*
X139659581Y-56307109D01*
X139484000Y-56272184D01*
X138953924Y-56272184D01*
X139392068Y-56090699D01*
X139743699Y-55739068D01*
X139934000Y-55279640D01*
X139934000Y-54782360D01*
X139743699Y-54322932D01*
X139392068Y-53971301D01*
X138932640Y-53781000D01*
X138435360Y-53781000D01*
X137975932Y-53971301D01*
X137624301Y-54322932D01*
X137434000Y-54782360D01*
X137434000Y-55279640D01*
X137624301Y-55739068D01*
X137975932Y-56090699D01*
X138414076Y-56272184D01*
X137884000Y-56272184D01*
X137708419Y-56307109D01*
X137559568Y-56406568D01*
X137460109Y-56555419D01*
X137425184Y-56731000D01*
X128041609Y-56731000D01*
X127741359Y-56430750D01*
X127208423Y-56210000D01*
X126631577Y-56210000D01*
X126098641Y-56430750D01*
X125690750Y-56838641D01*
X125470000Y-57371577D01*
X117365000Y-57371577D01*
X117365000Y-52070000D01*
X136388626Y-52070000D01*
X136485641Y-52557725D01*
X136761915Y-52971199D01*
X137175389Y-53247473D01*
X137540005Y-53320000D01*
X137786223Y-53320000D01*
X138150839Y-53247473D01*
X138564313Y-52971199D01*
X138840587Y-52557725D01*
X138937602Y-52070000D01*
X138840587Y-51582275D01*
X138564313Y-51168801D01*
X138505160Y-51129276D01*
X141196060Y-51129276D01*
X141371641Y-51094351D01*
X141520492Y-50994892D01*
X141619951Y-50846041D01*
X141654876Y-50670460D01*
X141654876Y-50170080D01*
X141936124Y-50170080D01*
X141936124Y-53670200D01*
X141971049Y-53845781D01*
X142070508Y-53994632D01*
X142219359Y-54094091D01*
X142394940Y-54129016D01*
X143242351Y-54129016D01*
X143009850Y-54361517D01*
X142806000Y-54853656D01*
X142806000Y-55386344D01*
X143009850Y-55878483D01*
X143386517Y-56255150D01*
X143712075Y-56390000D01*
X143386517Y-56524850D01*
X143009850Y-56901517D01*
X142806000Y-57393656D01*
X142806000Y-57926344D01*
X143009850Y-58418483D01*
X143386517Y-58795150D01*
X143712075Y-58930000D01*
X143386517Y-59064850D01*
X143009850Y-59441517D01*
X142806000Y-59933656D01*
X142806000Y-60466344D01*
X143009850Y-60958483D01*
X143386517Y-61335150D01*
X143878656Y-61539000D01*
X144411344Y-61539000D01*
X144903483Y-61335150D01*
X145280150Y-60958483D01*
X145484000Y-60466344D01*
X145484000Y-59933656D01*
X145280150Y-59441517D01*
X144903483Y-59064850D01*
X144577925Y-58930000D01*
X144903483Y-58795150D01*
X145280150Y-58418483D01*
X145484000Y-57926344D01*
X145484000Y-57393656D01*
X145280150Y-56901517D01*
X144903483Y-56524850D01*
X144577925Y-56390000D01*
X144903483Y-56255150D01*
X145280150Y-55878483D01*
X145484000Y-55386344D01*
X145484000Y-54853656D01*
X145280150Y-54361517D01*
X145047649Y-54129016D01*
X145895060Y-54129016D01*
X146070641Y-54094091D01*
X146219492Y-53994632D01*
X146318951Y-53845781D01*
X146353876Y-53670200D01*
X146353876Y-50170080D01*
X146318951Y-49994499D01*
X146219492Y-49845648D01*
X146070641Y-49746189D01*
X145895060Y-49711264D01*
X142394940Y-49711264D01*
X142219359Y-49746189D01*
X142070508Y-49845648D01*
X141971049Y-49994499D01*
X141936124Y-50170080D01*
X141654876Y-50170080D01*
X141654876Y-47170340D01*
X141619951Y-46994759D01*
X141520492Y-46845908D01*
X141371641Y-46746449D01*
X141196060Y-46711524D01*
X137695940Y-46711524D01*
X137520359Y-46746449D01*
X137371508Y-46845908D01*
X137272049Y-46994759D01*
X137237124Y-47170340D01*
X137237124Y-50670460D01*
X137272049Y-50846041D01*
X137288126Y-50870102D01*
X137175389Y-50892527D01*
X136761915Y-51168801D01*
X136485641Y-51582275D01*
X136388626Y-52070000D01*
X117365000Y-52070000D01*
X117365000Y-50055000D01*
X124408294Y-50055000D01*
X124460000Y-50065285D01*
X124511706Y-50055000D01*
X124664845Y-50024539D01*
X124838504Y-49908504D01*
X124954539Y-49734845D01*
X124995285Y-49530000D01*
X124985000Y-49478294D01*
X124985000Y-48589497D01*
X129411605Y-48589497D01*
X129468236Y-48800844D01*
X129601435Y-48974433D01*
X130226620Y-49335384D01*
X130227844Y-49335056D01*
X130501051Y-49335056D01*
X130551380Y-49522884D01*
X131176565Y-49883835D01*
X131393497Y-49912394D01*
X131604845Y-49855765D01*
X131778433Y-49722565D01*
X131887835Y-49533075D01*
X132139384Y-49097380D01*
X132089056Y-48909551D01*
X131082301Y-48328301D01*
X130501051Y-49335056D01*
X130227844Y-49335056D01*
X130414449Y-49285056D01*
X130995699Y-48278301D01*
X130932303Y-48241699D01*
X131132301Y-48241699D01*
X132139056Y-48822949D01*
X132326884Y-48772620D01*
X132578433Y-48336925D01*
X132687835Y-48147435D01*
X132716395Y-47930503D01*
X132659764Y-47719156D01*
X132526565Y-47545567D01*
X131901380Y-47184616D01*
X131713551Y-47234944D01*
X131132301Y-48241699D01*
X130932303Y-48241699D01*
X129988944Y-47697051D01*
X129801116Y-47747380D01*
X129549567Y-48183075D01*
X129440165Y-48372565D01*
X129411605Y-48589497D01*
X124985000Y-48589497D01*
X124985000Y-44383500D01*
X126150000Y-44383500D01*
X126150000Y-45105402D01*
X126233733Y-45307550D01*
X126388450Y-45462268D01*
X126590598Y-45546000D01*
X127009938Y-45546000D01*
X126791932Y-45636301D01*
X126440301Y-45987932D01*
X126250000Y-46447360D01*
X126250000Y-46944640D01*
X126440301Y-47404068D01*
X126791932Y-47755699D01*
X127251360Y-47946000D01*
X127748640Y-47946000D01*
X128208068Y-47755699D01*
X128541147Y-47422620D01*
X129988616Y-47422620D01*
X130038944Y-47610449D01*
X131045699Y-48191699D01*
X131626949Y-47184944D01*
X131576620Y-46997116D01*
X130951435Y-46636165D01*
X130734503Y-46607606D01*
X130523155Y-46664235D01*
X130349567Y-46797435D01*
X130240165Y-46986925D01*
X129988616Y-47422620D01*
X128541147Y-47422620D01*
X128559699Y-47404068D01*
X128750000Y-46944640D01*
X128750000Y-46447360D01*
X128559699Y-45987932D01*
X128208068Y-45636301D01*
X127990062Y-45546000D01*
X128409402Y-45546000D01*
X128611550Y-45462268D01*
X128663107Y-45410710D01*
X130660000Y-45410710D01*
X130731929Y-45642224D01*
X131227504Y-45849206D01*
X131764565Y-45850783D01*
X132261349Y-45646716D01*
X132268071Y-45642224D01*
X132340000Y-45410710D01*
X131500000Y-44570711D01*
X130660000Y-45410710D01*
X128663107Y-45410710D01*
X128766267Y-45307550D01*
X128850000Y-45105402D01*
X128850000Y-44764565D01*
X130149217Y-44764565D01*
X130353284Y-45261349D01*
X130357776Y-45268071D01*
X130589290Y-45340000D01*
X131429289Y-44500000D01*
X131570711Y-44500000D01*
X132410710Y-45340000D01*
X132642224Y-45268071D01*
X132849206Y-44772496D01*
X132850006Y-44500000D01*
X137845512Y-44500000D01*
X137942527Y-44987725D01*
X138218801Y-45401199D01*
X138632275Y-45677473D01*
X138996891Y-45750000D01*
X139243109Y-45750000D01*
X139607725Y-45677473D01*
X140021199Y-45401199D01*
X140297473Y-44987725D01*
X140394488Y-44500000D01*
X140328966Y-44170600D01*
X141936124Y-44170600D01*
X141936124Y-47670720D01*
X141971049Y-47846301D01*
X142070508Y-47995152D01*
X142219359Y-48094611D01*
X142394940Y-48129536D01*
X145895060Y-48129536D01*
X146070641Y-48094611D01*
X146219492Y-47995152D01*
X146318951Y-47846301D01*
X146353876Y-47670720D01*
X146353876Y-47500000D01*
X153105512Y-47500000D01*
X153202527Y-47987725D01*
X153478801Y-48401199D01*
X153892275Y-48677473D01*
X154256891Y-48750000D01*
X154503109Y-48750000D01*
X154867725Y-48677473D01*
X155281199Y-48401199D01*
X155557473Y-47987725D01*
X155654488Y-47500000D01*
X155605031Y-47251360D01*
X160750000Y-47251360D01*
X160750000Y-47748640D01*
X160940301Y-48208068D01*
X161291932Y-48559699D01*
X161751360Y-48750000D01*
X162248640Y-48750000D01*
X162708068Y-48559699D01*
X163059699Y-48208068D01*
X163250000Y-47748640D01*
X163250000Y-47251360D01*
X163059699Y-46791932D01*
X162708068Y-46440301D01*
X162248640Y-46250000D01*
X161751360Y-46250000D01*
X161291932Y-46440301D01*
X160940301Y-46791932D01*
X160750000Y-47251360D01*
X155605031Y-47251360D01*
X155557473Y-47012275D01*
X155281199Y-46598801D01*
X154867725Y-46322527D01*
X154503109Y-46250000D01*
X154256891Y-46250000D01*
X153892275Y-46322527D01*
X153478801Y-46598801D01*
X153202527Y-47012275D01*
X153105512Y-47500000D01*
X146353876Y-47500000D01*
X146353876Y-44170600D01*
X146318951Y-43995019D01*
X146242098Y-43880000D01*
X150225512Y-43880000D01*
X150322527Y-44367725D01*
X150598801Y-44781199D01*
X151012275Y-45057473D01*
X151376891Y-45130000D01*
X151623109Y-45130000D01*
X151987725Y-45057473D01*
X152401199Y-44781199D01*
X152589089Y-44500000D01*
X153105512Y-44500000D01*
X153202527Y-44987725D01*
X153478801Y-45401199D01*
X153892275Y-45677473D01*
X154256891Y-45750000D01*
X154503109Y-45750000D01*
X154867725Y-45677473D01*
X155281199Y-45401199D01*
X155557473Y-44987725D01*
X155654488Y-44500000D01*
X155605031Y-44251360D01*
X160750000Y-44251360D01*
X160750000Y-44748640D01*
X160940301Y-45208068D01*
X161291932Y-45559699D01*
X161751360Y-45750000D01*
X162248640Y-45750000D01*
X162708068Y-45559699D01*
X163059699Y-45208068D01*
X163250000Y-44748640D01*
X163250000Y-44251360D01*
X163059699Y-43791932D01*
X162708068Y-43440301D01*
X162248640Y-43250000D01*
X161751360Y-43250000D01*
X161291932Y-43440301D01*
X160940301Y-43791932D01*
X160750000Y-44251360D01*
X155605031Y-44251360D01*
X155557473Y-44012275D01*
X155281199Y-43598801D01*
X154867725Y-43322527D01*
X154503109Y-43250000D01*
X154256891Y-43250000D01*
X153892275Y-43322527D01*
X153478801Y-43598801D01*
X153202527Y-44012275D01*
X153105512Y-44500000D01*
X152589089Y-44500000D01*
X152677473Y-44367725D01*
X152774488Y-43880000D01*
X152677473Y-43392275D01*
X152401199Y-42978801D01*
X151987725Y-42702527D01*
X151623109Y-42630000D01*
X151376891Y-42630000D01*
X151012275Y-42702527D01*
X150598801Y-42978801D01*
X150322527Y-43392275D01*
X150225512Y-43880000D01*
X146242098Y-43880000D01*
X146219492Y-43846168D01*
X146070641Y-43746709D01*
X145895060Y-43711784D01*
X142394940Y-43711784D01*
X142219359Y-43746709D01*
X142070508Y-43846168D01*
X141971049Y-43995019D01*
X141936124Y-44170600D01*
X140328966Y-44170600D01*
X140297473Y-44012275D01*
X140021199Y-43598801D01*
X139607725Y-43322527D01*
X139243109Y-43250000D01*
X138996891Y-43250000D01*
X138632275Y-43322527D01*
X138218801Y-43598801D01*
X137942527Y-44012275D01*
X137845512Y-44500000D01*
X132850006Y-44500000D01*
X132850783Y-44235435D01*
X132646716Y-43738651D01*
X132642224Y-43731929D01*
X132410710Y-43660000D01*
X131570711Y-44500000D01*
X131429289Y-44500000D01*
X130589290Y-43660000D01*
X130357776Y-43731929D01*
X130150794Y-44227504D01*
X130149217Y-44764565D01*
X128850000Y-44764565D01*
X128850000Y-44383500D01*
X128712500Y-44246000D01*
X127550000Y-44246000D01*
X127550000Y-44266000D01*
X127450000Y-44266000D01*
X127450000Y-44246000D01*
X126287500Y-44246000D01*
X126150000Y-44383500D01*
X124985000Y-44383500D01*
X124985000Y-43286598D01*
X126150000Y-43286598D01*
X126150000Y-44008500D01*
X126287500Y-44146000D01*
X127450000Y-44146000D01*
X127450000Y-42983500D01*
X127550000Y-42983500D01*
X127550000Y-44146000D01*
X128712500Y-44146000D01*
X128850000Y-44008500D01*
X128850000Y-43589290D01*
X130660000Y-43589290D01*
X131500000Y-44429289D01*
X132340000Y-43589290D01*
X132268071Y-43357776D01*
X131772496Y-43150794D01*
X131235435Y-43149217D01*
X130738651Y-43353284D01*
X130731929Y-43357776D01*
X130660000Y-43589290D01*
X128850000Y-43589290D01*
X128850000Y-43286598D01*
X128766267Y-43084450D01*
X128611550Y-42929732D01*
X128409402Y-42846000D01*
X127687500Y-42846000D01*
X127550000Y-42983500D01*
X127450000Y-42983500D01*
X127312500Y-42846000D01*
X126590598Y-42846000D01*
X126388450Y-42929732D01*
X126233733Y-43084450D01*
X126150000Y-43286598D01*
X124985000Y-43286598D01*
X124985000Y-42435000D01*
X163305000Y-42435000D01*
X163305001Y-49478289D01*
G04 #@! TD*
M02*
